%TF.GenerationSoftware,KiCad,Pcbnew,9.0.2*%
%TF.CreationDate,2025-11-14T19:25:59+05:30*%
%TF.ProjectId,Nade,4e616465-2e6b-4696-9361-645f70636258,rev?*%
%TF.SameCoordinates,Original*%
%TF.FileFunction,Copper,L4,Bot*%
%TF.FilePolarity,Positive*%
%FSLAX46Y46*%
G04 Gerber Fmt 4.6, Leading zero omitted, Abs format (unit mm)*
G04 Created by KiCad (PCBNEW 9.0.2) date 2025-11-14 19:25:59*
%MOMM*%
%LPD*%
G01*
G04 APERTURE LIST*
G04 Aperture macros list*
%AMRoundRect*
0 Rectangle with rounded corners*
0 $1 Rounding radius*
0 $2 $3 $4 $5 $6 $7 $8 $9 X,Y pos of 4 corners*
0 Add a 4 corners polygon primitive as box body*
4,1,4,$2,$3,$4,$5,$6,$7,$8,$9,$2,$3,0*
0 Add four circle primitives for the rounded corners*
1,1,$1+$1,$2,$3*
1,1,$1+$1,$4,$5*
1,1,$1+$1,$6,$7*
1,1,$1+$1,$8,$9*
0 Add four rect primitives between the rounded corners*
20,1,$1+$1,$2,$3,$4,$5,0*
20,1,$1+$1,$4,$5,$6,$7,0*
20,1,$1+$1,$6,$7,$8,$9,0*
20,1,$1+$1,$8,$9,$2,$3,0*%
%AMRotRect*
0 Rectangle, with rotation*
0 The origin of the aperture is its center*
0 $1 length*
0 $2 width*
0 $3 Rotation angle, in degrees counterclockwise*
0 Add horizontal line*
21,1,$1,$2,0,0,$3*%
G04 Aperture macros list end*
%TA.AperFunction,ComponentPad*%
%ADD10C,1.000000*%
%TD*%
%TA.AperFunction,ComponentPad*%
%ADD11R,1.000000X1.000000*%
%TD*%
%TA.AperFunction,SMDPad,CuDef*%
%ADD12C,1.500000*%
%TD*%
%TA.AperFunction,ComponentPad*%
%ADD13C,1.500000*%
%TD*%
%TA.AperFunction,ComponentPad*%
%ADD14R,1.371600X1.371600*%
%TD*%
%TA.AperFunction,ComponentPad*%
%ADD15C,1.371600*%
%TD*%
%TA.AperFunction,SMDPad,CuDef*%
%ADD16RoundRect,0.150000X0.150000X-0.587500X0.150000X0.587500X-0.150000X0.587500X-0.150000X-0.587500X0*%
%TD*%
%TA.AperFunction,SMDPad,CuDef*%
%ADD17RoundRect,0.150000X-0.150000X-0.625000X0.150000X-0.625000X0.150000X0.625000X-0.150000X0.625000X0*%
%TD*%
%TA.AperFunction,SMDPad,CuDef*%
%ADD18RoundRect,0.250000X-0.350000X-0.650000X0.350000X-0.650000X0.350000X0.650000X-0.350000X0.650000X0*%
%TD*%
%TA.AperFunction,SMDPad,CuDef*%
%ADD19R,2.400000X0.740000*%
%TD*%
%TA.AperFunction,SMDPad,CuDef*%
%ADD20RoundRect,0.100000X-0.130000X-0.100000X0.130000X-0.100000X0.130000X0.100000X-0.130000X0.100000X0*%
%TD*%
%TA.AperFunction,SMDPad,CuDef*%
%ADD21RoundRect,0.100000X0.130000X0.100000X-0.130000X0.100000X-0.130000X-0.100000X0.130000X-0.100000X0*%
%TD*%
%TA.AperFunction,SMDPad,CuDef*%
%ADD22RoundRect,0.150000X0.625000X-0.150000X0.625000X0.150000X-0.625000X0.150000X-0.625000X-0.150000X0*%
%TD*%
%TA.AperFunction,SMDPad,CuDef*%
%ADD23RoundRect,0.250000X0.650000X-0.350000X0.650000X0.350000X-0.650000X0.350000X-0.650000X-0.350000X0*%
%TD*%
%TA.AperFunction,SMDPad,CuDef*%
%ADD24R,0.650000X1.350000*%
%TD*%
%TA.AperFunction,ComponentPad*%
%ADD25RotRect,1.000000X1.000000X225.000000*%
%TD*%
%TA.AperFunction,SMDPad,CuDef*%
%ADD26R,0.482600X0.254000*%
%TD*%
%TA.AperFunction,SMDPad,CuDef*%
%ADD27R,0.254000X0.355600*%
%TD*%
%TA.AperFunction,SMDPad,CuDef*%
%ADD28R,0.740000X2.790000*%
%TD*%
%TA.AperFunction,ViaPad*%
%ADD29C,0.400000*%
%TD*%
%TA.AperFunction,Conductor*%
%ADD30C,0.100000*%
%TD*%
%TA.AperFunction,Conductor*%
%ADD31C,0.200000*%
%TD*%
G04 APERTURE END LIST*
D10*
%TO.P,Pyro,2,Pin_2*%
%TO.N,Net-(J6-Pin_2)*%
X142775000Y-101085000D03*
D11*
%TO.P,Pyro,1,Pin_1*%
%TO.N,GND*%
X142775000Y-99815000D03*
%TD*%
D12*
%TO.P,VDD,1,1*%
%TO.N,Net-(R10-Pad1)*%
X130575000Y-92225000D03*
%TD*%
%TO.P,TP1,1,1*%
%TO.N,Net-(SW2-A)*%
X134525000Y-88925000D03*
%TD*%
D13*
%TO.P,GND,1,1*%
%TO.N,GND*%
X140225000Y-109025000D03*
%TD*%
D14*
%TO.P,SW2,1,A*%
%TO.N,Net-(SW2-A)*%
X132544800Y-87719000D03*
D15*
%TO.P,SW2,2,B*%
%TO.N,Net-(J4-Pin_1)*%
X130004796Y-87718997D03*
%TO.P,SW2,3,C*%
%TO.N,unconnected-(SW2-C-Pad3)*%
X127464800Y-87719000D03*
%TD*%
D11*
%TO.P,J2,1,Pin_1*%
%TO.N,Net-(J2-Pin_1)*%
X119905000Y-94695000D03*
D10*
%TO.P,J2,2,Pin_2*%
%TO.N,Net-(J2-Pin_2)*%
X119905000Y-93424999D03*
%TO.P,J2,3,Pin_3*%
%TO.N,Net-(J2-Pin_3)*%
X119905001Y-92154997D03*
%TD*%
D16*
%TO.P,Q1,1,D*%
%TO.N,VDD*%
X123395000Y-109562500D03*
%TO.P,Q1,2,G*%
%TO.N,/PA10*%
X124344999Y-111437501D03*
%TO.P,Q1,3,S*%
%TO.N,Net-(J8-Pin_2)*%
X122445001Y-111437501D03*
%TD*%
D17*
%TO.P,J4,1,Pin_1*%
%TO.N,Net-(J4-Pin_1)*%
X124442603Y-90834797D03*
%TO.P,J4,2,Pin_2*%
%TO.N,GND*%
X125442598Y-90834793D03*
D18*
%TO.P,J4,MP*%
%TO.N,N/C*%
X123142600Y-93359799D03*
X126742599Y-93359800D03*
%TD*%
D19*
%TO.P,J3,1,Pin_1*%
%TO.N,Net-(J3-Pin_1)*%
X134770199Y-99080702D03*
%TO.P,J3,2,Pin_2*%
%TO.N,Net-(J3-Pin_2)*%
X138670202Y-99080700D03*
%TO.P,J3,3,Pin_3*%
%TO.N,Net-(J3-Pin_3)*%
X134770199Y-97810703D03*
%TO.P,J3,4,Pin_4*%
%TO.N,Net-(J3-Pin_4)*%
X138670203Y-97810700D03*
%TO.P,J3,5,Pin_5*%
%TO.N,Net-(J3-Pin_5)*%
X134770203Y-96540702D03*
%TO.P,J3,6,Pin_6*%
%TO.N,Net-(J3-Pin_6)*%
X138670202Y-96540700D03*
%TO.P,J3,7,Pin_7*%
%TO.N,Net-(J3-Pin_7)*%
X134770200Y-95270700D03*
%TO.P,J3,8,Pin_8*%
%TO.N,Net-(J3-Pin_8)*%
X138670200Y-95270700D03*
%TO.P,J3,9,Pin_9*%
%TO.N,Net-(J3-Pin_9)*%
X134770198Y-94000700D03*
%TO.P,J3,10,Pin_10*%
%TO.N,Net-(J3-Pin_10)*%
X138670197Y-94000698D03*
%TO.P,J3,11,Pin_11*%
%TO.N,Net-(J3-Pin_11)*%
X134770197Y-92730700D03*
%TO.P,J3,12,Pin_12*%
%TO.N,Net-(J3-Pin_12)*%
X138670201Y-92730697D03*
%TO.P,J3,13,Pin_13*%
%TO.N,Net-(J3-Pin_13)*%
X134770198Y-91460700D03*
%TO.P,J3,14,Pin_14*%
%TO.N,Net-(J3-Pin_14)*%
X138670201Y-91460698D03*
%TD*%
D20*
%TO.P,R13,1*%
%TO.N,/PA4*%
X128505000Y-95025000D03*
%TO.P,R13,2*%
%TO.N,VDD*%
X129145000Y-95025000D03*
%TD*%
%TO.P,R16,1*%
%TO.N,/PC0*%
X129016400Y-102375000D03*
%TO.P,R16,2*%
%TO.N,VDD*%
X129656400Y-102375000D03*
%TD*%
D21*
%TO.P,R17,1*%
%TO.N,/PC1*%
X131156400Y-102325000D03*
%TO.P,R17,2*%
%TO.N,VDD*%
X130516400Y-102325000D03*
%TD*%
D22*
%TO.P,J7,1,Pin_1*%
%TO.N,Net-(J7-Pin_1)*%
X140924997Y-105805001D03*
%TO.P,J7,2,Pin_2*%
%TO.N,Net-(J7-Pin_2)*%
X140925000Y-104805000D03*
%TO.P,J7,3,Pin_3*%
%TO.N,VDD*%
X140925000Y-103805000D03*
%TO.P,J7,4,Pin_4*%
%TO.N,GND*%
X140925000Y-102805000D03*
D23*
%TO.P,J7,MP*%
%TO.N,N/C*%
X137049999Y-107104999D03*
X137050002Y-101505002D03*
%TD*%
D24*
%TO.P,IC1,1,~{CS}*%
%TO.N,/PA4*%
X123185000Y-96175000D03*
%TO.P,IC1,2,SO*%
%TO.N,/PA6*%
X124455000Y-96175000D03*
%TO.P,IC1,3,~{WP}*%
%TO.N,unconnected-(IC1-~{WP}-Pad3)*%
X125725000Y-96175000D03*
%TO.P,IC1,4,VSS*%
%TO.N,GND*%
X126995000Y-96175000D03*
%TO.P,IC1,5,SI*%
%TO.N,/PA7*%
X126995000Y-101775000D03*
%TO.P,IC1,6,SCK*%
%TO.N,/PA1*%
X125725000Y-101775000D03*
%TO.P,IC1,7,NC*%
%TO.N,unconnected-(IC1-NC-Pad7)*%
X124455000Y-101775000D03*
%TO.P,IC1,8,VDD*%
%TO.N,VDD*%
X123185000Y-101775000D03*
%TD*%
D20*
%TO.P,R15,1*%
%TO.N,/PA7*%
X126405000Y-103225000D03*
%TO.P,R15,2*%
%TO.N,VDD*%
X127045000Y-103225000D03*
%TD*%
D25*
%TO.P,Buzz,1,Pin_1*%
%TO.N,GND*%
X119725000Y-107515000D03*
D10*
%TO.P,Buzz,2,Pin_2*%
%TO.N,Net-(J8-Pin_2)*%
X120623026Y-108413026D03*
%TD*%
D26*
%TO.P,U3,1,VDD_I/O*%
%TO.N,VDD*%
X131340100Y-98989599D03*
%TO.P,U3,2,NIC*%
%TO.N,unconnected-(U3-NIC-Pad2)*%
X131340100Y-99489601D03*
%TO.P,U3,3,RESERVED*%
%TO.N,unconnected-(U3-RESERVED-Pad3)*%
X131340100Y-99989600D03*
%TO.P,U3,4,SCLK*%
%TO.N,GND*%
X131340100Y-100489599D03*
%TO.P,U3,5,RESERVED*%
%TO.N,unconnected-(U3-RESERVED-Pad5)*%
X131340100Y-100989601D03*
D27*
%TO.P,U3,6,MOSI/SDA*%
%TO.N,/PC1*%
X130506599Y-101259600D03*
%TO.P,U3,7,MISO*%
%TO.N,VDD*%
X130006600Y-101259600D03*
%TO.P,U3,8,\u002ACS/SCL*%
%TO.N,/PC0*%
X129506601Y-101259600D03*
D26*
%TO.P,U3,9,INT2*%
%TO.N,unconnected-(U3-INT2-Pad9)*%
X128673100Y-100989601D03*
%TO.P,U3,10,RESERVED*%
%TO.N,unconnected-(U3-RESERVED-Pad10)*%
X128673100Y-100489599D03*
%TO.P,U3,11,INT1*%
%TO.N,unconnected-(U3-INT1-Pad11)*%
X128673100Y-99989600D03*
%TO.P,U3,12,GND*%
%TO.N,GND*%
X128673100Y-99489601D03*
%TO.P,U3,13,GND*%
X128673100Y-98989599D03*
D27*
%TO.P,U3,14,VS*%
%TO.N,VDD*%
X129506601Y-98719600D03*
%TO.P,U3,15,NIC*%
%TO.N,unconnected-(U3-NIC-Pad15)*%
X130006600Y-98719600D03*
%TO.P,U3,16,GND*%
%TO.N,GND*%
X130506599Y-98719600D03*
%TD*%
D20*
%TO.P,R14,1*%
%TO.N,/PA6*%
X130105000Y-95775000D03*
%TO.P,R14,2*%
%TO.N,VDD*%
X130745000Y-95775000D03*
%TD*%
D28*
%TO.P,J1,01,01*%
%TO.N,unconnected-(J1-Pad01)*%
X126275000Y-105620001D03*
%TO.P,J1,02,02*%
%TO.N,unconnected-(J1-Pad02)*%
X126274998Y-109690000D03*
%TO.P,J1,03,03*%
%TO.N,VDD*%
X127545002Y-105620002D03*
%TO.P,J1,04,04*%
%TO.N,/PA13*%
X127545001Y-109689998D03*
%TO.P,J1,05,05*%
%TO.N,GND*%
X128815002Y-105619998D03*
%TO.P,J1,06,06*%
%TO.N,/PA14*%
X128815002Y-109690002D03*
%TO.P,J1,07,07*%
%TO.N,GND*%
X130085000Y-105619998D03*
%TO.P,J1,08,08*%
%TO.N,/PB3*%
X130085000Y-109690002D03*
%TO.P,J1,09,09*%
%TO.N,unconnected-(J1-Pad09)*%
X131354998Y-105619998D03*
%TO.P,J1,10,10*%
%TO.N,/PA15*%
X131354998Y-109690002D03*
%TO.P,J1,11,11*%
%TO.N,GND*%
X132624999Y-105620002D03*
%TO.P,J1,12,12*%
%TO.N,RESET'*%
X132624998Y-109689998D03*
%TO.P,J1,13,13*%
%TO.N,/PA3*%
X133895002Y-105620000D03*
%TO.P,J1,14,14*%
%TO.N,/PA2*%
X133895000Y-109689999D03*
%TD*%
D29*
%TO.N,VDD*%
X142300000Y-103900000D03*
%TO.N,Net-(J7-Pin_2)*%
X138800000Y-106900000D03*
%TO.N,Net-(J7-Pin_1)*%
X138800000Y-108100000D03*
%TO.N,Net-(J3-Pin_6)*%
X124133900Y-107072100D03*
X136656900Y-106083500D03*
X136656900Y-96992300D03*
%TO.N,Net-(J3-Pin_3)*%
X132741800Y-100853000D03*
X123921700Y-104225900D03*
%TO.N,Net-(J3-Pin_11)*%
X127683100Y-93550200D03*
%TO.N,Net-(J3-Pin_8)*%
X130987500Y-96722400D03*
X128819400Y-112734600D03*
%TO.N,Net-(J3-Pin_7)*%
X129930500Y-97473700D03*
X127556900Y-112734600D03*
%TO.N,Net-(J3-Pin_5)*%
X125417800Y-98829700D03*
X123949500Y-106393400D03*
%TO.N,Net-(J3-Pin_13)*%
X136411400Y-92054600D03*
%TO.N,Net-(J3-Pin_4)*%
X121181600Y-102831300D03*
X136655300Y-98574500D03*
%TO.N,/PA10*%
X126800000Y-112500000D03*
%TO.N,/PA7*%
X126405000Y-102400000D03*
%TO.N,/PA13*%
X132800000Y-112600000D03*
%TO.N,/PA14*%
X133800000Y-112600000D03*
%TO.N,/PA15*%
X135100000Y-112550000D03*
%TO.N,/PB3*%
X134500000Y-112600000D03*
%TO.N,Net-(J3-Pin_12)*%
X128399700Y-92803800D03*
X137091000Y-92619500D03*
%TO.N,Net-(J3-Pin_2)*%
X125090000Y-102168700D03*
X136655300Y-99387000D03*
%TO.N,/PA2*%
X136600000Y-100200000D03*
%TO.N,Net-(J3-Pin_9)*%
X136660200Y-95259600D03*
X136500000Y-109500000D03*
%TO.N,Net-(J3-Pin_1)*%
X123973100Y-99913400D03*
X132287500Y-99624300D03*
%TO.N,Net-(J3-Pin_10)*%
X126968100Y-92000500D03*
X137121300Y-94759100D03*
%TO.N,Net-(J3-Pin_14)*%
X140975300Y-101325800D03*
X140766000Y-90935800D03*
%TO.N,/PA11*%
X123500000Y-111200000D03*
X124300000Y-93900000D03*
%TO.N,/PA3*%
X135200000Y-102200000D03*
%TO.N,/PA1*%
X125080000Y-96600000D03*
%TO.N,/PA4*%
X125600000Y-94600000D03*
%TO.N,/PC0*%
X134100000Y-102600000D03*
%TO.N,Net-(R10-Pad1)*%
X131800000Y-91400000D03*
%TO.N,Net-(SW2-A)*%
X134525000Y-88925000D03*
%TO.N,/PA6*%
X124100000Y-97200000D03*
%TO.N,/PC1*%
X133300000Y-102900000D03*
%TO.N,RESET'*%
X124200000Y-105300000D03*
%TO.N,VDD*%
X139875000Y-101075000D03*
X129900000Y-94200000D03*
X130100000Y-102900000D03*
X130900000Y-94200000D03*
X127600000Y-103800000D03*
X130400000Y-93700000D03*
X131800000Y-113800000D03*
X140200000Y-93200000D03*
X139800000Y-103800000D03*
X130900000Y-93700000D03*
X121300000Y-90300000D03*
X130400000Y-94200000D03*
X129900000Y-94700000D03*
X124000000Y-103100000D03*
X129500000Y-99300000D03*
X124191000Y-108898000D03*
X128400000Y-94200000D03*
X138600000Y-89500000D03*
X128900000Y-94200000D03*
X129900000Y-113900000D03*
X129400000Y-93700000D03*
X130000000Y-100700000D03*
X132100000Y-99000000D03*
X138900000Y-104600000D03*
X128900000Y-93700000D03*
X129900000Y-93700000D03*
X128400000Y-93700000D03*
X121700000Y-109600000D03*
X127700000Y-103200000D03*
X129400000Y-94200000D03*
%TO.N,GND*%
X130901000Y-94699500D03*
X117500000Y-105100000D03*
X143600000Y-99800000D03*
X135300000Y-103700000D03*
X125400000Y-97700000D03*
X125400000Y-106600000D03*
X126500000Y-90200000D03*
X127000000Y-97200000D03*
X121300000Y-96500000D03*
X128000000Y-99500000D03*
X135300000Y-100700000D03*
X135300000Y-109700000D03*
X120000000Y-105100000D03*
X130800000Y-100500000D03*
X125400000Y-103700000D03*
X130800000Y-112500000D03*
X131900000Y-94700000D03*
X125400000Y-92000000D03*
X133300000Y-94600000D03*
X135300000Y-106700000D03*
X139800000Y-102800000D03*
X142200000Y-93600000D03*
X142100000Y-97100000D03*
X138100000Y-89600000D03*
X137700000Y-88600000D03*
X121714000Y-107520000D03*
X128000000Y-99000000D03*
X132000000Y-97700000D03*
X128700000Y-97700000D03*
X132000000Y-108000000D03*
X136300000Y-92800000D03*
X139600000Y-106000000D03*
X125400000Y-100600000D03*
X125400000Y-109700000D03*
X131400000Y-90400000D03*
X122200000Y-101200000D03*
X123587000Y-89140700D03*
X130097000Y-103719000D03*
X126500000Y-90800000D03*
X130500000Y-99300000D03*
X132600000Y-92000000D03*
X132600000Y-103700000D03*
X128764900Y-107950000D03*
X118900000Y-106700000D03*
X136500000Y-94700000D03*
X128800000Y-103700000D03*
X143700000Y-103300000D03*
%TD*%
D30*
%TO.N,RESET'*%
X132624998Y-108128609D02*
X132624998Y-109689998D01*
X125804000Y-107500000D02*
X131996389Y-107500000D01*
X131996389Y-107500000D02*
X132624998Y-108128609D01*
X124200000Y-105896000D02*
X124200000Y-105300000D01*
X125804000Y-107500000D02*
X124200000Y-105896000D01*
D31*
%TO.N,Net-(J7-Pin_2)*%
X140420000Y-104600000D02*
X140425000Y-104605000D01*
D30*
X140425000Y-104692500D02*
X140425000Y-104605000D01*
X140537500Y-104805000D02*
X140425000Y-104692500D01*
X140925000Y-104805000D02*
X140537500Y-104805000D01*
X138800000Y-106155000D02*
X138800000Y-106900000D01*
X140150000Y-104805000D02*
X138800000Y-106155000D01*
X140537500Y-104805000D02*
X140150000Y-104805000D01*
%TO.N,Net-(J7-Pin_1)*%
X138800000Y-107930000D02*
X138800000Y-108100000D01*
X140925000Y-105805000D02*
X138800000Y-107930000D01*
%TO.N,Net-(J3-Pin_6)*%
X136866900Y-96992300D02*
X137318500Y-96540700D01*
X136656900Y-96992300D02*
X136866900Y-96992300D01*
X138670200Y-96540700D02*
X137318500Y-96540700D01*
%TO.N,Net-(J3-Pin_3)*%
X133250800Y-100344000D02*
X132741800Y-100853000D01*
X135350200Y-100344000D02*
X133250800Y-100344000D01*
X136121900Y-99572300D02*
X135350200Y-100344000D01*
X136121900Y-97810700D02*
X136121900Y-99572300D01*
X134770200Y-97810700D02*
X136121900Y-97810700D01*
%TO.N,Net-(J3-Pin_11)*%
X134770200Y-92730700D02*
X133418500Y-92730700D01*
X132896800Y-93252400D02*
X133418500Y-92730700D01*
X127980900Y-93252400D02*
X132896800Y-93252400D01*
X127683100Y-93550200D02*
X127980900Y-93252400D01*
%TO.N,Net-(J3-Pin_8)*%
X131917500Y-95792400D02*
X130987500Y-96722400D01*
X136796800Y-95792400D02*
X131917500Y-95792400D01*
X137318500Y-95270700D02*
X136796800Y-95792400D01*
X138670200Y-95270700D02*
X137318500Y-95270700D01*
%TO.N,Net-(J3-Pin_7)*%
X129930500Y-97258400D02*
X129930500Y-97473700D01*
X131918200Y-95270700D02*
X129930500Y-97258400D01*
X134770200Y-95270700D02*
X131918200Y-95270700D01*
%TO.N,Net-(J3-Pin_5)*%
X126195800Y-98051700D02*
X125417800Y-98829700D01*
X130664300Y-98051700D02*
X126195800Y-98051700D01*
X132175300Y-96540700D02*
X130664300Y-98051700D01*
X134770200Y-96540700D02*
X132175300Y-96540700D01*
%TO.N,Net-(J3-Pin_13)*%
X134770200Y-91465200D02*
X134770200Y-91460700D01*
X134770000Y-91465400D02*
X134770200Y-91465200D01*
X134770000Y-91460700D02*
X134770000Y-91465400D01*
X134770000Y-91470200D02*
X134800000Y-91500000D01*
X134770000Y-91465400D02*
X134770000Y-91470200D01*
X135354600Y-92054600D02*
X136411400Y-92054600D01*
X134800000Y-91500000D02*
X135354600Y-92054600D01*
%TO.N,Net-(J3-Pin_4)*%
X138670200Y-97810700D02*
X137318500Y-97810700D01*
X137318500Y-97911300D02*
X136655300Y-98574500D01*
X137318500Y-97810700D02*
X137318500Y-97911300D01*
%TO.N,/PA10*%
X125407000Y-112500000D02*
X126800000Y-112500000D01*
X124345000Y-111438000D02*
X125407000Y-112500000D01*
X124345000Y-111438000D02*
X124345000Y-111437500D01*
%TO.N,Net-(J8-Pin_2)*%
X121651500Y-110644000D02*
X122445000Y-111437500D01*
X121651000Y-110644000D02*
X121651500Y-110644000D01*
X122445000Y-111438000D02*
X121651000Y-110644000D01*
X120623000Y-109616000D02*
X120623000Y-108413000D01*
X121651000Y-110644000D02*
X120623000Y-109616000D01*
%TO.N,/PA7*%
X126405000Y-103225000D02*
X126405000Y-102400000D01*
X126405000Y-102365000D02*
X126995000Y-101775000D01*
X126405000Y-102400000D02*
X126405000Y-102365000D01*
%TO.N,/PA13*%
X132349000Y-112149000D02*
X132800000Y-112600000D01*
X128979000Y-112149000D02*
X132349000Y-112149000D01*
X127545000Y-110715000D02*
X128979000Y-112149000D01*
X127545000Y-109690000D02*
X127545000Y-110715000D01*
%TO.N,/PA14*%
X133148000Y-111948000D02*
X133800000Y-112600000D01*
X130048000Y-111948000D02*
X133148000Y-111948000D01*
X128815000Y-110715000D02*
X130048000Y-111948000D01*
X128815000Y-109690000D02*
X128815000Y-110715000D01*
%TO.N,/PA15*%
X134096000Y-111546000D02*
X135100000Y-112550000D01*
X132186000Y-111546000D02*
X134096000Y-111546000D01*
X131355000Y-110715000D02*
X132186000Y-111546000D01*
X131355000Y-109690000D02*
X131355000Y-110715000D01*
%TO.N,/PB3*%
X130085000Y-110487000D02*
X130085000Y-109690000D01*
X131345000Y-111747000D02*
X130085000Y-110487000D01*
X133647000Y-111747000D02*
X131345000Y-111747000D01*
X134500000Y-112600000D02*
X133647000Y-111747000D01*
%TO.N,Net-(J3-Pin_12)*%
X137207300Y-92619500D02*
X137318500Y-92730700D01*
X137091000Y-92619500D02*
X137207300Y-92619500D01*
X138670200Y-92730700D02*
X137318500Y-92730700D01*
%TO.N,Net-(J3-Pin_2)*%
X138670200Y-99080700D02*
X137318500Y-99080700D01*
X137012200Y-99387000D02*
X136655300Y-99387000D01*
X137318500Y-99080700D02*
X137012200Y-99387000D01*
%TO.N,/PA2*%
X135800000Y-101000000D02*
X136600000Y-100200000D01*
X135800000Y-107785000D02*
X135800000Y-101000000D01*
X133895000Y-109690000D02*
X135800000Y-107785000D01*
%TO.N,Net-(J3-Pin_9)*%
X136544000Y-95259600D02*
X136660200Y-95259600D01*
X136121900Y-94837500D02*
X136544000Y-95259600D01*
X136121900Y-94000700D02*
X136121900Y-94837500D01*
X134770200Y-94000700D02*
X136121900Y-94000700D01*
%TO.N,Net-(J3-Pin_1)*%
X132831100Y-99080700D02*
X134770200Y-99080700D01*
X132287500Y-99624300D02*
X132831100Y-99080700D01*
%TO.N,Net-(J3-Pin_10)*%
X137318500Y-94561900D02*
X137318500Y-94000700D01*
X137121300Y-94759100D02*
X137318500Y-94561900D01*
X138670200Y-94000700D02*
X137318500Y-94000700D01*
%TO.N,Net-(J3-Pin_14)*%
X140546800Y-90935800D02*
X140021900Y-91460700D01*
X140766000Y-90935800D02*
X140546800Y-90935800D01*
X138670200Y-91460700D02*
X140021900Y-91460700D01*
D31*
%TO.N,/PA11*%
X122659000Y-110359000D02*
X123500000Y-111200000D01*
X122659000Y-95299000D02*
X122659000Y-110359000D01*
X122901000Y-95299000D02*
X122659000Y-95299000D01*
X124300000Y-93900000D02*
X122901000Y-95299000D01*
D30*
%TO.N,/PA3*%
X133895000Y-103505000D02*
X135200000Y-102200000D01*
X133895000Y-105620000D02*
X133895000Y-103505000D01*
%TO.N,/PA1*%
X125000000Y-101050000D02*
X125725000Y-101775000D01*
X125000000Y-96680000D02*
X125000000Y-101050000D01*
X125080000Y-96600000D02*
X125000000Y-96680000D01*
%TO.N,/PA4*%
X128505000Y-95025000D02*
X125000000Y-95025000D01*
X125425000Y-94600000D02*
X125000000Y-95025000D01*
X125600000Y-94600000D02*
X125425000Y-94600000D01*
X124335000Y-95025000D02*
X123185000Y-96175000D01*
X125000000Y-95025000D02*
X124335000Y-95025000D01*
%TO.N,/PC0*%
X129506600Y-101259600D02*
X129507000Y-101260000D01*
X129016400Y-102375400D02*
X129016400Y-102375000D01*
X129196000Y-102555000D02*
X129016400Y-102375400D01*
X129016000Y-102375000D02*
X129196000Y-102555000D01*
X129016000Y-101750000D02*
X129016000Y-102375000D01*
X129507000Y-101260000D02*
X129016000Y-101750000D01*
X133449000Y-103251000D02*
X134100000Y-102600000D01*
X129892000Y-103251000D02*
X133449000Y-103251000D01*
X129196000Y-102555000D02*
X129892000Y-103251000D01*
D31*
%TO.N,Net-(R10-Pad1)*%
X131400000Y-91400000D02*
X130575000Y-92225000D01*
X131800000Y-91400000D02*
X131400000Y-91400000D01*
%TO.N,Net-(J4-Pin_1)*%
X130004800Y-87719000D02*
X130004900Y-87719100D01*
X130004900Y-87719100D02*
X130005000Y-87719000D01*
X124442600Y-90447700D02*
X124442600Y-90834800D01*
X124443000Y-90447300D02*
X124442600Y-90447700D01*
X124443000Y-90834800D02*
X124443000Y-90447300D01*
X129118000Y-88605800D02*
X130004900Y-87719100D01*
X125897000Y-88605800D02*
X129118000Y-88605800D01*
X124443000Y-90059800D02*
X125897000Y-88605800D01*
X124443000Y-90447300D02*
X124443000Y-90059800D01*
D30*
%TO.N,/PA6*%
X124455000Y-96845000D02*
X124455000Y-96175000D01*
X124100000Y-97200000D02*
X124455000Y-96845000D01*
X125281000Y-95349000D02*
X124455000Y-96175000D01*
X127979000Y-95349000D02*
X125281000Y-95349000D01*
X128405000Y-95775000D02*
X127979000Y-95349000D01*
X130105000Y-95775000D02*
X128405000Y-95775000D01*
%TO.N,/PC1*%
X131156400Y-102325000D02*
X131156200Y-102324800D01*
X131281000Y-102200000D02*
X131156200Y-102324800D01*
X132600000Y-102200000D02*
X131281000Y-102200000D01*
X133300000Y-102900000D02*
X132600000Y-102200000D01*
X131156000Y-101909000D02*
X130507000Y-101260000D01*
X131156000Y-102325000D02*
X131156000Y-101909000D01*
X131156200Y-102324800D02*
X131156000Y-102325000D01*
X130506600Y-101259600D02*
X130507000Y-101260000D01*
D31*
%TO.N,VDD*%
X123185000Y-102285000D02*
X123185000Y-101775000D01*
X124000000Y-103100000D02*
X123185000Y-102285000D01*
X127070000Y-103200000D02*
X127045000Y-103225000D01*
X127700000Y-103200000D02*
X127070000Y-103200000D01*
X130745000Y-95545000D02*
X130745000Y-95775000D01*
X129900000Y-94700000D02*
X130745000Y-95545000D01*
X139800000Y-103800000D02*
X140920000Y-103800000D01*
X127600000Y-105565000D02*
X127545000Y-105620000D01*
X127600000Y-103800000D02*
X127600000Y-105565000D01*
X129470000Y-94700000D02*
X129145000Y-95025000D01*
X129900000Y-94700000D02*
X129470000Y-94700000D01*
X130308400Y-102533000D02*
X130516400Y-102325000D01*
X130308000Y-102533000D02*
X130308400Y-102533000D01*
X130308000Y-102533000D02*
X130516000Y-102325000D01*
X123395500Y-109562000D02*
X123395000Y-109562500D01*
X123460500Y-109562000D02*
X123395500Y-109562000D01*
X123395000Y-109562000D02*
X123460500Y-109562000D01*
X123526000Y-109562000D02*
X124191000Y-108898000D01*
X123460500Y-109562000D02*
X123526000Y-109562000D01*
X129656400Y-102375400D02*
X129656400Y-102375000D01*
X129878000Y-102597000D02*
X129656400Y-102375400D01*
X129878000Y-102597000D02*
X129656000Y-102375000D01*
X140920000Y-103800000D02*
X140925000Y-103805000D01*
X129506600Y-98719800D02*
X129506600Y-98719600D01*
X129503500Y-98722900D02*
X129506600Y-98719800D01*
X129500000Y-98726200D02*
X129503500Y-98722900D01*
X129500000Y-99300000D02*
X129500000Y-98726200D01*
X129503500Y-98722900D02*
X129507000Y-98719600D01*
X131345300Y-98994800D02*
X131340100Y-98989600D01*
X131345500Y-98994800D02*
X131345300Y-98994800D01*
X131351000Y-99000000D02*
X131345500Y-98994800D01*
X132100000Y-99000000D02*
X131351000Y-99000000D01*
X131345500Y-98994800D02*
X131340000Y-98989600D01*
X130100000Y-102900000D02*
X130100000Y-102819000D01*
X130100000Y-102741000D02*
X130308000Y-102533000D01*
X130100000Y-102819000D02*
X130100000Y-102741000D01*
X130100000Y-102900000D02*
X130100000Y-102819000D01*
X130100000Y-102819000D02*
X129878000Y-102597000D01*
X130000000Y-101253000D02*
X130006600Y-101259600D01*
X130000000Y-100700000D02*
X130000000Y-101253000D01*
X130006600Y-101259600D02*
X130007000Y-101260000D01*
D30*
%TO.N,GND*%
X130085000Y-103730000D02*
X130085000Y-105620000D01*
X130097000Y-103719000D02*
X130085000Y-103730000D01*
X132625000Y-103725000D02*
X132625000Y-105620000D01*
X132600000Y-103700000D02*
X132625000Y-103725000D01*
X128815000Y-103715000D02*
X128815000Y-105620000D01*
X128800000Y-103700000D02*
X128815000Y-103715000D01*
X139805000Y-102805000D02*
X140925000Y-102805000D01*
X126995000Y-97095000D02*
X126995000Y-96175000D01*
X127000000Y-97100000D02*
X126995000Y-97095000D01*
X127000000Y-97200000D02*
X127000000Y-97100000D01*
X139800000Y-102800000D02*
X139805000Y-102805000D01*
X128673100Y-98989700D02*
X128673100Y-98989600D01*
X128668000Y-98994800D02*
X128673100Y-98989700D01*
X128663000Y-99000000D02*
X128668000Y-98994800D01*
X128000000Y-99000000D02*
X128663000Y-99000000D01*
X128668000Y-98994800D02*
X128673000Y-98989600D01*
X125442600Y-91345700D02*
X125442600Y-90834800D01*
X125443000Y-91346100D02*
X125442600Y-91345700D01*
X125443000Y-91857400D02*
X125443000Y-91346100D01*
X125400000Y-91900000D02*
X125443000Y-91857400D01*
X125400000Y-92000000D02*
X125400000Y-91900000D01*
X125443000Y-91346100D02*
X125443000Y-90834800D01*
X128673100Y-99489700D02*
X128673100Y-99489600D01*
X128668000Y-99494800D02*
X128673100Y-99489700D01*
X128663000Y-99500000D02*
X128668000Y-99494800D01*
X128000000Y-99500000D02*
X128663000Y-99500000D01*
X128668000Y-99494800D02*
X128673000Y-99489600D01*
X131330000Y-100500000D02*
X131340000Y-100490000D01*
X130800000Y-100500000D02*
X131330000Y-100500000D01*
X131340100Y-100489900D02*
X131340100Y-100489600D01*
X131340000Y-100490000D02*
X131340100Y-100489900D01*
X130506600Y-98719800D02*
X130506600Y-98719600D01*
X130503500Y-98722900D02*
X130506600Y-98719800D01*
X130500000Y-98726200D02*
X130503500Y-98722900D01*
X130500000Y-99300000D02*
X130500000Y-98726200D01*
X130503500Y-98722900D02*
X130507000Y-98719600D01*
%TD*%
M02*
