%TF.GenerationSoftware,KiCad,Pcbnew,9.0.2*%
%TF.CreationDate,2025-11-14T19:25:59+05:30*%
%TF.ProjectId,Nade,4e616465-2e6b-4696-9361-645f70636258,rev?*%
%TF.SameCoordinates,Original*%
%TF.FileFunction,Legend,Bot*%
%TF.FilePolarity,Positive*%
%FSLAX46Y46*%
G04 Gerber Fmt 4.6, Leading zero omitted, Abs format (unit mm)*
G04 Created by KiCad (PCBNEW 9.0.2) date 2025-11-14 19:25:59*
%MOMM*%
%LPD*%
G01*
G04 APERTURE LIST*
%ADD10C,0.100000*%
%ADD11C,0.150000*%
%ADD12C,0.254000*%
%ADD13C,0.120000*%
%ADD14C,0.200000*%
%ADD15C,0.152400*%
%ADD16C,0.000000*%
G04 APERTURE END LIST*
D10*
X139296115Y-102791466D02*
X138534211Y-102791466D01*
X139296115Y-103791466D02*
X138534211Y-103791466D01*
X138915163Y-104172419D02*
X138915163Y-103410514D01*
X125191353Y-109172419D02*
X124667544Y-108505752D01*
X125191353Y-108505752D02*
X124667544Y-109172419D01*
X125191353Y-105272419D02*
X124667544Y-104605752D01*
X125191353Y-104605752D02*
X124667544Y-105272419D01*
X125996115Y-89391466D02*
X125234211Y-89391466D01*
X124696115Y-89091466D02*
X123934211Y-89091466D01*
X124315163Y-89472419D02*
X124315163Y-88710514D01*
X140267625Y-98854327D02*
X140267625Y-99520993D01*
X140267625Y-99520993D02*
X141267625Y-99092422D01*
X133667625Y-95173372D02*
X133667625Y-94601944D01*
X133667625Y-94887658D02*
X132667625Y-94887658D01*
X132667625Y-94887658D02*
X132810482Y-94792420D01*
X132810482Y-94792420D02*
X132905720Y-94697182D01*
X132905720Y-94697182D02*
X132953339Y-94601944D01*
X133096196Y-95744801D02*
X133048577Y-95649563D01*
X133048577Y-95649563D02*
X133000958Y-95601944D01*
X133000958Y-95601944D02*
X132905720Y-95554325D01*
X132905720Y-95554325D02*
X132858101Y-95554325D01*
X132858101Y-95554325D02*
X132762863Y-95601944D01*
X132762863Y-95601944D02*
X132715244Y-95649563D01*
X132715244Y-95649563D02*
X132667625Y-95744801D01*
X132667625Y-95744801D02*
X132667625Y-95935277D01*
X132667625Y-95935277D02*
X132715244Y-96030515D01*
X132715244Y-96030515D02*
X132762863Y-96078134D01*
X132762863Y-96078134D02*
X132858101Y-96125753D01*
X132858101Y-96125753D02*
X132905720Y-96125753D01*
X132905720Y-96125753D02*
X133000958Y-96078134D01*
X133000958Y-96078134D02*
X133048577Y-96030515D01*
X133048577Y-96030515D02*
X133096196Y-95935277D01*
X133096196Y-95935277D02*
X133096196Y-95744801D01*
X133096196Y-95744801D02*
X133143815Y-95649563D01*
X133143815Y-95649563D02*
X133191434Y-95601944D01*
X133191434Y-95601944D02*
X133286672Y-95554325D01*
X133286672Y-95554325D02*
X133477148Y-95554325D01*
X133477148Y-95554325D02*
X133572386Y-95601944D01*
X133572386Y-95601944D02*
X133620006Y-95649563D01*
X133620006Y-95649563D02*
X133667625Y-95744801D01*
X133667625Y-95744801D02*
X133667625Y-95935277D01*
X133667625Y-95935277D02*
X133620006Y-96030515D01*
X133620006Y-96030515D02*
X133572386Y-96078134D01*
X133572386Y-96078134D02*
X133477148Y-96125753D01*
X133477148Y-96125753D02*
X133286672Y-96125753D01*
X133286672Y-96125753D02*
X133191434Y-96078134D01*
X133191434Y-96078134D02*
X133143815Y-96030515D01*
X133143815Y-96030515D02*
X133096196Y-95935277D01*
X142467626Y-96473372D02*
X142467626Y-95901944D01*
X142467626Y-96187658D02*
X141467626Y-96187658D01*
X141467626Y-96187658D02*
X141610483Y-96092420D01*
X141610483Y-96092420D02*
X141705721Y-95997182D01*
X141705721Y-95997182D02*
X141753340Y-95901944D01*
X142467626Y-97425753D02*
X142467626Y-96854325D01*
X142467626Y-97140039D02*
X141467626Y-97140039D01*
X141467626Y-97140039D02*
X141610483Y-97044801D01*
X141610483Y-97044801D02*
X141705721Y-96949563D01*
X141705721Y-96949563D02*
X141753340Y-96854325D01*
X132100960Y-91378135D02*
X132767627Y-91378135D01*
X131720008Y-91140040D02*
X132434293Y-90901945D01*
X132434293Y-90901945D02*
X132434293Y-91520992D01*
X131767627Y-92092421D02*
X131767627Y-92187659D01*
X131767627Y-92187659D02*
X131815246Y-92282897D01*
X131815246Y-92282897D02*
X131862865Y-92330516D01*
X131862865Y-92330516D02*
X131958103Y-92378135D01*
X131958103Y-92378135D02*
X132148579Y-92425754D01*
X132148579Y-92425754D02*
X132386674Y-92425754D01*
X132386674Y-92425754D02*
X132577150Y-92378135D01*
X132577150Y-92378135D02*
X132672388Y-92330516D01*
X132672388Y-92330516D02*
X132720008Y-92282897D01*
X132720008Y-92282897D02*
X132767627Y-92187659D01*
X132767627Y-92187659D02*
X132767627Y-92092421D01*
X132767627Y-92092421D02*
X132720008Y-91997183D01*
X132720008Y-91997183D02*
X132672388Y-91949564D01*
X132672388Y-91949564D02*
X132577150Y-91901945D01*
X132577150Y-91901945D02*
X132386674Y-91854326D01*
X132386674Y-91854326D02*
X132148579Y-91854326D01*
X132148579Y-91854326D02*
X131958103Y-91901945D01*
X131958103Y-91901945D02*
X131862865Y-91949564D01*
X131862865Y-91949564D02*
X131815246Y-91997183D01*
X131815246Y-91997183D02*
X131767627Y-92092421D01*
X141267626Y-95273372D02*
X141267626Y-94701944D01*
X141267626Y-94987658D02*
X140267626Y-94987658D01*
X140267626Y-94987658D02*
X140410483Y-94892420D01*
X140410483Y-94892420D02*
X140505721Y-94797182D01*
X140505721Y-94797182D02*
X140553340Y-94701944D01*
X141267626Y-95749563D02*
X141267626Y-95940039D01*
X141267626Y-95940039D02*
X141220007Y-96035277D01*
X141220007Y-96035277D02*
X141172387Y-96082896D01*
X141172387Y-96082896D02*
X141029530Y-96178134D01*
X141029530Y-96178134D02*
X140839054Y-96225753D01*
X140839054Y-96225753D02*
X140458102Y-96225753D01*
X140458102Y-96225753D02*
X140362864Y-96178134D01*
X140362864Y-96178134D02*
X140315245Y-96130515D01*
X140315245Y-96130515D02*
X140267626Y-96035277D01*
X140267626Y-96035277D02*
X140267626Y-95844801D01*
X140267626Y-95844801D02*
X140315245Y-95749563D01*
X140315245Y-95749563D02*
X140362864Y-95701944D01*
X140362864Y-95701944D02*
X140458102Y-95654325D01*
X140458102Y-95654325D02*
X140696197Y-95654325D01*
X140696197Y-95654325D02*
X140791435Y-95701944D01*
X140791435Y-95701944D02*
X140839054Y-95749563D01*
X140839054Y-95749563D02*
X140886673Y-95844801D01*
X140886673Y-95844801D02*
X140886673Y-96035277D01*
X140886673Y-96035277D02*
X140839054Y-96130515D01*
X140839054Y-96130515D02*
X140791435Y-96178134D01*
X140791435Y-96178134D02*
X140696197Y-96225753D01*
X132567626Y-99378135D02*
X132567626Y-99187659D01*
X132567626Y-99187659D02*
X132615245Y-99092421D01*
X132615245Y-99092421D02*
X132662864Y-99044802D01*
X132662864Y-99044802D02*
X132805721Y-98949564D01*
X132805721Y-98949564D02*
X132996197Y-98901945D01*
X132996197Y-98901945D02*
X133377149Y-98901945D01*
X133377149Y-98901945D02*
X133472387Y-98949564D01*
X133472387Y-98949564D02*
X133520007Y-98997183D01*
X133520007Y-98997183D02*
X133567626Y-99092421D01*
X133567626Y-99092421D02*
X133567626Y-99282897D01*
X133567626Y-99282897D02*
X133520007Y-99378135D01*
X133520007Y-99378135D02*
X133472387Y-99425754D01*
X133472387Y-99425754D02*
X133377149Y-99473373D01*
X133377149Y-99473373D02*
X133139054Y-99473373D01*
X133139054Y-99473373D02*
X133043816Y-99425754D01*
X133043816Y-99425754D02*
X132996197Y-99378135D01*
X132996197Y-99378135D02*
X132948578Y-99282897D01*
X132948578Y-99282897D02*
X132948578Y-99092421D01*
X132948578Y-99092421D02*
X132996197Y-98997183D01*
X132996197Y-98997183D02*
X133043816Y-98949564D01*
X133043816Y-98949564D02*
X133139054Y-98901945D01*
X140500958Y-92478135D02*
X141167625Y-92478135D01*
X140120006Y-92240040D02*
X140834291Y-92001945D01*
X140834291Y-92001945D02*
X140834291Y-92620992D01*
X140596196Y-93144802D02*
X140548577Y-93049564D01*
X140548577Y-93049564D02*
X140500958Y-93001945D01*
X140500958Y-93001945D02*
X140405720Y-92954326D01*
X140405720Y-92954326D02*
X140358101Y-92954326D01*
X140358101Y-92954326D02*
X140262863Y-93001945D01*
X140262863Y-93001945D02*
X140215244Y-93049564D01*
X140215244Y-93049564D02*
X140167625Y-93144802D01*
X140167625Y-93144802D02*
X140167625Y-93335278D01*
X140167625Y-93335278D02*
X140215244Y-93430516D01*
X140215244Y-93430516D02*
X140262863Y-93478135D01*
X140262863Y-93478135D02*
X140358101Y-93525754D01*
X140358101Y-93525754D02*
X140405720Y-93525754D01*
X140405720Y-93525754D02*
X140500958Y-93478135D01*
X140500958Y-93478135D02*
X140548577Y-93430516D01*
X140548577Y-93430516D02*
X140596196Y-93335278D01*
X140596196Y-93335278D02*
X140596196Y-93144802D01*
X140596196Y-93144802D02*
X140643815Y-93049564D01*
X140643815Y-93049564D02*
X140691434Y-93001945D01*
X140691434Y-93001945D02*
X140786672Y-92954326D01*
X140786672Y-92954326D02*
X140977148Y-92954326D01*
X140977148Y-92954326D02*
X141072386Y-93001945D01*
X141072386Y-93001945D02*
X141120006Y-93049564D01*
X141120006Y-93049564D02*
X141167625Y-93144802D01*
X141167625Y-93144802D02*
X141167625Y-93335278D01*
X141167625Y-93335278D02*
X141120006Y-93430516D01*
X141120006Y-93430516D02*
X141072386Y-93478135D01*
X141072386Y-93478135D02*
X140977148Y-93525754D01*
X140977148Y-93525754D02*
X140786672Y-93525754D01*
X140786672Y-93525754D02*
X140691434Y-93478135D01*
X140691434Y-93478135D02*
X140643815Y-93430516D01*
X140643815Y-93430516D02*
X140596196Y-93335278D01*
X133000960Y-92478135D02*
X133667627Y-92478135D01*
X132620008Y-92240040D02*
X133334293Y-92001945D01*
X133334293Y-92001945D02*
X133334293Y-92620992D01*
X133667627Y-93049564D02*
X133667627Y-93240040D01*
X133667627Y-93240040D02*
X133620008Y-93335278D01*
X133620008Y-93335278D02*
X133572388Y-93382897D01*
X133572388Y-93382897D02*
X133429531Y-93478135D01*
X133429531Y-93478135D02*
X133239055Y-93525754D01*
X133239055Y-93525754D02*
X132858103Y-93525754D01*
X132858103Y-93525754D02*
X132762865Y-93478135D01*
X132762865Y-93478135D02*
X132715246Y-93430516D01*
X132715246Y-93430516D02*
X132667627Y-93335278D01*
X132667627Y-93335278D02*
X132667627Y-93144802D01*
X132667627Y-93144802D02*
X132715246Y-93049564D01*
X132715246Y-93049564D02*
X132762865Y-93001945D01*
X132762865Y-93001945D02*
X132858103Y-92954326D01*
X132858103Y-92954326D02*
X133096198Y-92954326D01*
X133096198Y-92954326D02*
X133191436Y-93001945D01*
X133191436Y-93001945D02*
X133239055Y-93049564D01*
X133239055Y-93049564D02*
X133286674Y-93144802D01*
X133286674Y-93144802D02*
X133286674Y-93335278D01*
X133286674Y-93335278D02*
X133239055Y-93430516D01*
X133239055Y-93430516D02*
X133191436Y-93478135D01*
X133191436Y-93478135D02*
X133096198Y-93525754D01*
X141367625Y-93925755D02*
X141367625Y-93449565D01*
X141367625Y-93449565D02*
X141843815Y-93401946D01*
X141843815Y-93401946D02*
X141796196Y-93449565D01*
X141796196Y-93449565D02*
X141748577Y-93544803D01*
X141748577Y-93544803D02*
X141748577Y-93782898D01*
X141748577Y-93782898D02*
X141796196Y-93878136D01*
X141796196Y-93878136D02*
X141843815Y-93925755D01*
X141843815Y-93925755D02*
X141939053Y-93973374D01*
X141939053Y-93973374D02*
X142177148Y-93973374D01*
X142177148Y-93973374D02*
X142272386Y-93925755D01*
X142272386Y-93925755D02*
X142320006Y-93878136D01*
X142320006Y-93878136D02*
X142367625Y-93782898D01*
X142367625Y-93782898D02*
X142367625Y-93544803D01*
X142367625Y-93544803D02*
X142320006Y-93449565D01*
X142320006Y-93449565D02*
X142272386Y-93401946D01*
X141367625Y-94592422D02*
X141367625Y-94687660D01*
X141367625Y-94687660D02*
X141415244Y-94782898D01*
X141415244Y-94782898D02*
X141462863Y-94830517D01*
X141462863Y-94830517D02*
X141558101Y-94878136D01*
X141558101Y-94878136D02*
X141748577Y-94925755D01*
X141748577Y-94925755D02*
X141986672Y-94925755D01*
X141986672Y-94925755D02*
X142177148Y-94878136D01*
X142177148Y-94878136D02*
X142272386Y-94830517D01*
X142272386Y-94830517D02*
X142320006Y-94782898D01*
X142320006Y-94782898D02*
X142367625Y-94687660D01*
X142367625Y-94687660D02*
X142367625Y-94592422D01*
X142367625Y-94592422D02*
X142320006Y-94497184D01*
X142320006Y-94497184D02*
X142272386Y-94449565D01*
X142272386Y-94449565D02*
X142177148Y-94401946D01*
X142177148Y-94401946D02*
X141986672Y-94354327D01*
X141986672Y-94354327D02*
X141748577Y-94354327D01*
X141748577Y-94354327D02*
X141558101Y-94401946D01*
X141558101Y-94401946D02*
X141462863Y-94449565D01*
X141462863Y-94449565D02*
X141415244Y-94497184D01*
X141415244Y-94497184D02*
X141367625Y-94592422D01*
X132996198Y-97792419D02*
X132948579Y-97697181D01*
X132948579Y-97697181D02*
X132900960Y-97649562D01*
X132900960Y-97649562D02*
X132805722Y-97601943D01*
X132805722Y-97601943D02*
X132758103Y-97601943D01*
X132758103Y-97601943D02*
X132662865Y-97649562D01*
X132662865Y-97649562D02*
X132615246Y-97697181D01*
X132615246Y-97697181D02*
X132567627Y-97792419D01*
X132567627Y-97792419D02*
X132567627Y-97982895D01*
X132567627Y-97982895D02*
X132615246Y-98078133D01*
X132615246Y-98078133D02*
X132662865Y-98125752D01*
X132662865Y-98125752D02*
X132758103Y-98173371D01*
X132758103Y-98173371D02*
X132805722Y-98173371D01*
X132805722Y-98173371D02*
X132900960Y-98125752D01*
X132900960Y-98125752D02*
X132948579Y-98078133D01*
X132948579Y-98078133D02*
X132996198Y-97982895D01*
X132996198Y-97982895D02*
X132996198Y-97792419D01*
X132996198Y-97792419D02*
X133043817Y-97697181D01*
X133043817Y-97697181D02*
X133091436Y-97649562D01*
X133091436Y-97649562D02*
X133186674Y-97601943D01*
X133186674Y-97601943D02*
X133377150Y-97601943D01*
X133377150Y-97601943D02*
X133472388Y-97649562D01*
X133472388Y-97649562D02*
X133520008Y-97697181D01*
X133520008Y-97697181D02*
X133567627Y-97792419D01*
X133567627Y-97792419D02*
X133567627Y-97982895D01*
X133567627Y-97982895D02*
X133520008Y-98078133D01*
X133520008Y-98078133D02*
X133472388Y-98125752D01*
X133472388Y-98125752D02*
X133377150Y-98173371D01*
X133377150Y-98173371D02*
X133186674Y-98173371D01*
X133186674Y-98173371D02*
X133091436Y-98125752D01*
X133091436Y-98125752D02*
X133043817Y-98078133D01*
X133043817Y-98078133D02*
X132996198Y-97982895D01*
X141267626Y-97697182D02*
X141267626Y-97887658D01*
X141267626Y-97887658D02*
X141220007Y-97982896D01*
X141220007Y-97982896D02*
X141172387Y-98030515D01*
X141172387Y-98030515D02*
X141029530Y-98125753D01*
X141029530Y-98125753D02*
X140839054Y-98173372D01*
X140839054Y-98173372D02*
X140458102Y-98173372D01*
X140458102Y-98173372D02*
X140362864Y-98125753D01*
X140362864Y-98125753D02*
X140315245Y-98078134D01*
X140315245Y-98078134D02*
X140267626Y-97982896D01*
X140267626Y-97982896D02*
X140267626Y-97792420D01*
X140267626Y-97792420D02*
X140315245Y-97697182D01*
X140315245Y-97697182D02*
X140362864Y-97649563D01*
X140362864Y-97649563D02*
X140458102Y-97601944D01*
X140458102Y-97601944D02*
X140696197Y-97601944D01*
X140696197Y-97601944D02*
X140791435Y-97649563D01*
X140791435Y-97649563D02*
X140839054Y-97697182D01*
X140839054Y-97697182D02*
X140886673Y-97792420D01*
X140886673Y-97792420D02*
X140886673Y-97982896D01*
X140886673Y-97982896D02*
X140839054Y-98078134D01*
X140839054Y-98078134D02*
X140791435Y-98125753D01*
X140791435Y-98125753D02*
X140696197Y-98173372D01*
X132467626Y-96473372D02*
X132467626Y-95901944D01*
X132467626Y-96187658D02*
X131467626Y-96187658D01*
X131467626Y-96187658D02*
X131610483Y-96092420D01*
X131610483Y-96092420D02*
X131705721Y-95997182D01*
X131705721Y-95997182D02*
X131753340Y-95901944D01*
X131467626Y-97092420D02*
X131467626Y-97187658D01*
X131467626Y-97187658D02*
X131515245Y-97282896D01*
X131515245Y-97282896D02*
X131562864Y-97330515D01*
X131562864Y-97330515D02*
X131658102Y-97378134D01*
X131658102Y-97378134D02*
X131848578Y-97425753D01*
X131848578Y-97425753D02*
X132086673Y-97425753D01*
X132086673Y-97425753D02*
X132277149Y-97378134D01*
X132277149Y-97378134D02*
X132372387Y-97330515D01*
X132372387Y-97330515D02*
X132420007Y-97282896D01*
X132420007Y-97282896D02*
X132467626Y-97187658D01*
X132467626Y-97187658D02*
X132467626Y-97092420D01*
X132467626Y-97092420D02*
X132420007Y-96997182D01*
X132420007Y-96997182D02*
X132372387Y-96949563D01*
X132372387Y-96949563D02*
X132277149Y-96901944D01*
X132277149Y-96901944D02*
X132086673Y-96854325D01*
X132086673Y-96854325D02*
X131848578Y-96854325D01*
X131848578Y-96854325D02*
X131658102Y-96901944D01*
X131658102Y-96901944D02*
X131562864Y-96949563D01*
X131562864Y-96949563D02*
X131515245Y-96997182D01*
X131515245Y-96997182D02*
X131467626Y-97092420D01*
X141067627Y-90754325D02*
X141067627Y-91373372D01*
X141067627Y-91373372D02*
X141448579Y-91040039D01*
X141448579Y-91040039D02*
X141448579Y-91182896D01*
X141448579Y-91182896D02*
X141496198Y-91278134D01*
X141496198Y-91278134D02*
X141543817Y-91325753D01*
X141543817Y-91325753D02*
X141639055Y-91373372D01*
X141639055Y-91373372D02*
X141877150Y-91373372D01*
X141877150Y-91373372D02*
X141972388Y-91325753D01*
X141972388Y-91325753D02*
X142020008Y-91278134D01*
X142020008Y-91278134D02*
X142067627Y-91182896D01*
X142067627Y-91182896D02*
X142067627Y-90897182D01*
X142067627Y-90897182D02*
X142020008Y-90801944D01*
X142020008Y-90801944D02*
X141972388Y-90754325D01*
X141067627Y-92278134D02*
X141067627Y-91801944D01*
X141067627Y-91801944D02*
X141543817Y-91754325D01*
X141543817Y-91754325D02*
X141496198Y-91801944D01*
X141496198Y-91801944D02*
X141448579Y-91897182D01*
X141448579Y-91897182D02*
X141448579Y-92135277D01*
X141448579Y-92135277D02*
X141496198Y-92230515D01*
X141496198Y-92230515D02*
X141543817Y-92278134D01*
X141543817Y-92278134D02*
X141639055Y-92325753D01*
X141639055Y-92325753D02*
X141877150Y-92325753D01*
X141877150Y-92325753D02*
X141972388Y-92278134D01*
X141972388Y-92278134D02*
X142020008Y-92230515D01*
X142020008Y-92230515D02*
X142067627Y-92135277D01*
X142067627Y-92135277D02*
X142067627Y-91897182D01*
X142067627Y-91897182D02*
X142020008Y-91801944D01*
X142020008Y-91801944D02*
X141972388Y-91754325D01*
X131662864Y-93401944D02*
X131615245Y-93449563D01*
X131615245Y-93449563D02*
X131567626Y-93544801D01*
X131567626Y-93544801D02*
X131567626Y-93782896D01*
X131567626Y-93782896D02*
X131615245Y-93878134D01*
X131615245Y-93878134D02*
X131662864Y-93925753D01*
X131662864Y-93925753D02*
X131758102Y-93973372D01*
X131758102Y-93973372D02*
X131853340Y-93973372D01*
X131853340Y-93973372D02*
X131996197Y-93925753D01*
X131996197Y-93925753D02*
X132567626Y-93354325D01*
X132567626Y-93354325D02*
X132567626Y-93973372D01*
X131567626Y-94306706D02*
X131567626Y-94973372D01*
X131567626Y-94973372D02*
X132567626Y-94544801D01*
D11*
X131908332Y-90031819D02*
X131574999Y-91031819D01*
X131574999Y-91031819D02*
X131241666Y-90031819D01*
X130908332Y-91031819D02*
X130908332Y-90031819D01*
X130908332Y-90031819D02*
X130670237Y-90031819D01*
X130670237Y-90031819D02*
X130527380Y-90079438D01*
X130527380Y-90079438D02*
X130432142Y-90174676D01*
X130432142Y-90174676D02*
X130384523Y-90269914D01*
X130384523Y-90269914D02*
X130336904Y-90460390D01*
X130336904Y-90460390D02*
X130336904Y-90603247D01*
X130336904Y-90603247D02*
X130384523Y-90793723D01*
X130384523Y-90793723D02*
X130432142Y-90888961D01*
X130432142Y-90888961D02*
X130527380Y-90984200D01*
X130527380Y-90984200D02*
X130670237Y-91031819D01*
X130670237Y-91031819D02*
X130908332Y-91031819D01*
X129908332Y-91031819D02*
X129908332Y-90031819D01*
X129908332Y-90031819D02*
X129670237Y-90031819D01*
X129670237Y-90031819D02*
X129527380Y-90079438D01*
X129527380Y-90079438D02*
X129432142Y-90174676D01*
X129432142Y-90174676D02*
X129384523Y-90269914D01*
X129384523Y-90269914D02*
X129336904Y-90460390D01*
X129336904Y-90460390D02*
X129336904Y-90603247D01*
X129336904Y-90603247D02*
X129384523Y-90793723D01*
X129384523Y-90793723D02*
X129432142Y-90888961D01*
X129432142Y-90888961D02*
X129527380Y-90984200D01*
X129527380Y-90984200D02*
X129670237Y-91031819D01*
X129670237Y-91031819D02*
X129908332Y-91031819D01*
X135786904Y-86731819D02*
X135215476Y-86731819D01*
X135501190Y-87731819D02*
X135501190Y-86731819D01*
X134882142Y-87731819D02*
X134882142Y-86731819D01*
X134882142Y-86731819D02*
X134501190Y-86731819D01*
X134501190Y-86731819D02*
X134405952Y-86779438D01*
X134405952Y-86779438D02*
X134358333Y-86827057D01*
X134358333Y-86827057D02*
X134310714Y-86922295D01*
X134310714Y-86922295D02*
X134310714Y-87065152D01*
X134310714Y-87065152D02*
X134358333Y-87160390D01*
X134358333Y-87160390D02*
X134405952Y-87208009D01*
X134405952Y-87208009D02*
X134501190Y-87255628D01*
X134501190Y-87255628D02*
X134882142Y-87255628D01*
X133358333Y-87731819D02*
X133929761Y-87731819D01*
X133644047Y-87731819D02*
X133644047Y-86731819D01*
X133644047Y-86731819D02*
X133739285Y-86874676D01*
X133739285Y-86874676D02*
X133834523Y-86969914D01*
X133834523Y-86969914D02*
X133929761Y-87017533D01*
D12*
X125664318Y-97735237D02*
X124394318Y-97735237D01*
X125543365Y-99065714D02*
X125603842Y-99005238D01*
X125603842Y-99005238D02*
X125664318Y-98823809D01*
X125664318Y-98823809D02*
X125664318Y-98702857D01*
X125664318Y-98702857D02*
X125603842Y-98521428D01*
X125603842Y-98521428D02*
X125482889Y-98400476D01*
X125482889Y-98400476D02*
X125361937Y-98339999D01*
X125361937Y-98339999D02*
X125120032Y-98279523D01*
X125120032Y-98279523D02*
X124938603Y-98279523D01*
X124938603Y-98279523D02*
X124696699Y-98339999D01*
X124696699Y-98339999D02*
X124575746Y-98400476D01*
X124575746Y-98400476D02*
X124454794Y-98521428D01*
X124454794Y-98521428D02*
X124394318Y-98702857D01*
X124394318Y-98702857D02*
X124394318Y-98823809D01*
X124394318Y-98823809D02*
X124454794Y-99005238D01*
X124454794Y-99005238D02*
X124515270Y-99065714D01*
X125664318Y-100275238D02*
X125664318Y-99549523D01*
X125664318Y-99912380D02*
X124394318Y-99912380D01*
X124394318Y-99912380D02*
X124575746Y-99791428D01*
X124575746Y-99791428D02*
X124696699Y-99670476D01*
X124696699Y-99670476D02*
X124757175Y-99549523D01*
D11*
X119284108Y-105390520D02*
X119216764Y-105525207D01*
X119216764Y-105525207D02*
X119216764Y-105592550D01*
X119216764Y-105592550D02*
X119250436Y-105693566D01*
X119250436Y-105693566D02*
X119351451Y-105794581D01*
X119351451Y-105794581D02*
X119452467Y-105828253D01*
X119452467Y-105828253D02*
X119519810Y-105828253D01*
X119519810Y-105828253D02*
X119620825Y-105794581D01*
X119620825Y-105794581D02*
X119890199Y-105525207D01*
X119890199Y-105525207D02*
X119183093Y-104818100D01*
X119183093Y-104818100D02*
X118947390Y-105053802D01*
X118947390Y-105053802D02*
X118913719Y-105154818D01*
X118913719Y-105154818D02*
X118913719Y-105222161D01*
X118913719Y-105222161D02*
X118947390Y-105323176D01*
X118947390Y-105323176D02*
X119014734Y-105390520D01*
X119014734Y-105390520D02*
X119115749Y-105424192D01*
X119115749Y-105424192D02*
X119183093Y-105424192D01*
X119183093Y-105424192D02*
X119284108Y-105390520D01*
X119284108Y-105390520D02*
X119519810Y-105154818D01*
X118408642Y-106063955D02*
X118880047Y-106535359D01*
X118711688Y-105760909D02*
X119082077Y-106131298D01*
X119082077Y-106131298D02*
X119115749Y-106232314D01*
X119115749Y-106232314D02*
X119082077Y-106333329D01*
X119082077Y-106333329D02*
X118981062Y-106434344D01*
X118981062Y-106434344D02*
X118880047Y-106468016D01*
X118880047Y-106468016D02*
X118812703Y-106468016D01*
X118139268Y-106333329D02*
X117768879Y-106703718D01*
X117768879Y-106703718D02*
X118610673Y-106804734D01*
X118610673Y-106804734D02*
X118240283Y-107175123D01*
X117566848Y-106905749D02*
X117196459Y-107276138D01*
X117196459Y-107276138D02*
X118038253Y-107377153D01*
X118038253Y-107377153D02*
X117667864Y-107747543D01*
X130768504Y-99444419D02*
X130768504Y-100253942D01*
X130768504Y-100253942D02*
X130720885Y-100349180D01*
X130720885Y-100349180D02*
X130673266Y-100396800D01*
X130673266Y-100396800D02*
X130578028Y-100444419D01*
X130578028Y-100444419D02*
X130387552Y-100444419D01*
X130387552Y-100444419D02*
X130292314Y-100396800D01*
X130292314Y-100396800D02*
X130244695Y-100349180D01*
X130244695Y-100349180D02*
X130197076Y-100253942D01*
X130197076Y-100253942D02*
X130197076Y-99444419D01*
X129816123Y-99444419D02*
X129197076Y-99444419D01*
X129197076Y-99444419D02*
X129530409Y-99825371D01*
X129530409Y-99825371D02*
X129387552Y-99825371D01*
X129387552Y-99825371D02*
X129292314Y-99872990D01*
X129292314Y-99872990D02*
X129244695Y-99920609D01*
X129244695Y-99920609D02*
X129197076Y-100015847D01*
X129197076Y-100015847D02*
X129197076Y-100253942D01*
X129197076Y-100253942D02*
X129244695Y-100349180D01*
X129244695Y-100349180D02*
X129292314Y-100396800D01*
X129292314Y-100396800D02*
X129387552Y-100444419D01*
X129387552Y-100444419D02*
X129673266Y-100444419D01*
X129673266Y-100444419D02*
X129768504Y-100396800D01*
X129768504Y-100396800D02*
X129816123Y-100349180D01*
X132216399Y-97813419D02*
X132216399Y-98051514D01*
X132454494Y-97956276D02*
X132216399Y-98051514D01*
X132216399Y-98051514D02*
X131978304Y-97956276D01*
X132359256Y-98241990D02*
X132216399Y-98051514D01*
X132216399Y-98051514D02*
X132073542Y-98241990D01*
X132216399Y-97813419D02*
X132216399Y-98051514D01*
X132454494Y-97956276D02*
X132216399Y-98051514D01*
X132216399Y-98051514D02*
X131978304Y-97956276D01*
X132359256Y-98241990D02*
X132216399Y-98051514D01*
X132216399Y-98051514D02*
X132073542Y-98241990D01*
D13*
%TO.C,VDD*%
X131525000Y-92225000D02*
G75*
G02*
X129625000Y-92225000I-950000J0D01*
G01*
X129625000Y-92225000D02*
G75*
G02*
X131525000Y-92225000I950000J0D01*
G01*
%TO.C,TP1*%
X135475000Y-88925000D02*
G75*
G02*
X133575000Y-88925000I-950000J0D01*
G01*
X133575000Y-88925000D02*
G75*
G02*
X135475000Y-88925000I950000J0D01*
G01*
%TO.C,Q1*%
X121835000Y-110500000D02*
X121835000Y-109850001D01*
X121835000Y-110500000D02*
X121835000Y-111150000D01*
X124955000Y-110500000D02*
X124955000Y-109850000D01*
X124955000Y-110500000D02*
X124955000Y-111149999D01*
X125235000Y-111902500D02*
X124905000Y-111662500D01*
X125234998Y-111422500D01*
X125235000Y-111902500D01*
G36*
X125235000Y-111902500D02*
G01*
X124905000Y-111662500D01*
X125234998Y-111422500D01*
X125235000Y-111902500D01*
G37*
%TO.C,J4*%
X122832594Y-91049797D02*
X123882600Y-91049798D01*
X122832601Y-92199799D02*
X122832594Y-91049797D01*
X123882600Y-91049798D02*
X123882600Y-90059800D01*
X124002600Y-94169800D02*
X125882600Y-94169800D01*
X127052601Y-91049799D02*
X126002600Y-91049798D01*
X127052601Y-92199799D02*
X127052601Y-91049799D01*
%TO.C,J3*%
X133630200Y-99760700D02*
X134905199Y-99760702D01*
X134905197Y-90780701D02*
X134905200Y-90715700D01*
X134905200Y-90715700D02*
X138535200Y-90715700D01*
X134905200Y-99825700D02*
X134905199Y-99760702D01*
X134905200Y-99825700D02*
X138535200Y-99825700D01*
X138535200Y-99825700D02*
X138535203Y-99760699D01*
X138535201Y-90780698D02*
X138535200Y-90715700D01*
%TO.C,J7*%
X136240002Y-106245003D02*
X136240000Y-102365001D01*
X138210000Y-101195000D02*
X140710000Y-101194999D01*
X138210000Y-107415000D02*
X140709999Y-107415002D01*
X140709999Y-107415002D02*
X140710000Y-106365002D01*
X140710000Y-101194999D02*
X140710000Y-102244998D01*
X140710000Y-106365002D02*
X141700000Y-106365000D01*
D14*
%TO.C,IC1*%
X122510000Y-95500000D02*
X122510000Y-96850000D01*
X122640000Y-97200000D02*
X122640000Y-100750000D01*
X122640000Y-100750000D02*
X127540000Y-100750000D01*
X127540000Y-97200000D02*
X122640000Y-97200000D01*
X127540000Y-100750000D02*
X127540000Y-97200000D01*
D13*
%TO.C,Buzz*%
X119477512Y-108908001D02*
X120329576Y-109760065D01*
X119826323Y-108559191D02*
X119477512Y-108908001D01*
X119972488Y-106121999D02*
X119152243Y-106942243D01*
X120545244Y-106694756D02*
X119972488Y-106121999D01*
X120925014Y-109164626D02*
X120329576Y-109760065D01*
X121118000Y-107267513D02*
X120769190Y-107616322D01*
X121118000Y-107267513D02*
X121970064Y-108119576D01*
X121970064Y-108119576D02*
X121374625Y-108715015D01*
D15*
%TO.C,U3*%
X128203200Y-98313200D02*
X129137820Y-98313200D01*
X128203200Y-98620819D02*
X128203200Y-98313200D01*
X128203200Y-101666000D02*
X128203200Y-101358381D01*
X129137820Y-101666000D02*
X128203200Y-101666000D01*
X130875380Y-98313200D02*
X131810000Y-98313200D01*
X131810000Y-98313200D02*
X131810000Y-98620819D01*
X131810000Y-101358381D02*
X131810000Y-101666000D01*
X131810000Y-101666000D02*
X130875380Y-101666000D01*
D16*
G36*
X128241300Y-100680099D02*
G01*
X127987300Y-100680099D01*
X127987300Y-100299099D01*
X128241300Y-100299099D01*
X128241300Y-100680099D01*
G37*
D14*
%TO.C,J1*%
X125554998Y-105939999D02*
X125554998Y-105939999D01*
X125554998Y-105939999D02*
X125555001Y-109370000D01*
X125555001Y-109370000D02*
X125555001Y-109370000D01*
X134614999Y-105940000D02*
X134614999Y-105940000D01*
X134615002Y-109370001D02*
X134614999Y-105940000D01*
X134615002Y-109370001D02*
X134615002Y-109370001D01*
X125090000Y-105619999D02*
G75*
G02*
X124890000Y-105619999I-100000J0D01*
G01*
X124890000Y-105619999D02*
G75*
G02*
X125090000Y-105619999I100000J0D01*
G01*
%TD*%
M02*
