%TF.GenerationSoftware,KiCad,Pcbnew,9.0.2*%
%TF.CreationDate,2025-11-09T00:07:38+05:30*%
%TF.ProjectId,Nade,4e616465-2e6b-4696-9361-645f70636258,rev?*%
%TF.SameCoordinates,Original*%
%TF.FileFunction,Legend,Bot*%
%TF.FilePolarity,Positive*%
%FSLAX46Y46*%
G04 Gerber Fmt 4.6, Leading zero omitted, Abs format (unit mm)*
G04 Created by KiCad (PCBNEW 9.0.2) date 2025-11-09 00:07:38*
%MOMM*%
%LPD*%
G01*
G04 APERTURE LIST*
%ADD10C,0.150000*%
%ADD11C,0.152400*%
%ADD12C,0.000000*%
G04 APERTURE END LIST*
D10*
X127736683Y-101653671D02*
X128070016Y-101177480D01*
X128308111Y-101653671D02*
X128308111Y-100653671D01*
X128308111Y-100653671D02*
X127927159Y-100653671D01*
X127927159Y-100653671D02*
X127831921Y-100701290D01*
X127831921Y-100701290D02*
X127784302Y-100748909D01*
X127784302Y-100748909D02*
X127736683Y-100844147D01*
X127736683Y-100844147D02*
X127736683Y-100987004D01*
X127736683Y-100987004D02*
X127784302Y-101082242D01*
X127784302Y-101082242D02*
X127831921Y-101129861D01*
X127831921Y-101129861D02*
X127927159Y-101177480D01*
X127927159Y-101177480D02*
X128308111Y-101177480D01*
X126784302Y-101653671D02*
X127355730Y-101653671D01*
X127070016Y-101653671D02*
X127070016Y-100653671D01*
X127070016Y-100653671D02*
X127165254Y-100796528D01*
X127165254Y-100796528D02*
X127260492Y-100891766D01*
X127260492Y-100891766D02*
X127355730Y-100939385D01*
X126450968Y-100653671D02*
X125784302Y-100653671D01*
X125784302Y-100653671D02*
X126212873Y-101653671D01*
X132648644Y-95905995D02*
X132172453Y-95572662D01*
X132648644Y-95334567D02*
X131648644Y-95334567D01*
X131648644Y-95334567D02*
X131648644Y-95715519D01*
X131648644Y-95715519D02*
X131696263Y-95810757D01*
X131696263Y-95810757D02*
X131743882Y-95858376D01*
X131743882Y-95858376D02*
X131839120Y-95905995D01*
X131839120Y-95905995D02*
X131981977Y-95905995D01*
X131981977Y-95905995D02*
X132077215Y-95858376D01*
X132077215Y-95858376D02*
X132124834Y-95810757D01*
X132124834Y-95810757D02*
X132172453Y-95715519D01*
X132172453Y-95715519D02*
X132172453Y-95334567D01*
X132648644Y-96858376D02*
X132648644Y-96286948D01*
X132648644Y-96572662D02*
X131648644Y-96572662D01*
X131648644Y-96572662D02*
X131791501Y-96477424D01*
X131791501Y-96477424D02*
X131886739Y-96382186D01*
X131886739Y-96382186D02*
X131934358Y-96286948D01*
X131648644Y-97715519D02*
X131648644Y-97525043D01*
X131648644Y-97525043D02*
X131696263Y-97429805D01*
X131696263Y-97429805D02*
X131743882Y-97382186D01*
X131743882Y-97382186D02*
X131886739Y-97286948D01*
X131886739Y-97286948D02*
X132077215Y-97239329D01*
X132077215Y-97239329D02*
X132458167Y-97239329D01*
X132458167Y-97239329D02*
X132553405Y-97286948D01*
X132553405Y-97286948D02*
X132601025Y-97334567D01*
X132601025Y-97334567D02*
X132648644Y-97429805D01*
X132648644Y-97429805D02*
X132648644Y-97620281D01*
X132648644Y-97620281D02*
X132601025Y-97715519D01*
X132601025Y-97715519D02*
X132553405Y-97763138D01*
X132553405Y-97763138D02*
X132458167Y-97810757D01*
X132458167Y-97810757D02*
X132220072Y-97810757D01*
X132220072Y-97810757D02*
X132124834Y-97763138D01*
X132124834Y-97763138D02*
X132077215Y-97715519D01*
X132077215Y-97715519D02*
X132029596Y-97620281D01*
X132029596Y-97620281D02*
X132029596Y-97429805D01*
X132029596Y-97429805D02*
X132077215Y-97334567D01*
X132077215Y-97334567D02*
X132124834Y-97286948D01*
X132124834Y-97286948D02*
X132220072Y-97239329D01*
X134149604Y-102280319D02*
X134149604Y-103089842D01*
X134149604Y-103089842D02*
X134101985Y-103185080D01*
X134101985Y-103185080D02*
X134054366Y-103232700D01*
X134054366Y-103232700D02*
X133959128Y-103280319D01*
X133959128Y-103280319D02*
X133768652Y-103280319D01*
X133768652Y-103280319D02*
X133673414Y-103232700D01*
X133673414Y-103232700D02*
X133625795Y-103185080D01*
X133625795Y-103185080D02*
X133578176Y-103089842D01*
X133578176Y-103089842D02*
X133578176Y-102280319D01*
X133197223Y-102280319D02*
X132578176Y-102280319D01*
X132578176Y-102280319D02*
X132911509Y-102661271D01*
X132911509Y-102661271D02*
X132768652Y-102661271D01*
X132768652Y-102661271D02*
X132673414Y-102708890D01*
X132673414Y-102708890D02*
X132625795Y-102756509D01*
X132625795Y-102756509D02*
X132578176Y-102851747D01*
X132578176Y-102851747D02*
X132578176Y-103089842D01*
X132578176Y-103089842D02*
X132625795Y-103185080D01*
X132625795Y-103185080D02*
X132673414Y-103232700D01*
X132673414Y-103232700D02*
X132768652Y-103280319D01*
X132768652Y-103280319D02*
X133054366Y-103280319D01*
X133054366Y-103280319D02*
X133149604Y-103232700D01*
X133149604Y-103232700D02*
X133197223Y-103185080D01*
X136880199Y-100280319D02*
X136880199Y-100518414D01*
X137118294Y-100423176D02*
X136880199Y-100518414D01*
X136880199Y-100518414D02*
X136642104Y-100423176D01*
X137023056Y-100708890D02*
X136880199Y-100518414D01*
X136880199Y-100518414D02*
X136737342Y-100708890D01*
X136880199Y-100280319D02*
X136880199Y-100518414D01*
X137118294Y-100423176D02*
X136880199Y-100518414D01*
X136880199Y-100518414D02*
X136642104Y-100423176D01*
X137023056Y-100708890D02*
X136880199Y-100518414D01*
X136880199Y-100518414D02*
X136737342Y-100708890D01*
D11*
%TO.C,U3*%
X130708000Y-100145800D02*
X131177961Y-100145800D01*
X130708000Y-100615761D02*
X130708000Y-100145800D01*
X130708000Y-105505200D02*
X130708000Y-105035239D01*
X131177961Y-105505200D02*
X130708000Y-105505200D01*
X135597439Y-100145800D02*
X136067400Y-100145800D01*
X136067400Y-100145800D02*
X136067400Y-100615761D01*
X136067400Y-105035239D02*
X136067400Y-105505200D01*
X136067400Y-105505200D02*
X135597439Y-105505200D01*
D12*
G36*
X130276200Y-103266000D02*
G01*
X130022200Y-103266000D01*
X130022200Y-102884999D01*
X130276200Y-102884999D01*
X130276200Y-103266000D01*
G37*
G36*
X134328201Y-99714000D02*
G01*
X133947201Y-99714000D01*
X133947201Y-99460000D01*
X134328201Y-99460000D01*
X134328201Y-99714000D01*
G37*
G36*
X134828200Y-106191000D02*
G01*
X134447200Y-106191000D01*
X134447200Y-105937000D01*
X134828200Y-105937000D01*
X134828200Y-106191000D01*
G37*
%TD*%
M02*
