M48
; DRILL file {KiCad 9.0.2} date 2025-11-09T00:07:41+0530
; FORMAT={-:-/ absolute / inch / decimal}
; #@! TF.CreationDate,2025-11-09T00:07:41+05:30
; #@! TF.GenerationSoftware,Kicad,Pcbnew,9.0.2
; #@! TF.FileFunction,Plated,1,2,PTH
FMAT,2
INCH
; #@! TA.AperFunction,Plated,PTH,ViaDrill
T1C0.0079
; #@! TA.AperFunction,Plated,PTH,ComponentDrill
T2C0.0335
; #@! TA.AperFunction,Plated,PTH,ComponentDrill
T3C0.0340
; #@! TA.AperFunction,Plated,PTH,ComponentDrill
T4C0.0390
; #@! TA.AperFunction,Plated,PTH,ComponentDrill
T5C0.0394
; #@! TA.AperFunction,Plated,PTH,ComponentDrill
T6C0.0728
%
G90
G05
T1
X4.2756Y-3.5394
X4.2913Y-4.4803
X4.3346Y-3.4213
X4.3346Y-4.6299
X4.3583Y-4.5433
X4.3661Y-3.6142
X4.3858Y-4.2362
X4.3898Y-3.7638
X4.3976Y-4.311
X4.4173Y-4.5315
X4.4291Y-4.4449
X4.437Y-4.6142
X4.4528Y-3.3976
X4.4567Y-4.7913
X4.4606Y-3.5197
X4.4606Y-3.6969
X4.4685Y-3.8622
X4.4764Y-4.0984
X4.4764Y-4.1181
X4.4764Y-4.1378
X4.4764Y-4.1575
X4.4764Y-4.1772
X4.4764Y-4.622
X4.4843Y-4.6929
X4.5276Y-3.2244
X4.5276Y-3.4803
X4.5551Y-4.6181
X4.563Y-3.6181
X4.563Y-3.9213
X4.5669Y-3.3898
X4.66Y-4.0787
X4.6654Y-3.9409
X4.6732Y-3.7047
X4.6811Y-4.7283
X4.685Y-3.4685
X4.685Y-4.6969
X4.6929Y-4.0787
X4.6929Y-4.0984
X4.6929Y-4.1181
X4.6929Y-4.1378
X4.6929Y-4.1575
X4.6929Y-4.1772
X4.7087Y-4.7559
X4.7126Y-3.5787
X4.7205Y-4.6969
X4.7244Y-3.2323
X4.7283Y-3.3583
X4.7362Y-4.3937
X4.7362Y-4.5827
X4.7362Y-4.6142
X4.7362Y-4.6496
X4.7638Y-4.6772
X4.7677Y-4.4094
X4.7756Y-4.8031
X4.7835Y-3.1181
X4.7874Y-4.6535
X4.7992Y-4.4882
X4.7992Y-4.8465
X4.8071Y-4.811
X4.811Y-4.5709
X4.811Y-4.622
X4.8228Y-3.8858
X4.8228Y-4.5197
X4.8241Y-4.4646
X4.8307Y-3.3268
X4.8346Y-4.7756
X4.8635Y-4.4646
X4.8661Y-4.4882
X4.8701Y-3.7165
X4.8701Y-4.7992
X4.8727Y-3.8524
X4.874Y-4.5236
X4.878Y-4.2283
X4.8858Y-3.2323
X4.9016Y-4.815
X4.9094Y-4.3898
X4.9134Y-4.4685
X4.9134Y-4.5315
X4.9213Y-3.0591
X4.9331Y-5.0433
X4.9449Y-4.5866
X4.9567Y-4.9803
X4.9606Y-3.6496
X4.9606Y-4.4606
X4.9646Y-4.3425
X4.9724Y-4.5315
X4.9882Y-4.9409
X4.9921Y-3.1772
X4.9961Y-3.6732
X4.9961Y-3.8543
X5.0039Y-4.4606
X5.0079Y-3.9646
X5.0157Y-3.6417
X5.0157Y-5.0945
X5.0236Y-4.3898
X5.0276Y-4.7402
X5.0315Y-3.5354
X5.0315Y-4.0866
X5.0354Y-3.6693
X5.0354Y-4.626
X5.0433Y-3.5079
X5.0433Y-4.5827
X5.0433Y-4.6772
X5.0512Y-4.5276
X5.0551Y-3.4803
X5.0591Y-3.0472
X5.0591Y-3.6457
X5.0827Y-3.5433
X5.0866Y-3.1142
X5.0866Y-4.5
X5.0866Y-4.5305
X5.0866Y-4.5698
X5.0906Y-4.4646
X5.0945Y-5.0591
X5.0984Y-4.1024
X5.1063Y-2.9094
X5.1142Y-3.8543
X5.1181Y-3.5787
X5.1181Y-4.2126
X5.122Y-3.5354
X5.126Y-4.4488
X5.1417Y-3.4961
X5.1417Y-5.1142
X5.1535Y-3.9528
X5.1575Y-3.5276
X5.2047Y-4.4055
X5.2323Y-3.1417
X5.2362Y-3.9016
X5.2441Y-4.2717
X5.2441Y-5.126
X5.2598Y-3.8465
X5.3031Y-2.9606
X5.3031Y-3.622
X5.311Y-5.0236
X5.3189Y-3.5433
X5.3228Y-2.9921
X5.3228Y-4.4843
X5.3268Y-4.8819
X5.3307Y-4.4213
X5.3346Y-3.878
X5.3386Y-4.9528
X5.3465Y-3.1378
X5.3583Y-5.1142
X5.378Y-5.122
X5.3819Y-4.2205
X5.4016Y-3.5591
X5.4134Y-3.6063
X5.4252Y-3.8622
X5.4291Y-4.0984
X5.4409Y-5.1063
X5.4724Y-4.2205
X5.4843Y-3.9055
X5.4882Y-3.6299
X5.4961Y-4.7638
X5.5Y-3.0866
X5.5039Y-3.5276
X5.5118Y-3.2677
X5.5433Y-2.9528
X5.5551Y-3.6929
X5.5591Y-3.6496
X5.5591Y-3.7402
X5.5748Y-3.6063
X5.5787Y-4.0669
X5.5827Y-3.1654
X5.5906Y-3.8543
X5.5906Y-4.0
X5.6102Y-3.4764
X5.6142Y-3.5827
X5.6142Y-3.9488
X5.6142Y-5.0512
X5.6181Y-3.8898
X5.6181Y-4.0236
X5.622Y-3.2165
X5.626Y-3.6535
X5.626Y-3.7008
X5.626Y-3.752
X5.626Y-3.8189
X5.626Y-4.6142
X5.6339Y-4.7323
X5.6378Y-4.5039
X5.6378Y-4.8189
X5.6457Y-4.0512
X5.6575Y-3.622
X5.6575Y-3.7205
X5.6575Y-3.7835
X5.6575Y-3.9291
X5.6614Y-4.0
X5.6654Y-3.1142
X5.6654Y-4.9331
X5.6654Y-5.0354
X5.6732Y-4.0787
X5.6811Y-3.3819
X5.689Y-3.685
X5.689Y-3.9646
X5.6929Y-3.748
X5.6969Y-4.0354
X5.7047Y-4.1496
X5.7205Y-3.6181
X5.7205Y-4.8386
X5.7244Y-3.2559
X5.7283Y-4.5039
X5.7323Y-4.0039
X5.7402Y-4.185
X5.7598Y-3.685
X5.7638Y-3.7323
X5.7638Y-3.7953
X5.7638Y-3.8583
X5.7638Y-3.9213
X5.7638Y-3.9764
X5.7638Y-4.0236
X5.7638Y-4.1496
X5.7677Y-3.1457
X5.7677Y-3.4803
X5.7677Y-4.878
X5.7717Y-4.1024
X5.7835Y-3.6181
X5.7874Y-4.4134
X5.7913Y-4.9567
X5.7953Y-4.189
X5.8189Y-3.6811
X5.8189Y-4.3622
X5.8346Y-4.1496
X5.8346Y-4.7795
X5.8386Y-4.5433
X5.8425Y-3.3307
X5.8465Y-3.6181
X5.8465Y-4.8583
X5.8661Y-4.2087
X5.8701Y-3.4843
X5.8701Y-4.3346
X5.8937Y-4.6417
X5.8976Y-4.8228
X5.9016Y-3.685
X5.9055Y-4.1457
X5.9055Y-4.8976
X5.9213Y-3.6181
X5.9252Y-4.2559
X5.9291Y-4.7402
X5.9409Y-3.2953
X5.9409Y-3.9252
X5.9409Y-3.9961
X5.9449Y-3.6811
X5.9606Y-3.4488
X5.9606Y-4.1457
X5.9606Y-4.2874
X5.9646Y-3.5906
X5.9764Y-4.8268
X5.9803Y-4.7165
X5.9843Y-4.1929
X5.9843Y-4.2362
X5.9921Y-3.374
X5.9921Y-3.7205
X6.0079Y-3.622
X6.0157Y-4.5984
X6.0197Y-4.0472
X6.0276Y-4.1299
X6.0354Y-3.7205
X6.0394Y-4.7638
X6.0472Y-4.6457
X6.0727Y-4.0472
X6.0906Y-4.6969
X6.126Y-4.5787
X6.1339Y-3.4724
X6.1457Y-4.5315
X6.1614Y-4.2874
X6.189Y-4.5906
X6.248Y-3.9488
X6.2559Y-4.2402
X6.2874Y-3.8583
X6.2953Y-3.7402
X6.2992Y-4.0197
X6.2992Y-4.3189
X6.311Y-4.1496
X6.3543Y-4.0394
T2
X5.188Y-3.0246
X5.188Y-3.2215
T3
X4.5481Y-4.8397
X4.5981Y-4.7531
X4.6481Y-4.6665
T4
X4.5943Y-3.7789
X4.5943Y-4.0348
X4.7715Y-3.7789
X4.7715Y-4.0348
T5
X4.2596Y-3.7607
X4.2596Y-3.8607
X4.2596Y-3.9607
X4.2596Y-4.0607
X4.2596Y-4.1607
X4.2596Y-4.2607
X4.5719Y-4.2352
X4.6719Y-4.2352
X4.7719Y-4.2352
X6.086Y-4.4242
X6.186Y-4.4242
T6
X4.5719Y-4.4104
X5.2057Y-4.9892
X5.4459Y-3.4045
X5.4734Y-4.9754
X5.7444Y-4.6388
M30
