%TF.GenerationSoftware,KiCad,Pcbnew,9.0.2*%
%TF.CreationDate,2025-11-14T19:25:59+05:30*%
%TF.ProjectId,Nade,4e616465-2e6b-4696-9361-645f70636258,rev?*%
%TF.SameCoordinates,Original*%
%TF.FileFunction,Soldermask,Bot*%
%TF.FilePolarity,Negative*%
%FSLAX46Y46*%
G04 Gerber Fmt 4.6, Leading zero omitted, Abs format (unit mm)*
G04 Created by KiCad (PCBNEW 9.0.2) date 2025-11-14 19:25:59*
%MOMM*%
%LPD*%
G01*
G04 APERTURE LIST*
G04 Aperture macros list*
%AMRoundRect*
0 Rectangle with rounded corners*
0 $1 Rounding radius*
0 $2 $3 $4 $5 $6 $7 $8 $9 X,Y pos of 4 corners*
0 Add a 4 corners polygon primitive as box body*
4,1,4,$2,$3,$4,$5,$6,$7,$8,$9,$2,$3,0*
0 Add four circle primitives for the rounded corners*
1,1,$1+$1,$2,$3*
1,1,$1+$1,$4,$5*
1,1,$1+$1,$6,$7*
1,1,$1+$1,$8,$9*
0 Add four rect primitives between the rounded corners*
20,1,$1+$1,$2,$3,$4,$5,0*
20,1,$1+$1,$4,$5,$6,$7,0*
20,1,$1+$1,$6,$7,$8,$9,0*
20,1,$1+$1,$8,$9,$2,$3,0*%
%AMRotRect*
0 Rectangle, with rotation*
0 The origin of the aperture is its center*
0 $1 length*
0 $2 width*
0 $3 Rotation angle, in degrees counterclockwise*
0 Add horizontal line*
21,1,$1,$2,0,0,$3*%
G04 Aperture macros list end*
%ADD10C,1.000000*%
%ADD11R,1.000000X1.000000*%
%ADD12C,1.500000*%
%ADD13R,1.371600X1.371600*%
%ADD14C,1.371600*%
%ADD15RoundRect,0.150000X0.150000X-0.587500X0.150000X0.587500X-0.150000X0.587500X-0.150000X-0.587500X0*%
%ADD16RoundRect,0.150000X-0.150000X-0.625000X0.150000X-0.625000X0.150000X0.625000X-0.150000X0.625000X0*%
%ADD17RoundRect,0.250000X-0.350000X-0.650000X0.350000X-0.650000X0.350000X0.650000X-0.350000X0.650000X0*%
%ADD18R,2.400000X0.740000*%
%ADD19RoundRect,0.100000X-0.130000X-0.100000X0.130000X-0.100000X0.130000X0.100000X-0.130000X0.100000X0*%
%ADD20RoundRect,0.100000X0.130000X0.100000X-0.130000X0.100000X-0.130000X-0.100000X0.130000X-0.100000X0*%
%ADD21RoundRect,0.150000X0.625000X-0.150000X0.625000X0.150000X-0.625000X0.150000X-0.625000X-0.150000X0*%
%ADD22RoundRect,0.250000X0.650000X-0.350000X0.650000X0.350000X-0.650000X0.350000X-0.650000X-0.350000X0*%
%ADD23R,0.650000X1.350000*%
%ADD24RotRect,1.000000X1.000000X225.000000*%
%ADD25R,0.482600X0.254000*%
%ADD26R,0.254000X0.355600*%
%ADD27RoundRect,0.102000X-0.370000X-1.395000X0.370000X-1.395000X0.370000X1.395000X-0.370000X1.395000X0*%
G04 APERTURE END LIST*
D10*
%TO.C,Pyro*%
X142775000Y-101085000D03*
D11*
X142775000Y-99815000D03*
%TD*%
D12*
%TO.C,VDD*%
X130575000Y-92225000D03*
%TD*%
%TO.C,TP1*%
X134525000Y-88925000D03*
%TD*%
%TO.C,GND*%
X140225000Y-109025000D03*
%TD*%
D13*
%TO.C,SW2*%
X132544800Y-87719000D03*
D14*
X130004796Y-87718997D03*
X127464800Y-87719000D03*
%TD*%
D11*
%TO.C,J2*%
X119905000Y-94695000D03*
D10*
X119905000Y-93424999D03*
X119905001Y-92154997D03*
%TD*%
D15*
%TO.C,Q1*%
X123395000Y-109562500D03*
X124344999Y-111437501D03*
X122445001Y-111437501D03*
%TD*%
D16*
%TO.C,J4*%
X124442603Y-90834797D03*
X125442598Y-90834793D03*
D17*
X123142600Y-93359799D03*
X126742599Y-93359800D03*
%TD*%
D18*
%TO.C,J3*%
X134770199Y-99080702D03*
X138670202Y-99080700D03*
X134770199Y-97810703D03*
X138670203Y-97810700D03*
X134770203Y-96540702D03*
X138670202Y-96540700D03*
X134770200Y-95270700D03*
X138670200Y-95270700D03*
X134770198Y-94000700D03*
X138670197Y-94000698D03*
X134770197Y-92730700D03*
X138670201Y-92730697D03*
X134770198Y-91460700D03*
X138670201Y-91460698D03*
%TD*%
D19*
%TO.C,R13*%
X128505000Y-95025000D03*
X129145000Y-95025000D03*
%TD*%
%TO.C,R16*%
X129016400Y-102375000D03*
X129656400Y-102375000D03*
%TD*%
D20*
%TO.C,R17*%
X131156400Y-102325000D03*
X130516400Y-102325000D03*
%TD*%
D21*
%TO.C,J7*%
X140924997Y-105805001D03*
X140925000Y-104805000D03*
X140925000Y-103805000D03*
X140925000Y-102805000D03*
D22*
X137049999Y-107104999D03*
X137050002Y-101505002D03*
%TD*%
D23*
%TO.C,IC1*%
X123185000Y-96175000D03*
X124455000Y-96175000D03*
X125725000Y-96175000D03*
X126995000Y-96175000D03*
X126995000Y-101775000D03*
X125725000Y-101775000D03*
X124455000Y-101775000D03*
X123185000Y-101775000D03*
%TD*%
D19*
%TO.C,R15*%
X126405000Y-103225000D03*
X127045000Y-103225000D03*
%TD*%
D24*
%TO.C,Buzz*%
X119725000Y-107515000D03*
D10*
X120623026Y-108413026D03*
%TD*%
D25*
%TO.C,U3*%
X131340100Y-98989599D03*
X131340100Y-99489601D03*
X131340100Y-99989600D03*
X131340100Y-100489599D03*
X131340100Y-100989601D03*
D26*
X130506599Y-101259600D03*
X130006600Y-101259600D03*
X129506601Y-101259600D03*
D25*
X128673100Y-100989601D03*
X128673100Y-100489599D03*
X128673100Y-99989600D03*
X128673100Y-99489601D03*
X128673100Y-98989599D03*
D26*
X129506601Y-98719600D03*
X130006600Y-98719600D03*
X130506599Y-98719600D03*
%TD*%
D19*
%TO.C,R14*%
X130105000Y-95775000D03*
X130745000Y-95775000D03*
%TD*%
D27*
%TO.C,J1*%
X126275000Y-105620001D03*
X126274998Y-109690000D03*
X127545002Y-105620002D03*
X127545001Y-109689998D03*
X128815002Y-105619998D03*
X128815002Y-109690002D03*
X130085000Y-105619998D03*
X130085000Y-109690002D03*
X131354998Y-105619998D03*
X131354998Y-109690002D03*
X132624999Y-105620002D03*
X132624998Y-109689998D03*
X133895002Y-105620000D03*
X133895000Y-109689999D03*
%TD*%
M02*
