M48
; DRILL file {KiCad 9.0.2} date 2025-11-14T19:26:02+0530
; FORMAT={-:-/ absolute / inch / decimal}
; #@! TF.CreationDate,2025-11-14T19:26:02+05:30
; #@! TF.GenerationSoftware,Kicad,Pcbnew,9.0.2
; #@! TF.FileFunction,Plated,1,4,PTH
FMAT,2
INCH
; #@! TA.AperFunction,Plated,PTH,ViaDrill
T1C0.0079
; #@! TA.AperFunction,Plated,PTH,ComponentDrill
T2C0.0256
; #@! TA.AperFunction,Plated,PTH,ComponentDrill
T3C0.0276
; #@! TA.AperFunction,Plated,PTH,ComponentDrill
T4C0.0340
%
G90
G05
T1
X4.626Y-4.1378
X4.6811Y-4.2008
X4.7244Y-4.1378
X4.7709Y-4.0485
X4.7756Y-3.5551
X4.7756Y-3.7992
X4.7913Y-4.315
X4.7919Y-4.2331
X4.811Y-3.9843
X4.8622Y-4.378
X4.8656Y-3.5095
X4.8788Y-4.1034
X4.8799Y-4.1887
X4.8808Y-3.9336
X4.8819Y-4.0591
X4.8858Y-3.8268
X4.8872Y-4.2154
X4.8894Y-4.2873
X4.8898Y-4.1457
X4.8937Y-3.6969
X4.9244Y-3.8031
X4.9248Y-4.0224
X4.937Y-3.622
X4.937Y-3.8465
X4.937Y-3.9606
X4.937Y-4.0827
X4.937Y-4.1969
X4.937Y-4.3189
X4.9377Y-3.8909
X4.9449Y-3.7244
X4.9766Y-4.0315
X4.9803Y-3.5512
X4.9803Y-3.5748
X4.9921Y-4.4291
X4.9987Y-3.6221
X5.0Y-3.8268
X5.0219Y-4.4384
X5.0236Y-4.0866
X5.0269Y-3.6831
X5.0276Y-4.063
X5.0394Y-3.8976
X5.0394Y-3.9173
X5.0551Y-3.6537
X5.0551Y-3.689
X5.0551Y-3.7087
X5.0669Y-3.8465
X5.0695Y-4.25
X5.0709Y-4.0827
X5.0716Y-4.4384
X5.0748Y-3.689
X5.0748Y-3.7087
X5.0945Y-3.689
X5.0945Y-3.7087
X5.0984Y-3.9094
X5.1142Y-3.689
X5.1142Y-3.7087
X5.1142Y-3.7283
X5.1142Y-4.4843
X5.1154Y-3.8375
X5.1181Y-3.9646
X5.1219Y-4.0834
X5.122Y-4.0512
X5.1339Y-3.689
X5.1339Y-3.7087
X5.1378Y-3.9094
X5.1496Y-3.9567
X5.1496Y-4.4291
X5.1535Y-3.689
X5.1535Y-3.7087
X5.1536Y-3.7283
X5.157Y-3.808
X5.1732Y-3.5591
X5.189Y-3.5984
X5.189Y-4.4803
X5.1929Y-3.7283
X5.1969Y-3.8465
X5.1969Y-4.252
X5.2008Y-3.8976
X5.2082Y-3.9222
X5.2205Y-3.622
X5.2205Y-4.0827
X5.2261Y-3.9706
X5.2283Y-4.4331
X5.248Y-3.7244
X5.248Y-4.0512
X5.2677Y-4.4331
X5.2795Y-4.0394
X5.2953Y-4.4331
X5.2963Y-3.501
X5.3189Y-4.4311
X5.3228Y-4.0236
X5.3268Y-3.9646
X5.3268Y-4.0827
X5.3268Y-4.2008
X5.3268Y-4.3189
X5.3661Y-3.6535
X5.3705Y-3.6242
X5.374Y-3.7283
X5.374Y-4.311
X5.378Y-3.9449
X5.3801Y-3.8809
X5.3801Y-3.9129
X5.3802Y-3.8186
X5.3802Y-4.1765
X5.3803Y-3.7504
X5.3973Y-3.6464
X5.3985Y-3.7307
X5.4213Y-3.4882
X5.437Y-3.5276
X5.4567Y-3.5236
X5.4646Y-4.2087
X5.4646Y-4.2559
X5.4685Y-4.1181
X5.4961Y-4.1732
X5.5039Y-4.0472
X5.5039Y-4.0866
X5.5069Y-3.9793
X5.5197Y-3.6693
X5.542Y-3.5801
X5.5502Y-3.9892
X5.5945Y-3.8228
X5.5984Y-3.685
X5.6024Y-4.0906
X5.6535Y-3.9291
X5.6575Y-4.0669
T2
X4.7136Y-4.2329
X4.7207Y-3.6781
X4.7207Y-3.7281
X4.7207Y-3.6281
X4.7489Y-4.2682
X5.6211Y-3.9297
X5.6211Y-3.9797
T3
X5.5207Y-4.2923
T4
X5.0183Y-3.4535
X5.1183Y-3.4535
X5.2183Y-3.4535
M30
