%TF.GenerationSoftware,KiCad,Pcbnew,9.0.2*%
%TF.CreationDate,2025-11-14T19:25:59+05:30*%
%TF.ProjectId,Nade,4e616465-2e6b-4696-9361-645f70636258,rev?*%
%TF.SameCoordinates,Original*%
%TF.FileFunction,Copper,L2,Inr*%
%TF.FilePolarity,Positive*%
%FSLAX46Y46*%
G04 Gerber Fmt 4.6, Leading zero omitted, Abs format (unit mm)*
G04 Created by KiCad (PCBNEW 9.0.2) date 2025-11-14 19:25:59*
%MOMM*%
%LPD*%
G01*
G04 APERTURE LIST*
%TA.AperFunction,ComponentPad*%
%ADD10C,1.000000*%
%TD*%
%TA.AperFunction,ComponentPad*%
%ADD11R,1.000000X1.000000*%
%TD*%
%TA.AperFunction,ComponentPad*%
%ADD12C,1.500000*%
%TD*%
%TA.AperFunction,ComponentPad*%
%ADD13R,1.371600X1.371600*%
%TD*%
%TA.AperFunction,ComponentPad*%
%ADD14C,1.371600*%
%TD*%
%TA.AperFunction,ViaPad*%
%ADD15C,0.400000*%
%TD*%
%TA.AperFunction,Conductor*%
%ADD16C,0.100000*%
%TD*%
G04 APERTURE END LIST*
D10*
%TO.N,Net-(J6-Pin_2)*%
%TO.C,Pyro*%
X142775000Y-101085000D03*
D11*
%TO.N,GND*%
X142775000Y-99815000D03*
%TD*%
D12*
%TO.N,GND*%
%TO.C,GND*%
X140225000Y-109025000D03*
%TD*%
D13*
%TO.N,Net-(SW2-A)*%
%TO.C,SW2*%
X132544800Y-87719000D03*
D14*
%TO.N,Net-(J4-Pin_1)*%
X130004796Y-87718997D03*
%TO.N,unconnected-(SW2-C-Pad3)*%
X127464800Y-87719000D03*
%TD*%
D11*
%TO.N,Net-(J2-Pin_1)*%
%TO.C,J2*%
X119905000Y-94695000D03*
D10*
%TO.N,Net-(J2-Pin_2)*%
X119905000Y-93424999D03*
%TO.N,Net-(J2-Pin_3)*%
X119905001Y-92154997D03*
%TD*%
D15*
%TO.N,VDD*%
X142300000Y-103900000D03*
%TO.N,Net-(J7-Pin_2)*%
X138800000Y-106900000D03*
%TO.N,Net-(J7-Pin_1)*%
X138800000Y-108100000D03*
%TO.N,Net-(J3-Pin_6)*%
X124133900Y-107072100D03*
X136656900Y-106083500D03*
X136656900Y-96992300D03*
%TO.N,Net-(J3-Pin_3)*%
X132741800Y-100853000D03*
X123921700Y-104225900D03*
%TO.N,Net-(J3-Pin_11)*%
X127683100Y-93550200D03*
%TO.N,Net-(J3-Pin_8)*%
X130987500Y-96722400D03*
X128819400Y-112734600D03*
%TO.N,Net-(J3-Pin_7)*%
X129930500Y-97473700D03*
X127556900Y-112734600D03*
%TO.N,Net-(J3-Pin_5)*%
X125417800Y-98829700D03*
X123949500Y-106393400D03*
%TO.N,Net-(J3-Pin_13)*%
X136411400Y-92054600D03*
%TO.N,Net-(J3-Pin_4)*%
X121181600Y-102831300D03*
X136655300Y-98574500D03*
%TO.N,/PA10*%
X126800000Y-112500000D03*
%TO.N,/PA7*%
X126405000Y-102400000D03*
%TO.N,/PA13*%
X132800000Y-112600000D03*
%TO.N,/PA14*%
X133800000Y-112600000D03*
%TO.N,/PA15*%
X135100000Y-112550000D03*
%TO.N,/PB3*%
X134500000Y-112600000D03*
%TO.N,Net-(J3-Pin_12)*%
X128399700Y-92803800D03*
X137091000Y-92619500D03*
%TO.N,Net-(J3-Pin_2)*%
X125090000Y-102168700D03*
X136655300Y-99387000D03*
%TO.N,/PA2*%
X136600000Y-100200000D03*
%TO.N,Net-(J3-Pin_9)*%
X136660200Y-95259600D03*
X136500000Y-109500000D03*
%TO.N,Net-(J3-Pin_1)*%
X123973100Y-99913400D03*
X132287500Y-99624300D03*
%TO.N,Net-(J3-Pin_10)*%
X126968100Y-92000500D03*
X137121300Y-94759100D03*
%TO.N,Net-(J3-Pin_14)*%
X140975300Y-101325800D03*
X140766000Y-90935800D03*
%TO.N,/PA11*%
X123500000Y-111200000D03*
X124300000Y-93900000D03*
%TO.N,/PA3*%
X135200000Y-102200000D03*
%TO.N,/PA1*%
X125080000Y-96600000D03*
%TO.N,/PA4*%
X125600000Y-94600000D03*
%TO.N,/PC0*%
X134100000Y-102600000D03*
%TO.N,Net-(R10-Pad1)*%
X131800000Y-91400000D03*
%TO.N,Net-(SW2-A)*%
X134525000Y-88925000D03*
%TO.N,/PA6*%
X124100000Y-97200000D03*
%TO.N,/PC1*%
X133300000Y-102900000D03*
%TO.N,RESET'*%
X124200000Y-105300000D03*
%TO.N,VDD*%
X139875000Y-101075000D03*
X129900000Y-94200000D03*
X130100000Y-102900000D03*
X130900000Y-94200000D03*
X127600000Y-103800000D03*
X130400000Y-93700000D03*
X131800000Y-113800000D03*
X140200000Y-93200000D03*
X139800000Y-103800000D03*
X130900000Y-93700000D03*
X121300000Y-90300000D03*
X130400000Y-94200000D03*
X129900000Y-94700000D03*
X124000000Y-103100000D03*
X129500000Y-99300000D03*
X124191000Y-108898000D03*
X128400000Y-94200000D03*
X138600000Y-89500000D03*
X128900000Y-94200000D03*
X129900000Y-113900000D03*
X129400000Y-93700000D03*
X130000000Y-100700000D03*
X132100000Y-99000000D03*
X138900000Y-104600000D03*
X128900000Y-93700000D03*
X129900000Y-93700000D03*
X128400000Y-93700000D03*
X121700000Y-109600000D03*
X127700000Y-103200000D03*
X129400000Y-94200000D03*
%TO.N,GND*%
X130901000Y-94699500D03*
X117500000Y-105100000D03*
X143600000Y-99800000D03*
X135300000Y-103700000D03*
X125400000Y-97700000D03*
X125400000Y-106600000D03*
X126500000Y-90200000D03*
X127000000Y-97200000D03*
X121300000Y-96500000D03*
X128000000Y-99500000D03*
X135300000Y-100700000D03*
X135300000Y-109700000D03*
X120000000Y-105100000D03*
X130800000Y-100500000D03*
X125400000Y-103700000D03*
X130800000Y-112500000D03*
X131900000Y-94700000D03*
X125400000Y-92000000D03*
X133300000Y-94600000D03*
X135300000Y-106700000D03*
X139800000Y-102800000D03*
X142200000Y-93600000D03*
X142100000Y-97100000D03*
X138100000Y-89600000D03*
X137700000Y-88600000D03*
X121714000Y-107520000D03*
X128000000Y-99000000D03*
X132000000Y-97700000D03*
X128700000Y-97700000D03*
X132000000Y-108000000D03*
X136300000Y-92800000D03*
X139600000Y-106000000D03*
X125400000Y-100600000D03*
X125400000Y-109700000D03*
X131400000Y-90400000D03*
X122200000Y-101200000D03*
X123587000Y-89140700D03*
X130097000Y-103719000D03*
X126500000Y-90800000D03*
X130500000Y-99300000D03*
X132600000Y-92000000D03*
X132600000Y-103700000D03*
X128764900Y-107950000D03*
X118900000Y-106700000D03*
X136500000Y-94700000D03*
X128800000Y-103700000D03*
X143700000Y-103300000D03*
%TD*%
D16*
%TO.N,Net-(J3-Pin_6)*%
X135668300Y-107072100D02*
X136656900Y-106083500D01*
X124133900Y-107072100D02*
X135668300Y-107072100D01*
%TO.N,Net-(J3-Pin_3)*%
X125475100Y-104225900D02*
X123921700Y-104225900D01*
X127417600Y-102283400D02*
X125475100Y-104225900D01*
X131311400Y-102283400D02*
X127417600Y-102283400D01*
X132741800Y-100853000D02*
X131311400Y-102283400D01*
%TO.N,Net-(J3-Pin_4)*%
X133924000Y-98574500D02*
X136655300Y-98574500D01*
X131369100Y-101129400D02*
X133924000Y-98574500D01*
X122883500Y-101129400D02*
X131369100Y-101129400D01*
X121181600Y-102831300D02*
X122883500Y-101129400D01*
%TO.N,Net-(J3-Pin_12)*%
X136919800Y-92448300D02*
X137091000Y-92619500D01*
X128755200Y-92448300D02*
X136919800Y-92448300D01*
X128399700Y-92803800D02*
X128755200Y-92448300D01*
%TO.N,Net-(J3-Pin_2)*%
X133603700Y-99387000D02*
X136655300Y-99387000D01*
X131213500Y-101777200D02*
X133603700Y-99387000D01*
X125481500Y-101777200D02*
X131213500Y-101777200D01*
X125090000Y-102168700D02*
X125481500Y-101777200D01*
%TO.N,Net-(J3-Pin_1)*%
X131998400Y-99913400D02*
X132287500Y-99624300D01*
X123973100Y-99913400D02*
X131998400Y-99913400D01*
%TO.N,Net-(J3-Pin_10)*%
X128140000Y-93172400D02*
X126968100Y-92000500D01*
X135534600Y-93172400D02*
X128140000Y-93172400D01*
X137121300Y-94759100D02*
X135534600Y-93172400D01*
%TD*%
%TA.AperFunction,Conductor*%
%TO.N,GND*%
G36*
X130381615Y-85550711D02*
G01*
X131130861Y-85589978D01*
X131137271Y-85590482D01*
X131883485Y-85668912D01*
X131889876Y-85669754D01*
X132630932Y-85787126D01*
X132637250Y-85788297D01*
X133371147Y-85944292D01*
X133377429Y-85945800D01*
X134102164Y-86139991D01*
X134108340Y-86141821D01*
X134821901Y-86373671D01*
X134827998Y-86375829D01*
X135528432Y-86644702D01*
X135534425Y-86647184D01*
X136219833Y-86952347D01*
X136225659Y-86955125D01*
X136894162Y-87295745D01*
X136899867Y-87298843D01*
X137549617Y-87673977D01*
X137555116Y-87677347D01*
X138184363Y-88085984D01*
X138189662Y-88089625D01*
X138796679Y-88530649D01*
X138801799Y-88534578D01*
X138827388Y-88555300D01*
X139384868Y-89006739D01*
X139389804Y-89010955D01*
X139947350Y-89512971D01*
X139952059Y-89517440D01*
X140482559Y-90047940D01*
X140487028Y-90052649D01*
X140783266Y-90381655D01*
X140813496Y-90444645D01*
X140804871Y-90513981D01*
X140760129Y-90567646D01*
X140723210Y-90584401D01*
X140630707Y-90609187D01*
X140630706Y-90609188D01*
X140550794Y-90655326D01*
X140550785Y-90655333D01*
X140485533Y-90720585D01*
X140485526Y-90720594D01*
X140439388Y-90800506D01*
X140439387Y-90800509D01*
X140439386Y-90800511D01*
X140439386Y-90800512D01*
X140415500Y-90889656D01*
X140415500Y-90981944D01*
X140435276Y-91055751D01*
X140439387Y-91071090D01*
X140439388Y-91071093D01*
X140485526Y-91151005D01*
X140485529Y-91151009D01*
X140485531Y-91151012D01*
X140550788Y-91216269D01*
X140550791Y-91216270D01*
X140550794Y-91216273D01*
X140630706Y-91262411D01*
X140630707Y-91262411D01*
X140630712Y-91262414D01*
X140719856Y-91286300D01*
X140719858Y-91286300D01*
X140812142Y-91286300D01*
X140812144Y-91286300D01*
X140901288Y-91262414D01*
X140981212Y-91216269D01*
X141046469Y-91151012D01*
X141092614Y-91071088D01*
X141096723Y-91055749D01*
X141103275Y-91045000D01*
X141105482Y-91032604D01*
X141121115Y-91015732D01*
X141133087Y-90996091D01*
X141144412Y-90990589D01*
X141152971Y-90981353D01*
X141175244Y-90975611D01*
X141195934Y-90965561D01*
X141208436Y-90967055D01*
X141220629Y-90963913D01*
X141242468Y-90971124D01*
X141265310Y-90973855D01*
X141276608Y-90982396D01*
X141286975Y-90985820D01*
X141312864Y-91009808D01*
X141465416Y-91198194D01*
X141469354Y-91203325D01*
X141910368Y-91810329D01*
X141914021Y-91815644D01*
X142322641Y-92444865D01*
X142326029Y-92450393D01*
X142368137Y-92523326D01*
X142701156Y-93100132D01*
X142704254Y-93105837D01*
X143044865Y-93774323D01*
X143047660Y-93780183D01*
X143352813Y-94465570D01*
X143355297Y-94471567D01*
X143624165Y-95171989D01*
X143626332Y-95178109D01*
X143858171Y-95891635D01*
X143860015Y-95897860D01*
X144054195Y-96622555D01*
X144055710Y-96628867D01*
X144211696Y-97362717D01*
X144212879Y-97369100D01*
X144330242Y-98110103D01*
X144331090Y-98116539D01*
X144409514Y-98862695D01*
X144410023Y-98869167D01*
X144449288Y-99618384D01*
X144449458Y-99624874D01*
X144449458Y-100375125D01*
X144449288Y-100381615D01*
X144410023Y-101130832D01*
X144409514Y-101137304D01*
X144331090Y-101883460D01*
X144330242Y-101889896D01*
X144212879Y-102630899D01*
X144211696Y-102637282D01*
X144055710Y-103371132D01*
X144054195Y-103377444D01*
X143860015Y-104102139D01*
X143858171Y-104108364D01*
X143626131Y-104822508D01*
X143624427Y-104827403D01*
X143302070Y-105694431D01*
X143297404Y-105705349D01*
X143046870Y-106221689D01*
X143045794Y-106223853D01*
X142704254Y-106894162D01*
X142701156Y-106899867D01*
X142326033Y-107549599D01*
X142322641Y-107555134D01*
X141914027Y-108184346D01*
X141910356Y-108189687D01*
X141614744Y-108596562D01*
X141469368Y-108796655D01*
X141465416Y-108801805D01*
X140993260Y-109384868D01*
X140989044Y-109389804D01*
X140487028Y-109947350D01*
X140482559Y-109952059D01*
X139952059Y-110482559D01*
X139947350Y-110487028D01*
X139389804Y-110989044D01*
X139384868Y-110993260D01*
X138801805Y-111465416D01*
X138796655Y-111469368D01*
X138189697Y-111910350D01*
X138184346Y-111914027D01*
X137555134Y-112322641D01*
X137549599Y-112326033D01*
X136899867Y-112701156D01*
X136894162Y-112704254D01*
X136225676Y-113044865D01*
X136219816Y-113047660D01*
X135534429Y-113352813D01*
X135528432Y-113355297D01*
X134828010Y-113624165D01*
X134821890Y-113626332D01*
X134108364Y-113858171D01*
X134102139Y-113860015D01*
X133377444Y-114054195D01*
X133371132Y-114055710D01*
X132637282Y-114211696D01*
X132630899Y-114212879D01*
X132118950Y-114293963D01*
X132049656Y-114285008D01*
X131996204Y-114240012D01*
X131975565Y-114173260D01*
X131994290Y-114105947D01*
X132011871Y-114083808D01*
X132015207Y-114080471D01*
X132015212Y-114080469D01*
X132080469Y-114015212D01*
X132126614Y-113935288D01*
X132150500Y-113846144D01*
X132150500Y-113753856D01*
X132126614Y-113664712D01*
X132103204Y-113624165D01*
X132080473Y-113584794D01*
X132080470Y-113584791D01*
X132080469Y-113584788D01*
X132015212Y-113519531D01*
X132015209Y-113519529D01*
X132015205Y-113519526D01*
X131935293Y-113473388D01*
X131935290Y-113473387D01*
X131935289Y-113473386D01*
X131935288Y-113473386D01*
X131846144Y-113449500D01*
X131753856Y-113449500D01*
X131664712Y-113473386D01*
X131664711Y-113473386D01*
X131664709Y-113473387D01*
X131664706Y-113473388D01*
X131584794Y-113519526D01*
X131584785Y-113519533D01*
X131519533Y-113584785D01*
X131519526Y-113584794D01*
X131473388Y-113664706D01*
X131473387Y-113664709D01*
X131473386Y-113664711D01*
X131473386Y-113664712D01*
X131449500Y-113753856D01*
X131449500Y-113846144D01*
X131451566Y-113853856D01*
X131473387Y-113935290D01*
X131473388Y-113935293D01*
X131519526Y-114015205D01*
X131519529Y-114015209D01*
X131519531Y-114015212D01*
X131584788Y-114080469D01*
X131584791Y-114080470D01*
X131584794Y-114080473D01*
X131667516Y-114128234D01*
X131715731Y-114178801D01*
X131728953Y-114247409D01*
X131702985Y-114312273D01*
X131646070Y-114352801D01*
X131618476Y-114358941D01*
X131137303Y-114409514D01*
X131130832Y-114410023D01*
X130381616Y-114449288D01*
X130375126Y-114449458D01*
X130112085Y-114449458D01*
X130045046Y-114429773D01*
X129999291Y-114376969D01*
X129989347Y-114307811D01*
X130018372Y-114244255D01*
X130050082Y-114218072D01*
X130115212Y-114180469D01*
X130180469Y-114115212D01*
X130226614Y-114035288D01*
X130250500Y-113946144D01*
X130250500Y-113853856D01*
X130226614Y-113764712D01*
X130226611Y-113764706D01*
X130180473Y-113684794D01*
X130180470Y-113684791D01*
X130180469Y-113684788D01*
X130115212Y-113619531D01*
X130115209Y-113619529D01*
X130115205Y-113619526D01*
X130035293Y-113573388D01*
X130035290Y-113573387D01*
X130035289Y-113573386D01*
X130035288Y-113573386D01*
X129946144Y-113549500D01*
X129853856Y-113549500D01*
X129764712Y-113573386D01*
X129764711Y-113573386D01*
X129764709Y-113573387D01*
X129764706Y-113573388D01*
X129684794Y-113619526D01*
X129684785Y-113619533D01*
X129619533Y-113684785D01*
X129619526Y-113684794D01*
X129573388Y-113764706D01*
X129573387Y-113764709D01*
X129573386Y-113764711D01*
X129573386Y-113764712D01*
X129549500Y-113853856D01*
X129549500Y-113946144D01*
X129568007Y-114015214D01*
X129573387Y-114035290D01*
X129573388Y-114035293D01*
X129619526Y-114115205D01*
X129619529Y-114115209D01*
X129619531Y-114115212D01*
X129684788Y-114180469D01*
X129749916Y-114218071D01*
X129752025Y-114220282D01*
X129754954Y-114221143D01*
X129775967Y-114245394D01*
X129798131Y-114268639D01*
X129798709Y-114271639D01*
X129800709Y-114273947D01*
X129805278Y-114305725D01*
X129811353Y-114337246D01*
X129810218Y-114340080D01*
X129810653Y-114343105D01*
X129797315Y-114372310D01*
X129785385Y-114402111D01*
X129782896Y-114403882D01*
X129781628Y-114406661D01*
X129754616Y-114424020D01*
X129728470Y-114442638D01*
X129724645Y-114443281D01*
X129722850Y-114444435D01*
X129687915Y-114449458D01*
X129624874Y-114449458D01*
X129618384Y-114449288D01*
X128869167Y-114410023D01*
X128862695Y-114409514D01*
X128116539Y-114331090D01*
X128110103Y-114330242D01*
X127369100Y-114212879D01*
X127362717Y-114211696D01*
X126628867Y-114055710D01*
X126622555Y-114054195D01*
X125897860Y-113860015D01*
X125891635Y-113858171D01*
X125178109Y-113626332D01*
X125171989Y-113624165D01*
X124471567Y-113355297D01*
X124465570Y-113352813D01*
X123780183Y-113047660D01*
X123774323Y-113044865D01*
X123105837Y-112704254D01*
X123100132Y-112701156D01*
X122843719Y-112553116D01*
X122672276Y-112454133D01*
X122671796Y-112453856D01*
X126449500Y-112453856D01*
X126449500Y-112546144D01*
X126463746Y-112599312D01*
X126473387Y-112635290D01*
X126473388Y-112635293D01*
X126519526Y-112715205D01*
X126519529Y-112715209D01*
X126519531Y-112715212D01*
X126584788Y-112780469D01*
X126584791Y-112780470D01*
X126584794Y-112780473D01*
X126664706Y-112826611D01*
X126664707Y-112826611D01*
X126664712Y-112826614D01*
X126753856Y-112850500D01*
X126753858Y-112850500D01*
X126846142Y-112850500D01*
X126846144Y-112850500D01*
X126935288Y-112826614D01*
X127015212Y-112780469D01*
X127015217Y-112780463D01*
X127021658Y-112775522D01*
X127022710Y-112776893D01*
X127075381Y-112748127D01*
X127145073Y-112753104D01*
X127201011Y-112794969D01*
X127221525Y-112837194D01*
X127225091Y-112850499D01*
X127230287Y-112869891D01*
X127230288Y-112869893D01*
X127276426Y-112949805D01*
X127276429Y-112949809D01*
X127276431Y-112949812D01*
X127341688Y-113015069D01*
X127341691Y-113015070D01*
X127341694Y-113015073D01*
X127421606Y-113061211D01*
X127421607Y-113061211D01*
X127421612Y-113061214D01*
X127510756Y-113085100D01*
X127510758Y-113085100D01*
X127603042Y-113085100D01*
X127603044Y-113085100D01*
X127692188Y-113061214D01*
X127772112Y-113015069D01*
X127837369Y-112949812D01*
X127883514Y-112869888D01*
X127907400Y-112780744D01*
X127907400Y-112688456D01*
X128468900Y-112688456D01*
X128468900Y-112780744D01*
X128484026Y-112837197D01*
X128492787Y-112869890D01*
X128492788Y-112869893D01*
X128538926Y-112949805D01*
X128538929Y-112949809D01*
X128538931Y-112949812D01*
X128604188Y-113015069D01*
X128604191Y-113015070D01*
X128604194Y-113015073D01*
X128684106Y-113061211D01*
X128684107Y-113061211D01*
X128684112Y-113061214D01*
X128773256Y-113085100D01*
X128773258Y-113085100D01*
X128865542Y-113085100D01*
X128865544Y-113085100D01*
X128954688Y-113061214D01*
X129034612Y-113015069D01*
X129099869Y-112949812D01*
X129146014Y-112869888D01*
X129169900Y-112780744D01*
X129169900Y-112688456D01*
X129146014Y-112599312D01*
X129146012Y-112599309D01*
X129146012Y-112599307D01*
X129119770Y-112553856D01*
X132449500Y-112553856D01*
X132449500Y-112646144D01*
X132468007Y-112715214D01*
X132473387Y-112735290D01*
X132473388Y-112735293D01*
X132519526Y-112815205D01*
X132519529Y-112815209D01*
X132519531Y-112815212D01*
X132584788Y-112880469D01*
X132584791Y-112880470D01*
X132584794Y-112880473D01*
X132664706Y-112926611D01*
X132664707Y-112926611D01*
X132664712Y-112926614D01*
X132753856Y-112950500D01*
X132753858Y-112950500D01*
X132846142Y-112950500D01*
X132846144Y-112950500D01*
X132935288Y-112926614D01*
X133015212Y-112880469D01*
X133080469Y-112815212D01*
X133126614Y-112735288D01*
X133150500Y-112646144D01*
X133150500Y-112553856D01*
X133449500Y-112553856D01*
X133449500Y-112646144D01*
X133468007Y-112715214D01*
X133473387Y-112735290D01*
X133473388Y-112735293D01*
X133519526Y-112815205D01*
X133519529Y-112815209D01*
X133519531Y-112815212D01*
X133584788Y-112880469D01*
X133584791Y-112880470D01*
X133584794Y-112880473D01*
X133664706Y-112926611D01*
X133664707Y-112926611D01*
X133664712Y-112926614D01*
X133753856Y-112950500D01*
X133753858Y-112950500D01*
X133846142Y-112950500D01*
X133846144Y-112950500D01*
X133935288Y-112926614D01*
X134015212Y-112880469D01*
X134062319Y-112833362D01*
X134123642Y-112799877D01*
X134193334Y-112804861D01*
X134237681Y-112833362D01*
X134284788Y-112880469D01*
X134284791Y-112880470D01*
X134284794Y-112880473D01*
X134364706Y-112926611D01*
X134364707Y-112926611D01*
X134364712Y-112926614D01*
X134453856Y-112950500D01*
X134453858Y-112950500D01*
X134546142Y-112950500D01*
X134546144Y-112950500D01*
X134635288Y-112926614D01*
X134715212Y-112880469D01*
X134741701Y-112853979D01*
X134803020Y-112820496D01*
X134872712Y-112825480D01*
X134891381Y-112834276D01*
X134964706Y-112876611D01*
X134964707Y-112876611D01*
X134964712Y-112876614D01*
X135053856Y-112900500D01*
X135053858Y-112900500D01*
X135146142Y-112900500D01*
X135146144Y-112900500D01*
X135235288Y-112876614D01*
X135315212Y-112830469D01*
X135380469Y-112765212D01*
X135426614Y-112685288D01*
X135450500Y-112596144D01*
X135450500Y-112503856D01*
X135426614Y-112414712D01*
X135422732Y-112407988D01*
X135380473Y-112334794D01*
X135380470Y-112334791D01*
X135380469Y-112334788D01*
X135315212Y-112269531D01*
X135315209Y-112269529D01*
X135315205Y-112269526D01*
X135235293Y-112223388D01*
X135235290Y-112223387D01*
X135235289Y-112223386D01*
X135235288Y-112223386D01*
X135146144Y-112199500D01*
X135053856Y-112199500D01*
X134964712Y-112223386D01*
X134964711Y-112223386D01*
X134964709Y-112223387D01*
X134964706Y-112223388D01*
X134884794Y-112269526D01*
X134884788Y-112269531D01*
X134858299Y-112296020D01*
X134796975Y-112329504D01*
X134727284Y-112324518D01*
X134708618Y-112315724D01*
X134674490Y-112296020D01*
X134635288Y-112273386D01*
X134546144Y-112249500D01*
X134453856Y-112249500D01*
X134364712Y-112273386D01*
X134364711Y-112273386D01*
X134364709Y-112273387D01*
X134364706Y-112273388D01*
X134284794Y-112319526D01*
X134284785Y-112319533D01*
X134237681Y-112366638D01*
X134176358Y-112400123D01*
X134106666Y-112395139D01*
X134062319Y-112366638D01*
X134015214Y-112319533D01*
X134015212Y-112319531D01*
X134015209Y-112319529D01*
X134015205Y-112319526D01*
X133935293Y-112273388D01*
X133935290Y-112273387D01*
X133935289Y-112273386D01*
X133935288Y-112273386D01*
X133846144Y-112249500D01*
X133753856Y-112249500D01*
X133664712Y-112273386D01*
X133664711Y-112273386D01*
X133664709Y-112273387D01*
X133664706Y-112273388D01*
X133584794Y-112319526D01*
X133584785Y-112319533D01*
X133519533Y-112384785D01*
X133519526Y-112384794D01*
X133473388Y-112464706D01*
X133473387Y-112464709D01*
X133473386Y-112464711D01*
X133473386Y-112464712D01*
X133449500Y-112553856D01*
X133150500Y-112553856D01*
X133126614Y-112464712D01*
X133126611Y-112464706D01*
X133080473Y-112384794D01*
X133080470Y-112384791D01*
X133080469Y-112384788D01*
X133015212Y-112319531D01*
X133015209Y-112319529D01*
X133015205Y-112319526D01*
X132935293Y-112273388D01*
X132935290Y-112273387D01*
X132935289Y-112273386D01*
X132935288Y-112273386D01*
X132846144Y-112249500D01*
X132753856Y-112249500D01*
X132664712Y-112273386D01*
X132664711Y-112273386D01*
X132664709Y-112273387D01*
X132664706Y-112273388D01*
X132584794Y-112319526D01*
X132584785Y-112319533D01*
X132519533Y-112384785D01*
X132519526Y-112384794D01*
X132473388Y-112464706D01*
X132473387Y-112464709D01*
X132473386Y-112464711D01*
X132473386Y-112464712D01*
X132449500Y-112553856D01*
X129119770Y-112553856D01*
X129099873Y-112519394D01*
X129099870Y-112519391D01*
X129099869Y-112519388D01*
X129034612Y-112454131D01*
X129034609Y-112454129D01*
X129034605Y-112454126D01*
X128954693Y-112407988D01*
X128954690Y-112407987D01*
X128954689Y-112407986D01*
X128954688Y-112407986D01*
X128865544Y-112384100D01*
X128773256Y-112384100D01*
X128684112Y-112407986D01*
X128684111Y-112407986D01*
X128684109Y-112407987D01*
X128684106Y-112407988D01*
X128604194Y-112454126D01*
X128604185Y-112454133D01*
X128538933Y-112519385D01*
X128538926Y-112519394D01*
X128492788Y-112599306D01*
X128492787Y-112599309D01*
X128492786Y-112599311D01*
X128492786Y-112599312D01*
X128468900Y-112688456D01*
X127907400Y-112688456D01*
X127883514Y-112599312D01*
X127881685Y-112596144D01*
X127837373Y-112519394D01*
X127837370Y-112519391D01*
X127837369Y-112519388D01*
X127772112Y-112454131D01*
X127772109Y-112454129D01*
X127772105Y-112454126D01*
X127692193Y-112407988D01*
X127692190Y-112407987D01*
X127692189Y-112407986D01*
X127692188Y-112407986D01*
X127603044Y-112384100D01*
X127510756Y-112384100D01*
X127421612Y-112407986D01*
X127421611Y-112407986D01*
X127421609Y-112407987D01*
X127421606Y-112407988D01*
X127341694Y-112454126D01*
X127335242Y-112459078D01*
X127334191Y-112457709D01*
X127281492Y-112486478D01*
X127211801Y-112481486D01*
X127155872Y-112439609D01*
X127135373Y-112397403D01*
X127126614Y-112364712D01*
X127126611Y-112364706D01*
X127080473Y-112284794D01*
X127080470Y-112284791D01*
X127080469Y-112284788D01*
X127015212Y-112219531D01*
X127015209Y-112219529D01*
X127015205Y-112219526D01*
X126935293Y-112173388D01*
X126935290Y-112173387D01*
X126935289Y-112173386D01*
X126935288Y-112173386D01*
X126846144Y-112149500D01*
X126753856Y-112149500D01*
X126664712Y-112173386D01*
X126664711Y-112173386D01*
X126664709Y-112173387D01*
X126664706Y-112173388D01*
X126584794Y-112219526D01*
X126584785Y-112219533D01*
X126519533Y-112284785D01*
X126519526Y-112284794D01*
X126473388Y-112364706D01*
X126473387Y-112364709D01*
X126473386Y-112364711D01*
X126473386Y-112364712D01*
X126449500Y-112453856D01*
X122671796Y-112453856D01*
X122450393Y-112326029D01*
X122444865Y-112322641D01*
X121815644Y-111914021D01*
X121810329Y-111910368D01*
X121203325Y-111469354D01*
X121198194Y-111465416D01*
X120922416Y-111242095D01*
X120813450Y-111153856D01*
X123149500Y-111153856D01*
X123149500Y-111246143D01*
X123173387Y-111335290D01*
X123173388Y-111335293D01*
X123219526Y-111415205D01*
X123219529Y-111415209D01*
X123219531Y-111415212D01*
X123284788Y-111480469D01*
X123284791Y-111480470D01*
X123284794Y-111480473D01*
X123364706Y-111526611D01*
X123364707Y-111526611D01*
X123364712Y-111526614D01*
X123453856Y-111550500D01*
X123453858Y-111550500D01*
X123546142Y-111550500D01*
X123546144Y-111550500D01*
X123635288Y-111526614D01*
X123715212Y-111480469D01*
X123780469Y-111415212D01*
X123826614Y-111335288D01*
X123850500Y-111246144D01*
X123850500Y-111153856D01*
X123826614Y-111064712D01*
X123803978Y-111025506D01*
X123780473Y-110984794D01*
X123780470Y-110984791D01*
X123780469Y-110984788D01*
X123715212Y-110919531D01*
X123715209Y-110919529D01*
X123715205Y-110919526D01*
X123635293Y-110873388D01*
X123635290Y-110873387D01*
X123635289Y-110873386D01*
X123635288Y-110873386D01*
X123546144Y-110849500D01*
X123453856Y-110849500D01*
X123364712Y-110873386D01*
X123364711Y-110873386D01*
X123364709Y-110873387D01*
X123364706Y-110873388D01*
X123284794Y-110919526D01*
X123284785Y-110919533D01*
X123219533Y-110984785D01*
X123219526Y-110984794D01*
X123173388Y-111064706D01*
X123173387Y-111064709D01*
X123149500Y-111153856D01*
X120813450Y-111153856D01*
X120615131Y-110993260D01*
X120610195Y-110989044D01*
X120052649Y-110487028D01*
X120047940Y-110482559D01*
X119517440Y-109952059D01*
X119512971Y-109947350D01*
X119226059Y-109628701D01*
X119158668Y-109553856D01*
X121349500Y-109553856D01*
X121349500Y-109646144D01*
X121368007Y-109715214D01*
X121373387Y-109735290D01*
X121373388Y-109735293D01*
X121419526Y-109815205D01*
X121419529Y-109815209D01*
X121419531Y-109815212D01*
X121484788Y-109880469D01*
X121484791Y-109880470D01*
X121484794Y-109880473D01*
X121564706Y-109926611D01*
X121564707Y-109926611D01*
X121564712Y-109926614D01*
X121653856Y-109950500D01*
X121653858Y-109950500D01*
X121746142Y-109950500D01*
X121746144Y-109950500D01*
X121835288Y-109926614D01*
X121915212Y-109880469D01*
X121980469Y-109815212D01*
X122026614Y-109735288D01*
X122050500Y-109646144D01*
X122050500Y-109553856D01*
X122026614Y-109464712D01*
X122026611Y-109464706D01*
X122020347Y-109453856D01*
X136149500Y-109453856D01*
X136149500Y-109546144D01*
X136151566Y-109553856D01*
X136173387Y-109635290D01*
X136173388Y-109635293D01*
X136219526Y-109715205D01*
X136219529Y-109715209D01*
X136219531Y-109715212D01*
X136284788Y-109780469D01*
X136284791Y-109780470D01*
X136284794Y-109780473D01*
X136364706Y-109826611D01*
X136364707Y-109826611D01*
X136364712Y-109826614D01*
X136453856Y-109850500D01*
X136453858Y-109850500D01*
X136546142Y-109850500D01*
X136546144Y-109850500D01*
X136635288Y-109826614D01*
X136715212Y-109780469D01*
X136780469Y-109715212D01*
X136826614Y-109635288D01*
X136850500Y-109546144D01*
X136850500Y-109453856D01*
X136826614Y-109364712D01*
X136826611Y-109364706D01*
X136780473Y-109284794D01*
X136780470Y-109284791D01*
X136780469Y-109284788D01*
X136715212Y-109219531D01*
X136715209Y-109219529D01*
X136715205Y-109219526D01*
X136635293Y-109173388D01*
X136635290Y-109173387D01*
X136635289Y-109173386D01*
X136635288Y-109173386D01*
X136546144Y-109149500D01*
X136453856Y-109149500D01*
X136364712Y-109173386D01*
X136364711Y-109173386D01*
X136364709Y-109173387D01*
X136364706Y-109173388D01*
X136284794Y-109219526D01*
X136284785Y-109219533D01*
X136219533Y-109284785D01*
X136219526Y-109284794D01*
X136173388Y-109364706D01*
X136173387Y-109364709D01*
X136173386Y-109364711D01*
X136173386Y-109364712D01*
X136149500Y-109453856D01*
X122020347Y-109453856D01*
X121980473Y-109384794D01*
X121980470Y-109384791D01*
X121980469Y-109384788D01*
X121915212Y-109319531D01*
X121915209Y-109319529D01*
X121915205Y-109319526D01*
X121835293Y-109273388D01*
X121835290Y-109273387D01*
X121835289Y-109273386D01*
X121835288Y-109273386D01*
X121746144Y-109249500D01*
X121653856Y-109249500D01*
X121564712Y-109273386D01*
X121564711Y-109273386D01*
X121564709Y-109273387D01*
X121564706Y-109273388D01*
X121484794Y-109319526D01*
X121484785Y-109319533D01*
X121419533Y-109384785D01*
X121419526Y-109384794D01*
X121373388Y-109464706D01*
X121373387Y-109464709D01*
X121373386Y-109464711D01*
X121373386Y-109464712D01*
X121349500Y-109553856D01*
X119158668Y-109553856D01*
X119010955Y-109389804D01*
X119006739Y-109384868D01*
X118649846Y-108944143D01*
X118534578Y-108801799D01*
X118530631Y-108796654D01*
X118528355Y-108793521D01*
X118206426Y-108350425D01*
X120147526Y-108350425D01*
X120147526Y-108475627D01*
X120179931Y-108596562D01*
X120242531Y-108704990D01*
X120331062Y-108793521D01*
X120439490Y-108856121D01*
X120560425Y-108888526D01*
X120560427Y-108888526D01*
X120685625Y-108888526D01*
X120685627Y-108888526D01*
X120806562Y-108856121D01*
X120813949Y-108851856D01*
X123840500Y-108851856D01*
X123840500Y-108944143D01*
X123864387Y-109033290D01*
X123864388Y-109033293D01*
X123910526Y-109113205D01*
X123910529Y-109113209D01*
X123910531Y-109113212D01*
X123975788Y-109178469D01*
X123975791Y-109178470D01*
X123975794Y-109178473D01*
X124055706Y-109224611D01*
X124055707Y-109224611D01*
X124055712Y-109224614D01*
X124144856Y-109248500D01*
X124144858Y-109248500D01*
X124237142Y-109248500D01*
X124237144Y-109248500D01*
X124326288Y-109224614D01*
X124406212Y-109178469D01*
X124471469Y-109113212D01*
X124517614Y-109033288D01*
X124541500Y-108944144D01*
X124541500Y-108851856D01*
X124517614Y-108762712D01*
X124517611Y-108762706D01*
X124471473Y-108682794D01*
X124471470Y-108682791D01*
X124471469Y-108682788D01*
X124406212Y-108617531D01*
X124406209Y-108617529D01*
X124406205Y-108617526D01*
X124326293Y-108571388D01*
X124326290Y-108571387D01*
X124326289Y-108571386D01*
X124326288Y-108571386D01*
X124237144Y-108547500D01*
X124144856Y-108547500D01*
X124055712Y-108571386D01*
X124055711Y-108571386D01*
X124055709Y-108571387D01*
X124055706Y-108571388D01*
X123975794Y-108617526D01*
X123975785Y-108617533D01*
X123910533Y-108682785D01*
X123910526Y-108682794D01*
X123864388Y-108762706D01*
X123864387Y-108762709D01*
X123840500Y-108851856D01*
X120813949Y-108851856D01*
X120914990Y-108793521D01*
X121003521Y-108704990D01*
X121066121Y-108596562D01*
X121098526Y-108475627D01*
X121098526Y-108350425D01*
X121066121Y-108229490D01*
X121003521Y-108121062D01*
X120936315Y-108053856D01*
X138449500Y-108053856D01*
X138449500Y-108146144D01*
X138471832Y-108229490D01*
X138473387Y-108235290D01*
X138473388Y-108235293D01*
X138519526Y-108315205D01*
X138519529Y-108315209D01*
X138519531Y-108315212D01*
X138584788Y-108380469D01*
X138584791Y-108380470D01*
X138584794Y-108380473D01*
X138664706Y-108426611D01*
X138664707Y-108426611D01*
X138664712Y-108426614D01*
X138753856Y-108450500D01*
X138753858Y-108450500D01*
X138846142Y-108450500D01*
X138846144Y-108450500D01*
X138935288Y-108426614D01*
X139015212Y-108380469D01*
X139080469Y-108315212D01*
X139126614Y-108235288D01*
X139150500Y-108146144D01*
X139150500Y-108053856D01*
X139126614Y-107964712D01*
X139110918Y-107937526D01*
X139080473Y-107884794D01*
X139080470Y-107884791D01*
X139080469Y-107884788D01*
X139015212Y-107819531D01*
X139015209Y-107819529D01*
X139015205Y-107819526D01*
X138935293Y-107773388D01*
X138935290Y-107773387D01*
X138935289Y-107773386D01*
X138935288Y-107773386D01*
X138846144Y-107749500D01*
X138753856Y-107749500D01*
X138664712Y-107773386D01*
X138664711Y-107773386D01*
X138664709Y-107773387D01*
X138664706Y-107773388D01*
X138584794Y-107819526D01*
X138584785Y-107819533D01*
X138519533Y-107884785D01*
X138519526Y-107884794D01*
X138473388Y-107964706D01*
X138473387Y-107964709D01*
X138473386Y-107964711D01*
X138473386Y-107964712D01*
X138449500Y-108053856D01*
X120936315Y-108053856D01*
X120914990Y-108032531D01*
X120806562Y-107969931D01*
X120806563Y-107969931D01*
X120766250Y-107959129D01*
X120685627Y-107937526D01*
X120560425Y-107937526D01*
X120479801Y-107959129D01*
X120439489Y-107969931D01*
X120331063Y-108032530D01*
X120331060Y-108032532D01*
X120242532Y-108121060D01*
X120242530Y-108121063D01*
X120179931Y-108229489D01*
X120179931Y-108229490D01*
X120147526Y-108350425D01*
X118206426Y-108350425D01*
X118089625Y-108189662D01*
X118085984Y-108184363D01*
X117677347Y-107555116D01*
X117673977Y-107549617D01*
X117298843Y-106899867D01*
X117295745Y-106894162D01*
X117201509Y-106709214D01*
X117017082Y-106347256D01*
X123599000Y-106347256D01*
X123599000Y-106439543D01*
X123622887Y-106528690D01*
X123622888Y-106528693D01*
X123669026Y-106608605D01*
X123669029Y-106608609D01*
X123669031Y-106608612D01*
X123734288Y-106673869D01*
X123795507Y-106709215D01*
X123843723Y-106759781D01*
X123856945Y-106828388D01*
X123840894Y-106878602D01*
X123807286Y-106936810D01*
X123798045Y-106971300D01*
X123783400Y-107025956D01*
X123783400Y-107118244D01*
X123800074Y-107180473D01*
X123807287Y-107207390D01*
X123807288Y-107207393D01*
X123853426Y-107287305D01*
X123853429Y-107287309D01*
X123853431Y-107287312D01*
X123918688Y-107352569D01*
X123918691Y-107352570D01*
X123918694Y-107352573D01*
X123998606Y-107398711D01*
X123998607Y-107398711D01*
X123998612Y-107398714D01*
X124087756Y-107422600D01*
X124087758Y-107422600D01*
X124180042Y-107422600D01*
X124180044Y-107422600D01*
X124269188Y-107398714D01*
X124349112Y-107352569D01*
X124392762Y-107308919D01*
X124454085Y-107275434D01*
X124480443Y-107272600D01*
X135708180Y-107272600D01*
X135708182Y-107272600D01*
X135781874Y-107242076D01*
X136170093Y-106853856D01*
X138449500Y-106853856D01*
X138449500Y-106946143D01*
X138473387Y-107035290D01*
X138473388Y-107035293D01*
X138519526Y-107115205D01*
X138519529Y-107115209D01*
X138519531Y-107115212D01*
X138584788Y-107180469D01*
X138584791Y-107180470D01*
X138584794Y-107180473D01*
X138664706Y-107226611D01*
X138664707Y-107226611D01*
X138664712Y-107226614D01*
X138753856Y-107250500D01*
X138753858Y-107250500D01*
X138846142Y-107250500D01*
X138846144Y-107250500D01*
X138935288Y-107226614D01*
X139015212Y-107180469D01*
X139080469Y-107115212D01*
X139126614Y-107035288D01*
X139150500Y-106946144D01*
X139150500Y-106853856D01*
X139126614Y-106764712D01*
X139126611Y-106764706D01*
X139080473Y-106684794D01*
X139080470Y-106684791D01*
X139080469Y-106684788D01*
X139015212Y-106619531D01*
X139015209Y-106619529D01*
X139015205Y-106619526D01*
X138935293Y-106573388D01*
X138935290Y-106573387D01*
X138935289Y-106573386D01*
X138935288Y-106573386D01*
X138846144Y-106549500D01*
X138753856Y-106549500D01*
X138664712Y-106573386D01*
X138664711Y-106573386D01*
X138664709Y-106573387D01*
X138664706Y-106573388D01*
X138584794Y-106619526D01*
X138584785Y-106619533D01*
X138519533Y-106684785D01*
X138519526Y-106684794D01*
X138473388Y-106764706D01*
X138473387Y-106764709D01*
X138449500Y-106853856D01*
X136170093Y-106853856D01*
X136553630Y-106470318D01*
X136614953Y-106436834D01*
X136641311Y-106434000D01*
X136703042Y-106434000D01*
X136703044Y-106434000D01*
X136792188Y-106410114D01*
X136872112Y-106363969D01*
X136937369Y-106298712D01*
X136983514Y-106218788D01*
X137007400Y-106129644D01*
X137007400Y-106037356D01*
X136983514Y-105948212D01*
X136983511Y-105948206D01*
X136937373Y-105868294D01*
X136937370Y-105868291D01*
X136937369Y-105868288D01*
X136872112Y-105803031D01*
X136872109Y-105803029D01*
X136872105Y-105803026D01*
X136792193Y-105756888D01*
X136792190Y-105756887D01*
X136792189Y-105756886D01*
X136792188Y-105756886D01*
X136703044Y-105733000D01*
X136610756Y-105733000D01*
X136521612Y-105756886D01*
X136521611Y-105756886D01*
X136521609Y-105756887D01*
X136521606Y-105756888D01*
X136441694Y-105803026D01*
X136441685Y-105803033D01*
X136376433Y-105868285D01*
X136376426Y-105868294D01*
X136330288Y-105948206D01*
X136330287Y-105948209D01*
X136306400Y-106037356D01*
X136306400Y-106099087D01*
X136286715Y-106166126D01*
X136270081Y-106186768D01*
X135621569Y-106835281D01*
X135560246Y-106868766D01*
X135533888Y-106871600D01*
X124480443Y-106871600D01*
X124458921Y-106865280D01*
X124436557Y-106863574D01*
X124422764Y-106854663D01*
X124413404Y-106851915D01*
X124405661Y-106846512D01*
X124398823Y-106841342D01*
X124349112Y-106791631D01*
X124281238Y-106752443D01*
X124275110Y-106747810D01*
X124258697Y-106725666D01*
X124239676Y-106705717D01*
X124238188Y-106697996D01*
X124233505Y-106691678D01*
X124231669Y-106664172D01*
X124226454Y-106637110D01*
X124229274Y-106628285D01*
X124228853Y-106621964D01*
X124234653Y-106611460D01*
X124242504Y-106586901D01*
X124276114Y-106528688D01*
X124300000Y-106439544D01*
X124300000Y-106347256D01*
X124276114Y-106258112D01*
X124257377Y-106225659D01*
X124229973Y-106178194D01*
X124229970Y-106178191D01*
X124229969Y-106178188D01*
X124164712Y-106112931D01*
X124164709Y-106112929D01*
X124164705Y-106112926D01*
X124084793Y-106066788D01*
X124084790Y-106066787D01*
X124084789Y-106066786D01*
X124084788Y-106066786D01*
X123995644Y-106042900D01*
X123903356Y-106042900D01*
X123814212Y-106066786D01*
X123814211Y-106066786D01*
X123814209Y-106066787D01*
X123814206Y-106066788D01*
X123734294Y-106112926D01*
X123734285Y-106112933D01*
X123669033Y-106178185D01*
X123669026Y-106178194D01*
X123622888Y-106258106D01*
X123622887Y-106258109D01*
X123599000Y-106347256D01*
X117017082Y-106347256D01*
X116955125Y-106225659D01*
X116952347Y-106219833D01*
X116647184Y-105534425D01*
X116644702Y-105528432D01*
X116608948Y-105435290D01*
X116539302Y-105253856D01*
X123849500Y-105253856D01*
X123849500Y-105346143D01*
X123873387Y-105435290D01*
X123873388Y-105435293D01*
X123919526Y-105515205D01*
X123919529Y-105515209D01*
X123919531Y-105515212D01*
X123984788Y-105580469D01*
X123984791Y-105580470D01*
X123984794Y-105580473D01*
X124064706Y-105626611D01*
X124064707Y-105626611D01*
X124064712Y-105626614D01*
X124153856Y-105650500D01*
X124153858Y-105650500D01*
X124246142Y-105650500D01*
X124246144Y-105650500D01*
X124335288Y-105626614D01*
X124415212Y-105580469D01*
X124480469Y-105515212D01*
X124526614Y-105435288D01*
X124550500Y-105346144D01*
X124550500Y-105253856D01*
X124526614Y-105164712D01*
X124526611Y-105164706D01*
X124480473Y-105084794D01*
X124480470Y-105084791D01*
X124480469Y-105084788D01*
X124415212Y-105019531D01*
X124415209Y-105019529D01*
X124415205Y-105019526D01*
X124335293Y-104973388D01*
X124335290Y-104973387D01*
X124335289Y-104973386D01*
X124335288Y-104973386D01*
X124246144Y-104949500D01*
X124153856Y-104949500D01*
X124064712Y-104973386D01*
X124064711Y-104973386D01*
X124064709Y-104973387D01*
X124064706Y-104973388D01*
X123984794Y-105019526D01*
X123984785Y-105019533D01*
X123919533Y-105084785D01*
X123919526Y-105084794D01*
X123873388Y-105164706D01*
X123873387Y-105164709D01*
X123849500Y-105253856D01*
X116539302Y-105253856D01*
X116375829Y-104827998D01*
X116373667Y-104821890D01*
X116345529Y-104735290D01*
X116141821Y-104108340D01*
X116139991Y-104102164D01*
X115945800Y-103377429D01*
X115944289Y-103371132D01*
X115819736Y-102785156D01*
X120831100Y-102785156D01*
X120831100Y-102877444D01*
X120854483Y-102964712D01*
X120854987Y-102966590D01*
X120854988Y-102966593D01*
X120901126Y-103046505D01*
X120901129Y-103046509D01*
X120901131Y-103046512D01*
X120966388Y-103111769D01*
X120966391Y-103111770D01*
X120966394Y-103111773D01*
X121046306Y-103157911D01*
X121046307Y-103157911D01*
X121046312Y-103157914D01*
X121135456Y-103181800D01*
X121135458Y-103181800D01*
X121227742Y-103181800D01*
X121227744Y-103181800D01*
X121316888Y-103157914D01*
X121396812Y-103111769D01*
X121454725Y-103053856D01*
X123649500Y-103053856D01*
X123649500Y-103146144D01*
X123671061Y-103226612D01*
X123673387Y-103235290D01*
X123673388Y-103235293D01*
X123719526Y-103315205D01*
X123719529Y-103315209D01*
X123719531Y-103315212D01*
X123784788Y-103380469D01*
X123784791Y-103380470D01*
X123784794Y-103380473D01*
X123864706Y-103426611D01*
X123864707Y-103426611D01*
X123864712Y-103426614D01*
X123953856Y-103450500D01*
X123953858Y-103450500D01*
X124046142Y-103450500D01*
X124046144Y-103450500D01*
X124135288Y-103426614D01*
X124215212Y-103380469D01*
X124280469Y-103315212D01*
X124326614Y-103235288D01*
X124350500Y-103146144D01*
X124350500Y-103053856D01*
X124326614Y-102964712D01*
X124315893Y-102946143D01*
X124280473Y-102884794D01*
X124280470Y-102884791D01*
X124280469Y-102884788D01*
X124215212Y-102819531D01*
X124215209Y-102819529D01*
X124215205Y-102819526D01*
X124135293Y-102773388D01*
X124135290Y-102773387D01*
X124135289Y-102773386D01*
X124135288Y-102773386D01*
X124046144Y-102749500D01*
X123953856Y-102749500D01*
X123864712Y-102773386D01*
X123864711Y-102773386D01*
X123864709Y-102773387D01*
X123864706Y-102773388D01*
X123784794Y-102819526D01*
X123784785Y-102819533D01*
X123719533Y-102884785D01*
X123719526Y-102884794D01*
X123673388Y-102964706D01*
X123673387Y-102964709D01*
X123673386Y-102964711D01*
X123673386Y-102964712D01*
X123649500Y-103053856D01*
X121454725Y-103053856D01*
X121462069Y-103046512D01*
X121508214Y-102966588D01*
X121532100Y-102877444D01*
X121532100Y-102802286D01*
X121534973Y-102789173D01*
X121545572Y-102769830D01*
X121551785Y-102748672D01*
X121568419Y-102728030D01*
X122930231Y-101366219D01*
X122991554Y-101332734D01*
X123017912Y-101329900D01*
X125423372Y-101329900D01*
X125490411Y-101349585D01*
X125536166Y-101402389D01*
X125546110Y-101471547D01*
X125517085Y-101535103D01*
X125458307Y-101572877D01*
X125447563Y-101575518D01*
X125441613Y-101576701D01*
X125367928Y-101607221D01*
X125193268Y-101781881D01*
X125131945Y-101815366D01*
X125105587Y-101818200D01*
X125043856Y-101818200D01*
X124954712Y-101842086D01*
X124954711Y-101842086D01*
X124954709Y-101842087D01*
X124954706Y-101842088D01*
X124874794Y-101888226D01*
X124874785Y-101888233D01*
X124809533Y-101953485D01*
X124809526Y-101953494D01*
X124763388Y-102033406D01*
X124763387Y-102033409D01*
X124763386Y-102033411D01*
X124763386Y-102033412D01*
X124739500Y-102122556D01*
X124739500Y-102214844D01*
X124755186Y-102273386D01*
X124763387Y-102303990D01*
X124763388Y-102303993D01*
X124809526Y-102383905D01*
X124809529Y-102383909D01*
X124809531Y-102383912D01*
X124874788Y-102449169D01*
X124874791Y-102449170D01*
X124874794Y-102449173D01*
X124954706Y-102495311D01*
X124954707Y-102495311D01*
X124954712Y-102495314D01*
X125043856Y-102519200D01*
X125043858Y-102519200D01*
X125136142Y-102519200D01*
X125136144Y-102519200D01*
X125225288Y-102495314D01*
X125305212Y-102449169D01*
X125370469Y-102383912D01*
X125416614Y-102303988D01*
X125440500Y-102214844D01*
X125440500Y-102153112D01*
X125449144Y-102123674D01*
X125455668Y-102093684D01*
X125459422Y-102088668D01*
X125460185Y-102086073D01*
X125476820Y-102065430D01*
X125528233Y-102014018D01*
X125589556Y-101980534D01*
X125615913Y-101977700D01*
X126032257Y-101977700D01*
X126099296Y-101997385D01*
X126145051Y-102050189D01*
X126154995Y-102119347D01*
X126128422Y-102177532D01*
X126129478Y-102178342D01*
X126124526Y-102184794D01*
X126078388Y-102264706D01*
X126078387Y-102264709D01*
X126078386Y-102264711D01*
X126078386Y-102264712D01*
X126054500Y-102353856D01*
X126054500Y-102446144D01*
X126076061Y-102526612D01*
X126078387Y-102535290D01*
X126078388Y-102535293D01*
X126124526Y-102615205D01*
X126124529Y-102615209D01*
X126124531Y-102615212D01*
X126189788Y-102680469D01*
X126189791Y-102680470D01*
X126189794Y-102680473D01*
X126269706Y-102726611D01*
X126269707Y-102726611D01*
X126269712Y-102726614D01*
X126358856Y-102750500D01*
X126358858Y-102750500D01*
X126367588Y-102750500D01*
X126434627Y-102770185D01*
X126480382Y-102822989D01*
X126490326Y-102892147D01*
X126461301Y-102955703D01*
X126455269Y-102962181D01*
X125428369Y-103989081D01*
X125367046Y-104022566D01*
X125340688Y-104025400D01*
X124268243Y-104025400D01*
X124201204Y-104005715D01*
X124180562Y-103989081D01*
X124136914Y-103945433D01*
X124136912Y-103945431D01*
X124136909Y-103945429D01*
X124136905Y-103945426D01*
X124056993Y-103899288D01*
X124056990Y-103899287D01*
X124056989Y-103899286D01*
X124056988Y-103899286D01*
X123967844Y-103875400D01*
X123875556Y-103875400D01*
X123786412Y-103899286D01*
X123786411Y-103899286D01*
X123786409Y-103899287D01*
X123786406Y-103899288D01*
X123706494Y-103945426D01*
X123706485Y-103945433D01*
X123641233Y-104010685D01*
X123641226Y-104010694D01*
X123595088Y-104090606D01*
X123595087Y-104090609D01*
X123595086Y-104090611D01*
X123595086Y-104090612D01*
X123588494Y-104115214D01*
X123571200Y-104179756D01*
X123571200Y-104272043D01*
X123595087Y-104361190D01*
X123595088Y-104361193D01*
X123641226Y-104441105D01*
X123641229Y-104441109D01*
X123641231Y-104441112D01*
X123706488Y-104506369D01*
X123706491Y-104506370D01*
X123706494Y-104506373D01*
X123786406Y-104552511D01*
X123786407Y-104552511D01*
X123786412Y-104552514D01*
X123875556Y-104576400D01*
X123875558Y-104576400D01*
X123967842Y-104576400D01*
X123967844Y-104576400D01*
X124051980Y-104553856D01*
X138549500Y-104553856D01*
X138549500Y-104646143D01*
X138573387Y-104735290D01*
X138573388Y-104735293D01*
X138619526Y-104815205D01*
X138619529Y-104815209D01*
X138619531Y-104815212D01*
X138684788Y-104880469D01*
X138684791Y-104880470D01*
X138684794Y-104880473D01*
X138764706Y-104926611D01*
X138764707Y-104926611D01*
X138764712Y-104926614D01*
X138853856Y-104950500D01*
X138853858Y-104950500D01*
X138946142Y-104950500D01*
X138946144Y-104950500D01*
X139035288Y-104926614D01*
X139115212Y-104880469D01*
X139180469Y-104815212D01*
X139226614Y-104735288D01*
X139250500Y-104646144D01*
X139250500Y-104553856D01*
X139226614Y-104464712D01*
X139226611Y-104464706D01*
X139180473Y-104384794D01*
X139180470Y-104384791D01*
X139180469Y-104384788D01*
X139115212Y-104319531D01*
X139115209Y-104319529D01*
X139115205Y-104319526D01*
X139035293Y-104273388D01*
X139035290Y-104273387D01*
X139035289Y-104273386D01*
X139035288Y-104273386D01*
X138946144Y-104249500D01*
X138853856Y-104249500D01*
X138764712Y-104273386D01*
X138764711Y-104273386D01*
X138764709Y-104273387D01*
X138764706Y-104273388D01*
X138684794Y-104319526D01*
X138684785Y-104319533D01*
X138619533Y-104384785D01*
X138619526Y-104384794D01*
X138573388Y-104464706D01*
X138573387Y-104464709D01*
X138549500Y-104553856D01*
X124051980Y-104553856D01*
X124056988Y-104552514D01*
X124136912Y-104506369D01*
X124180562Y-104462719D01*
X124241885Y-104429234D01*
X124268243Y-104426400D01*
X125514982Y-104426400D01*
X125588674Y-104395876D01*
X126230694Y-103753856D01*
X127249500Y-103753856D01*
X127249500Y-103846144D01*
X127263739Y-103899286D01*
X127273387Y-103935290D01*
X127273388Y-103935293D01*
X127319526Y-104015205D01*
X127319529Y-104015209D01*
X127319531Y-104015212D01*
X127384788Y-104080469D01*
X127384791Y-104080470D01*
X127384794Y-104080473D01*
X127464706Y-104126611D01*
X127464707Y-104126611D01*
X127464712Y-104126614D01*
X127553856Y-104150500D01*
X127553858Y-104150500D01*
X127646142Y-104150500D01*
X127646144Y-104150500D01*
X127735288Y-104126614D01*
X127815212Y-104080469D01*
X127880469Y-104015212D01*
X127926614Y-103935288D01*
X127950500Y-103846144D01*
X127950500Y-103753856D01*
X139449500Y-103753856D01*
X139449500Y-103846144D01*
X139463739Y-103899286D01*
X139473387Y-103935290D01*
X139473388Y-103935293D01*
X139519526Y-104015205D01*
X139519529Y-104015209D01*
X139519531Y-104015212D01*
X139584788Y-104080469D01*
X139584791Y-104080470D01*
X139584794Y-104080473D01*
X139664706Y-104126611D01*
X139664707Y-104126611D01*
X139664712Y-104126614D01*
X139753856Y-104150500D01*
X139753858Y-104150500D01*
X139846142Y-104150500D01*
X139846144Y-104150500D01*
X139935288Y-104126614D01*
X140015212Y-104080469D01*
X140080469Y-104015212D01*
X140126614Y-103935288D01*
X140148434Y-103853856D01*
X141949500Y-103853856D01*
X141949500Y-103946144D01*
X141969977Y-104022566D01*
X141973387Y-104035290D01*
X141973388Y-104035293D01*
X142019526Y-104115205D01*
X142019529Y-104115209D01*
X142019531Y-104115212D01*
X142084788Y-104180469D01*
X142084791Y-104180470D01*
X142084794Y-104180473D01*
X142164706Y-104226611D01*
X142164707Y-104226611D01*
X142164712Y-104226614D01*
X142253856Y-104250500D01*
X142253858Y-104250500D01*
X142346142Y-104250500D01*
X142346144Y-104250500D01*
X142435288Y-104226614D01*
X142515212Y-104180469D01*
X142580469Y-104115212D01*
X142626614Y-104035288D01*
X142650500Y-103946144D01*
X142650500Y-103853856D01*
X142626614Y-103764712D01*
X142626611Y-103764706D01*
X142580473Y-103684794D01*
X142580470Y-103684791D01*
X142580469Y-103684788D01*
X142515212Y-103619531D01*
X142515209Y-103619529D01*
X142515205Y-103619526D01*
X142435293Y-103573388D01*
X142435290Y-103573387D01*
X142435289Y-103573386D01*
X142435288Y-103573386D01*
X142346144Y-103549500D01*
X142253856Y-103549500D01*
X142164712Y-103573386D01*
X142164711Y-103573386D01*
X142164709Y-103573387D01*
X142164706Y-103573388D01*
X142084794Y-103619526D01*
X142084785Y-103619533D01*
X142019533Y-103684785D01*
X142019526Y-103684794D01*
X141973388Y-103764706D01*
X141973387Y-103764709D01*
X141973386Y-103764711D01*
X141973386Y-103764712D01*
X141949500Y-103853856D01*
X140148434Y-103853856D01*
X140150500Y-103846144D01*
X140150500Y-103753856D01*
X140126614Y-103664712D01*
X140126611Y-103664706D01*
X140080473Y-103584794D01*
X140080470Y-103584791D01*
X140080469Y-103584788D01*
X140015212Y-103519531D01*
X140015209Y-103519529D01*
X140015205Y-103519526D01*
X139935293Y-103473388D01*
X139935290Y-103473387D01*
X139935289Y-103473386D01*
X139935288Y-103473386D01*
X139846144Y-103449500D01*
X139753856Y-103449500D01*
X139664712Y-103473386D01*
X139664711Y-103473386D01*
X139664709Y-103473387D01*
X139664706Y-103473388D01*
X139584794Y-103519526D01*
X139584785Y-103519533D01*
X139519533Y-103584785D01*
X139519526Y-103584794D01*
X139473388Y-103664706D01*
X139473387Y-103664709D01*
X139473386Y-103664711D01*
X139473386Y-103664712D01*
X139449500Y-103753856D01*
X127950500Y-103753856D01*
X127926614Y-103664712D01*
X127896751Y-103612989D01*
X127892907Y-103601990D01*
X127891704Y-103578263D01*
X127886104Y-103555178D01*
X127889969Y-103544010D01*
X127889371Y-103532209D01*
X127901186Y-103511600D01*
X127908956Y-103489151D01*
X127922272Y-103473408D01*
X127980469Y-103415212D01*
X128026614Y-103335288D01*
X128050500Y-103246144D01*
X128050500Y-103153856D01*
X128026614Y-103064712D01*
X128026611Y-103064706D01*
X127980473Y-102984794D01*
X127980470Y-102984791D01*
X127980469Y-102984788D01*
X127915212Y-102919531D01*
X127915209Y-102919529D01*
X127915205Y-102919526D01*
X127835293Y-102873388D01*
X127835290Y-102873387D01*
X127835289Y-102873386D01*
X127835288Y-102873386D01*
X127746144Y-102849500D01*
X127653856Y-102849500D01*
X127564712Y-102873386D01*
X127564711Y-102873386D01*
X127564709Y-102873387D01*
X127564706Y-102873388D01*
X127484794Y-102919526D01*
X127484785Y-102919533D01*
X127419533Y-102984785D01*
X127419526Y-102984794D01*
X127373388Y-103064706D01*
X127373387Y-103064709D01*
X127373386Y-103064711D01*
X127373386Y-103064712D01*
X127349500Y-103153856D01*
X127349500Y-103246144D01*
X127368007Y-103315214D01*
X127373387Y-103335290D01*
X127373387Y-103335291D01*
X127397422Y-103376921D01*
X127413895Y-103444822D01*
X127391042Y-103510848D01*
X127377717Y-103526602D01*
X127319530Y-103584789D01*
X127319526Y-103584794D01*
X127273388Y-103664706D01*
X127273387Y-103664709D01*
X127273386Y-103664711D01*
X127273386Y-103664712D01*
X127249500Y-103753856D01*
X126230694Y-103753856D01*
X127464331Y-102520219D01*
X127525654Y-102486734D01*
X127552012Y-102483900D01*
X129722231Y-102483900D01*
X129789270Y-102503585D01*
X129835025Y-102556389D01*
X129844969Y-102625547D01*
X129823100Y-102677464D01*
X129823594Y-102677750D01*
X129821323Y-102681683D01*
X129820605Y-102683388D01*
X129819529Y-102684789D01*
X129773388Y-102764706D01*
X129773387Y-102764709D01*
X129773386Y-102764711D01*
X129773386Y-102764712D01*
X129749500Y-102853856D01*
X129749500Y-102946144D01*
X129764036Y-103000394D01*
X129773387Y-103035290D01*
X129773388Y-103035293D01*
X129819526Y-103115205D01*
X129819529Y-103115209D01*
X129819531Y-103115212D01*
X129884788Y-103180469D01*
X129884791Y-103180470D01*
X129884794Y-103180473D01*
X129964706Y-103226611D01*
X129964707Y-103226611D01*
X129964712Y-103226614D01*
X130053856Y-103250500D01*
X130053858Y-103250500D01*
X130146142Y-103250500D01*
X130146144Y-103250500D01*
X130235288Y-103226614D01*
X130315212Y-103180469D01*
X130380469Y-103115212D01*
X130426614Y-103035288D01*
X130450500Y-102946144D01*
X130450500Y-102853856D01*
X132949500Y-102853856D01*
X132949500Y-102946144D01*
X132964036Y-103000394D01*
X132973387Y-103035290D01*
X132973388Y-103035293D01*
X133019526Y-103115205D01*
X133019529Y-103115209D01*
X133019531Y-103115212D01*
X133084788Y-103180469D01*
X133084791Y-103180470D01*
X133084794Y-103180473D01*
X133164706Y-103226611D01*
X133164707Y-103226611D01*
X133164712Y-103226614D01*
X133253856Y-103250500D01*
X133253858Y-103250500D01*
X133346142Y-103250500D01*
X133346144Y-103250500D01*
X133435288Y-103226614D01*
X133515212Y-103180469D01*
X133580469Y-103115212D01*
X133626614Y-103035288D01*
X133650500Y-102946144D01*
X133650500Y-102945543D01*
X133650642Y-102945056D01*
X133651561Y-102938084D01*
X133652648Y-102938227D01*
X133670185Y-102878504D01*
X133722989Y-102832749D01*
X133792147Y-102822805D01*
X133855703Y-102851830D01*
X133862181Y-102857862D01*
X133884788Y-102880469D01*
X133884791Y-102880470D01*
X133884794Y-102880473D01*
X133964706Y-102926611D01*
X133964707Y-102926611D01*
X133964712Y-102926614D01*
X134053856Y-102950500D01*
X134053858Y-102950500D01*
X134146142Y-102950500D01*
X134146144Y-102950500D01*
X134235288Y-102926614D01*
X134315212Y-102880469D01*
X134380469Y-102815212D01*
X134426614Y-102735288D01*
X134450500Y-102646144D01*
X134450500Y-102553856D01*
X134426614Y-102464712D01*
X134426611Y-102464706D01*
X134380473Y-102384794D01*
X134380470Y-102384791D01*
X134380469Y-102384788D01*
X134315212Y-102319531D01*
X134315209Y-102319529D01*
X134315205Y-102319526D01*
X134235293Y-102273388D01*
X134235292Y-102273387D01*
X134231652Y-102272411D01*
X134205869Y-102265503D01*
X134178711Y-102258226D01*
X134146144Y-102249500D01*
X134053856Y-102249500D01*
X133964712Y-102273386D01*
X133964711Y-102273386D01*
X133964709Y-102273387D01*
X133964706Y-102273388D01*
X133884794Y-102319526D01*
X133884785Y-102319533D01*
X133819533Y-102384785D01*
X133819526Y-102384794D01*
X133773388Y-102464706D01*
X133773387Y-102464709D01*
X133773386Y-102464711D01*
X133773386Y-102464712D01*
X133750400Y-102550499D01*
X133749500Y-102553856D01*
X133749500Y-102554457D01*
X133749357Y-102554943D01*
X133748439Y-102561916D01*
X133747351Y-102561772D01*
X133729815Y-102621496D01*
X133677011Y-102667251D01*
X133607853Y-102677195D01*
X133544297Y-102648170D01*
X133537819Y-102642138D01*
X133515214Y-102619533D01*
X133515212Y-102619531D01*
X133515209Y-102619529D01*
X133515205Y-102619526D01*
X133435293Y-102573388D01*
X133435290Y-102573387D01*
X133435289Y-102573386D01*
X133435288Y-102573386D01*
X133346144Y-102549500D01*
X133253856Y-102549500D01*
X133164712Y-102573386D01*
X133164711Y-102573386D01*
X133164709Y-102573387D01*
X133164706Y-102573388D01*
X133084794Y-102619526D01*
X133084785Y-102619533D01*
X133019533Y-102684785D01*
X133019526Y-102684794D01*
X132973388Y-102764706D01*
X132973387Y-102764709D01*
X132973386Y-102764711D01*
X132973386Y-102764712D01*
X132949500Y-102853856D01*
X130450500Y-102853856D01*
X130426614Y-102764712D01*
X130417831Y-102749500D01*
X130380470Y-102684789D01*
X130379395Y-102683388D01*
X130378855Y-102681992D01*
X130376406Y-102677750D01*
X130377067Y-102677368D01*
X130354199Y-102618220D01*
X130368236Y-102549775D01*
X130417049Y-102499784D01*
X130477769Y-102483900D01*
X131351280Y-102483900D01*
X131351282Y-102483900D01*
X131424974Y-102453376D01*
X131724494Y-102153856D01*
X134849500Y-102153856D01*
X134849500Y-102246144D01*
X134869164Y-102319533D01*
X134873387Y-102335290D01*
X134873388Y-102335293D01*
X134919526Y-102415205D01*
X134919529Y-102415209D01*
X134919531Y-102415212D01*
X134984788Y-102480469D01*
X134984791Y-102480470D01*
X134984794Y-102480473D01*
X135064706Y-102526611D01*
X135064707Y-102526611D01*
X135064712Y-102526614D01*
X135153856Y-102550500D01*
X135153858Y-102550500D01*
X135246142Y-102550500D01*
X135246144Y-102550500D01*
X135335288Y-102526614D01*
X135415212Y-102480469D01*
X135480469Y-102415212D01*
X135526614Y-102335288D01*
X135550500Y-102246144D01*
X135550500Y-102153856D01*
X135526614Y-102064712D01*
X135526611Y-102064706D01*
X135480473Y-101984794D01*
X135480470Y-101984791D01*
X135480469Y-101984788D01*
X135415212Y-101919531D01*
X135415209Y-101919529D01*
X135415205Y-101919526D01*
X135335293Y-101873388D01*
X135335290Y-101873387D01*
X135335289Y-101873386D01*
X135335288Y-101873386D01*
X135246144Y-101849500D01*
X135153856Y-101849500D01*
X135064712Y-101873386D01*
X135064711Y-101873386D01*
X135064709Y-101873387D01*
X135064706Y-101873388D01*
X134984794Y-101919526D01*
X134984785Y-101919533D01*
X134919533Y-101984785D01*
X134919526Y-101984794D01*
X134873388Y-102064706D01*
X134873387Y-102064709D01*
X134873386Y-102064711D01*
X134873386Y-102064712D01*
X134849500Y-102153856D01*
X131724494Y-102153856D01*
X132638530Y-101239818D01*
X132699853Y-101206334D01*
X132726211Y-101203500D01*
X132787942Y-101203500D01*
X132787944Y-101203500D01*
X132877088Y-101179614D01*
X132957012Y-101133469D01*
X133022269Y-101068212D01*
X133026061Y-101061642D01*
X133044991Y-101028856D01*
X139524500Y-101028856D01*
X139524500Y-101121144D01*
X139546567Y-101203500D01*
X139548387Y-101210290D01*
X139548388Y-101210293D01*
X139594526Y-101290205D01*
X139594529Y-101290209D01*
X139594531Y-101290212D01*
X139659788Y-101355469D01*
X139659791Y-101355470D01*
X139659794Y-101355473D01*
X139739706Y-101401611D01*
X139739707Y-101401611D01*
X139739712Y-101401614D01*
X139828856Y-101425500D01*
X139828858Y-101425500D01*
X139921142Y-101425500D01*
X139921144Y-101425500D01*
X140010288Y-101401614D01*
X140090212Y-101355469D01*
X140155469Y-101290212D01*
X140161564Y-101279656D01*
X140624800Y-101279656D01*
X140624800Y-101371944D01*
X140639150Y-101425500D01*
X140648687Y-101461090D01*
X140648688Y-101461093D01*
X140694826Y-101541005D01*
X140694829Y-101541009D01*
X140694831Y-101541012D01*
X140760088Y-101606269D01*
X140760091Y-101606270D01*
X140760094Y-101606273D01*
X140840006Y-101652411D01*
X140840007Y-101652411D01*
X140840012Y-101652414D01*
X140929156Y-101676300D01*
X140929158Y-101676300D01*
X141021442Y-101676300D01*
X141021444Y-101676300D01*
X141110588Y-101652414D01*
X141190512Y-101606269D01*
X141255769Y-101541012D01*
X141301914Y-101461088D01*
X141325800Y-101371944D01*
X141325800Y-101279656D01*
X141301914Y-101190512D01*
X141295621Y-101179612D01*
X141277988Y-101149071D01*
X142124499Y-101149071D01*
X142149497Y-101274738D01*
X142149499Y-101274744D01*
X142198533Y-101393124D01*
X142198538Y-101393133D01*
X142269723Y-101499668D01*
X142269726Y-101499672D01*
X142360327Y-101590273D01*
X142360331Y-101590276D01*
X142466866Y-101661461D01*
X142466872Y-101661464D01*
X142466873Y-101661465D01*
X142585256Y-101710501D01*
X142585260Y-101710501D01*
X142585261Y-101710502D01*
X142710928Y-101735500D01*
X142710931Y-101735500D01*
X142839071Y-101735500D01*
X142923615Y-101718682D01*
X142964744Y-101710501D01*
X143083127Y-101661465D01*
X143189669Y-101590276D01*
X143280276Y-101499669D01*
X143351465Y-101393127D01*
X143400501Y-101274744D01*
X143408682Y-101233615D01*
X143425500Y-101149071D01*
X143425500Y-101020928D01*
X143400502Y-100895261D01*
X143400501Y-100895260D01*
X143400501Y-100895256D01*
X143351465Y-100776873D01*
X143351464Y-100776872D01*
X143351461Y-100776866D01*
X143280276Y-100670331D01*
X143280273Y-100670327D01*
X143189672Y-100579726D01*
X143189668Y-100579723D01*
X143083133Y-100508538D01*
X143083124Y-100508533D01*
X142964744Y-100459499D01*
X142964738Y-100459497D01*
X142839071Y-100434500D01*
X142839069Y-100434500D01*
X142710931Y-100434500D01*
X142710929Y-100434500D01*
X142585261Y-100459497D01*
X142585255Y-100459499D01*
X142466875Y-100508533D01*
X142466866Y-100508538D01*
X142360331Y-100579723D01*
X142360327Y-100579726D01*
X142269726Y-100670327D01*
X142269723Y-100670331D01*
X142198538Y-100776866D01*
X142198533Y-100776875D01*
X142149499Y-100895255D01*
X142149497Y-100895261D01*
X142124500Y-101020928D01*
X142124500Y-101020931D01*
X142124500Y-101149069D01*
X142124500Y-101149071D01*
X142124499Y-101149071D01*
X141277988Y-101149071D01*
X141255773Y-101110594D01*
X141255770Y-101110591D01*
X141255769Y-101110588D01*
X141190512Y-101045331D01*
X141190509Y-101045329D01*
X141190505Y-101045326D01*
X141110593Y-100999188D01*
X141110590Y-100999187D01*
X141110589Y-100999186D01*
X141110588Y-100999186D01*
X141021444Y-100975300D01*
X140929156Y-100975300D01*
X140840012Y-100999186D01*
X140840011Y-100999186D01*
X140840009Y-100999187D01*
X140840006Y-100999188D01*
X140760094Y-101045326D01*
X140760085Y-101045333D01*
X140694833Y-101110585D01*
X140694826Y-101110594D01*
X140648688Y-101190506D01*
X140648687Y-101190509D01*
X140648686Y-101190511D01*
X140648686Y-101190512D01*
X140624800Y-101279656D01*
X140161564Y-101279656D01*
X140201614Y-101210288D01*
X140225500Y-101121144D01*
X140225500Y-101028856D01*
X140201614Y-100939712D01*
X140201611Y-100939706D01*
X140155473Y-100859794D01*
X140155470Y-100859791D01*
X140155469Y-100859788D01*
X140090212Y-100794531D01*
X140090209Y-100794529D01*
X140090205Y-100794526D01*
X140010293Y-100748388D01*
X140010290Y-100748387D01*
X140010289Y-100748386D01*
X140010288Y-100748386D01*
X139921144Y-100724500D01*
X139828856Y-100724500D01*
X139739712Y-100748386D01*
X139739711Y-100748386D01*
X139739709Y-100748387D01*
X139739706Y-100748388D01*
X139659794Y-100794526D01*
X139659785Y-100794533D01*
X139594533Y-100859785D01*
X139594526Y-100859794D01*
X139548388Y-100939706D01*
X139548387Y-100939709D01*
X139548386Y-100939711D01*
X139548386Y-100939712D01*
X139524500Y-101028856D01*
X133044991Y-101028856D01*
X133068411Y-100988294D01*
X133068411Y-100988292D01*
X133068414Y-100988288D01*
X133092300Y-100899144D01*
X133092300Y-100806856D01*
X133068414Y-100717712D01*
X133068411Y-100717706D01*
X133022273Y-100637794D01*
X133022270Y-100637791D01*
X133022269Y-100637788D01*
X132957012Y-100572531D01*
X132956181Y-100572051D01*
X132935109Y-100559884D01*
X132886895Y-100509316D01*
X132873674Y-100440709D01*
X132899644Y-100375845D01*
X132909423Y-100364826D01*
X133650431Y-99623819D01*
X133711754Y-99590334D01*
X133738112Y-99587500D01*
X136308757Y-99587500D01*
X136334958Y-99595193D01*
X136361929Y-99599479D01*
X136370756Y-99605705D01*
X136375796Y-99607185D01*
X136391335Y-99618997D01*
X136393953Y-99621334D01*
X136440088Y-99667469D01*
X136455785Y-99676532D01*
X136465307Y-99685032D01*
X136477287Y-99704294D01*
X136492943Y-99720712D01*
X136495387Y-99733394D01*
X136502209Y-99744361D01*
X136501873Y-99767042D01*
X136506168Y-99789318D01*
X136501367Y-99801309D01*
X136501177Y-99814223D01*
X136488632Y-99833122D01*
X136480202Y-99854184D01*
X136467143Y-99865499D01*
X136462539Y-99872437D01*
X136455646Y-99875462D01*
X136444731Y-99884921D01*
X136384791Y-99919528D01*
X136384785Y-99919533D01*
X136319533Y-99984785D01*
X136319526Y-99984794D01*
X136273388Y-100064706D01*
X136273387Y-100064709D01*
X136273386Y-100064711D01*
X136273386Y-100064712D01*
X136249500Y-100153856D01*
X136249500Y-100246144D01*
X136269049Y-100319103D01*
X136273387Y-100335290D01*
X136273388Y-100335293D01*
X136319526Y-100415205D01*
X136319529Y-100415209D01*
X136319531Y-100415212D01*
X136384788Y-100480469D01*
X136384791Y-100480470D01*
X136384794Y-100480473D01*
X136464706Y-100526611D01*
X136464707Y-100526611D01*
X136464712Y-100526614D01*
X136553856Y-100550500D01*
X136553858Y-100550500D01*
X136646142Y-100550500D01*
X136646144Y-100550500D01*
X136735288Y-100526614D01*
X136815212Y-100480469D01*
X136880469Y-100415212D01*
X136926614Y-100335288D01*
X136950500Y-100246144D01*
X136950500Y-100153856D01*
X136926614Y-100064712D01*
X136926611Y-100064706D01*
X136880473Y-99984794D01*
X136880470Y-99984791D01*
X136880469Y-99984788D01*
X136815212Y-99919531D01*
X136810569Y-99916850D01*
X136762355Y-99866284D01*
X136749131Y-99797677D01*
X136775099Y-99732812D01*
X136810566Y-99702079D01*
X136870512Y-99667469D01*
X136935769Y-99602212D01*
X136981914Y-99522288D01*
X137005800Y-99433144D01*
X137005800Y-99340856D01*
X136981914Y-99251712D01*
X136977827Y-99244633D01*
X136935773Y-99171794D01*
X136935770Y-99171791D01*
X136935769Y-99171788D01*
X136870512Y-99106531D01*
X136870510Y-99106530D01*
X136870508Y-99106528D01*
X136838653Y-99088137D01*
X136790437Y-99037570D01*
X136777215Y-98968963D01*
X136803183Y-98904098D01*
X136838653Y-98873363D01*
X136870512Y-98854969D01*
X136935769Y-98789712D01*
X136981914Y-98709788D01*
X137005800Y-98620644D01*
X137005800Y-98528356D01*
X136981914Y-98439212D01*
X136944264Y-98374001D01*
X136935773Y-98359294D01*
X136935770Y-98359291D01*
X136935769Y-98359288D01*
X136870512Y-98294031D01*
X136870509Y-98294029D01*
X136870505Y-98294026D01*
X136790593Y-98247888D01*
X136790590Y-98247887D01*
X136790589Y-98247886D01*
X136790588Y-98247886D01*
X136701444Y-98224000D01*
X136609156Y-98224000D01*
X136520012Y-98247886D01*
X136520011Y-98247886D01*
X136520009Y-98247887D01*
X136520006Y-98247888D01*
X136440094Y-98294026D01*
X136440085Y-98294033D01*
X136396438Y-98337681D01*
X136335115Y-98371166D01*
X136308757Y-98374000D01*
X133963882Y-98374000D01*
X133884118Y-98374000D01*
X133884116Y-98374000D01*
X133884114Y-98374001D01*
X133810428Y-98404521D01*
X133810426Y-98404523D01*
X132769311Y-99445637D01*
X132707988Y-99479122D01*
X132638296Y-99474138D01*
X132597597Y-99449140D01*
X132583698Y-99436331D01*
X132567969Y-99409088D01*
X132502712Y-99343831D01*
X132450808Y-99313863D01*
X132440691Y-99304540D01*
X132429504Y-99285903D01*
X132414508Y-99270174D01*
X132411880Y-99256539D01*
X132404734Y-99244633D01*
X132405399Y-99222909D01*
X132401286Y-99201567D01*
X132406557Y-99185077D01*
X132406872Y-99174797D01*
X132412431Y-99166702D01*
X132417337Y-99151355D01*
X132426614Y-99135288D01*
X132450500Y-99046144D01*
X132450500Y-98953856D01*
X132426614Y-98864712D01*
X132425469Y-98862728D01*
X132380473Y-98784794D01*
X132380470Y-98784791D01*
X132380469Y-98784788D01*
X132315212Y-98719531D01*
X132315209Y-98719529D01*
X132315205Y-98719526D01*
X132235293Y-98673388D01*
X132235290Y-98673387D01*
X132235289Y-98673386D01*
X132235288Y-98673386D01*
X132146144Y-98649500D01*
X132053856Y-98649500D01*
X131964712Y-98673386D01*
X131964711Y-98673386D01*
X131964709Y-98673387D01*
X131964706Y-98673388D01*
X131884794Y-98719526D01*
X131884785Y-98719533D01*
X131819533Y-98784785D01*
X131819526Y-98784794D01*
X131773388Y-98864706D01*
X131773387Y-98864709D01*
X131773386Y-98864711D01*
X131773386Y-98864712D01*
X131749500Y-98953856D01*
X131749500Y-99046144D01*
X131766656Y-99110173D01*
X131773387Y-99135290D01*
X131773388Y-99135293D01*
X131819526Y-99215205D01*
X131819529Y-99215209D01*
X131819531Y-99215212D01*
X131884788Y-99280469D01*
X131924777Y-99303557D01*
X131972991Y-99354124D01*
X131986213Y-99422731D01*
X131982192Y-99444344D01*
X131977978Y-99459406D01*
X131960886Y-99489012D01*
X131937000Y-99578156D01*
X131937000Y-99605915D01*
X131932417Y-99622301D01*
X131922557Y-99638085D01*
X131917315Y-99655939D01*
X131904433Y-99667100D01*
X131895402Y-99681560D01*
X131878573Y-99689508D01*
X131864511Y-99701694D01*
X131842756Y-99706426D01*
X131832225Y-99711401D01*
X131824519Y-99710394D01*
X131813000Y-99712900D01*
X129880225Y-99712900D01*
X129813186Y-99693215D01*
X129767431Y-99640411D01*
X129757487Y-99571253D01*
X129777789Y-99523048D01*
X129776406Y-99522250D01*
X129826611Y-99435293D01*
X129826610Y-99435293D01*
X129826614Y-99435288D01*
X129850500Y-99346144D01*
X129850500Y-99253856D01*
X129826614Y-99164712D01*
X129826611Y-99164706D01*
X129780473Y-99084794D01*
X129780470Y-99084791D01*
X129780469Y-99084788D01*
X129715212Y-99019531D01*
X129715209Y-99019529D01*
X129715205Y-99019526D01*
X129635293Y-98973388D01*
X129635290Y-98973387D01*
X129635289Y-98973386D01*
X129635288Y-98973386D01*
X129546144Y-98949500D01*
X129453856Y-98949500D01*
X129364712Y-98973386D01*
X129364711Y-98973386D01*
X129364709Y-98973387D01*
X129364706Y-98973388D01*
X129284794Y-99019526D01*
X129284785Y-99019533D01*
X129219533Y-99084785D01*
X129219526Y-99084794D01*
X129173388Y-99164706D01*
X129173387Y-99164709D01*
X129173386Y-99164711D01*
X129173386Y-99164712D01*
X129149500Y-99253856D01*
X129149500Y-99346144D01*
X129172811Y-99433143D01*
X129173387Y-99435290D01*
X129173388Y-99435293D01*
X129223594Y-99522250D01*
X129221937Y-99523206D01*
X129243345Y-99578588D01*
X129229304Y-99647032D01*
X129180488Y-99697020D01*
X129119775Y-99712900D01*
X124319643Y-99712900D01*
X124252604Y-99693215D01*
X124231962Y-99676581D01*
X124188314Y-99632933D01*
X124188312Y-99632931D01*
X124188309Y-99632929D01*
X124188305Y-99632926D01*
X124108393Y-99586788D01*
X124108390Y-99586787D01*
X124108389Y-99586786D01*
X124108388Y-99586786D01*
X124019244Y-99562900D01*
X123926956Y-99562900D01*
X123837812Y-99586786D01*
X123837811Y-99586786D01*
X123837809Y-99586787D01*
X123837806Y-99586788D01*
X123757894Y-99632926D01*
X123757885Y-99632933D01*
X123692633Y-99698185D01*
X123692626Y-99698194D01*
X123646488Y-99778106D01*
X123646487Y-99778109D01*
X123646486Y-99778111D01*
X123646486Y-99778112D01*
X123622600Y-99867256D01*
X123622600Y-99959544D01*
X123629363Y-99984785D01*
X123646487Y-100048690D01*
X123646488Y-100048693D01*
X123692626Y-100128605D01*
X123692629Y-100128609D01*
X123692631Y-100128612D01*
X123757888Y-100193869D01*
X123757891Y-100193870D01*
X123757894Y-100193873D01*
X123837806Y-100240011D01*
X123837807Y-100240011D01*
X123837812Y-100240014D01*
X123926956Y-100263900D01*
X123926958Y-100263900D01*
X124019242Y-100263900D01*
X124019244Y-100263900D01*
X124108388Y-100240014D01*
X124188312Y-100193869D01*
X124231962Y-100150219D01*
X124293285Y-100116734D01*
X124319643Y-100113900D01*
X131801687Y-100113900D01*
X131868726Y-100133585D01*
X131914481Y-100186389D01*
X131924425Y-100255547D01*
X131895400Y-100319103D01*
X131889368Y-100325581D01*
X131322369Y-100892581D01*
X131261046Y-100926066D01*
X131234688Y-100928900D01*
X130463130Y-100928900D01*
X130396091Y-100909215D01*
X130350336Y-100856411D01*
X130340392Y-100787253D01*
X130343351Y-100772821D01*
X130350500Y-100746144D01*
X130350500Y-100653856D01*
X130326614Y-100564712D01*
X130304616Y-100526611D01*
X130280473Y-100484794D01*
X130280470Y-100484791D01*
X130280469Y-100484788D01*
X130215212Y-100419531D01*
X130215209Y-100419529D01*
X130215205Y-100419526D01*
X130135293Y-100373388D01*
X130135290Y-100373387D01*
X130135289Y-100373386D01*
X130135288Y-100373386D01*
X130046144Y-100349500D01*
X129953856Y-100349500D01*
X129864712Y-100373386D01*
X129864711Y-100373386D01*
X129864709Y-100373387D01*
X129864706Y-100373388D01*
X129784794Y-100419526D01*
X129784785Y-100419533D01*
X129719533Y-100484785D01*
X129719526Y-100484794D01*
X129673388Y-100564706D01*
X129673387Y-100564709D01*
X129673386Y-100564711D01*
X129673386Y-100564712D01*
X129649500Y-100653856D01*
X129649500Y-100746144D01*
X129656644Y-100772809D01*
X129654982Y-100842655D01*
X129615820Y-100900518D01*
X129551592Y-100928023D01*
X129536870Y-100928900D01*
X122923382Y-100928900D01*
X122843618Y-100928900D01*
X122843616Y-100928900D01*
X122843614Y-100928901D01*
X122769928Y-100959421D01*
X121284868Y-102444481D01*
X121223545Y-102477966D01*
X121197187Y-102480800D01*
X121135456Y-102480800D01*
X121046312Y-102504686D01*
X121046311Y-102504686D01*
X121046309Y-102504687D01*
X121046306Y-102504688D01*
X120966394Y-102550826D01*
X120966385Y-102550833D01*
X120901133Y-102616085D01*
X120901126Y-102616094D01*
X120854988Y-102696006D01*
X120854987Y-102696009D01*
X120854986Y-102696011D01*
X120854986Y-102696012D01*
X120831100Y-102785156D01*
X115819736Y-102785156D01*
X115788297Y-102637250D01*
X115787126Y-102630932D01*
X115669754Y-101889876D01*
X115668912Y-101883485D01*
X115590482Y-101137271D01*
X115589978Y-101130861D01*
X115550712Y-100381615D01*
X115550542Y-100375125D01*
X115550542Y-99624874D01*
X115550712Y-99618384D01*
X115558010Y-99479122D01*
X115589978Y-98869135D01*
X115590482Y-98862728D01*
X115598803Y-98783556D01*
X125067300Y-98783556D01*
X125067300Y-98875844D01*
X125088203Y-98953856D01*
X125091187Y-98964990D01*
X125091188Y-98964993D01*
X125137326Y-99044905D01*
X125137329Y-99044909D01*
X125137331Y-99044912D01*
X125202588Y-99110169D01*
X125202591Y-99110170D01*
X125202594Y-99110173D01*
X125282506Y-99156311D01*
X125282507Y-99156311D01*
X125282512Y-99156314D01*
X125371656Y-99180200D01*
X125371658Y-99180200D01*
X125463942Y-99180200D01*
X125463944Y-99180200D01*
X125553088Y-99156314D01*
X125633012Y-99110169D01*
X125698269Y-99044912D01*
X125744414Y-98964988D01*
X125768300Y-98875844D01*
X125768300Y-98783556D01*
X125744414Y-98694412D01*
X125732275Y-98673387D01*
X125698273Y-98614494D01*
X125698270Y-98614491D01*
X125698269Y-98614488D01*
X125633012Y-98549231D01*
X125633009Y-98549229D01*
X125633005Y-98549226D01*
X125553093Y-98503088D01*
X125553090Y-98503087D01*
X125553089Y-98503086D01*
X125553088Y-98503086D01*
X125463944Y-98479200D01*
X125371656Y-98479200D01*
X125282512Y-98503086D01*
X125282511Y-98503086D01*
X125282509Y-98503087D01*
X125282506Y-98503088D01*
X125202594Y-98549226D01*
X125202585Y-98549233D01*
X125137333Y-98614485D01*
X125137326Y-98614494D01*
X125091188Y-98694406D01*
X125091187Y-98694409D01*
X125091186Y-98694411D01*
X125091186Y-98694412D01*
X125067300Y-98783556D01*
X115598803Y-98783556D01*
X115668912Y-98116509D01*
X115669753Y-98110128D01*
X115787127Y-97369060D01*
X115788295Y-97362756D01*
X115832698Y-97153856D01*
X123749500Y-97153856D01*
X123749500Y-97246144D01*
X123768998Y-97318912D01*
X123773387Y-97335290D01*
X123773388Y-97335293D01*
X123819526Y-97415205D01*
X123819529Y-97415209D01*
X123819531Y-97415212D01*
X123884788Y-97480469D01*
X123884791Y-97480470D01*
X123884794Y-97480473D01*
X123964706Y-97526611D01*
X123964707Y-97526611D01*
X123964712Y-97526614D01*
X124053856Y-97550500D01*
X124053858Y-97550500D01*
X124146142Y-97550500D01*
X124146144Y-97550500D01*
X124235288Y-97526614D01*
X124315212Y-97480469D01*
X124368125Y-97427556D01*
X129580000Y-97427556D01*
X129580000Y-97519844D01*
X129588214Y-97550500D01*
X129603887Y-97608990D01*
X129603888Y-97608993D01*
X129650026Y-97688905D01*
X129650029Y-97688909D01*
X129650031Y-97688912D01*
X129715288Y-97754169D01*
X129715291Y-97754170D01*
X129715294Y-97754173D01*
X129795206Y-97800311D01*
X129795207Y-97800311D01*
X129795212Y-97800314D01*
X129884356Y-97824200D01*
X129884358Y-97824200D01*
X129976642Y-97824200D01*
X129976644Y-97824200D01*
X130065788Y-97800314D01*
X130145712Y-97754169D01*
X130210969Y-97688912D01*
X130257114Y-97608988D01*
X130281000Y-97519844D01*
X130281000Y-97427556D01*
X130257114Y-97338412D01*
X130257111Y-97338406D01*
X130210973Y-97258494D01*
X130210970Y-97258491D01*
X130210969Y-97258488D01*
X130145712Y-97193231D01*
X130145709Y-97193229D01*
X130145705Y-97193226D01*
X130065793Y-97147088D01*
X130065790Y-97147087D01*
X130065789Y-97147086D01*
X130065788Y-97147086D01*
X129976644Y-97123200D01*
X129884356Y-97123200D01*
X129795212Y-97147086D01*
X129795211Y-97147086D01*
X129795209Y-97147087D01*
X129795206Y-97147088D01*
X129715294Y-97193226D01*
X129715285Y-97193233D01*
X129650033Y-97258485D01*
X129650026Y-97258494D01*
X129603888Y-97338406D01*
X129603887Y-97338409D01*
X129603886Y-97338411D01*
X129603886Y-97338412D01*
X129580000Y-97427556D01*
X124368125Y-97427556D01*
X124380469Y-97415212D01*
X124399626Y-97382030D01*
X124413832Y-97357428D01*
X124426611Y-97335293D01*
X124426610Y-97335293D01*
X124426614Y-97335288D01*
X124450500Y-97246144D01*
X124450500Y-97153856D01*
X124426614Y-97064712D01*
X124417551Y-97049014D01*
X124380473Y-96984794D01*
X124380470Y-96984791D01*
X124380469Y-96984788D01*
X124315212Y-96919531D01*
X124315209Y-96919529D01*
X124315205Y-96919526D01*
X124235293Y-96873388D01*
X124235290Y-96873387D01*
X124235289Y-96873386D01*
X124235288Y-96873386D01*
X124146144Y-96849500D01*
X124053856Y-96849500D01*
X123964712Y-96873386D01*
X123964711Y-96873386D01*
X123964709Y-96873387D01*
X123964706Y-96873388D01*
X123884794Y-96919526D01*
X123884785Y-96919533D01*
X123819533Y-96984785D01*
X123819526Y-96984794D01*
X123773388Y-97064706D01*
X123773387Y-97064709D01*
X123773386Y-97064711D01*
X123773386Y-97064712D01*
X123749500Y-97153856D01*
X115832698Y-97153856D01*
X115944294Y-96628843D01*
X115945795Y-96622587D01*
X115964211Y-96553856D01*
X124729500Y-96553856D01*
X124729500Y-96646144D01*
X124747101Y-96711833D01*
X124753387Y-96735290D01*
X124753388Y-96735293D01*
X124799526Y-96815205D01*
X124799529Y-96815209D01*
X124799531Y-96815212D01*
X124864788Y-96880469D01*
X124864791Y-96880470D01*
X124864794Y-96880473D01*
X124944706Y-96926611D01*
X124944707Y-96926611D01*
X124944712Y-96926614D01*
X125033856Y-96950500D01*
X125033858Y-96950500D01*
X125126142Y-96950500D01*
X125126144Y-96950500D01*
X125215288Y-96926614D01*
X125295212Y-96880469D01*
X125360469Y-96815212D01*
X125406614Y-96735288D01*
X125422432Y-96676256D01*
X130637000Y-96676256D01*
X130637000Y-96768544D01*
X130660704Y-96857009D01*
X130660887Y-96857690D01*
X130660888Y-96857693D01*
X130707026Y-96937605D01*
X130707029Y-96937609D01*
X130707031Y-96937612D01*
X130772288Y-97002869D01*
X130772291Y-97002870D01*
X130772294Y-97002873D01*
X130852206Y-97049011D01*
X130852207Y-97049011D01*
X130852212Y-97049014D01*
X130941356Y-97072900D01*
X130941358Y-97072900D01*
X131033642Y-97072900D01*
X131033644Y-97072900D01*
X131122788Y-97049014D01*
X131202712Y-97002869D01*
X131259425Y-96946156D01*
X136306400Y-96946156D01*
X136306400Y-97038444D01*
X136329110Y-97123200D01*
X136330287Y-97127590D01*
X136330288Y-97127593D01*
X136376426Y-97207505D01*
X136376429Y-97207509D01*
X136376431Y-97207512D01*
X136441688Y-97272769D01*
X136441691Y-97272770D01*
X136441694Y-97272773D01*
X136521606Y-97318911D01*
X136521607Y-97318911D01*
X136521612Y-97318914D01*
X136610756Y-97342800D01*
X136610758Y-97342800D01*
X136703042Y-97342800D01*
X136703044Y-97342800D01*
X136792188Y-97318914D01*
X136872112Y-97272769D01*
X136937369Y-97207512D01*
X136983514Y-97127588D01*
X137007400Y-97038444D01*
X137007400Y-96946156D01*
X136983514Y-96857012D01*
X136979177Y-96849500D01*
X136937373Y-96777094D01*
X136937370Y-96777091D01*
X136937369Y-96777088D01*
X136872112Y-96711831D01*
X136872109Y-96711829D01*
X136872105Y-96711826D01*
X136792193Y-96665688D01*
X136792190Y-96665687D01*
X136792189Y-96665686D01*
X136792188Y-96665686D01*
X136703044Y-96641800D01*
X136610756Y-96641800D01*
X136521612Y-96665686D01*
X136521611Y-96665686D01*
X136521609Y-96665687D01*
X136521606Y-96665688D01*
X136441694Y-96711826D01*
X136441685Y-96711833D01*
X136376433Y-96777085D01*
X136376426Y-96777094D01*
X136330288Y-96857006D01*
X136330287Y-96857009D01*
X136330286Y-96857011D01*
X136330286Y-96857012D01*
X136306400Y-96946156D01*
X131259425Y-96946156D01*
X131267969Y-96937612D01*
X131278411Y-96919526D01*
X131303526Y-96876028D01*
X131314111Y-96857693D01*
X131314110Y-96857693D01*
X131314114Y-96857688D01*
X131338000Y-96768544D01*
X131338000Y-96676256D01*
X131314114Y-96587112D01*
X131314111Y-96587106D01*
X131267973Y-96507194D01*
X131267970Y-96507191D01*
X131267969Y-96507188D01*
X131202712Y-96441931D01*
X131202709Y-96441929D01*
X131202705Y-96441926D01*
X131122793Y-96395788D01*
X131122790Y-96395787D01*
X131122789Y-96395786D01*
X131122788Y-96395786D01*
X131033644Y-96371900D01*
X130941356Y-96371900D01*
X130852212Y-96395786D01*
X130852211Y-96395786D01*
X130852209Y-96395787D01*
X130852206Y-96395788D01*
X130772294Y-96441926D01*
X130772285Y-96441933D01*
X130707033Y-96507185D01*
X130707026Y-96507194D01*
X130660888Y-96587106D01*
X130660887Y-96587109D01*
X130660886Y-96587111D01*
X130660886Y-96587112D01*
X130637000Y-96676256D01*
X125422432Y-96676256D01*
X125430500Y-96646144D01*
X125430500Y-96553856D01*
X125406614Y-96464712D01*
X125406611Y-96464706D01*
X125360473Y-96384794D01*
X125360470Y-96384791D01*
X125360469Y-96384788D01*
X125295212Y-96319531D01*
X125295209Y-96319529D01*
X125295205Y-96319526D01*
X125215293Y-96273388D01*
X125215290Y-96273387D01*
X125215289Y-96273386D01*
X125215288Y-96273386D01*
X125126144Y-96249500D01*
X125033856Y-96249500D01*
X124944712Y-96273386D01*
X124944711Y-96273386D01*
X124944709Y-96273387D01*
X124944706Y-96273388D01*
X124864794Y-96319526D01*
X124864785Y-96319533D01*
X124799533Y-96384785D01*
X124799526Y-96384794D01*
X124753388Y-96464706D01*
X124753387Y-96464709D01*
X124753386Y-96464711D01*
X124753386Y-96464712D01*
X124729500Y-96553856D01*
X115964211Y-96553856D01*
X116139994Y-95897825D01*
X116141817Y-95891669D01*
X116373675Y-95178085D01*
X116375825Y-95172013D01*
X116644708Y-94471550D01*
X116647178Y-94465587D01*
X116952354Y-93780151D01*
X116955118Y-93774355D01*
X117100478Y-93489070D01*
X119254499Y-93489070D01*
X119279497Y-93614737D01*
X119279499Y-93614743D01*
X119328533Y-93733123D01*
X119328538Y-93733132D01*
X119399723Y-93839667D01*
X119399726Y-93839671D01*
X119404947Y-93844892D01*
X119438432Y-93906215D01*
X119433448Y-93975907D01*
X119391576Y-94031840D01*
X119357023Y-94047252D01*
X119357564Y-94048558D01*
X119346275Y-94053234D01*
X119296496Y-94086495D01*
X119296495Y-94086496D01*
X119263234Y-94136275D01*
X119263231Y-94136282D01*
X119254500Y-94180177D01*
X119254500Y-94180180D01*
X119254500Y-95209820D01*
X119254500Y-95209822D01*
X119254499Y-95209822D01*
X119263231Y-95253717D01*
X119263232Y-95253721D01*
X119263233Y-95253722D01*
X119296496Y-95303504D01*
X119346278Y-95336767D01*
X119346281Y-95336767D01*
X119346282Y-95336768D01*
X119390177Y-95345500D01*
X119390180Y-95345500D01*
X120419822Y-95345500D01*
X120463717Y-95336768D01*
X120463717Y-95336767D01*
X120463722Y-95336767D01*
X120513504Y-95303504D01*
X120546767Y-95253722D01*
X120555500Y-95209820D01*
X120555500Y-94553856D01*
X125249500Y-94553856D01*
X125249500Y-94646144D01*
X125267890Y-94714777D01*
X125273387Y-94735290D01*
X125273388Y-94735293D01*
X125319526Y-94815205D01*
X125319529Y-94815209D01*
X125319531Y-94815212D01*
X125384788Y-94880469D01*
X125384791Y-94880470D01*
X125384794Y-94880473D01*
X125464706Y-94926611D01*
X125464707Y-94926611D01*
X125464712Y-94926614D01*
X125553856Y-94950500D01*
X125553858Y-94950500D01*
X125646142Y-94950500D01*
X125646144Y-94950500D01*
X125735288Y-94926614D01*
X125815212Y-94880469D01*
X125880469Y-94815212D01*
X125926614Y-94735288D01*
X125950500Y-94646144D01*
X125950500Y-94553856D01*
X125926614Y-94464712D01*
X125926611Y-94464706D01*
X125880473Y-94384794D01*
X125880470Y-94384791D01*
X125880469Y-94384788D01*
X125815212Y-94319531D01*
X125815209Y-94319529D01*
X125815205Y-94319526D01*
X125735293Y-94273388D01*
X125735290Y-94273387D01*
X125735289Y-94273386D01*
X125735288Y-94273386D01*
X125646144Y-94249500D01*
X125553856Y-94249500D01*
X125464712Y-94273386D01*
X125464711Y-94273386D01*
X125464709Y-94273387D01*
X125464706Y-94273388D01*
X125384794Y-94319526D01*
X125384785Y-94319533D01*
X125319533Y-94384785D01*
X125319526Y-94384794D01*
X125273388Y-94464706D01*
X125273387Y-94464709D01*
X125273386Y-94464711D01*
X125273386Y-94464712D01*
X125249500Y-94553856D01*
X120555500Y-94553856D01*
X120555500Y-94180180D01*
X120555500Y-94180177D01*
X120546768Y-94136282D01*
X120546767Y-94136281D01*
X120546767Y-94136278D01*
X120513504Y-94086496D01*
X120480902Y-94064712D01*
X120463724Y-94053234D01*
X120452436Y-94048558D01*
X120453385Y-94046264D01*
X120406619Y-94021794D01*
X120372053Y-93961074D01*
X120375802Y-93891305D01*
X120392157Y-93860043D01*
X120396618Y-93853856D01*
X123949500Y-93853856D01*
X123949500Y-93946144D01*
X123972462Y-94031840D01*
X123973387Y-94035290D01*
X123973388Y-94035293D01*
X124019526Y-94115205D01*
X124019529Y-94115209D01*
X124019531Y-94115212D01*
X124084788Y-94180469D01*
X124084791Y-94180470D01*
X124084794Y-94180473D01*
X124164706Y-94226611D01*
X124164707Y-94226611D01*
X124164712Y-94226614D01*
X124253856Y-94250500D01*
X124253858Y-94250500D01*
X124346142Y-94250500D01*
X124346144Y-94250500D01*
X124435288Y-94226614D01*
X124515212Y-94180469D01*
X124580469Y-94115212D01*
X124626614Y-94035288D01*
X124650500Y-93946144D01*
X124650500Y-93853856D01*
X124626614Y-93764712D01*
X124615893Y-93746143D01*
X124580473Y-93684794D01*
X124580470Y-93684791D01*
X124580469Y-93684788D01*
X124515212Y-93619531D01*
X124515209Y-93619529D01*
X124515205Y-93619526D01*
X124435293Y-93573388D01*
X124435290Y-93573387D01*
X124435289Y-93573386D01*
X124435288Y-93573386D01*
X124346144Y-93549500D01*
X124253856Y-93549500D01*
X124164712Y-93573386D01*
X124164711Y-93573386D01*
X124164709Y-93573387D01*
X124164706Y-93573388D01*
X124084794Y-93619526D01*
X124084785Y-93619533D01*
X124019533Y-93684785D01*
X124019526Y-93684794D01*
X123973388Y-93764706D01*
X123973387Y-93764709D01*
X123973386Y-93764711D01*
X123973386Y-93764712D01*
X123949500Y-93853856D01*
X120396618Y-93853856D01*
X120397990Y-93851953D01*
X120410276Y-93839668D01*
X120481465Y-93733126D01*
X120530501Y-93614743D01*
X120543479Y-93549500D01*
X120555500Y-93489070D01*
X120555500Y-93360927D01*
X120530502Y-93235260D01*
X120530501Y-93235259D01*
X120530501Y-93235255D01*
X120481465Y-93116872D01*
X120481464Y-93116871D01*
X120481461Y-93116865D01*
X120410276Y-93010330D01*
X120410273Y-93010326D01*
X120319672Y-92919725D01*
X120319668Y-92919722D01*
X120279826Y-92893100D01*
X120235021Y-92839487D01*
X120226314Y-92770162D01*
X120256469Y-92707135D01*
X120279827Y-92686896D01*
X120318137Y-92661297D01*
X120319670Y-92660273D01*
X120410277Y-92569666D01*
X120481466Y-92463124D01*
X120530502Y-92344741D01*
X120538683Y-92303612D01*
X120555501Y-92219068D01*
X120555501Y-92090925D01*
X120531530Y-91970421D01*
X120531530Y-91970420D01*
X120531529Y-91970417D01*
X120530502Y-91965254D01*
X120530502Y-91965253D01*
X120525988Y-91954356D01*
X126617600Y-91954356D01*
X126617600Y-92046644D01*
X126641081Y-92134277D01*
X126641487Y-92135790D01*
X126641488Y-92135793D01*
X126687626Y-92215705D01*
X126687629Y-92215709D01*
X126687631Y-92215712D01*
X126752888Y-92280969D01*
X126752891Y-92280970D01*
X126752894Y-92280973D01*
X126832806Y-92327111D01*
X126832807Y-92327111D01*
X126832812Y-92327114D01*
X126921956Y-92351000D01*
X126921958Y-92351000D01*
X126983688Y-92351000D01*
X127050727Y-92370685D01*
X127071369Y-92387319D01*
X127679728Y-92995678D01*
X127713213Y-93057001D01*
X127708229Y-93126693D01*
X127666357Y-93182626D01*
X127624142Y-93203133D01*
X127592530Y-93211603D01*
X127547807Y-93223587D01*
X127547806Y-93223588D01*
X127467894Y-93269726D01*
X127467885Y-93269733D01*
X127402633Y-93334985D01*
X127402626Y-93334994D01*
X127356488Y-93414906D01*
X127356487Y-93414909D01*
X127356486Y-93414911D01*
X127356486Y-93414912D01*
X127332600Y-93504056D01*
X127332600Y-93596344D01*
X127356300Y-93684794D01*
X127356487Y-93685490D01*
X127356488Y-93685493D01*
X127402626Y-93765405D01*
X127402629Y-93765409D01*
X127402631Y-93765412D01*
X127467888Y-93830669D01*
X127467891Y-93830670D01*
X127467894Y-93830673D01*
X127547806Y-93876811D01*
X127547807Y-93876811D01*
X127547812Y-93876814D01*
X127636956Y-93900700D01*
X127636958Y-93900700D01*
X127729242Y-93900700D01*
X127729244Y-93900700D01*
X127818388Y-93876814D01*
X127898312Y-93830669D01*
X127898317Y-93830663D01*
X127904758Y-93825722D01*
X127906756Y-93828326D01*
X127915256Y-93823677D01*
X127934940Y-93808198D01*
X127945385Y-93807200D01*
X127954590Y-93802167D01*
X127979566Y-93803936D01*
X128004493Y-93801557D01*
X128013817Y-93806364D01*
X128024285Y-93807106D01*
X128044340Y-93822099D01*
X128066596Y-93833573D01*
X128076452Y-93846106D01*
X128080245Y-93848942D01*
X128088413Y-93861316D01*
X128103819Y-93888000D01*
X128120292Y-93955900D01*
X128103819Y-94012000D01*
X128073387Y-94064708D01*
X128073387Y-94064709D01*
X128073386Y-94064711D01*
X128073386Y-94064712D01*
X128049500Y-94153856D01*
X128049500Y-94246144D01*
X128069164Y-94319533D01*
X128073387Y-94335290D01*
X128073388Y-94335293D01*
X128119526Y-94415205D01*
X128119529Y-94415209D01*
X128119531Y-94415212D01*
X128184788Y-94480469D01*
X128184791Y-94480470D01*
X128184794Y-94480473D01*
X128264706Y-94526611D01*
X128264707Y-94526611D01*
X128264712Y-94526614D01*
X128353856Y-94550500D01*
X128353858Y-94550500D01*
X128446142Y-94550500D01*
X128446144Y-94550500D01*
X128535288Y-94526614D01*
X128535292Y-94526612D01*
X128553143Y-94516305D01*
X128587998Y-94496180D01*
X128655898Y-94479707D01*
X128712000Y-94496180D01*
X128727397Y-94505069D01*
X128764709Y-94526613D01*
X128764711Y-94526613D01*
X128764712Y-94526614D01*
X128853856Y-94550500D01*
X128853858Y-94550500D01*
X128946142Y-94550500D01*
X128946144Y-94550500D01*
X129035288Y-94526614D01*
X129035292Y-94526612D01*
X129053143Y-94516305D01*
X129087998Y-94496180D01*
X129155898Y-94479707D01*
X129212000Y-94496180D01*
X129227397Y-94505069D01*
X129264709Y-94526613D01*
X129264711Y-94526613D01*
X129264712Y-94526614D01*
X129353856Y-94550500D01*
X129353858Y-94550500D01*
X129425500Y-94550500D01*
X129492539Y-94570185D01*
X129538294Y-94622989D01*
X129549500Y-94674500D01*
X129549500Y-94746144D01*
X129568007Y-94815214D01*
X129573387Y-94835290D01*
X129573388Y-94835293D01*
X129619526Y-94915205D01*
X129619529Y-94915209D01*
X129619531Y-94915212D01*
X129684788Y-94980469D01*
X129684791Y-94980470D01*
X129684794Y-94980473D01*
X129764706Y-95026611D01*
X129764707Y-95026611D01*
X129764712Y-95026614D01*
X129853856Y-95050500D01*
X129853858Y-95050500D01*
X129946142Y-95050500D01*
X129946144Y-95050500D01*
X130035288Y-95026614D01*
X130115212Y-94980469D01*
X130180469Y-94915212D01*
X130226614Y-94835288D01*
X130250500Y-94746144D01*
X130250500Y-94674500D01*
X130270185Y-94607461D01*
X130322989Y-94561706D01*
X130374500Y-94550500D01*
X130446142Y-94550500D01*
X130446144Y-94550500D01*
X130535288Y-94526614D01*
X130535292Y-94526612D01*
X130553143Y-94516305D01*
X130587998Y-94496180D01*
X130655898Y-94479707D01*
X130712000Y-94496180D01*
X130727397Y-94505069D01*
X130764709Y-94526613D01*
X130764711Y-94526613D01*
X130764712Y-94526614D01*
X130853856Y-94550500D01*
X130853858Y-94550500D01*
X130946142Y-94550500D01*
X130946144Y-94550500D01*
X131035288Y-94526614D01*
X131115212Y-94480469D01*
X131180469Y-94415212D01*
X131226614Y-94335288D01*
X131250500Y-94246144D01*
X131250500Y-94153856D01*
X131226614Y-94064712D01*
X131226613Y-94064711D01*
X131226613Y-94064709D01*
X131196181Y-94012002D01*
X131179707Y-93944102D01*
X131196181Y-93887998D01*
X131202639Y-93876814D01*
X131221069Y-93844892D01*
X131226613Y-93835290D01*
X131226614Y-93835288D01*
X131250500Y-93746144D01*
X131250500Y-93653856D01*
X131226614Y-93564712D01*
X131226612Y-93564708D01*
X131223259Y-93558900D01*
X131206786Y-93491000D01*
X131229638Y-93424973D01*
X131284560Y-93381783D01*
X131330646Y-93372900D01*
X135400188Y-93372900D01*
X135467227Y-93392585D01*
X135487869Y-93409219D01*
X136734481Y-94655831D01*
X136749184Y-94682758D01*
X136765777Y-94708577D01*
X136766668Y-94714777D01*
X136767966Y-94717154D01*
X136770800Y-94743512D01*
X136770800Y-94785100D01*
X136751115Y-94852139D01*
X136698311Y-94897894D01*
X136646800Y-94909100D01*
X136614056Y-94909100D01*
X136524912Y-94932986D01*
X136524911Y-94932986D01*
X136524909Y-94932987D01*
X136524906Y-94932988D01*
X136444994Y-94979126D01*
X136444985Y-94979133D01*
X136379733Y-95044385D01*
X136379726Y-95044394D01*
X136333588Y-95124306D01*
X136333587Y-95124309D01*
X136333586Y-95124311D01*
X136333586Y-95124312D01*
X136320811Y-95171989D01*
X136309700Y-95213456D01*
X136309700Y-95305743D01*
X136333587Y-95394890D01*
X136333588Y-95394893D01*
X136379726Y-95474805D01*
X136379729Y-95474809D01*
X136379731Y-95474812D01*
X136444988Y-95540069D01*
X136444991Y-95540070D01*
X136444994Y-95540073D01*
X136524906Y-95586211D01*
X136524907Y-95586211D01*
X136524912Y-95586214D01*
X136614056Y-95610100D01*
X136614058Y-95610100D01*
X136706342Y-95610100D01*
X136706344Y-95610100D01*
X136795488Y-95586214D01*
X136875412Y-95540069D01*
X136940669Y-95474812D01*
X136986814Y-95394888D01*
X137010700Y-95305744D01*
X137010700Y-95233600D01*
X137030385Y-95166561D01*
X137083189Y-95120806D01*
X137134700Y-95109600D01*
X137167442Y-95109600D01*
X137167444Y-95109600D01*
X137256588Y-95085714D01*
X137336512Y-95039569D01*
X137401769Y-94974312D01*
X137447914Y-94894388D01*
X137471800Y-94805244D01*
X137471800Y-94712956D01*
X137447914Y-94623812D01*
X137413792Y-94564712D01*
X137401773Y-94543894D01*
X137401770Y-94543891D01*
X137401769Y-94543888D01*
X137336512Y-94478631D01*
X137336509Y-94478629D01*
X137336505Y-94478626D01*
X137256593Y-94432488D01*
X137256590Y-94432487D01*
X137256589Y-94432486D01*
X137256588Y-94432486D01*
X137167444Y-94408600D01*
X137105712Y-94408600D01*
X137038673Y-94388915D01*
X137018031Y-94372281D01*
X135799606Y-93153856D01*
X139849500Y-93153856D01*
X139849500Y-93246144D01*
X139873307Y-93334994D01*
X139873387Y-93335290D01*
X139873388Y-93335293D01*
X139919526Y-93415205D01*
X139919529Y-93415209D01*
X139919531Y-93415212D01*
X139984788Y-93480469D01*
X139984791Y-93480470D01*
X139984794Y-93480473D01*
X140064706Y-93526611D01*
X140064707Y-93526611D01*
X140064712Y-93526614D01*
X140153856Y-93550500D01*
X140153858Y-93550500D01*
X140246142Y-93550500D01*
X140246144Y-93550500D01*
X140335288Y-93526614D01*
X140415212Y-93480469D01*
X140480469Y-93415212D01*
X140526614Y-93335288D01*
X140550500Y-93246144D01*
X140550500Y-93153856D01*
X140526614Y-93064712D01*
X140522162Y-93057001D01*
X140480473Y-92984794D01*
X140480470Y-92984791D01*
X140480469Y-92984788D01*
X140415212Y-92919531D01*
X140415209Y-92919529D01*
X140415205Y-92919526D01*
X140335293Y-92873388D01*
X140335290Y-92873387D01*
X140335289Y-92873386D01*
X140335288Y-92873386D01*
X140246144Y-92849500D01*
X140153856Y-92849500D01*
X140064712Y-92873386D01*
X140064711Y-92873386D01*
X140064709Y-92873387D01*
X140064706Y-92873388D01*
X139984794Y-92919526D01*
X139984785Y-92919533D01*
X139919533Y-92984785D01*
X139919526Y-92984794D01*
X139873388Y-93064706D01*
X139873387Y-93064709D01*
X139873386Y-93064711D01*
X139873386Y-93064712D01*
X139849500Y-93153856D01*
X135799606Y-93153856D01*
X135648174Y-93002424D01*
X135574483Y-92971900D01*
X135574482Y-92971900D01*
X128874200Y-92971900D01*
X128865514Y-92969349D01*
X128856553Y-92970638D01*
X128832512Y-92959659D01*
X128807161Y-92952215D01*
X128801233Y-92945374D01*
X128792997Y-92941613D01*
X128778707Y-92919378D01*
X128761406Y-92899411D01*
X128759118Y-92888896D01*
X128755223Y-92882835D01*
X128750200Y-92847900D01*
X128750200Y-92788212D01*
X128769885Y-92721173D01*
X128786522Y-92700528D01*
X128801935Y-92685116D01*
X128863259Y-92651633D01*
X128889613Y-92648800D01*
X136640838Y-92648800D01*
X136707877Y-92668485D01*
X136753632Y-92721289D01*
X136760612Y-92740705D01*
X136764385Y-92754786D01*
X136764388Y-92754793D01*
X136810526Y-92834705D01*
X136810529Y-92834709D01*
X136810531Y-92834712D01*
X136875788Y-92899969D01*
X136875791Y-92899970D01*
X136875794Y-92899973D01*
X136955706Y-92946111D01*
X136955707Y-92946111D01*
X136955712Y-92946114D01*
X137044856Y-92970000D01*
X137044858Y-92970000D01*
X137137142Y-92970000D01*
X137137144Y-92970000D01*
X137226288Y-92946114D01*
X137306212Y-92899969D01*
X137371469Y-92834712D01*
X137417614Y-92754788D01*
X137441500Y-92665644D01*
X137441500Y-92573356D01*
X137417614Y-92484212D01*
X137413559Y-92477188D01*
X137371473Y-92404294D01*
X137371470Y-92404291D01*
X137371469Y-92404288D01*
X137306212Y-92339031D01*
X137306209Y-92339029D01*
X137306205Y-92339026D01*
X137226293Y-92292888D01*
X137226290Y-92292887D01*
X137226289Y-92292886D01*
X137226288Y-92292886D01*
X137137144Y-92269000D01*
X137044856Y-92269000D01*
X137036730Y-92269000D01*
X137036730Y-92268003D01*
X137018582Y-92267915D01*
X137002946Y-92265720D01*
X136959682Y-92247800D01*
X136875276Y-92247800D01*
X136866698Y-92246596D01*
X136842440Y-92235616D01*
X136816895Y-92228115D01*
X136811103Y-92221431D01*
X136803045Y-92217784D01*
X136788571Y-92195428D01*
X136771140Y-92175311D01*
X136769812Y-92166452D01*
X136765074Y-92159133D01*
X136764991Y-92134277D01*
X136760995Y-92107610D01*
X136761898Y-92100750D01*
X136761900Y-92100744D01*
X136761900Y-92008456D01*
X136738014Y-91919312D01*
X136706779Y-91865212D01*
X136691873Y-91839394D01*
X136691870Y-91839391D01*
X136691869Y-91839388D01*
X136626612Y-91774131D01*
X136626609Y-91774129D01*
X136626605Y-91774126D01*
X136546693Y-91727988D01*
X136546690Y-91727987D01*
X136546689Y-91727986D01*
X136546688Y-91727986D01*
X136457544Y-91704100D01*
X136365256Y-91704100D01*
X136276112Y-91727986D01*
X136276111Y-91727986D01*
X136276109Y-91727987D01*
X136276106Y-91727988D01*
X136196194Y-91774126D01*
X136196185Y-91774133D01*
X136130933Y-91839385D01*
X136130926Y-91839394D01*
X136084788Y-91919306D01*
X136084787Y-91919309D01*
X136084786Y-91919311D01*
X136084786Y-91919312D01*
X136060900Y-92008456D01*
X136060900Y-92100744D01*
X136060901Y-92100750D01*
X136061805Y-92107610D01*
X136051041Y-92176646D01*
X136004663Y-92228903D01*
X135938866Y-92247800D01*
X128795082Y-92247800D01*
X128715318Y-92247800D01*
X128715316Y-92247800D01*
X128715314Y-92247801D01*
X128641629Y-92278321D01*
X128641626Y-92278324D01*
X128502966Y-92416982D01*
X128441645Y-92450466D01*
X128415287Y-92453300D01*
X128353556Y-92453300D01*
X128264412Y-92477186D01*
X128264411Y-92477186D01*
X128264409Y-92477187D01*
X128264406Y-92477188D01*
X128184494Y-92523326D01*
X128184485Y-92523333D01*
X128119233Y-92588585D01*
X128119229Y-92588591D01*
X128097726Y-92625833D01*
X128047157Y-92674046D01*
X127978550Y-92687267D01*
X127913686Y-92661297D01*
X127902660Y-92651510D01*
X127354919Y-92103769D01*
X127321434Y-92042446D01*
X127318600Y-92016088D01*
X127318600Y-91954358D01*
X127318600Y-91954356D01*
X127294714Y-91865212D01*
X127294711Y-91865206D01*
X127248573Y-91785294D01*
X127248570Y-91785291D01*
X127248569Y-91785288D01*
X127183312Y-91720031D01*
X127183309Y-91720029D01*
X127183305Y-91720026D01*
X127103393Y-91673888D01*
X127103390Y-91673887D01*
X127103389Y-91673886D01*
X127103388Y-91673886D01*
X127014244Y-91650000D01*
X126921956Y-91650000D01*
X126832812Y-91673886D01*
X126832811Y-91673886D01*
X126832809Y-91673887D01*
X126832806Y-91673888D01*
X126752894Y-91720026D01*
X126752885Y-91720033D01*
X126687633Y-91785285D01*
X126687626Y-91785294D01*
X126641488Y-91865206D01*
X126641487Y-91865209D01*
X126641486Y-91865211D01*
X126641486Y-91865212D01*
X126617600Y-91954356D01*
X120525988Y-91954356D01*
X120481466Y-91846870D01*
X120481465Y-91846869D01*
X120481462Y-91846863D01*
X120410277Y-91740328D01*
X120410274Y-91740324D01*
X120319673Y-91649723D01*
X120319669Y-91649720D01*
X120213134Y-91578535D01*
X120213125Y-91578530D01*
X120094745Y-91529496D01*
X120094739Y-91529494D01*
X119969072Y-91504497D01*
X119969070Y-91504497D01*
X119840932Y-91504497D01*
X119840930Y-91504497D01*
X119715262Y-91529494D01*
X119715256Y-91529496D01*
X119596876Y-91578530D01*
X119596867Y-91578535D01*
X119490332Y-91649720D01*
X119490328Y-91649723D01*
X119399727Y-91740324D01*
X119399724Y-91740328D01*
X119328539Y-91846863D01*
X119328534Y-91846872D01*
X119279500Y-91965252D01*
X119279498Y-91965258D01*
X119254501Y-92090925D01*
X119254501Y-92090928D01*
X119254501Y-92219066D01*
X119254501Y-92219068D01*
X119254500Y-92219068D01*
X119279498Y-92344735D01*
X119279500Y-92344741D01*
X119328534Y-92463121D01*
X119328539Y-92463130D01*
X119399724Y-92569665D01*
X119399727Y-92569669D01*
X119490328Y-92660270D01*
X119490332Y-92660273D01*
X119530174Y-92686895D01*
X119574979Y-92740507D01*
X119583686Y-92809832D01*
X119553531Y-92872860D01*
X119530176Y-92893098D01*
X119490329Y-92919723D01*
X119399726Y-93010326D01*
X119399723Y-93010330D01*
X119328538Y-93116865D01*
X119328533Y-93116874D01*
X119279499Y-93235254D01*
X119279497Y-93235260D01*
X119254500Y-93360927D01*
X119254500Y-93360930D01*
X119254500Y-93489068D01*
X119254500Y-93489070D01*
X119254499Y-93489070D01*
X117100478Y-93489070D01*
X117295753Y-93105821D01*
X117298834Y-93100148D01*
X117673987Y-92450365D01*
X117677336Y-92444900D01*
X118085995Y-91815618D01*
X118089612Y-91810354D01*
X118421279Y-91353856D01*
X131449500Y-91353856D01*
X131449500Y-91446143D01*
X131473387Y-91535290D01*
X131473388Y-91535293D01*
X131519526Y-91615205D01*
X131519529Y-91615209D01*
X131519531Y-91615212D01*
X131584788Y-91680469D01*
X131584791Y-91680470D01*
X131584794Y-91680473D01*
X131664706Y-91726611D01*
X131664707Y-91726611D01*
X131664712Y-91726614D01*
X131753856Y-91750500D01*
X131753858Y-91750500D01*
X131846142Y-91750500D01*
X131846144Y-91750500D01*
X131935288Y-91726614D01*
X132015212Y-91680469D01*
X132080469Y-91615212D01*
X132126614Y-91535288D01*
X132150500Y-91446144D01*
X132150500Y-91353856D01*
X132126614Y-91264712D01*
X132126611Y-91264706D01*
X132080473Y-91184794D01*
X132080470Y-91184791D01*
X132080469Y-91184788D01*
X132015212Y-91119531D01*
X132015209Y-91119529D01*
X132015205Y-91119526D01*
X131935293Y-91073388D01*
X131935290Y-91073387D01*
X131935289Y-91073386D01*
X131935288Y-91073386D01*
X131846144Y-91049500D01*
X131753856Y-91049500D01*
X131664712Y-91073386D01*
X131664711Y-91073386D01*
X131664709Y-91073387D01*
X131664706Y-91073388D01*
X131584794Y-91119526D01*
X131584785Y-91119533D01*
X131519533Y-91184785D01*
X131519526Y-91184794D01*
X131473388Y-91264706D01*
X131473387Y-91264709D01*
X131449500Y-91353856D01*
X118421279Y-91353856D01*
X118530650Y-91203320D01*
X118534564Y-91198218D01*
X119006745Y-90615123D01*
X119010955Y-90610195D01*
X119037723Y-90580466D01*
X119331804Y-90253856D01*
X120949500Y-90253856D01*
X120949500Y-90346143D01*
X120973387Y-90435290D01*
X120973388Y-90435293D01*
X121019526Y-90515205D01*
X121019529Y-90515209D01*
X121019531Y-90515212D01*
X121084788Y-90580469D01*
X121084791Y-90580470D01*
X121084794Y-90580473D01*
X121164706Y-90626611D01*
X121164707Y-90626611D01*
X121164712Y-90626614D01*
X121253856Y-90650500D01*
X121253858Y-90650500D01*
X121346142Y-90650500D01*
X121346144Y-90650500D01*
X121435288Y-90626614D01*
X121515212Y-90580469D01*
X121580469Y-90515212D01*
X121626614Y-90435288D01*
X121650500Y-90346144D01*
X121650500Y-90253856D01*
X121626614Y-90164712D01*
X121626611Y-90164706D01*
X121580473Y-90084794D01*
X121580470Y-90084791D01*
X121580469Y-90084788D01*
X121515212Y-90019531D01*
X121515209Y-90019529D01*
X121515205Y-90019526D01*
X121435293Y-89973388D01*
X121435290Y-89973387D01*
X121435289Y-89973386D01*
X121435288Y-89973386D01*
X121346144Y-89949500D01*
X121253856Y-89949500D01*
X121164712Y-89973386D01*
X121164711Y-89973386D01*
X121164709Y-89973387D01*
X121164706Y-89973388D01*
X121084794Y-90019526D01*
X121084785Y-90019533D01*
X121019533Y-90084785D01*
X121019526Y-90084794D01*
X120973388Y-90164706D01*
X120973387Y-90164709D01*
X120949500Y-90253856D01*
X119331804Y-90253856D01*
X119512989Y-90052629D01*
X119517421Y-90047959D01*
X120047959Y-89517421D01*
X120052629Y-89512989D01*
X120118303Y-89453856D01*
X138249500Y-89453856D01*
X138249500Y-89546143D01*
X138273387Y-89635290D01*
X138273388Y-89635293D01*
X138319526Y-89715205D01*
X138319529Y-89715209D01*
X138319531Y-89715212D01*
X138384788Y-89780469D01*
X138384791Y-89780470D01*
X138384794Y-89780473D01*
X138464706Y-89826611D01*
X138464707Y-89826611D01*
X138464712Y-89826614D01*
X138553856Y-89850500D01*
X138553858Y-89850500D01*
X138646142Y-89850500D01*
X138646144Y-89850500D01*
X138735288Y-89826614D01*
X138815212Y-89780469D01*
X138880469Y-89715212D01*
X138926614Y-89635288D01*
X138950500Y-89546144D01*
X138950500Y-89453856D01*
X138926614Y-89364712D01*
X138926611Y-89364706D01*
X138880473Y-89284794D01*
X138880470Y-89284791D01*
X138880469Y-89284788D01*
X138815212Y-89219531D01*
X138815209Y-89219529D01*
X138815205Y-89219526D01*
X138735293Y-89173388D01*
X138735290Y-89173387D01*
X138735289Y-89173386D01*
X138735288Y-89173386D01*
X138646144Y-89149500D01*
X138553856Y-89149500D01*
X138464712Y-89173386D01*
X138464711Y-89173386D01*
X138464709Y-89173387D01*
X138464706Y-89173388D01*
X138384794Y-89219526D01*
X138384785Y-89219533D01*
X138319533Y-89284785D01*
X138319526Y-89284794D01*
X138273388Y-89364706D01*
X138273387Y-89364709D01*
X138249500Y-89453856D01*
X120118303Y-89453856D01*
X120610203Y-89010948D01*
X120615131Y-89006739D01*
X120773053Y-88878856D01*
X134174500Y-88878856D01*
X134174500Y-88971144D01*
X134185167Y-89010955D01*
X134198387Y-89060290D01*
X134198388Y-89060293D01*
X134244526Y-89140205D01*
X134244529Y-89140209D01*
X134244531Y-89140212D01*
X134309788Y-89205469D01*
X134309791Y-89205470D01*
X134309794Y-89205473D01*
X134389706Y-89251611D01*
X134389707Y-89251611D01*
X134389712Y-89251614D01*
X134478856Y-89275500D01*
X134478858Y-89275500D01*
X134571142Y-89275500D01*
X134571144Y-89275500D01*
X134660288Y-89251614D01*
X134740212Y-89205469D01*
X134805469Y-89140212D01*
X134851614Y-89060288D01*
X134875500Y-88971144D01*
X134875500Y-88878856D01*
X134851614Y-88789712D01*
X134840479Y-88770426D01*
X134805473Y-88709794D01*
X134805470Y-88709791D01*
X134805469Y-88709788D01*
X134740212Y-88644531D01*
X134740209Y-88644529D01*
X134740205Y-88644526D01*
X134660293Y-88598388D01*
X134660290Y-88598387D01*
X134660289Y-88598386D01*
X134660288Y-88598386D01*
X134571144Y-88574500D01*
X134478856Y-88574500D01*
X134389712Y-88598386D01*
X134389711Y-88598386D01*
X134389709Y-88598387D01*
X134389706Y-88598388D01*
X134309794Y-88644526D01*
X134309785Y-88644533D01*
X134244533Y-88709785D01*
X134244526Y-88709794D01*
X134198388Y-88789706D01*
X134198387Y-88789709D01*
X134198386Y-88789711D01*
X134198386Y-88789712D01*
X134174500Y-88878856D01*
X120773053Y-88878856D01*
X121198218Y-88534564D01*
X121203301Y-88530663D01*
X121810354Y-88089612D01*
X121815618Y-88085995D01*
X122253904Y-87801370D01*
X126628499Y-87801370D01*
X126660637Y-87962934D01*
X126660639Y-87962940D01*
X126723679Y-88115133D01*
X126723684Y-88115142D01*
X126815203Y-88252109D01*
X126815206Y-88252113D01*
X126931686Y-88368593D01*
X126931690Y-88368596D01*
X127068657Y-88460115D01*
X127068666Y-88460120D01*
X127076884Y-88463524D01*
X127220860Y-88523161D01*
X127220864Y-88523161D01*
X127220865Y-88523162D01*
X127382429Y-88555300D01*
X127382432Y-88555300D01*
X127547170Y-88555300D01*
X127671025Y-88530663D01*
X127708740Y-88523161D01*
X127860936Y-88460119D01*
X127997910Y-88368596D01*
X128114396Y-88252110D01*
X128205919Y-88115136D01*
X128268961Y-87962940D01*
X128301100Y-87801368D01*
X128301100Y-87801367D01*
X129168495Y-87801367D01*
X129200633Y-87962931D01*
X129200635Y-87962937D01*
X129263675Y-88115130D01*
X129263680Y-88115139D01*
X129355199Y-88252106D01*
X129355202Y-88252110D01*
X129471682Y-88368590D01*
X129471686Y-88368593D01*
X129608653Y-88460112D01*
X129608662Y-88460117D01*
X129643139Y-88474397D01*
X129760856Y-88523158D01*
X129760860Y-88523158D01*
X129760861Y-88523159D01*
X129922425Y-88555297D01*
X129922428Y-88555297D01*
X130087166Y-88555297D01*
X130211006Y-88530663D01*
X130248736Y-88523158D01*
X130400932Y-88460116D01*
X130461536Y-88419622D01*
X131708499Y-88419622D01*
X131717231Y-88463517D01*
X131717232Y-88463521D01*
X131717233Y-88463522D01*
X131750496Y-88513304D01*
X131800278Y-88546567D01*
X131800281Y-88546567D01*
X131800282Y-88546568D01*
X131844177Y-88555300D01*
X131844180Y-88555300D01*
X133245422Y-88555300D01*
X133289317Y-88546568D01*
X133289317Y-88546567D01*
X133289322Y-88546567D01*
X133339104Y-88513304D01*
X133372367Y-88463522D01*
X133381100Y-88419620D01*
X133381100Y-87018380D01*
X133381100Y-87018377D01*
X133372368Y-86974482D01*
X133372367Y-86974481D01*
X133372367Y-86974478D01*
X133339104Y-86924696D01*
X133324349Y-86914837D01*
X133289324Y-86891434D01*
X133289317Y-86891431D01*
X133245422Y-86882700D01*
X133245420Y-86882700D01*
X131844180Y-86882700D01*
X131844178Y-86882700D01*
X131800282Y-86891431D01*
X131800275Y-86891434D01*
X131750496Y-86924695D01*
X131750495Y-86924696D01*
X131717234Y-86974475D01*
X131717231Y-86974482D01*
X131708500Y-87018377D01*
X131708500Y-87018380D01*
X131708500Y-88419620D01*
X131708500Y-88419622D01*
X131708499Y-88419622D01*
X130461536Y-88419622D01*
X130537906Y-88368593D01*
X130654392Y-88252107D01*
X130745915Y-88115133D01*
X130808957Y-87962937D01*
X130841095Y-87801370D01*
X130841096Y-87801367D01*
X130841096Y-87636626D01*
X130808958Y-87475062D01*
X130808957Y-87475061D01*
X130808957Y-87475057D01*
X130745915Y-87322861D01*
X130745914Y-87322860D01*
X130745911Y-87322854D01*
X130654392Y-87185887D01*
X130654389Y-87185883D01*
X130537909Y-87069403D01*
X130537905Y-87069400D01*
X130400938Y-86977881D01*
X130400929Y-86977876D01*
X130248736Y-86914836D01*
X130248730Y-86914834D01*
X130087166Y-86882697D01*
X130087164Y-86882697D01*
X129922428Y-86882697D01*
X129922426Y-86882697D01*
X129760861Y-86914834D01*
X129760855Y-86914836D01*
X129608662Y-86977876D01*
X129608653Y-86977881D01*
X129471686Y-87069400D01*
X129471682Y-87069403D01*
X129355202Y-87185883D01*
X129355199Y-87185887D01*
X129263680Y-87322854D01*
X129263675Y-87322863D01*
X129200635Y-87475056D01*
X129200633Y-87475062D01*
X129168496Y-87636626D01*
X129168496Y-87636628D01*
X129168496Y-87636629D01*
X129168496Y-87801365D01*
X129168496Y-87801367D01*
X129168495Y-87801367D01*
X128301100Y-87801367D01*
X128301100Y-87636632D01*
X128268961Y-87475060D01*
X128220200Y-87357343D01*
X128205920Y-87322866D01*
X128205915Y-87322857D01*
X128114396Y-87185890D01*
X128114393Y-87185886D01*
X127997913Y-87069406D01*
X127997909Y-87069403D01*
X127860942Y-86977884D01*
X127860933Y-86977879D01*
X127708740Y-86914839D01*
X127708734Y-86914837D01*
X127547170Y-86882700D01*
X127547168Y-86882700D01*
X127382432Y-86882700D01*
X127382430Y-86882700D01*
X127220865Y-86914837D01*
X127220859Y-86914839D01*
X127068666Y-86977879D01*
X127068657Y-86977884D01*
X126931690Y-87069403D01*
X126931686Y-87069406D01*
X126815206Y-87185886D01*
X126815203Y-87185890D01*
X126723684Y-87322857D01*
X126723679Y-87322866D01*
X126660639Y-87475059D01*
X126660637Y-87475065D01*
X126628500Y-87636629D01*
X126628500Y-87636631D01*
X126628500Y-87636632D01*
X126628500Y-87801368D01*
X126628500Y-87801370D01*
X126628499Y-87801370D01*
X122253904Y-87801370D01*
X122444900Y-87677336D01*
X122450365Y-87673987D01*
X123100148Y-87298834D01*
X123105821Y-87295753D01*
X123774355Y-86955118D01*
X123780151Y-86952354D01*
X124465587Y-86647178D01*
X124471550Y-86644708D01*
X125172013Y-86375825D01*
X125178085Y-86373675D01*
X125891669Y-86141817D01*
X125897825Y-86139994D01*
X126622579Y-85945798D01*
X126628843Y-85944294D01*
X127362756Y-85788295D01*
X127369060Y-85787127D01*
X128110128Y-85669753D01*
X128116509Y-85668912D01*
X128862731Y-85590482D01*
X128869135Y-85589978D01*
X129618384Y-85550711D01*
X129624874Y-85550542D01*
X130375126Y-85550542D01*
X130381615Y-85550711D01*
G37*
%TD.AperFunction*%
%TD*%
M02*
