%TF.GenerationSoftware,KiCad,Pcbnew,9.0.2*%
%TF.CreationDate,2025-11-14T19:25:59+05:30*%
%TF.ProjectId,Nade,4e616465-2e6b-4696-9361-645f70636258,rev?*%
%TF.SameCoordinates,Original*%
%TF.FileFunction,Copper,L3,Inr*%
%TF.FilePolarity,Positive*%
%FSLAX46Y46*%
G04 Gerber Fmt 4.6, Leading zero omitted, Abs format (unit mm)*
G04 Created by KiCad (PCBNEW 9.0.2) date 2025-11-14 19:25:59*
%MOMM*%
%LPD*%
G01*
G04 APERTURE LIST*
%TA.AperFunction,ComponentPad*%
%ADD10C,1.000000*%
%TD*%
%TA.AperFunction,ComponentPad*%
%ADD11R,1.000000X1.000000*%
%TD*%
%TA.AperFunction,ComponentPad*%
%ADD12C,1.500000*%
%TD*%
%TA.AperFunction,ComponentPad*%
%ADD13R,1.371600X1.371600*%
%TD*%
%TA.AperFunction,ComponentPad*%
%ADD14C,1.371600*%
%TD*%
%TA.AperFunction,ViaPad*%
%ADD15C,0.400000*%
%TD*%
%TA.AperFunction,Conductor*%
%ADD16C,0.100000*%
%TD*%
G04 APERTURE END LIST*
D10*
%TO.N,Net-(J6-Pin_2)*%
%TO.C,Pyro*%
X142775000Y-101085000D03*
D11*
%TO.N,GND*%
X142775000Y-99815000D03*
%TD*%
D12*
%TO.N,GND*%
%TO.C,GND*%
X140225000Y-109025000D03*
%TD*%
D13*
%TO.N,Net-(SW2-A)*%
%TO.C,SW2*%
X132544800Y-87719000D03*
D14*
%TO.N,Net-(J4-Pin_1)*%
X130004796Y-87718997D03*
%TO.N,unconnected-(SW2-C-Pad3)*%
X127464800Y-87719000D03*
%TD*%
D11*
%TO.N,Net-(J2-Pin_1)*%
%TO.C,J2*%
X119905000Y-94695000D03*
D10*
%TO.N,Net-(J2-Pin_2)*%
X119905000Y-93424999D03*
%TO.N,Net-(J2-Pin_3)*%
X119905001Y-92154997D03*
%TD*%
D15*
%TO.N,VDD*%
X142300000Y-103900000D03*
%TO.N,Net-(J7-Pin_2)*%
X138800000Y-106900000D03*
%TO.N,Net-(J7-Pin_1)*%
X138800000Y-108100000D03*
%TO.N,Net-(J3-Pin_6)*%
X124133900Y-107072100D03*
X136656900Y-106083500D03*
X136656900Y-96992300D03*
%TO.N,Net-(J3-Pin_3)*%
X132741800Y-100853000D03*
X123921700Y-104225900D03*
%TO.N,Net-(J3-Pin_11)*%
X127683100Y-93550200D03*
%TO.N,Net-(J3-Pin_8)*%
X130987500Y-96722400D03*
X128819400Y-112734600D03*
%TO.N,Net-(J3-Pin_7)*%
X129930500Y-97473700D03*
X127556900Y-112734600D03*
%TO.N,Net-(J3-Pin_5)*%
X125417800Y-98829700D03*
X123949500Y-106393400D03*
%TO.N,Net-(J3-Pin_13)*%
X136411400Y-92054600D03*
%TO.N,Net-(J3-Pin_4)*%
X121181600Y-102831300D03*
X136655300Y-98574500D03*
%TO.N,/PA10*%
X126800000Y-112500000D03*
%TO.N,/PA7*%
X126405000Y-102400000D03*
%TO.N,/PA13*%
X132800000Y-112600000D03*
%TO.N,/PA14*%
X133800000Y-112600000D03*
%TO.N,/PA15*%
X135100000Y-112550000D03*
%TO.N,/PB3*%
X134500000Y-112600000D03*
%TO.N,Net-(J3-Pin_12)*%
X128399700Y-92803800D03*
X137091000Y-92619500D03*
%TO.N,Net-(J3-Pin_2)*%
X125090000Y-102168700D03*
X136655300Y-99387000D03*
%TO.N,/PA2*%
X136600000Y-100200000D03*
%TO.N,Net-(J3-Pin_9)*%
X136660200Y-95259600D03*
X136500000Y-109500000D03*
%TO.N,Net-(J3-Pin_1)*%
X123973100Y-99913400D03*
X132287500Y-99624300D03*
%TO.N,Net-(J3-Pin_10)*%
X126968100Y-92000500D03*
X137121300Y-94759100D03*
%TO.N,Net-(J3-Pin_14)*%
X140975300Y-101325800D03*
X140766000Y-90935800D03*
%TO.N,/PA11*%
X123500000Y-111200000D03*
X124300000Y-93900000D03*
%TO.N,/PA3*%
X135200000Y-102200000D03*
%TO.N,/PA1*%
X125080000Y-96600000D03*
%TO.N,/PA4*%
X125600000Y-94600000D03*
%TO.N,/PC0*%
X134100000Y-102600000D03*
%TO.N,Net-(R10-Pad1)*%
X131800000Y-91400000D03*
%TO.N,Net-(SW2-A)*%
X134525000Y-88925000D03*
%TO.N,/PA6*%
X124100000Y-97200000D03*
%TO.N,/PC1*%
X133300000Y-102900000D03*
%TO.N,RESET'*%
X124200000Y-105300000D03*
%TO.N,VDD*%
X139875000Y-101075000D03*
X129900000Y-94200000D03*
X130100000Y-102900000D03*
X130900000Y-94200000D03*
X127600000Y-103800000D03*
X130400000Y-93700000D03*
X131800000Y-113800000D03*
X140200000Y-93200000D03*
X139800000Y-103800000D03*
X130900000Y-93700000D03*
X121300000Y-90300000D03*
X130400000Y-94200000D03*
X129900000Y-94700000D03*
X124000000Y-103100000D03*
X129500000Y-99300000D03*
X124191000Y-108898000D03*
X128400000Y-94200000D03*
X138600000Y-89500000D03*
X128900000Y-94200000D03*
X129900000Y-113900000D03*
X129400000Y-93700000D03*
X130000000Y-100700000D03*
X132100000Y-99000000D03*
X138900000Y-104600000D03*
X128900000Y-93700000D03*
X129900000Y-93700000D03*
X128400000Y-93700000D03*
X121700000Y-109600000D03*
X127700000Y-103200000D03*
X129400000Y-94200000D03*
%TO.N,GND*%
X130901000Y-94699500D03*
X117500000Y-105100000D03*
X143600000Y-99800000D03*
X135300000Y-103700000D03*
X125400000Y-97700000D03*
X125400000Y-106600000D03*
X126500000Y-90200000D03*
X127000000Y-97200000D03*
X121300000Y-96500000D03*
X128000000Y-99500000D03*
X135300000Y-100700000D03*
X135300000Y-109700000D03*
X120000000Y-105100000D03*
X130800000Y-100500000D03*
X125400000Y-103700000D03*
X130800000Y-112500000D03*
X131900000Y-94700000D03*
X125400000Y-92000000D03*
X133300000Y-94600000D03*
X135300000Y-106700000D03*
X139800000Y-102800000D03*
X142200000Y-93600000D03*
X142100000Y-97100000D03*
X138100000Y-89600000D03*
X137700000Y-88600000D03*
X121714000Y-107520000D03*
X128000000Y-99000000D03*
X132000000Y-97700000D03*
X128700000Y-97700000D03*
X132000000Y-108000000D03*
X136300000Y-92800000D03*
X139600000Y-106000000D03*
X125400000Y-100600000D03*
X125400000Y-109700000D03*
X131400000Y-90400000D03*
X122200000Y-101200000D03*
X123587000Y-89140700D03*
X130097000Y-103719000D03*
X126500000Y-90800000D03*
X130500000Y-99300000D03*
X132600000Y-92000000D03*
X132600000Y-103700000D03*
X128764900Y-107950000D03*
X118900000Y-106700000D03*
X136500000Y-94700000D03*
X128800000Y-103700000D03*
X143700000Y-103300000D03*
%TD*%
D16*
%TO.N,Net-(J3-Pin_9)*%
X136168700Y-95751100D02*
X136660200Y-95259600D01*
X136500000Y-109500000D02*
X136168700Y-109168700D01*
X136168700Y-109168700D02*
X136168700Y-95751100D01*
%TO.N,Net-(J3-Pin_6)*%
X137007100Y-97342500D02*
X136656900Y-96992300D01*
X137007100Y-105733300D02*
X137007100Y-97342500D01*
X136656900Y-106083500D02*
X137007100Y-105733300D01*
%TO.N,Net-(J3-Pin_8)*%
X131165200Y-96900100D02*
X130987500Y-96722400D01*
X131165200Y-110388800D02*
X131165200Y-96900100D01*
X128819400Y-112734600D02*
X131165200Y-110388800D01*
%TO.N,Net-(J3-Pin_7)*%
X128561300Y-111730200D02*
X127556900Y-112734600D01*
X128561300Y-109281400D02*
X128561300Y-111730200D01*
X128414900Y-109135000D02*
X128561300Y-109281400D01*
X128414900Y-98989300D02*
X128414900Y-109135000D01*
X129930500Y-97473700D02*
X128414900Y-98989300D01*
%TO.N,Net-(J3-Pin_5)*%
X124665100Y-105677800D02*
X123949500Y-106393400D01*
X124665100Y-99582400D02*
X124665100Y-105677800D01*
X125417800Y-98829700D02*
X124665100Y-99582400D01*
%TO.N,Net-(J3-Pin_14)*%
X140975300Y-91145100D02*
X140766000Y-90935800D01*
X140975300Y-101325800D02*
X140975300Y-91145100D01*
%TD*%
%TA.AperFunction,Conductor*%
%TO.N,VDD*%
G36*
X130380518Y-85592613D02*
G01*
X131127566Y-85631765D01*
X131133991Y-85632270D01*
X131878019Y-85710470D01*
X131884395Y-85711310D01*
X132545854Y-85816075D01*
X132623261Y-85828336D01*
X132629644Y-85829519D01*
X132825208Y-85871087D01*
X133361355Y-85985048D01*
X133367642Y-85986557D01*
X134090251Y-86180179D01*
X134096453Y-86182016D01*
X134807909Y-86413183D01*
X134814006Y-86415341D01*
X135512391Y-86683427D01*
X135518384Y-86685909D01*
X136201788Y-86990180D01*
X136207614Y-86992958D01*
X136855069Y-87322854D01*
X136874161Y-87332582D01*
X136879866Y-87335680D01*
X137527716Y-87709716D01*
X137533215Y-87713086D01*
X138160621Y-88120528D01*
X138165937Y-88124181D01*
X138771137Y-88563885D01*
X138776282Y-88567832D01*
X138872988Y-88646143D01*
X139357646Y-89038612D01*
X139362582Y-89042828D01*
X139918497Y-89543376D01*
X139923206Y-89547845D01*
X140452154Y-90076793D01*
X140456623Y-90081502D01*
X140737841Y-90393826D01*
X140768071Y-90456817D01*
X140759446Y-90526153D01*
X140714704Y-90579818D01*
X140677785Y-90596572D01*
X140664104Y-90600238D01*
X140630707Y-90609187D01*
X140630706Y-90609188D01*
X140550794Y-90655326D01*
X140550785Y-90655333D01*
X140485533Y-90720585D01*
X140485526Y-90720594D01*
X140439388Y-90800506D01*
X140439387Y-90800509D01*
X140439386Y-90800511D01*
X140439386Y-90800512D01*
X140415500Y-90889656D01*
X140415500Y-90981944D01*
X140428785Y-91031526D01*
X140439387Y-91071090D01*
X140439388Y-91071093D01*
X140485526Y-91151005D01*
X140485529Y-91151009D01*
X140485531Y-91151012D01*
X140550788Y-91216269D01*
X140550791Y-91216270D01*
X140550794Y-91216273D01*
X140630706Y-91262411D01*
X140630708Y-91262412D01*
X140630709Y-91262412D01*
X140630712Y-91262414D01*
X140682895Y-91276396D01*
X140742553Y-91312759D01*
X140773083Y-91375606D01*
X140774800Y-91396170D01*
X140774800Y-100979257D01*
X140755115Y-101046296D01*
X140738481Y-101066938D01*
X140694833Y-101110585D01*
X140694826Y-101110594D01*
X140648688Y-101190506D01*
X140648687Y-101190509D01*
X140648686Y-101190511D01*
X140648686Y-101190512D01*
X140626118Y-101274738D01*
X140624800Y-101279656D01*
X140624800Y-101371943D01*
X140648687Y-101461090D01*
X140648688Y-101461093D01*
X140694826Y-101541005D01*
X140694829Y-101541009D01*
X140694831Y-101541012D01*
X140760088Y-101606269D01*
X140760091Y-101606270D01*
X140760094Y-101606273D01*
X140840006Y-101652411D01*
X140840007Y-101652411D01*
X140840012Y-101652414D01*
X140929156Y-101676300D01*
X140929158Y-101676300D01*
X141021442Y-101676300D01*
X141021444Y-101676300D01*
X141110588Y-101652414D01*
X141190512Y-101606269D01*
X141255769Y-101541012D01*
X141301914Y-101461088D01*
X141325800Y-101371944D01*
X141325800Y-101279656D01*
X141301914Y-101190512D01*
X141295621Y-101179612D01*
X141255773Y-101110594D01*
X141255770Y-101110591D01*
X141255769Y-101110588D01*
X141212119Y-101066938D01*
X141178634Y-101005615D01*
X141175800Y-100979257D01*
X141175800Y-100329822D01*
X142124499Y-100329822D01*
X142133231Y-100373717D01*
X142133234Y-100373724D01*
X142166495Y-100423503D01*
X142166496Y-100423504D01*
X142216278Y-100456767D01*
X142216281Y-100456767D01*
X142227564Y-100461442D01*
X142226613Y-100463737D01*
X142273358Y-100488183D01*
X142307939Y-100548895D01*
X142304207Y-100618665D01*
X142274952Y-100665102D01*
X142269723Y-100670331D01*
X142198538Y-100776866D01*
X142198533Y-100776875D01*
X142149499Y-100895255D01*
X142149497Y-100895261D01*
X142124500Y-101020928D01*
X142124500Y-101020931D01*
X142124500Y-101149069D01*
X142124500Y-101149071D01*
X142124499Y-101149071D01*
X142149497Y-101274738D01*
X142149499Y-101274744D01*
X142198533Y-101393124D01*
X142198538Y-101393133D01*
X142269723Y-101499668D01*
X142269726Y-101499672D01*
X142360327Y-101590273D01*
X142360331Y-101590276D01*
X142466866Y-101661461D01*
X142466872Y-101661464D01*
X142466873Y-101661465D01*
X142585256Y-101710501D01*
X142585260Y-101710501D01*
X142585261Y-101710502D01*
X142710928Y-101735500D01*
X142710931Y-101735500D01*
X142839071Y-101735500D01*
X142923615Y-101718682D01*
X142964744Y-101710501D01*
X143083127Y-101661465D01*
X143189669Y-101590276D01*
X143280276Y-101499669D01*
X143351465Y-101393127D01*
X143400501Y-101274744D01*
X143417257Y-101190509D01*
X143425500Y-101149071D01*
X143425500Y-101020928D01*
X143400502Y-100895261D01*
X143400501Y-100895260D01*
X143400501Y-100895256D01*
X143351465Y-100776873D01*
X143351464Y-100776872D01*
X143351461Y-100776866D01*
X143280276Y-100670331D01*
X143280273Y-100670327D01*
X143275052Y-100665106D01*
X143241567Y-100603783D01*
X143246551Y-100534091D01*
X143288423Y-100478158D01*
X143322978Y-100462750D01*
X143322436Y-100461442D01*
X143333716Y-100456768D01*
X143333722Y-100456767D01*
X143383504Y-100423504D01*
X143416767Y-100373722D01*
X143418560Y-100364709D01*
X143425500Y-100329822D01*
X143425500Y-100274500D01*
X143445185Y-100207461D01*
X143497989Y-100161706D01*
X143549500Y-100150500D01*
X143646142Y-100150500D01*
X143646144Y-100150500D01*
X143735288Y-100126614D01*
X143815212Y-100080469D01*
X143880469Y-100015212D01*
X143926614Y-99935288D01*
X143950500Y-99846144D01*
X143950500Y-99753856D01*
X143926614Y-99664712D01*
X143918408Y-99650499D01*
X143880473Y-99584794D01*
X143880470Y-99584791D01*
X143880469Y-99584788D01*
X143815212Y-99519531D01*
X143815209Y-99519529D01*
X143815205Y-99519526D01*
X143735293Y-99473388D01*
X143735290Y-99473387D01*
X143735289Y-99473386D01*
X143735288Y-99473386D01*
X143646144Y-99449500D01*
X143553856Y-99449500D01*
X143549500Y-99449500D01*
X143482461Y-99429815D01*
X143436706Y-99377011D01*
X143425500Y-99325500D01*
X143425500Y-99300177D01*
X143416768Y-99256282D01*
X143416767Y-99256281D01*
X143416767Y-99256278D01*
X143383504Y-99206496D01*
X143355823Y-99188000D01*
X143333724Y-99173234D01*
X143333717Y-99173231D01*
X143289822Y-99164500D01*
X143289820Y-99164500D01*
X142260180Y-99164500D01*
X142260178Y-99164500D01*
X142216282Y-99173231D01*
X142216275Y-99173234D01*
X142166496Y-99206495D01*
X142166495Y-99206496D01*
X142133234Y-99256275D01*
X142133231Y-99256282D01*
X142124500Y-99300177D01*
X142124500Y-99300180D01*
X142124500Y-100329820D01*
X142124500Y-100329822D01*
X142124499Y-100329822D01*
X141175800Y-100329822D01*
X141175800Y-97053856D01*
X141749500Y-97053856D01*
X141749500Y-97146144D01*
X141771681Y-97228926D01*
X141773387Y-97235290D01*
X141773388Y-97235293D01*
X141819526Y-97315205D01*
X141819529Y-97315209D01*
X141819531Y-97315212D01*
X141884788Y-97380469D01*
X141884791Y-97380470D01*
X141884794Y-97380473D01*
X141964706Y-97426611D01*
X141964707Y-97426611D01*
X141964712Y-97426614D01*
X142053856Y-97450500D01*
X142053858Y-97450500D01*
X142146142Y-97450500D01*
X142146144Y-97450500D01*
X142235288Y-97426614D01*
X142315212Y-97380469D01*
X142380469Y-97315212D01*
X142426614Y-97235288D01*
X142450500Y-97146144D01*
X142450500Y-97053856D01*
X142426614Y-96964712D01*
X142415902Y-96946158D01*
X142380473Y-96884794D01*
X142380470Y-96884791D01*
X142380469Y-96884788D01*
X142315212Y-96819531D01*
X142315209Y-96819529D01*
X142315205Y-96819526D01*
X142235293Y-96773388D01*
X142235290Y-96773387D01*
X142235289Y-96773386D01*
X142235288Y-96773386D01*
X142146144Y-96749500D01*
X142053856Y-96749500D01*
X141964712Y-96773386D01*
X141964711Y-96773386D01*
X141964709Y-96773387D01*
X141964706Y-96773388D01*
X141884794Y-96819526D01*
X141884785Y-96819533D01*
X141819533Y-96884785D01*
X141819526Y-96884794D01*
X141773388Y-96964706D01*
X141773387Y-96964709D01*
X141773386Y-96964711D01*
X141773386Y-96964712D01*
X141749500Y-97053856D01*
X141175800Y-97053856D01*
X141175800Y-93553856D01*
X141849500Y-93553856D01*
X141849500Y-93646144D01*
X141872808Y-93733132D01*
X141873387Y-93735290D01*
X141873388Y-93735293D01*
X141919526Y-93815205D01*
X141919529Y-93815209D01*
X141919531Y-93815212D01*
X141984788Y-93880469D01*
X141984791Y-93880470D01*
X141984794Y-93880473D01*
X142064706Y-93926611D01*
X142064707Y-93926611D01*
X142064712Y-93926614D01*
X142153856Y-93950500D01*
X142153858Y-93950500D01*
X142246142Y-93950500D01*
X142246144Y-93950500D01*
X142335288Y-93926614D01*
X142415212Y-93880469D01*
X142480469Y-93815212D01*
X142526614Y-93735288D01*
X142550500Y-93646144D01*
X142550500Y-93553856D01*
X142526614Y-93464712D01*
X142526611Y-93464706D01*
X142480473Y-93384794D01*
X142480470Y-93384791D01*
X142480469Y-93384788D01*
X142415212Y-93319531D01*
X142415209Y-93319529D01*
X142415205Y-93319526D01*
X142335293Y-93273388D01*
X142335290Y-93273387D01*
X142335289Y-93273386D01*
X142335288Y-93273386D01*
X142246144Y-93249500D01*
X142153856Y-93249500D01*
X142064712Y-93273386D01*
X142064711Y-93273386D01*
X142064709Y-93273387D01*
X142064706Y-93273388D01*
X141984794Y-93319526D01*
X141984785Y-93319533D01*
X141919533Y-93384785D01*
X141919526Y-93384794D01*
X141873388Y-93464706D01*
X141873387Y-93464709D01*
X141873386Y-93464711D01*
X141873386Y-93464712D01*
X141849500Y-93553856D01*
X141175800Y-93553856D01*
X141175800Y-91257295D01*
X141183805Y-91230030D01*
X141188785Y-91202054D01*
X141193521Y-91196942D01*
X141195485Y-91190256D01*
X141216959Y-91171648D01*
X141236274Y-91150804D01*
X141243022Y-91149064D01*
X141248289Y-91144501D01*
X141276416Y-91140456D01*
X141303932Y-91133364D01*
X141310548Y-91135548D01*
X141317447Y-91134557D01*
X141343295Y-91146361D01*
X141370278Y-91155271D01*
X141377540Y-91162000D01*
X141381003Y-91163582D01*
X141396162Y-91179255D01*
X141426133Y-91216266D01*
X141432163Y-91223712D01*
X141436113Y-91228861D01*
X141840379Y-91785285D01*
X141875806Y-91834045D01*
X141879476Y-91839385D01*
X142286902Y-92466766D01*
X142290290Y-92472294D01*
X142401919Y-92665642D01*
X142664319Y-93120133D01*
X142667417Y-93125838D01*
X143007032Y-93792368D01*
X143009827Y-93798228D01*
X143314088Y-94481611D01*
X143316572Y-94487608D01*
X143584653Y-95185981D01*
X143586820Y-95192101D01*
X143817979Y-95903535D01*
X143819823Y-95909759D01*
X144013439Y-96632344D01*
X144014954Y-96638657D01*
X144170480Y-97370355D01*
X144171663Y-97376738D01*
X144288684Y-98115572D01*
X144289532Y-98122009D01*
X144367727Y-98865987D01*
X144368236Y-98872458D01*
X144407386Y-99619481D01*
X144407556Y-99625971D01*
X144407556Y-100374028D01*
X144407386Y-100380518D01*
X144368236Y-101127541D01*
X144367727Y-101134012D01*
X144289532Y-101877990D01*
X144288684Y-101884427D01*
X144171664Y-102623261D01*
X144170481Y-102629644D01*
X144104248Y-102941242D01*
X144071055Y-103002724D01*
X144009892Y-103036500D01*
X143940178Y-103031848D01*
X143920957Y-103022848D01*
X143835288Y-102973386D01*
X143809917Y-102966588D01*
X143746144Y-102949500D01*
X143653856Y-102949500D01*
X143564712Y-102973386D01*
X143564711Y-102973386D01*
X143564709Y-102973387D01*
X143564706Y-102973388D01*
X143484794Y-103019526D01*
X143484785Y-103019533D01*
X143419533Y-103084785D01*
X143419526Y-103084794D01*
X143373388Y-103164706D01*
X143373387Y-103164709D01*
X143373386Y-103164711D01*
X143373386Y-103164712D01*
X143349500Y-103253856D01*
X143349500Y-103346144D01*
X143369164Y-103419533D01*
X143373387Y-103435290D01*
X143373388Y-103435293D01*
X143419526Y-103515205D01*
X143419529Y-103515209D01*
X143419531Y-103515212D01*
X143484788Y-103580469D01*
X143484791Y-103580470D01*
X143484794Y-103580473D01*
X143564706Y-103626611D01*
X143564707Y-103626611D01*
X143564712Y-103626614D01*
X143653856Y-103650500D01*
X143653858Y-103650500D01*
X143746142Y-103650500D01*
X143746144Y-103650500D01*
X143746145Y-103650499D01*
X143754200Y-103649439D01*
X143754409Y-103651029D01*
X143814846Y-103652462D01*
X143872713Y-103691619D01*
X143900224Y-103755844D01*
X143896877Y-103802671D01*
X143819825Y-104090234D01*
X143817981Y-104096459D01*
X143586820Y-104807898D01*
X143584653Y-104814018D01*
X143316572Y-105512391D01*
X143314088Y-105518388D01*
X143009827Y-106201771D01*
X143007032Y-106207631D01*
X142667417Y-106874161D01*
X142664319Y-106879866D01*
X142290294Y-107527698D01*
X142286902Y-107533233D01*
X141879483Y-108160604D01*
X141875806Y-108165954D01*
X141436114Y-108771137D01*
X141432162Y-108776288D01*
X141326819Y-108906376D01*
X141269332Y-108946087D01*
X141199501Y-108948415D01*
X141139497Y-108912620D01*
X141108836Y-108852531D01*
X141090896Y-108762341D01*
X141090893Y-108762332D01*
X141023016Y-108598459D01*
X141023009Y-108598446D01*
X140924464Y-108450965D01*
X140924461Y-108450961D01*
X140799038Y-108325538D01*
X140799034Y-108325535D01*
X140651553Y-108226990D01*
X140651540Y-108226983D01*
X140487667Y-108159106D01*
X140487658Y-108159103D01*
X140313694Y-108124500D01*
X140313691Y-108124500D01*
X140136309Y-108124500D01*
X140136306Y-108124500D01*
X139962341Y-108159103D01*
X139962332Y-108159106D01*
X139798459Y-108226983D01*
X139798446Y-108226990D01*
X139650965Y-108325535D01*
X139650961Y-108325538D01*
X139525538Y-108450961D01*
X139525535Y-108450965D01*
X139426990Y-108598446D01*
X139426983Y-108598459D01*
X139359106Y-108762332D01*
X139359103Y-108762341D01*
X139324500Y-108936304D01*
X139324500Y-109113695D01*
X139359103Y-109287658D01*
X139359106Y-109287667D01*
X139426983Y-109451540D01*
X139426990Y-109451553D01*
X139525535Y-109599034D01*
X139525538Y-109599038D01*
X139650961Y-109724461D01*
X139650965Y-109724464D01*
X139798446Y-109823009D01*
X139798459Y-109823016D01*
X139864813Y-109850500D01*
X139962334Y-109890894D01*
X139962336Y-109890894D01*
X139962341Y-109890896D01*
X140136304Y-109925499D01*
X140136307Y-109925500D01*
X140150499Y-109925500D01*
X140217538Y-109945185D01*
X140263293Y-109997989D01*
X140273237Y-110067147D01*
X140244212Y-110130703D01*
X140238180Y-110137181D01*
X139923206Y-110452154D01*
X139918497Y-110456623D01*
X139362582Y-110957171D01*
X139357646Y-110961387D01*
X138776288Y-111432162D01*
X138771137Y-111436114D01*
X138165954Y-111875806D01*
X138160604Y-111879483D01*
X137533233Y-112286902D01*
X137527698Y-112290294D01*
X136879866Y-112664319D01*
X136874161Y-112667417D01*
X136207631Y-113007032D01*
X136201771Y-113009827D01*
X135518388Y-113314088D01*
X135512391Y-113316572D01*
X134814018Y-113584653D01*
X134807898Y-113586820D01*
X134096464Y-113817979D01*
X134090240Y-113819823D01*
X133367655Y-114013439D01*
X133361342Y-114014954D01*
X132629644Y-114170480D01*
X132623261Y-114171663D01*
X131884427Y-114288684D01*
X131877990Y-114289532D01*
X131134012Y-114367727D01*
X131127541Y-114368236D01*
X130380519Y-114407386D01*
X130374029Y-114407556D01*
X129625971Y-114407556D01*
X129619481Y-114407386D01*
X128872458Y-114368236D01*
X128865987Y-114367727D01*
X128122009Y-114289532D01*
X128115572Y-114288684D01*
X127376738Y-114171663D01*
X127370355Y-114170480D01*
X126638657Y-114014954D01*
X126632344Y-114013439D01*
X125909759Y-113819823D01*
X125903535Y-113817979D01*
X125192101Y-113586820D01*
X125185981Y-113584653D01*
X124487608Y-113316572D01*
X124481611Y-113314088D01*
X123798228Y-113009827D01*
X123792368Y-113007032D01*
X123125838Y-112667417D01*
X123120133Y-112664319D01*
X122927523Y-112553116D01*
X122755599Y-112453856D01*
X126449500Y-112453856D01*
X126449500Y-112546144D01*
X126472325Y-112631330D01*
X126473387Y-112635290D01*
X126473388Y-112635293D01*
X126519526Y-112715205D01*
X126519529Y-112715209D01*
X126519531Y-112715212D01*
X126584788Y-112780469D01*
X126584791Y-112780470D01*
X126584794Y-112780473D01*
X126664706Y-112826611D01*
X126664707Y-112826611D01*
X126664712Y-112826614D01*
X126753856Y-112850500D01*
X126753858Y-112850500D01*
X126846142Y-112850500D01*
X126846144Y-112850500D01*
X126935288Y-112826614D01*
X127015212Y-112780469D01*
X127015217Y-112780463D01*
X127021658Y-112775522D01*
X127022710Y-112776893D01*
X127075381Y-112748127D01*
X127145073Y-112753104D01*
X127201011Y-112794969D01*
X127221525Y-112837194D01*
X127225091Y-112850499D01*
X127230287Y-112869891D01*
X127230288Y-112869893D01*
X127276426Y-112949805D01*
X127276429Y-112949809D01*
X127276431Y-112949812D01*
X127341688Y-113015069D01*
X127341691Y-113015070D01*
X127341694Y-113015073D01*
X127421606Y-113061211D01*
X127421607Y-113061211D01*
X127421612Y-113061214D01*
X127510756Y-113085100D01*
X127510758Y-113085100D01*
X127603042Y-113085100D01*
X127603044Y-113085100D01*
X127692188Y-113061214D01*
X127772112Y-113015069D01*
X127837369Y-112949812D01*
X127883514Y-112869888D01*
X127907400Y-112780744D01*
X127907400Y-112719011D01*
X127916044Y-112689570D01*
X127916286Y-112688456D01*
X128468900Y-112688456D01*
X128468900Y-112780744D01*
X128484026Y-112837197D01*
X128492787Y-112869890D01*
X128492788Y-112869893D01*
X128538926Y-112949805D01*
X128538929Y-112949809D01*
X128538931Y-112949812D01*
X128604188Y-113015069D01*
X128604191Y-113015070D01*
X128604194Y-113015073D01*
X128684106Y-113061211D01*
X128684107Y-113061211D01*
X128684112Y-113061214D01*
X128773256Y-113085100D01*
X128773258Y-113085100D01*
X128865542Y-113085100D01*
X128865544Y-113085100D01*
X128954688Y-113061214D01*
X129034612Y-113015069D01*
X129099869Y-112949812D01*
X129146014Y-112869888D01*
X129169900Y-112780744D01*
X129169900Y-112719011D01*
X129189585Y-112651972D01*
X129206219Y-112631330D01*
X129383693Y-112453856D01*
X130449500Y-112453856D01*
X130449500Y-112546144D01*
X130472325Y-112631330D01*
X130473387Y-112635290D01*
X130473388Y-112635293D01*
X130519526Y-112715205D01*
X130519529Y-112715209D01*
X130519531Y-112715212D01*
X130584788Y-112780469D01*
X130584791Y-112780470D01*
X130584794Y-112780473D01*
X130664706Y-112826611D01*
X130664707Y-112826611D01*
X130664712Y-112826614D01*
X130753856Y-112850500D01*
X130753858Y-112850500D01*
X130846142Y-112850500D01*
X130846144Y-112850500D01*
X130935288Y-112826614D01*
X131015212Y-112780469D01*
X131080469Y-112715212D01*
X131126614Y-112635288D01*
X131148434Y-112553856D01*
X132449500Y-112553856D01*
X132449500Y-112646144D01*
X132468007Y-112715214D01*
X132473387Y-112735290D01*
X132473388Y-112735293D01*
X132519526Y-112815205D01*
X132519529Y-112815209D01*
X132519531Y-112815212D01*
X132584788Y-112880469D01*
X132584791Y-112880470D01*
X132584794Y-112880473D01*
X132664706Y-112926611D01*
X132664707Y-112926611D01*
X132664712Y-112926614D01*
X132753856Y-112950500D01*
X132753858Y-112950500D01*
X132846142Y-112950500D01*
X132846144Y-112950500D01*
X132935288Y-112926614D01*
X133015212Y-112880469D01*
X133080469Y-112815212D01*
X133126614Y-112735288D01*
X133150500Y-112646144D01*
X133150500Y-112553856D01*
X133449500Y-112553856D01*
X133449500Y-112646144D01*
X133468007Y-112715214D01*
X133473387Y-112735290D01*
X133473388Y-112735293D01*
X133519526Y-112815205D01*
X133519529Y-112815209D01*
X133519531Y-112815212D01*
X133584788Y-112880469D01*
X133584791Y-112880470D01*
X133584794Y-112880473D01*
X133664706Y-112926611D01*
X133664707Y-112926611D01*
X133664712Y-112926614D01*
X133753856Y-112950500D01*
X133753858Y-112950500D01*
X133846142Y-112950500D01*
X133846144Y-112950500D01*
X133935288Y-112926614D01*
X134015212Y-112880469D01*
X134062319Y-112833362D01*
X134123642Y-112799877D01*
X134193334Y-112804861D01*
X134237681Y-112833362D01*
X134284788Y-112880469D01*
X134284791Y-112880470D01*
X134284794Y-112880473D01*
X134364706Y-112926611D01*
X134364707Y-112926611D01*
X134364712Y-112926614D01*
X134453856Y-112950500D01*
X134453858Y-112950500D01*
X134546142Y-112950500D01*
X134546144Y-112950500D01*
X134635288Y-112926614D01*
X134715212Y-112880469D01*
X134741701Y-112853979D01*
X134803020Y-112820496D01*
X134872712Y-112825480D01*
X134891381Y-112834276D01*
X134964706Y-112876611D01*
X134964707Y-112876611D01*
X134964712Y-112876614D01*
X135053856Y-112900500D01*
X135053858Y-112900500D01*
X135146142Y-112900500D01*
X135146144Y-112900500D01*
X135235288Y-112876614D01*
X135315212Y-112830469D01*
X135380469Y-112765212D01*
X135426614Y-112685288D01*
X135450500Y-112596144D01*
X135450500Y-112503856D01*
X135426614Y-112414712D01*
X135422732Y-112407988D01*
X135380473Y-112334794D01*
X135380470Y-112334791D01*
X135380469Y-112334788D01*
X135315212Y-112269531D01*
X135315209Y-112269529D01*
X135315205Y-112269526D01*
X135235293Y-112223388D01*
X135235290Y-112223387D01*
X135235289Y-112223386D01*
X135235288Y-112223386D01*
X135146144Y-112199500D01*
X135053856Y-112199500D01*
X134964712Y-112223386D01*
X134964711Y-112223386D01*
X134964709Y-112223387D01*
X134964706Y-112223388D01*
X134884794Y-112269526D01*
X134884788Y-112269531D01*
X134858299Y-112296020D01*
X134796975Y-112329504D01*
X134727284Y-112324518D01*
X134708618Y-112315724D01*
X134674490Y-112296020D01*
X134635288Y-112273386D01*
X134546144Y-112249500D01*
X134453856Y-112249500D01*
X134364712Y-112273386D01*
X134364711Y-112273386D01*
X134364709Y-112273387D01*
X134364706Y-112273388D01*
X134284794Y-112319526D01*
X134284785Y-112319533D01*
X134237681Y-112366638D01*
X134176358Y-112400123D01*
X134106666Y-112395139D01*
X134062319Y-112366638D01*
X134015214Y-112319533D01*
X134015212Y-112319531D01*
X134015209Y-112319529D01*
X134015205Y-112319526D01*
X133935293Y-112273388D01*
X133935290Y-112273387D01*
X133935289Y-112273386D01*
X133935288Y-112273386D01*
X133846144Y-112249500D01*
X133753856Y-112249500D01*
X133664712Y-112273386D01*
X133664711Y-112273386D01*
X133664709Y-112273387D01*
X133664706Y-112273388D01*
X133584794Y-112319526D01*
X133584785Y-112319533D01*
X133519533Y-112384785D01*
X133519526Y-112384794D01*
X133473388Y-112464706D01*
X133473387Y-112464709D01*
X133473386Y-112464711D01*
X133473386Y-112464712D01*
X133449500Y-112553856D01*
X133150500Y-112553856D01*
X133126614Y-112464712D01*
X133126611Y-112464706D01*
X133080473Y-112384794D01*
X133080470Y-112384791D01*
X133080469Y-112384788D01*
X133015212Y-112319531D01*
X133015209Y-112319529D01*
X133015205Y-112319526D01*
X132935293Y-112273388D01*
X132935290Y-112273387D01*
X132935289Y-112273386D01*
X132935288Y-112273386D01*
X132846144Y-112249500D01*
X132753856Y-112249500D01*
X132664712Y-112273386D01*
X132664711Y-112273386D01*
X132664709Y-112273387D01*
X132664706Y-112273388D01*
X132584794Y-112319526D01*
X132584785Y-112319533D01*
X132519533Y-112384785D01*
X132519526Y-112384794D01*
X132473388Y-112464706D01*
X132473387Y-112464709D01*
X132473386Y-112464711D01*
X132473386Y-112464712D01*
X132449500Y-112553856D01*
X131148434Y-112553856D01*
X131150500Y-112546144D01*
X131150500Y-112453856D01*
X131126614Y-112364712D01*
X131126611Y-112364706D01*
X131080473Y-112284794D01*
X131080470Y-112284791D01*
X131080469Y-112284788D01*
X131015212Y-112219531D01*
X131015209Y-112219529D01*
X131015205Y-112219526D01*
X130935293Y-112173388D01*
X130935290Y-112173387D01*
X130935289Y-112173386D01*
X130935288Y-112173386D01*
X130846144Y-112149500D01*
X130753856Y-112149500D01*
X130664712Y-112173386D01*
X130664711Y-112173386D01*
X130664709Y-112173387D01*
X130664706Y-112173388D01*
X130584794Y-112219526D01*
X130584785Y-112219533D01*
X130519533Y-112284785D01*
X130519526Y-112284794D01*
X130473388Y-112364706D01*
X130473387Y-112364709D01*
X130473386Y-112364711D01*
X130473386Y-112364712D01*
X130449500Y-112453856D01*
X129383693Y-112453856D01*
X130241762Y-111595787D01*
X131335176Y-110502374D01*
X131365700Y-110428682D01*
X131365700Y-110348918D01*
X131365700Y-109653856D01*
X134949500Y-109653856D01*
X134949500Y-109746144D01*
X134971061Y-109826612D01*
X134973387Y-109835290D01*
X134973388Y-109835293D01*
X135019526Y-109915205D01*
X135019529Y-109915209D01*
X135019531Y-109915212D01*
X135084788Y-109980469D01*
X135084791Y-109980470D01*
X135084794Y-109980473D01*
X135164706Y-110026611D01*
X135164707Y-110026611D01*
X135164712Y-110026614D01*
X135253856Y-110050500D01*
X135253858Y-110050500D01*
X135346142Y-110050500D01*
X135346144Y-110050500D01*
X135435288Y-110026614D01*
X135515212Y-109980469D01*
X135580469Y-109915212D01*
X135626614Y-109835288D01*
X135650500Y-109746144D01*
X135650500Y-109653856D01*
X135626614Y-109564712D01*
X135615893Y-109546143D01*
X135580473Y-109484794D01*
X135580470Y-109484791D01*
X135580469Y-109484788D01*
X135515212Y-109419531D01*
X135515209Y-109419529D01*
X135515205Y-109419526D01*
X135435293Y-109373388D01*
X135435290Y-109373387D01*
X135435289Y-109373386D01*
X135435288Y-109373386D01*
X135346144Y-109349500D01*
X135253856Y-109349500D01*
X135164712Y-109373386D01*
X135164711Y-109373386D01*
X135164709Y-109373387D01*
X135164706Y-109373388D01*
X135084794Y-109419526D01*
X135084785Y-109419533D01*
X135019533Y-109484785D01*
X135019526Y-109484794D01*
X134973388Y-109564706D01*
X134973387Y-109564709D01*
X134973386Y-109564711D01*
X134973386Y-109564712D01*
X134949500Y-109653856D01*
X131365700Y-109653856D01*
X131365700Y-107953856D01*
X131649500Y-107953856D01*
X131649500Y-108046144D01*
X131670495Y-108124500D01*
X131673387Y-108135290D01*
X131673388Y-108135293D01*
X131719526Y-108215205D01*
X131719529Y-108215209D01*
X131719531Y-108215212D01*
X131784788Y-108280469D01*
X131784791Y-108280470D01*
X131784794Y-108280473D01*
X131864706Y-108326611D01*
X131864707Y-108326611D01*
X131864712Y-108326614D01*
X131953856Y-108350500D01*
X131953858Y-108350500D01*
X132046142Y-108350500D01*
X132046144Y-108350500D01*
X132135288Y-108326614D01*
X132215212Y-108280469D01*
X132280469Y-108215212D01*
X132326614Y-108135288D01*
X132350500Y-108046144D01*
X132350500Y-107953856D01*
X132326614Y-107864712D01*
X132316164Y-107846612D01*
X132280473Y-107784794D01*
X132280470Y-107784791D01*
X132280469Y-107784788D01*
X132215212Y-107719531D01*
X132215209Y-107719529D01*
X132215205Y-107719526D01*
X132135293Y-107673388D01*
X132135290Y-107673387D01*
X132135289Y-107673386D01*
X132135288Y-107673386D01*
X132046144Y-107649500D01*
X131953856Y-107649500D01*
X131864712Y-107673386D01*
X131864711Y-107673386D01*
X131864709Y-107673387D01*
X131864706Y-107673388D01*
X131784794Y-107719526D01*
X131784785Y-107719533D01*
X131719533Y-107784785D01*
X131719526Y-107784794D01*
X131673388Y-107864706D01*
X131673387Y-107864709D01*
X131673386Y-107864711D01*
X131673386Y-107864712D01*
X131649500Y-107953856D01*
X131365700Y-107953856D01*
X131365700Y-106653856D01*
X134949500Y-106653856D01*
X134949500Y-106746144D01*
X134971537Y-106828388D01*
X134973387Y-106835290D01*
X134973388Y-106835293D01*
X135019526Y-106915205D01*
X135019529Y-106915209D01*
X135019531Y-106915212D01*
X135084788Y-106980469D01*
X135084791Y-106980470D01*
X135084794Y-106980473D01*
X135164706Y-107026611D01*
X135164707Y-107026611D01*
X135164712Y-107026614D01*
X135253856Y-107050500D01*
X135253858Y-107050500D01*
X135346142Y-107050500D01*
X135346144Y-107050500D01*
X135435288Y-107026614D01*
X135515212Y-106980469D01*
X135580469Y-106915212D01*
X135626614Y-106835288D01*
X135650500Y-106746144D01*
X135650500Y-106653856D01*
X135626614Y-106564712D01*
X135626611Y-106564706D01*
X135580473Y-106484794D01*
X135580470Y-106484791D01*
X135580469Y-106484788D01*
X135515212Y-106419531D01*
X135515209Y-106419529D01*
X135515205Y-106419526D01*
X135435293Y-106373388D01*
X135435290Y-106373387D01*
X135435289Y-106373386D01*
X135435288Y-106373386D01*
X135346144Y-106349500D01*
X135253856Y-106349500D01*
X135164712Y-106373386D01*
X135164711Y-106373386D01*
X135164709Y-106373387D01*
X135164706Y-106373388D01*
X135084794Y-106419526D01*
X135084785Y-106419533D01*
X135019533Y-106484785D01*
X135019526Y-106484794D01*
X134973388Y-106564706D01*
X134973387Y-106564709D01*
X134973386Y-106564711D01*
X134973386Y-106564712D01*
X134949500Y-106653856D01*
X131365700Y-106653856D01*
X131365700Y-103653856D01*
X132249500Y-103653856D01*
X132249500Y-103746144D01*
X132268064Y-103815427D01*
X132273387Y-103835290D01*
X132273388Y-103835293D01*
X132319526Y-103915205D01*
X132319529Y-103915209D01*
X132319531Y-103915212D01*
X132384788Y-103980469D01*
X132384791Y-103980470D01*
X132384794Y-103980473D01*
X132464706Y-104026611D01*
X132464707Y-104026611D01*
X132464712Y-104026614D01*
X132553856Y-104050500D01*
X132553858Y-104050500D01*
X132646142Y-104050500D01*
X132646144Y-104050500D01*
X132735288Y-104026614D01*
X132815212Y-103980469D01*
X132880469Y-103915212D01*
X132926614Y-103835288D01*
X132950500Y-103746144D01*
X132950500Y-103653856D01*
X134949500Y-103653856D01*
X134949500Y-103746144D01*
X134968064Y-103815427D01*
X134973387Y-103835290D01*
X134973388Y-103835293D01*
X135019526Y-103915205D01*
X135019529Y-103915209D01*
X135019531Y-103915212D01*
X135084788Y-103980469D01*
X135084791Y-103980470D01*
X135084794Y-103980473D01*
X135164706Y-104026611D01*
X135164707Y-104026611D01*
X135164712Y-104026614D01*
X135253856Y-104050500D01*
X135253858Y-104050500D01*
X135346142Y-104050500D01*
X135346144Y-104050500D01*
X135435288Y-104026614D01*
X135515212Y-103980469D01*
X135580469Y-103915212D01*
X135626614Y-103835288D01*
X135650500Y-103746144D01*
X135650500Y-103653856D01*
X135626614Y-103564712D01*
X135623492Y-103559304D01*
X135580473Y-103484794D01*
X135580470Y-103484791D01*
X135580469Y-103484788D01*
X135515212Y-103419531D01*
X135515209Y-103419529D01*
X135515205Y-103419526D01*
X135435293Y-103373388D01*
X135435290Y-103373387D01*
X135435289Y-103373386D01*
X135435288Y-103373386D01*
X135346144Y-103349500D01*
X135253856Y-103349500D01*
X135164712Y-103373386D01*
X135164711Y-103373386D01*
X135164709Y-103373387D01*
X135164706Y-103373388D01*
X135084794Y-103419526D01*
X135084785Y-103419533D01*
X135019533Y-103484785D01*
X135019526Y-103484794D01*
X134973388Y-103564706D01*
X134973387Y-103564709D01*
X134973386Y-103564711D01*
X134973386Y-103564712D01*
X134949500Y-103653856D01*
X132950500Y-103653856D01*
X132926614Y-103564712D01*
X132923492Y-103559304D01*
X132880473Y-103484794D01*
X132880470Y-103484791D01*
X132880469Y-103484788D01*
X132815212Y-103419531D01*
X132815209Y-103419529D01*
X132815205Y-103419526D01*
X132735293Y-103373388D01*
X132735290Y-103373387D01*
X132735289Y-103373386D01*
X132735288Y-103373386D01*
X132646144Y-103349500D01*
X132553856Y-103349500D01*
X132464712Y-103373386D01*
X132464711Y-103373386D01*
X132464709Y-103373387D01*
X132464706Y-103373388D01*
X132384794Y-103419526D01*
X132384785Y-103419533D01*
X132319533Y-103484785D01*
X132319526Y-103484794D01*
X132273388Y-103564706D01*
X132273387Y-103564709D01*
X132273386Y-103564711D01*
X132273386Y-103564712D01*
X132249500Y-103653856D01*
X131365700Y-103653856D01*
X131365700Y-102853856D01*
X132949500Y-102853856D01*
X132949500Y-102946144D01*
X132972464Y-103031848D01*
X132973387Y-103035290D01*
X132973388Y-103035293D01*
X133019526Y-103115205D01*
X133019529Y-103115209D01*
X133019531Y-103115212D01*
X133084788Y-103180469D01*
X133084791Y-103180470D01*
X133084794Y-103180473D01*
X133164706Y-103226611D01*
X133164707Y-103226611D01*
X133164712Y-103226614D01*
X133253856Y-103250500D01*
X133253858Y-103250500D01*
X133346142Y-103250500D01*
X133346144Y-103250500D01*
X133435288Y-103226614D01*
X133515212Y-103180469D01*
X133580469Y-103115212D01*
X133626614Y-103035288D01*
X133650500Y-102946144D01*
X133650500Y-102945543D01*
X133650642Y-102945056D01*
X133651561Y-102938084D01*
X133652648Y-102938227D01*
X133670185Y-102878504D01*
X133722989Y-102832749D01*
X133792147Y-102822805D01*
X133855703Y-102851830D01*
X133862181Y-102857862D01*
X133884788Y-102880469D01*
X133884791Y-102880470D01*
X133884794Y-102880473D01*
X133964706Y-102926611D01*
X133964707Y-102926611D01*
X133964712Y-102926614D01*
X134053856Y-102950500D01*
X134053858Y-102950500D01*
X134146142Y-102950500D01*
X134146144Y-102950500D01*
X134235288Y-102926614D01*
X134315212Y-102880469D01*
X134380469Y-102815212D01*
X134426614Y-102735288D01*
X134450500Y-102646144D01*
X134450500Y-102553856D01*
X134426614Y-102464712D01*
X134426611Y-102464706D01*
X134380473Y-102384794D01*
X134380470Y-102384791D01*
X134380469Y-102384788D01*
X134315212Y-102319531D01*
X134315209Y-102319529D01*
X134315205Y-102319526D01*
X134235293Y-102273388D01*
X134235292Y-102273387D01*
X134231652Y-102272411D01*
X134205869Y-102265503D01*
X134178711Y-102258226D01*
X134146144Y-102249500D01*
X134053856Y-102249500D01*
X133964712Y-102273386D01*
X133964711Y-102273386D01*
X133964709Y-102273387D01*
X133964706Y-102273388D01*
X133884794Y-102319526D01*
X133884785Y-102319533D01*
X133819533Y-102384785D01*
X133819526Y-102384794D01*
X133773388Y-102464706D01*
X133773387Y-102464709D01*
X133773386Y-102464711D01*
X133773386Y-102464712D01*
X133754475Y-102535288D01*
X133749500Y-102553856D01*
X133749500Y-102554457D01*
X133749357Y-102554943D01*
X133748439Y-102561916D01*
X133747351Y-102561772D01*
X133729815Y-102621496D01*
X133677011Y-102667251D01*
X133607853Y-102677195D01*
X133544297Y-102648170D01*
X133537819Y-102642138D01*
X133515214Y-102619533D01*
X133515212Y-102619531D01*
X133515209Y-102619529D01*
X133515205Y-102619526D01*
X133435293Y-102573388D01*
X133435290Y-102573387D01*
X133435289Y-102573386D01*
X133435288Y-102573386D01*
X133346144Y-102549500D01*
X133253856Y-102549500D01*
X133164712Y-102573386D01*
X133164711Y-102573386D01*
X133164709Y-102573387D01*
X133164706Y-102573388D01*
X133084794Y-102619526D01*
X133084785Y-102619533D01*
X133019533Y-102684785D01*
X133019526Y-102684794D01*
X132973388Y-102764706D01*
X132973387Y-102764709D01*
X132973386Y-102764711D01*
X132973386Y-102764712D01*
X132949500Y-102853856D01*
X131365700Y-102853856D01*
X131365700Y-102153856D01*
X134849500Y-102153856D01*
X134849500Y-102246144D01*
X134869164Y-102319533D01*
X134873387Y-102335290D01*
X134873388Y-102335293D01*
X134919526Y-102415205D01*
X134919529Y-102415209D01*
X134919531Y-102415212D01*
X134984788Y-102480469D01*
X134984791Y-102480470D01*
X134984794Y-102480473D01*
X135064706Y-102526611D01*
X135064707Y-102526611D01*
X135064712Y-102526614D01*
X135153856Y-102550500D01*
X135153858Y-102550500D01*
X135246142Y-102550500D01*
X135246144Y-102550500D01*
X135335288Y-102526614D01*
X135415212Y-102480469D01*
X135480469Y-102415212D01*
X135526614Y-102335288D01*
X135550500Y-102246144D01*
X135550500Y-102153856D01*
X135526614Y-102064712D01*
X135526611Y-102064706D01*
X135480473Y-101984794D01*
X135480470Y-101984791D01*
X135480469Y-101984788D01*
X135415212Y-101919531D01*
X135415209Y-101919529D01*
X135415205Y-101919526D01*
X135335293Y-101873388D01*
X135335290Y-101873387D01*
X135335289Y-101873386D01*
X135335288Y-101873386D01*
X135246144Y-101849500D01*
X135153856Y-101849500D01*
X135064712Y-101873386D01*
X135064711Y-101873386D01*
X135064709Y-101873387D01*
X135064706Y-101873388D01*
X134984794Y-101919526D01*
X134984785Y-101919533D01*
X134919533Y-101984785D01*
X134919526Y-101984794D01*
X134873388Y-102064706D01*
X134873387Y-102064709D01*
X134873386Y-102064711D01*
X134873386Y-102064712D01*
X134849500Y-102153856D01*
X131365700Y-102153856D01*
X131365700Y-100806856D01*
X132391300Y-100806856D01*
X132391300Y-100899144D01*
X132414248Y-100984788D01*
X132415187Y-100988290D01*
X132415188Y-100988293D01*
X132461326Y-101068205D01*
X132461329Y-101068209D01*
X132461331Y-101068212D01*
X132526588Y-101133469D01*
X132526591Y-101133470D01*
X132526594Y-101133473D01*
X132606506Y-101179611D01*
X132606507Y-101179611D01*
X132606512Y-101179614D01*
X132695656Y-101203500D01*
X132695658Y-101203500D01*
X132787942Y-101203500D01*
X132787944Y-101203500D01*
X132877088Y-101179614D01*
X132957012Y-101133469D01*
X133022269Y-101068212D01*
X133068414Y-100988288D01*
X133092300Y-100899144D01*
X133092300Y-100806856D01*
X133068414Y-100717712D01*
X133066967Y-100715205D01*
X133062651Y-100707729D01*
X133038039Y-100665102D01*
X133031546Y-100653856D01*
X134949500Y-100653856D01*
X134949500Y-100746144D01*
X134971061Y-100826612D01*
X134973387Y-100835290D01*
X134973388Y-100835293D01*
X135019526Y-100915205D01*
X135019529Y-100915209D01*
X135019531Y-100915212D01*
X135084788Y-100980469D01*
X135084791Y-100980470D01*
X135084794Y-100980473D01*
X135164706Y-101026611D01*
X135164707Y-101026611D01*
X135164712Y-101026614D01*
X135253856Y-101050500D01*
X135253858Y-101050500D01*
X135346142Y-101050500D01*
X135346144Y-101050500D01*
X135435288Y-101026614D01*
X135515212Y-100980469D01*
X135580469Y-100915212D01*
X135626614Y-100835288D01*
X135650500Y-100746144D01*
X135650500Y-100653856D01*
X135626614Y-100564712D01*
X135626611Y-100564706D01*
X135580473Y-100484794D01*
X135580470Y-100484791D01*
X135580469Y-100484788D01*
X135515212Y-100419531D01*
X135515209Y-100419529D01*
X135515205Y-100419526D01*
X135435293Y-100373388D01*
X135435290Y-100373387D01*
X135435289Y-100373386D01*
X135435288Y-100373386D01*
X135346144Y-100349500D01*
X135253856Y-100349500D01*
X135164712Y-100373386D01*
X135164711Y-100373386D01*
X135164709Y-100373387D01*
X135164706Y-100373388D01*
X135084794Y-100419526D01*
X135084785Y-100419533D01*
X135019533Y-100484785D01*
X135019526Y-100484794D01*
X134973388Y-100564706D01*
X134973387Y-100564709D01*
X134973386Y-100564711D01*
X134973386Y-100564712D01*
X134949500Y-100653856D01*
X133031546Y-100653856D01*
X133022269Y-100637788D01*
X132957012Y-100572531D01*
X132957009Y-100572529D01*
X132957005Y-100572526D01*
X132877093Y-100526388D01*
X132877090Y-100526387D01*
X132877089Y-100526386D01*
X132877088Y-100526386D01*
X132787944Y-100502500D01*
X132695656Y-100502500D01*
X132606512Y-100526386D01*
X132606511Y-100526386D01*
X132606509Y-100526387D01*
X132606506Y-100526388D01*
X132526594Y-100572526D01*
X132526585Y-100572533D01*
X132461333Y-100637785D01*
X132461326Y-100637794D01*
X132415188Y-100717706D01*
X132415187Y-100717709D01*
X132415186Y-100717711D01*
X132415186Y-100717712D01*
X132391300Y-100806856D01*
X131365700Y-100806856D01*
X131365700Y-99578156D01*
X131937000Y-99578156D01*
X131937000Y-99670444D01*
X131959350Y-99753856D01*
X131960887Y-99759590D01*
X131960888Y-99759593D01*
X132007026Y-99839505D01*
X132007029Y-99839509D01*
X132007031Y-99839512D01*
X132072288Y-99904769D01*
X132072291Y-99904770D01*
X132072294Y-99904773D01*
X132152206Y-99950911D01*
X132152207Y-99950911D01*
X132152212Y-99950914D01*
X132241356Y-99974800D01*
X132241358Y-99974800D01*
X132333642Y-99974800D01*
X132333644Y-99974800D01*
X132422788Y-99950914D01*
X132502712Y-99904769D01*
X132567969Y-99839512D01*
X132614114Y-99759588D01*
X132638000Y-99670444D01*
X132638000Y-99578156D01*
X132614114Y-99489012D01*
X132614111Y-99489006D01*
X132567973Y-99409094D01*
X132567970Y-99409091D01*
X132567969Y-99409088D01*
X132502712Y-99343831D01*
X132502709Y-99343829D01*
X132502705Y-99343826D01*
X132422793Y-99297688D01*
X132422790Y-99297687D01*
X132422789Y-99297686D01*
X132422788Y-99297686D01*
X132333644Y-99273800D01*
X132241356Y-99273800D01*
X132152212Y-99297686D01*
X132152211Y-99297686D01*
X132152209Y-99297687D01*
X132152206Y-99297688D01*
X132072294Y-99343826D01*
X132072285Y-99343833D01*
X132007033Y-99409085D01*
X132007026Y-99409094D01*
X131960888Y-99489006D01*
X131960887Y-99489009D01*
X131960886Y-99489011D01*
X131960886Y-99489012D01*
X131937000Y-99578156D01*
X131365700Y-99578156D01*
X131365700Y-97653856D01*
X131649500Y-97653856D01*
X131649500Y-97746144D01*
X131671174Y-97827034D01*
X131673387Y-97835290D01*
X131673388Y-97835293D01*
X131719526Y-97915205D01*
X131719529Y-97915209D01*
X131719531Y-97915212D01*
X131784788Y-97980469D01*
X131784791Y-97980470D01*
X131784794Y-97980473D01*
X131864706Y-98026611D01*
X131864707Y-98026611D01*
X131864712Y-98026614D01*
X131953856Y-98050500D01*
X131953858Y-98050500D01*
X132046142Y-98050500D01*
X132046144Y-98050500D01*
X132135288Y-98026614D01*
X132215212Y-97980469D01*
X132280469Y-97915212D01*
X132326614Y-97835288D01*
X132350500Y-97746144D01*
X132350500Y-97653856D01*
X132326614Y-97564712D01*
X132326611Y-97564706D01*
X132280473Y-97484794D01*
X132280470Y-97484791D01*
X132280469Y-97484788D01*
X132215212Y-97419531D01*
X132215209Y-97419529D01*
X132215205Y-97419526D01*
X132135293Y-97373388D01*
X132135290Y-97373387D01*
X132135289Y-97373386D01*
X132135288Y-97373386D01*
X132046144Y-97349500D01*
X131953856Y-97349500D01*
X131864712Y-97373386D01*
X131864711Y-97373386D01*
X131864709Y-97373387D01*
X131864706Y-97373388D01*
X131784794Y-97419526D01*
X131784785Y-97419533D01*
X131719533Y-97484785D01*
X131719526Y-97484794D01*
X131673388Y-97564706D01*
X131673387Y-97564709D01*
X131673386Y-97564711D01*
X131673386Y-97564712D01*
X131649500Y-97653856D01*
X131365700Y-97653856D01*
X131365700Y-96860218D01*
X131347438Y-96816131D01*
X131338000Y-96768679D01*
X131338000Y-96676258D01*
X131338000Y-96676256D01*
X131314114Y-96587112D01*
X131314111Y-96587106D01*
X131267973Y-96507194D01*
X131267970Y-96507191D01*
X131267969Y-96507188D01*
X131202712Y-96441931D01*
X131202709Y-96441929D01*
X131202705Y-96441926D01*
X131122793Y-96395788D01*
X131122790Y-96395787D01*
X131122789Y-96395786D01*
X131122788Y-96395786D01*
X131033644Y-96371900D01*
X130941356Y-96371900D01*
X130852212Y-96395786D01*
X130852211Y-96395786D01*
X130852209Y-96395787D01*
X130852206Y-96395788D01*
X130772294Y-96441926D01*
X130772285Y-96441933D01*
X130707033Y-96507185D01*
X130707026Y-96507194D01*
X130660888Y-96587106D01*
X130660887Y-96587109D01*
X130660886Y-96587111D01*
X130660886Y-96587112D01*
X130637000Y-96676256D01*
X130637000Y-96768544D01*
X130660704Y-96857009D01*
X130660887Y-96857690D01*
X130660888Y-96857693D01*
X130707026Y-96937605D01*
X130707029Y-96937609D01*
X130707031Y-96937612D01*
X130772288Y-97002869D01*
X130772291Y-97002870D01*
X130772294Y-97002873D01*
X130852206Y-97049011D01*
X130852210Y-97049013D01*
X130852212Y-97049014D01*
X130872793Y-97054528D01*
X130932453Y-97090892D01*
X130962983Y-97153739D01*
X130964700Y-97174303D01*
X130964700Y-98969657D01*
X130945015Y-99036696D01*
X130892211Y-99082451D01*
X130823053Y-99092395D01*
X130759497Y-99063370D01*
X130753019Y-99057338D01*
X130715214Y-99019533D01*
X130715212Y-99019531D01*
X130715209Y-99019529D01*
X130715205Y-99019526D01*
X130635293Y-98973388D01*
X130635290Y-98973387D01*
X130635289Y-98973386D01*
X130635288Y-98973386D01*
X130546144Y-98949500D01*
X130453856Y-98949500D01*
X130364712Y-98973386D01*
X130364711Y-98973386D01*
X130364709Y-98973387D01*
X130364706Y-98973388D01*
X130284794Y-99019526D01*
X130284785Y-99019533D01*
X130219533Y-99084785D01*
X130219526Y-99084794D01*
X130173388Y-99164706D01*
X130173387Y-99164709D01*
X130173386Y-99164711D01*
X130173386Y-99164712D01*
X130149500Y-99253856D01*
X130149500Y-99346144D01*
X130166367Y-99409094D01*
X130173387Y-99435290D01*
X130173388Y-99435293D01*
X130219526Y-99515205D01*
X130219529Y-99515209D01*
X130219531Y-99515212D01*
X130284788Y-99580469D01*
X130284791Y-99580470D01*
X130284794Y-99580473D01*
X130364706Y-99626611D01*
X130364707Y-99626611D01*
X130364712Y-99626614D01*
X130453856Y-99650500D01*
X130453858Y-99650500D01*
X130546142Y-99650500D01*
X130546144Y-99650500D01*
X130635288Y-99626614D01*
X130715212Y-99580469D01*
X130753019Y-99542662D01*
X130814342Y-99509177D01*
X130884034Y-99514161D01*
X130939967Y-99556033D01*
X130964384Y-99621497D01*
X130964700Y-99630343D01*
X130964700Y-100025500D01*
X130945015Y-100092539D01*
X130892211Y-100138294D01*
X130840700Y-100149500D01*
X130753856Y-100149500D01*
X130664712Y-100173386D01*
X130664711Y-100173386D01*
X130664709Y-100173387D01*
X130664706Y-100173388D01*
X130584794Y-100219526D01*
X130584785Y-100219533D01*
X130519533Y-100284785D01*
X130519526Y-100284794D01*
X130473388Y-100364706D01*
X130473387Y-100364709D01*
X130473386Y-100364711D01*
X130473386Y-100364712D01*
X130449500Y-100453856D01*
X130449500Y-100546144D01*
X130469013Y-100618968D01*
X130473387Y-100635290D01*
X130473388Y-100635293D01*
X130519526Y-100715205D01*
X130519529Y-100715209D01*
X130519531Y-100715212D01*
X130584788Y-100780469D01*
X130584791Y-100780470D01*
X130584794Y-100780473D01*
X130664706Y-100826611D01*
X130664707Y-100826611D01*
X130664712Y-100826614D01*
X130753856Y-100850500D01*
X130753858Y-100850500D01*
X130840700Y-100850500D01*
X130907739Y-100870185D01*
X130953494Y-100922989D01*
X130964700Y-100974500D01*
X130964700Y-110254387D01*
X130945015Y-110321426D01*
X130928381Y-110342068D01*
X128922668Y-112347781D01*
X128861345Y-112381266D01*
X128834987Y-112384100D01*
X128773256Y-112384100D01*
X128684112Y-112407986D01*
X128684111Y-112407986D01*
X128684109Y-112407987D01*
X128684106Y-112407988D01*
X128604194Y-112454126D01*
X128604185Y-112454133D01*
X128538933Y-112519385D01*
X128538926Y-112519394D01*
X128492788Y-112599306D01*
X128492787Y-112599309D01*
X128492786Y-112599311D01*
X128492786Y-112599312D01*
X128468900Y-112688456D01*
X127916286Y-112688456D01*
X127922568Y-112659584D01*
X127926322Y-112654568D01*
X127927085Y-112651972D01*
X127943719Y-112631330D01*
X128305523Y-112269526D01*
X128731276Y-111843774D01*
X128761800Y-111770082D01*
X128761800Y-111690318D01*
X128761800Y-109241518D01*
X128731276Y-109167826D01*
X128674874Y-109111424D01*
X128651719Y-109088269D01*
X128618234Y-109026946D01*
X128615400Y-109000588D01*
X128615400Y-108424500D01*
X128635085Y-108357461D01*
X128687889Y-108311706D01*
X128739400Y-108300500D01*
X128811042Y-108300500D01*
X128811044Y-108300500D01*
X128900188Y-108276614D01*
X128980112Y-108230469D01*
X129045369Y-108165212D01*
X129091514Y-108085288D01*
X129115400Y-107996144D01*
X129115400Y-107903856D01*
X129091514Y-107814712D01*
X129091511Y-107814706D01*
X129045373Y-107734794D01*
X129045370Y-107734791D01*
X129045369Y-107734788D01*
X128980112Y-107669531D01*
X128980109Y-107669529D01*
X128980105Y-107669526D01*
X128900193Y-107623388D01*
X128900190Y-107623387D01*
X128900189Y-107623386D01*
X128900188Y-107623386D01*
X128811044Y-107599500D01*
X128739400Y-107599500D01*
X128672361Y-107579815D01*
X128626606Y-107527011D01*
X128615400Y-107475500D01*
X128615400Y-104173666D01*
X128635085Y-104106627D01*
X128687889Y-104060872D01*
X128745729Y-104052207D01*
X128745729Y-104050500D01*
X128846142Y-104050500D01*
X128846144Y-104050500D01*
X128935288Y-104026614D01*
X129015212Y-103980469D01*
X129080469Y-103915212D01*
X129126614Y-103835288D01*
X129150500Y-103746144D01*
X129150500Y-103672856D01*
X129746500Y-103672856D01*
X129746500Y-103765144D01*
X129767750Y-103844452D01*
X129770387Y-103854290D01*
X129770388Y-103854293D01*
X129816526Y-103934205D01*
X129816529Y-103934209D01*
X129816531Y-103934212D01*
X129881788Y-103999469D01*
X129881791Y-103999470D01*
X129881794Y-103999473D01*
X129961706Y-104045611D01*
X129961707Y-104045611D01*
X129961712Y-104045614D01*
X130050856Y-104069500D01*
X130050858Y-104069500D01*
X130143142Y-104069500D01*
X130143144Y-104069500D01*
X130232288Y-104045614D01*
X130312212Y-103999469D01*
X130377469Y-103934212D01*
X130423614Y-103854288D01*
X130447500Y-103765144D01*
X130447500Y-103672856D01*
X130423614Y-103583712D01*
X130416881Y-103572050D01*
X130377473Y-103503794D01*
X130377470Y-103503791D01*
X130377469Y-103503788D01*
X130312212Y-103438531D01*
X130312209Y-103438529D01*
X130312205Y-103438526D01*
X130232293Y-103392388D01*
X130232290Y-103392387D01*
X130232289Y-103392386D01*
X130232288Y-103392386D01*
X130143144Y-103368500D01*
X130050856Y-103368500D01*
X129961712Y-103392386D01*
X129961711Y-103392386D01*
X129961709Y-103392387D01*
X129961706Y-103392388D01*
X129881794Y-103438526D01*
X129881785Y-103438533D01*
X129816533Y-103503785D01*
X129816526Y-103503794D01*
X129770388Y-103583706D01*
X129770387Y-103583709D01*
X129770386Y-103583711D01*
X129770386Y-103583712D01*
X129746500Y-103672856D01*
X129150500Y-103672856D01*
X129150500Y-103653856D01*
X129126614Y-103564712D01*
X129123492Y-103559304D01*
X129080473Y-103484794D01*
X129080470Y-103484791D01*
X129080469Y-103484788D01*
X129015212Y-103419531D01*
X129015209Y-103419529D01*
X129015205Y-103419526D01*
X128935293Y-103373388D01*
X128935290Y-103373387D01*
X128935289Y-103373386D01*
X128935288Y-103373386D01*
X128846144Y-103349500D01*
X128753856Y-103349500D01*
X128745729Y-103349500D01*
X128745729Y-103347736D01*
X128686546Y-103338505D01*
X128634292Y-103292123D01*
X128615400Y-103226333D01*
X128615400Y-99123711D01*
X128635085Y-99056672D01*
X128651714Y-99036035D01*
X129827230Y-97860518D01*
X129888553Y-97827034D01*
X129914911Y-97824200D01*
X129976642Y-97824200D01*
X129976644Y-97824200D01*
X130065788Y-97800314D01*
X130145712Y-97754169D01*
X130210969Y-97688912D01*
X130257114Y-97608988D01*
X130281000Y-97519844D01*
X130281000Y-97427556D01*
X130257114Y-97338412D01*
X130257109Y-97338403D01*
X130210973Y-97258494D01*
X130210970Y-97258491D01*
X130210969Y-97258488D01*
X130145712Y-97193231D01*
X130145709Y-97193229D01*
X130145705Y-97193226D01*
X130065793Y-97147088D01*
X130065790Y-97147087D01*
X130065789Y-97147086D01*
X130065788Y-97147086D01*
X129976644Y-97123200D01*
X129884356Y-97123200D01*
X129795212Y-97147086D01*
X129795211Y-97147086D01*
X129795209Y-97147087D01*
X129795206Y-97147088D01*
X129715294Y-97193226D01*
X129715285Y-97193233D01*
X129650033Y-97258485D01*
X129650026Y-97258494D01*
X129603888Y-97338406D01*
X129603887Y-97338409D01*
X129603886Y-97338411D01*
X129603886Y-97338412D01*
X129593617Y-97376738D01*
X129580000Y-97427556D01*
X129580000Y-97489287D01*
X129560315Y-97556326D01*
X129543681Y-97576968D01*
X129259135Y-97861513D01*
X129197812Y-97894998D01*
X129128120Y-97890014D01*
X129072187Y-97848142D01*
X129047770Y-97782678D01*
X129050479Y-97754337D01*
X129049439Y-97754200D01*
X129050500Y-97746142D01*
X129050500Y-97653858D01*
X129050500Y-97653856D01*
X129026614Y-97564712D01*
X129026611Y-97564706D01*
X128980473Y-97484794D01*
X128980470Y-97484791D01*
X128980469Y-97484788D01*
X128915212Y-97419531D01*
X128915209Y-97419529D01*
X128915205Y-97419526D01*
X128835293Y-97373388D01*
X128835290Y-97373387D01*
X128835289Y-97373386D01*
X128835288Y-97373386D01*
X128746144Y-97349500D01*
X128653856Y-97349500D01*
X128564712Y-97373386D01*
X128564711Y-97373386D01*
X128564709Y-97373387D01*
X128564706Y-97373388D01*
X128484794Y-97419526D01*
X128484785Y-97419533D01*
X128419533Y-97484785D01*
X128419526Y-97484794D01*
X128373388Y-97564706D01*
X128373387Y-97564709D01*
X128373386Y-97564711D01*
X128373386Y-97564712D01*
X128349500Y-97653856D01*
X128349500Y-97746144D01*
X128371174Y-97827034D01*
X128373387Y-97835290D01*
X128373388Y-97835293D01*
X128419526Y-97915205D01*
X128419529Y-97915209D01*
X128419531Y-97915212D01*
X128484788Y-97980469D01*
X128484791Y-97980470D01*
X128484794Y-97980473D01*
X128564706Y-98026611D01*
X128564707Y-98026611D01*
X128564712Y-98026614D01*
X128653856Y-98050500D01*
X128653858Y-98050500D01*
X128746142Y-98050500D01*
X128746144Y-98050500D01*
X128746145Y-98050499D01*
X128754200Y-98049439D01*
X128754535Y-98051989D01*
X128811559Y-98053333D01*
X128869431Y-98092481D01*
X128896951Y-98156702D01*
X128885382Y-98225607D01*
X128861513Y-98259135D01*
X128395846Y-98724803D01*
X128334523Y-98758288D01*
X128264832Y-98753304D01*
X128220484Y-98724803D01*
X128215214Y-98719533D01*
X128215212Y-98719531D01*
X128215209Y-98719529D01*
X128215205Y-98719526D01*
X128135293Y-98673388D01*
X128135290Y-98673387D01*
X128135289Y-98673386D01*
X128135288Y-98673386D01*
X128046144Y-98649500D01*
X127953856Y-98649500D01*
X127864712Y-98673386D01*
X127864711Y-98673386D01*
X127864709Y-98673387D01*
X127864706Y-98673388D01*
X127784794Y-98719526D01*
X127784785Y-98719533D01*
X127719533Y-98784785D01*
X127719526Y-98784794D01*
X127673388Y-98864706D01*
X127673387Y-98864709D01*
X127673386Y-98864711D01*
X127673386Y-98864712D01*
X127649500Y-98953856D01*
X127649500Y-99046144D01*
X127666656Y-99110173D01*
X127673387Y-99135290D01*
X127673387Y-99135291D01*
X127703819Y-99188000D01*
X127720292Y-99255900D01*
X127703819Y-99312000D01*
X127673387Y-99364708D01*
X127673387Y-99364709D01*
X127673386Y-99364711D01*
X127673386Y-99364712D01*
X127649500Y-99453856D01*
X127649500Y-99546144D01*
X127672754Y-99632931D01*
X127673387Y-99635290D01*
X127673388Y-99635293D01*
X127719526Y-99715205D01*
X127719529Y-99715209D01*
X127719531Y-99715212D01*
X127784788Y-99780469D01*
X127784791Y-99780470D01*
X127784794Y-99780473D01*
X127864706Y-99826611D01*
X127864707Y-99826611D01*
X127864712Y-99826614D01*
X127953856Y-99850500D01*
X127953858Y-99850500D01*
X128046141Y-99850500D01*
X128046144Y-99850500D01*
X128058306Y-99847241D01*
X128128153Y-99848902D01*
X128186017Y-99888063D01*
X128213523Y-99952291D01*
X128214400Y-99967015D01*
X128214400Y-109174883D01*
X128244924Y-109248574D01*
X128324481Y-109328131D01*
X128357966Y-109389454D01*
X128360800Y-109415812D01*
X128360800Y-111595787D01*
X128341115Y-111662826D01*
X128324481Y-111683468D01*
X127660168Y-112347781D01*
X127598845Y-112381266D01*
X127572487Y-112384100D01*
X127510756Y-112384100D01*
X127421612Y-112407986D01*
X127421611Y-112407986D01*
X127421609Y-112407987D01*
X127421606Y-112407988D01*
X127341694Y-112454126D01*
X127335242Y-112459078D01*
X127334191Y-112457709D01*
X127281492Y-112486478D01*
X127211801Y-112481486D01*
X127155872Y-112439609D01*
X127135373Y-112397403D01*
X127126614Y-112364712D01*
X127126611Y-112364706D01*
X127080473Y-112284794D01*
X127080470Y-112284791D01*
X127080469Y-112284788D01*
X127015212Y-112219531D01*
X127015209Y-112219529D01*
X127015205Y-112219526D01*
X126935293Y-112173388D01*
X126935290Y-112173387D01*
X126935289Y-112173386D01*
X126935288Y-112173386D01*
X126846144Y-112149500D01*
X126753856Y-112149500D01*
X126664712Y-112173386D01*
X126664711Y-112173386D01*
X126664709Y-112173387D01*
X126664706Y-112173388D01*
X126584794Y-112219526D01*
X126584785Y-112219533D01*
X126519533Y-112284785D01*
X126519526Y-112284794D01*
X126473388Y-112364706D01*
X126473387Y-112364709D01*
X126473386Y-112364711D01*
X126473386Y-112364712D01*
X126449500Y-112453856D01*
X122755599Y-112453856D01*
X122687789Y-112414706D01*
X122472294Y-112290290D01*
X122466766Y-112286902D01*
X122463520Y-112284794D01*
X121839386Y-111879477D01*
X121834045Y-111875806D01*
X121228862Y-111436114D01*
X121223711Y-111432162D01*
X120988998Y-111242095D01*
X120880032Y-111153856D01*
X123149500Y-111153856D01*
X123149500Y-111246143D01*
X123173387Y-111335290D01*
X123173388Y-111335293D01*
X123219526Y-111415205D01*
X123219529Y-111415209D01*
X123219531Y-111415212D01*
X123284788Y-111480469D01*
X123284791Y-111480470D01*
X123284794Y-111480473D01*
X123364706Y-111526611D01*
X123364707Y-111526611D01*
X123364712Y-111526614D01*
X123453856Y-111550500D01*
X123453858Y-111550500D01*
X123546142Y-111550500D01*
X123546144Y-111550500D01*
X123635288Y-111526614D01*
X123715212Y-111480469D01*
X123780469Y-111415212D01*
X123826614Y-111335288D01*
X123850500Y-111246144D01*
X123850500Y-111153856D01*
X123826614Y-111064712D01*
X123803978Y-111025506D01*
X123780473Y-110984794D01*
X123780470Y-110984791D01*
X123780469Y-110984788D01*
X123715212Y-110919531D01*
X123715209Y-110919529D01*
X123715205Y-110919526D01*
X123635293Y-110873388D01*
X123635290Y-110873387D01*
X123635289Y-110873386D01*
X123635288Y-110873386D01*
X123546144Y-110849500D01*
X123453856Y-110849500D01*
X123364712Y-110873386D01*
X123364711Y-110873386D01*
X123364709Y-110873387D01*
X123364706Y-110873388D01*
X123284794Y-110919526D01*
X123284785Y-110919533D01*
X123219533Y-110984785D01*
X123219526Y-110984794D01*
X123173388Y-111064706D01*
X123173387Y-111064709D01*
X123149500Y-111153856D01*
X120880032Y-111153856D01*
X120642353Y-110961387D01*
X120637417Y-110957171D01*
X120081502Y-110456623D01*
X120076793Y-110452154D01*
X119547845Y-109923206D01*
X119543376Y-109918497D01*
X119372483Y-109728701D01*
X119305092Y-109653856D01*
X125049500Y-109653856D01*
X125049500Y-109746144D01*
X125071061Y-109826612D01*
X125073387Y-109835290D01*
X125073388Y-109835293D01*
X125119526Y-109915205D01*
X125119529Y-109915209D01*
X125119531Y-109915212D01*
X125184788Y-109980469D01*
X125184791Y-109980470D01*
X125184794Y-109980473D01*
X125264706Y-110026611D01*
X125264707Y-110026611D01*
X125264712Y-110026614D01*
X125353856Y-110050500D01*
X125353858Y-110050500D01*
X125446142Y-110050500D01*
X125446144Y-110050500D01*
X125535288Y-110026614D01*
X125615212Y-109980469D01*
X125680469Y-109915212D01*
X125726614Y-109835288D01*
X125750500Y-109746144D01*
X125750500Y-109653856D01*
X125726614Y-109564712D01*
X125715893Y-109546143D01*
X125680473Y-109484794D01*
X125680470Y-109484791D01*
X125680469Y-109484788D01*
X125615212Y-109419531D01*
X125615209Y-109419529D01*
X125615205Y-109419526D01*
X125535293Y-109373388D01*
X125535290Y-109373387D01*
X125535289Y-109373386D01*
X125535288Y-109373386D01*
X125446144Y-109349500D01*
X125353856Y-109349500D01*
X125264712Y-109373386D01*
X125264711Y-109373386D01*
X125264709Y-109373387D01*
X125264706Y-109373388D01*
X125184794Y-109419526D01*
X125184785Y-109419533D01*
X125119533Y-109484785D01*
X125119526Y-109484794D01*
X125073388Y-109564706D01*
X125073387Y-109564709D01*
X125073386Y-109564711D01*
X125073386Y-109564712D01*
X125049500Y-109653856D01*
X119305092Y-109653856D01*
X119042828Y-109362582D01*
X119038612Y-109357646D01*
X118632484Y-108856120D01*
X118567832Y-108776282D01*
X118563885Y-108771137D01*
X118258220Y-108350425D01*
X120147526Y-108350425D01*
X120147526Y-108475627D01*
X120179931Y-108596562D01*
X120242531Y-108704990D01*
X120331062Y-108793521D01*
X120439490Y-108856121D01*
X120560425Y-108888526D01*
X120560427Y-108888526D01*
X120685625Y-108888526D01*
X120685627Y-108888526D01*
X120806562Y-108856121D01*
X120914990Y-108793521D01*
X121003521Y-108704990D01*
X121066121Y-108596562D01*
X121098526Y-108475627D01*
X121098526Y-108350425D01*
X121066121Y-108229490D01*
X121003521Y-108121062D01*
X120914990Y-108032531D01*
X120806562Y-107969931D01*
X120806563Y-107969931D01*
X120762386Y-107958094D01*
X120685627Y-107937526D01*
X120560425Y-107937526D01*
X120483666Y-107958094D01*
X120439489Y-107969931D01*
X120331063Y-108032530D01*
X120331060Y-108032532D01*
X120242532Y-108121060D01*
X120242530Y-108121063D01*
X120179931Y-108229489D01*
X120178377Y-108235288D01*
X120147526Y-108350425D01*
X118258220Y-108350425D01*
X118124181Y-108165937D01*
X118120528Y-108160621D01*
X117713086Y-107533215D01*
X117709716Y-107527716D01*
X117666232Y-107452399D01*
X119249500Y-107452399D01*
X119249500Y-107577601D01*
X119281905Y-107698536D01*
X119344505Y-107806964D01*
X119433036Y-107895495D01*
X119541464Y-107958095D01*
X119662399Y-107990500D01*
X119662401Y-107990500D01*
X119787599Y-107990500D01*
X119787601Y-107990500D01*
X119908536Y-107958095D01*
X120016964Y-107895495D01*
X120105495Y-107806964D01*
X120168095Y-107698536D01*
X120200500Y-107577601D01*
X120200500Y-107473856D01*
X121363500Y-107473856D01*
X121363500Y-107566144D01*
X121385835Y-107649500D01*
X121387387Y-107655290D01*
X121387388Y-107655293D01*
X121433526Y-107735205D01*
X121433529Y-107735209D01*
X121433531Y-107735212D01*
X121498788Y-107800469D01*
X121498791Y-107800470D01*
X121498794Y-107800473D01*
X121578706Y-107846611D01*
X121578707Y-107846611D01*
X121578712Y-107846614D01*
X121667856Y-107870500D01*
X121667858Y-107870500D01*
X121760142Y-107870500D01*
X121760144Y-107870500D01*
X121849288Y-107846614D01*
X121929212Y-107800469D01*
X121994469Y-107735212D01*
X122040614Y-107655288D01*
X122064500Y-107566144D01*
X122064500Y-107473856D01*
X122040614Y-107384712D01*
X122040611Y-107384706D01*
X121994473Y-107304794D01*
X121994470Y-107304791D01*
X121994469Y-107304788D01*
X121929212Y-107239531D01*
X121929209Y-107239529D01*
X121929205Y-107239526D01*
X121849293Y-107193388D01*
X121849290Y-107193387D01*
X121849289Y-107193386D01*
X121849288Y-107193386D01*
X121760144Y-107169500D01*
X121667856Y-107169500D01*
X121578712Y-107193386D01*
X121578711Y-107193386D01*
X121578709Y-107193387D01*
X121578706Y-107193388D01*
X121498794Y-107239526D01*
X121498785Y-107239533D01*
X121433533Y-107304785D01*
X121433526Y-107304794D01*
X121387388Y-107384706D01*
X121387387Y-107384709D01*
X121387386Y-107384711D01*
X121387386Y-107384712D01*
X121363500Y-107473856D01*
X120200500Y-107473856D01*
X120200500Y-107452399D01*
X120168095Y-107331464D01*
X120105495Y-107223036D01*
X120016964Y-107134505D01*
X119908536Y-107071905D01*
X119908537Y-107071905D01*
X119868224Y-107061103D01*
X119787601Y-107039500D01*
X119662399Y-107039500D01*
X119581775Y-107061103D01*
X119541463Y-107071905D01*
X119433037Y-107134504D01*
X119433034Y-107134506D01*
X119344506Y-107223034D01*
X119344504Y-107223037D01*
X119281905Y-107331463D01*
X119276250Y-107352569D01*
X119249500Y-107452399D01*
X117666232Y-107452399D01*
X117335680Y-106879866D01*
X117332582Y-106874161D01*
X117244874Y-106702024D01*
X117220331Y-106653856D01*
X118549500Y-106653856D01*
X118549500Y-106746144D01*
X118571537Y-106828388D01*
X118573387Y-106835290D01*
X118573388Y-106835293D01*
X118619526Y-106915205D01*
X118619529Y-106915209D01*
X118619531Y-106915212D01*
X118684788Y-106980469D01*
X118684791Y-106980470D01*
X118684794Y-106980473D01*
X118764706Y-107026611D01*
X118764707Y-107026611D01*
X118764712Y-107026614D01*
X118853856Y-107050500D01*
X118853858Y-107050500D01*
X118946142Y-107050500D01*
X118946144Y-107050500D01*
X119035288Y-107026614D01*
X119115212Y-106980469D01*
X119180469Y-106915212D01*
X119226614Y-106835288D01*
X119250500Y-106746144D01*
X119250500Y-106653856D01*
X119226614Y-106564712D01*
X119226611Y-106564706D01*
X119180473Y-106484794D01*
X119180470Y-106484791D01*
X119180469Y-106484788D01*
X119115212Y-106419531D01*
X119115209Y-106419529D01*
X119115205Y-106419526D01*
X119035293Y-106373388D01*
X119035290Y-106373387D01*
X119035289Y-106373386D01*
X119035288Y-106373386D01*
X118946144Y-106349500D01*
X118853856Y-106349500D01*
X118764712Y-106373386D01*
X118764711Y-106373386D01*
X118764709Y-106373387D01*
X118764706Y-106373388D01*
X118684794Y-106419526D01*
X118684785Y-106419533D01*
X118619533Y-106484785D01*
X118619526Y-106484794D01*
X118573388Y-106564706D01*
X118573387Y-106564709D01*
X118573386Y-106564711D01*
X118573386Y-106564712D01*
X118549500Y-106653856D01*
X117220331Y-106653856D01*
X117134185Y-106484785D01*
X116992958Y-106207614D01*
X116990180Y-106201788D01*
X116685909Y-105518384D01*
X116683427Y-105512391D01*
X116653831Y-105435290D01*
X116507411Y-105053856D01*
X117149500Y-105053856D01*
X117149500Y-105146144D01*
X117154475Y-105164712D01*
X117173387Y-105235290D01*
X117173388Y-105235293D01*
X117219526Y-105315205D01*
X117219529Y-105315209D01*
X117219531Y-105315212D01*
X117284788Y-105380469D01*
X117284791Y-105380470D01*
X117284794Y-105380473D01*
X117364706Y-105426611D01*
X117364707Y-105426611D01*
X117364712Y-105426614D01*
X117453856Y-105450500D01*
X117453858Y-105450500D01*
X117546142Y-105450500D01*
X117546144Y-105450500D01*
X117635288Y-105426614D01*
X117715212Y-105380469D01*
X117780469Y-105315212D01*
X117826614Y-105235288D01*
X117850500Y-105146144D01*
X117850500Y-105053856D01*
X119649500Y-105053856D01*
X119649500Y-105146144D01*
X119654475Y-105164712D01*
X119673387Y-105235290D01*
X119673388Y-105235293D01*
X119719526Y-105315205D01*
X119719529Y-105315209D01*
X119719531Y-105315212D01*
X119784788Y-105380469D01*
X119784791Y-105380470D01*
X119784794Y-105380473D01*
X119864706Y-105426611D01*
X119864707Y-105426611D01*
X119864712Y-105426614D01*
X119953856Y-105450500D01*
X119953858Y-105450500D01*
X120046142Y-105450500D01*
X120046144Y-105450500D01*
X120135288Y-105426614D01*
X120215212Y-105380469D01*
X120280469Y-105315212D01*
X120326614Y-105235288D01*
X120350500Y-105146144D01*
X120350500Y-105053856D01*
X120326614Y-104964712D01*
X120326611Y-104964706D01*
X120280473Y-104884794D01*
X120280470Y-104884791D01*
X120280469Y-104884788D01*
X120215212Y-104819531D01*
X120215209Y-104819529D01*
X120215205Y-104819526D01*
X120135293Y-104773388D01*
X120135290Y-104773387D01*
X120135289Y-104773386D01*
X120135288Y-104773386D01*
X120046144Y-104749500D01*
X119953856Y-104749500D01*
X119864712Y-104773386D01*
X119864711Y-104773386D01*
X119864709Y-104773387D01*
X119864706Y-104773388D01*
X119784794Y-104819526D01*
X119784785Y-104819533D01*
X119719533Y-104884785D01*
X119719526Y-104884794D01*
X119673388Y-104964706D01*
X119673387Y-104964709D01*
X119673386Y-104964711D01*
X119673386Y-104964712D01*
X119649500Y-105053856D01*
X117850500Y-105053856D01*
X117826614Y-104964712D01*
X117826611Y-104964706D01*
X117780473Y-104884794D01*
X117780470Y-104884791D01*
X117780469Y-104884788D01*
X117715212Y-104819531D01*
X117715209Y-104819529D01*
X117715205Y-104819526D01*
X117635293Y-104773388D01*
X117635290Y-104773387D01*
X117635289Y-104773386D01*
X117635288Y-104773386D01*
X117546144Y-104749500D01*
X117453856Y-104749500D01*
X117364712Y-104773386D01*
X117364711Y-104773386D01*
X117364709Y-104773387D01*
X117364706Y-104773388D01*
X117284794Y-104819526D01*
X117284785Y-104819533D01*
X117219533Y-104884785D01*
X117219526Y-104884794D01*
X117173388Y-104964706D01*
X117173387Y-104964709D01*
X117173386Y-104964711D01*
X117173386Y-104964712D01*
X117149500Y-105053856D01*
X116507411Y-105053856D01*
X116415341Y-104814006D01*
X116413179Y-104807898D01*
X116394204Y-104749500D01*
X116209083Y-104179756D01*
X123571200Y-104179756D01*
X123571200Y-104272044D01*
X123592590Y-104351873D01*
X123595087Y-104361190D01*
X123595088Y-104361193D01*
X123641226Y-104441105D01*
X123641229Y-104441109D01*
X123641231Y-104441112D01*
X123706488Y-104506369D01*
X123706491Y-104506370D01*
X123706494Y-104506373D01*
X123786406Y-104552511D01*
X123786407Y-104552511D01*
X123786412Y-104552514D01*
X123875556Y-104576400D01*
X123875558Y-104576400D01*
X123967842Y-104576400D01*
X123967844Y-104576400D01*
X124056988Y-104552514D01*
X124136912Y-104506369D01*
X124202169Y-104441112D01*
X124233214Y-104387340D01*
X124283781Y-104339127D01*
X124352388Y-104325905D01*
X124417252Y-104351873D01*
X124457780Y-104408787D01*
X124464600Y-104449343D01*
X124464600Y-104846435D01*
X124444915Y-104913474D01*
X124392111Y-104959229D01*
X124322953Y-104969173D01*
X124308507Y-104966210D01*
X124282453Y-104959229D01*
X124246144Y-104949500D01*
X124153856Y-104949500D01*
X124064712Y-104973386D01*
X124064711Y-104973386D01*
X124064709Y-104973387D01*
X124064706Y-104973388D01*
X123984794Y-105019526D01*
X123984785Y-105019533D01*
X123919533Y-105084785D01*
X123919526Y-105084794D01*
X123873388Y-105164706D01*
X123873387Y-105164709D01*
X123873386Y-105164711D01*
X123873386Y-105164712D01*
X123849500Y-105253856D01*
X123849500Y-105346144D01*
X123871061Y-105426612D01*
X123873387Y-105435290D01*
X123873388Y-105435293D01*
X123919526Y-105515205D01*
X123919529Y-105515209D01*
X123919531Y-105515212D01*
X123984788Y-105580469D01*
X123984791Y-105580470D01*
X123984794Y-105580473D01*
X124064706Y-105626611D01*
X124064708Y-105626612D01*
X124064709Y-105626612D01*
X124064712Y-105626614D01*
X124147509Y-105648799D01*
X124152691Y-105651957D01*
X124158748Y-105652391D01*
X124182177Y-105669930D01*
X124207168Y-105685163D01*
X124209821Y-105690624D01*
X124214681Y-105694263D01*
X124224907Y-105721680D01*
X124237697Y-105748009D01*
X124236976Y-105754038D01*
X124239098Y-105759727D01*
X124232877Y-105788321D01*
X124229403Y-105817385D01*
X124225206Y-105823585D01*
X124224246Y-105828000D01*
X124203095Y-105856254D01*
X124052768Y-106006581D01*
X123991445Y-106040066D01*
X123965087Y-106042900D01*
X123903356Y-106042900D01*
X123814212Y-106066786D01*
X123814211Y-106066786D01*
X123814209Y-106066787D01*
X123814206Y-106066788D01*
X123734294Y-106112926D01*
X123734285Y-106112933D01*
X123669033Y-106178185D01*
X123669026Y-106178194D01*
X123622888Y-106258106D01*
X123622887Y-106258109D01*
X123622886Y-106258111D01*
X123622886Y-106258112D01*
X123599000Y-106347256D01*
X123599000Y-106439544D01*
X123611122Y-106484785D01*
X123622887Y-106528690D01*
X123622888Y-106528693D01*
X123669026Y-106608605D01*
X123669029Y-106608609D01*
X123669031Y-106608612D01*
X123734288Y-106673869D01*
X123795507Y-106709215D01*
X123843723Y-106759781D01*
X123856945Y-106828388D01*
X123840894Y-106878602D01*
X123807286Y-106936810D01*
X123803618Y-106950500D01*
X123783400Y-107025956D01*
X123783400Y-107118244D01*
X123803534Y-107193387D01*
X123807287Y-107207390D01*
X123807288Y-107207393D01*
X123853426Y-107287305D01*
X123853429Y-107287309D01*
X123853431Y-107287312D01*
X123918688Y-107352569D01*
X123918691Y-107352570D01*
X123918694Y-107352573D01*
X123998606Y-107398711D01*
X123998607Y-107398711D01*
X123998612Y-107398714D01*
X124087756Y-107422600D01*
X124087758Y-107422600D01*
X124180042Y-107422600D01*
X124180044Y-107422600D01*
X124269188Y-107398714D01*
X124349112Y-107352569D01*
X124414369Y-107287312D01*
X124460514Y-107207388D01*
X124484400Y-107118244D01*
X124484400Y-107025956D01*
X124460514Y-106936812D01*
X124460511Y-106936806D01*
X124414373Y-106856894D01*
X124414370Y-106856891D01*
X124414369Y-106856888D01*
X124349112Y-106791631D01*
X124287889Y-106756283D01*
X124284768Y-106753010D01*
X124280459Y-106751636D01*
X124260880Y-106727955D01*
X124239676Y-106705717D01*
X124238819Y-106701274D01*
X124235937Y-106697788D01*
X124232268Y-106667278D01*
X124226454Y-106637110D01*
X124227984Y-106631652D01*
X124227595Y-106628418D01*
X124233506Y-106611955D01*
X124238319Y-106594792D01*
X124240264Y-106590779D01*
X124261583Y-106553856D01*
X125049500Y-106553856D01*
X125049500Y-106646144D01*
X125071421Y-106727955D01*
X125073387Y-106735290D01*
X125073388Y-106735293D01*
X125119526Y-106815205D01*
X125119529Y-106815209D01*
X125119531Y-106815212D01*
X125184788Y-106880469D01*
X125184791Y-106880470D01*
X125184794Y-106880473D01*
X125264706Y-106926611D01*
X125264707Y-106926611D01*
X125264712Y-106926614D01*
X125353856Y-106950500D01*
X125353858Y-106950500D01*
X125446142Y-106950500D01*
X125446144Y-106950500D01*
X125535288Y-106926614D01*
X125615212Y-106880469D01*
X125680469Y-106815212D01*
X125726614Y-106735288D01*
X125750500Y-106646144D01*
X125750500Y-106553856D01*
X125726614Y-106464712D01*
X125712083Y-106439544D01*
X125680473Y-106384794D01*
X125680470Y-106384791D01*
X125680469Y-106384788D01*
X125615212Y-106319531D01*
X125615209Y-106319529D01*
X125615205Y-106319526D01*
X125535293Y-106273388D01*
X125535290Y-106273387D01*
X125535289Y-106273386D01*
X125535288Y-106273386D01*
X125446144Y-106249500D01*
X125353856Y-106249500D01*
X125264712Y-106273386D01*
X125264711Y-106273386D01*
X125264709Y-106273387D01*
X125264706Y-106273388D01*
X125184794Y-106319526D01*
X125184785Y-106319533D01*
X125119533Y-106384785D01*
X125119526Y-106384794D01*
X125073388Y-106464706D01*
X125073387Y-106464709D01*
X125073386Y-106464711D01*
X125073386Y-106464712D01*
X125049500Y-106553856D01*
X124261583Y-106553856D01*
X124276114Y-106528688D01*
X124300000Y-106439544D01*
X124300000Y-106377811D01*
X124319685Y-106310772D01*
X124336319Y-106290130D01*
X124559663Y-106066786D01*
X124835076Y-105791374D01*
X124865600Y-105717682D01*
X124865600Y-105637918D01*
X124865600Y-103938165D01*
X124885285Y-103871126D01*
X124938089Y-103825371D01*
X125007247Y-103815427D01*
X125070803Y-103844452D01*
X125096986Y-103876164D01*
X125119531Y-103915212D01*
X125184788Y-103980469D01*
X125184791Y-103980470D01*
X125184794Y-103980473D01*
X125264706Y-104026611D01*
X125264707Y-104026611D01*
X125264712Y-104026614D01*
X125353856Y-104050500D01*
X125353858Y-104050500D01*
X125446142Y-104050500D01*
X125446144Y-104050500D01*
X125535288Y-104026614D01*
X125615212Y-103980469D01*
X125680469Y-103915212D01*
X125726614Y-103835288D01*
X125750500Y-103746144D01*
X125750500Y-103653856D01*
X125726614Y-103564712D01*
X125723492Y-103559304D01*
X125680473Y-103484794D01*
X125680470Y-103484791D01*
X125680469Y-103484788D01*
X125615212Y-103419531D01*
X125615209Y-103419529D01*
X125615205Y-103419526D01*
X125535293Y-103373388D01*
X125535290Y-103373387D01*
X125535289Y-103373386D01*
X125535288Y-103373386D01*
X125446144Y-103349500D01*
X125353856Y-103349500D01*
X125264712Y-103373386D01*
X125264711Y-103373386D01*
X125264709Y-103373387D01*
X125264706Y-103373388D01*
X125184794Y-103419526D01*
X125184785Y-103419533D01*
X125119533Y-103484785D01*
X125119526Y-103484794D01*
X125096986Y-103523835D01*
X125046419Y-103572050D01*
X124977811Y-103585272D01*
X124912947Y-103559304D01*
X124872419Y-103502389D01*
X124865600Y-103461834D01*
X124865600Y-102633036D01*
X124885285Y-102565997D01*
X124938089Y-102520242D01*
X125007247Y-102510298D01*
X125021682Y-102513258D01*
X125043856Y-102519200D01*
X125043859Y-102519200D01*
X125136142Y-102519200D01*
X125136144Y-102519200D01*
X125225288Y-102495314D01*
X125305212Y-102449169D01*
X125370469Y-102383912D01*
X125387822Y-102353856D01*
X126054500Y-102353856D01*
X126054500Y-102446144D01*
X126076061Y-102526612D01*
X126078387Y-102535290D01*
X126078388Y-102535293D01*
X126124526Y-102615205D01*
X126124529Y-102615209D01*
X126124531Y-102615212D01*
X126189788Y-102680469D01*
X126189791Y-102680470D01*
X126189794Y-102680473D01*
X126269706Y-102726611D01*
X126269707Y-102726611D01*
X126269712Y-102726614D01*
X126358856Y-102750500D01*
X126358858Y-102750500D01*
X126451142Y-102750500D01*
X126451144Y-102750500D01*
X126540288Y-102726614D01*
X126620212Y-102680469D01*
X126685469Y-102615212D01*
X126731614Y-102535288D01*
X126755500Y-102446144D01*
X126755500Y-102353856D01*
X126731614Y-102264712D01*
X126731611Y-102264706D01*
X126685473Y-102184794D01*
X126685470Y-102184791D01*
X126685469Y-102184788D01*
X126620212Y-102119531D01*
X126620209Y-102119529D01*
X126620205Y-102119526D01*
X126540293Y-102073388D01*
X126540290Y-102073387D01*
X126540289Y-102073386D01*
X126540288Y-102073386D01*
X126451144Y-102049500D01*
X126358856Y-102049500D01*
X126269712Y-102073386D01*
X126269711Y-102073386D01*
X126269709Y-102073387D01*
X126269706Y-102073388D01*
X126189794Y-102119526D01*
X126189785Y-102119533D01*
X126124533Y-102184785D01*
X126124526Y-102184794D01*
X126078388Y-102264706D01*
X126078387Y-102264709D01*
X126078386Y-102264711D01*
X126078386Y-102264712D01*
X126054500Y-102353856D01*
X125387822Y-102353856D01*
X125398540Y-102335293D01*
X125416612Y-102303992D01*
X125416612Y-102303990D01*
X125416614Y-102303988D01*
X125440500Y-102214844D01*
X125440500Y-102122556D01*
X125416614Y-102033412D01*
X125388544Y-101984794D01*
X125370473Y-101953494D01*
X125370470Y-101953491D01*
X125370469Y-101953488D01*
X125305212Y-101888231D01*
X125305209Y-101888229D01*
X125305205Y-101888226D01*
X125225293Y-101842088D01*
X125225290Y-101842087D01*
X125225289Y-101842086D01*
X125225288Y-101842086D01*
X125136144Y-101818200D01*
X125043856Y-101818200D01*
X125021690Y-101824139D01*
X124951840Y-101822474D01*
X124893979Y-101783310D01*
X124866477Y-101719080D01*
X124865600Y-101704363D01*
X124865600Y-100838165D01*
X124885285Y-100771126D01*
X124938089Y-100725371D01*
X125007247Y-100715427D01*
X125070803Y-100744452D01*
X125096986Y-100776164D01*
X125119531Y-100815212D01*
X125184788Y-100880469D01*
X125184791Y-100880470D01*
X125184794Y-100880473D01*
X125264706Y-100926611D01*
X125264707Y-100926611D01*
X125264712Y-100926614D01*
X125353856Y-100950500D01*
X125353858Y-100950500D01*
X125446142Y-100950500D01*
X125446144Y-100950500D01*
X125535288Y-100926614D01*
X125615212Y-100880469D01*
X125680469Y-100815212D01*
X125726614Y-100735288D01*
X125750500Y-100646144D01*
X125750500Y-100553856D01*
X125726614Y-100464712D01*
X125726611Y-100464706D01*
X125680473Y-100384794D01*
X125680470Y-100384791D01*
X125680469Y-100384788D01*
X125615212Y-100319531D01*
X125615209Y-100319529D01*
X125615205Y-100319526D01*
X125535293Y-100273388D01*
X125535290Y-100273387D01*
X125535289Y-100273386D01*
X125535288Y-100273386D01*
X125446144Y-100249500D01*
X125353856Y-100249500D01*
X125264712Y-100273386D01*
X125264711Y-100273386D01*
X125264709Y-100273387D01*
X125264706Y-100273388D01*
X125184794Y-100319526D01*
X125184785Y-100319533D01*
X125119533Y-100384785D01*
X125119526Y-100384794D01*
X125096986Y-100423835D01*
X125046419Y-100472050D01*
X124977811Y-100485272D01*
X124912947Y-100459304D01*
X124872419Y-100402389D01*
X124865600Y-100361834D01*
X124865600Y-99716811D01*
X124885285Y-99649772D01*
X124901915Y-99629134D01*
X125314530Y-99216518D01*
X125375853Y-99183034D01*
X125402211Y-99180200D01*
X125463942Y-99180200D01*
X125463944Y-99180200D01*
X125553088Y-99156314D01*
X125633012Y-99110169D01*
X125698269Y-99044912D01*
X125744414Y-98964988D01*
X125768300Y-98875844D01*
X125768300Y-98783556D01*
X125744414Y-98694412D01*
X125732275Y-98673387D01*
X125698273Y-98614494D01*
X125698270Y-98614491D01*
X125698269Y-98614488D01*
X125633012Y-98549231D01*
X125633009Y-98549229D01*
X125633005Y-98549226D01*
X125553093Y-98503088D01*
X125553090Y-98503087D01*
X125553089Y-98503086D01*
X125553088Y-98503086D01*
X125463944Y-98479200D01*
X125371656Y-98479200D01*
X125282512Y-98503086D01*
X125282511Y-98503086D01*
X125282509Y-98503087D01*
X125282506Y-98503088D01*
X125202594Y-98549226D01*
X125202585Y-98549233D01*
X125137333Y-98614485D01*
X125137326Y-98614494D01*
X125091188Y-98694406D01*
X125091187Y-98694409D01*
X125091186Y-98694411D01*
X125091186Y-98694412D01*
X125084455Y-98719533D01*
X125067300Y-98783556D01*
X125067300Y-98845287D01*
X125047615Y-98912326D01*
X125030981Y-98932968D01*
X124551526Y-99412424D01*
X124495125Y-99468824D01*
X124495124Y-99468825D01*
X124464600Y-99542516D01*
X124464600Y-99609857D01*
X124444915Y-99676896D01*
X124392111Y-99722651D01*
X124322953Y-99732595D01*
X124259397Y-99703570D01*
X124252919Y-99697538D01*
X124188314Y-99632933D01*
X124188312Y-99632931D01*
X124188309Y-99632929D01*
X124188305Y-99632926D01*
X124108393Y-99586788D01*
X124108390Y-99586787D01*
X124108389Y-99586786D01*
X124108388Y-99586786D01*
X124019244Y-99562900D01*
X123926956Y-99562900D01*
X123837812Y-99586786D01*
X123837811Y-99586786D01*
X123837809Y-99586787D01*
X123837806Y-99586788D01*
X123757894Y-99632926D01*
X123757885Y-99632933D01*
X123692633Y-99698185D01*
X123692626Y-99698194D01*
X123646488Y-99778106D01*
X123646487Y-99778109D01*
X123646486Y-99778111D01*
X123646486Y-99778112D01*
X123622600Y-99867256D01*
X123622600Y-99959544D01*
X123637516Y-100015212D01*
X123646487Y-100048690D01*
X123646488Y-100048693D01*
X123692626Y-100128605D01*
X123692629Y-100128609D01*
X123692631Y-100128612D01*
X123757888Y-100193869D01*
X123757891Y-100193870D01*
X123757894Y-100193873D01*
X123837806Y-100240011D01*
X123837807Y-100240011D01*
X123837812Y-100240014D01*
X123926956Y-100263900D01*
X123926958Y-100263900D01*
X124019242Y-100263900D01*
X124019244Y-100263900D01*
X124108388Y-100240014D01*
X124188312Y-100193869D01*
X124252919Y-100129262D01*
X124314242Y-100095777D01*
X124383934Y-100100761D01*
X124439867Y-100142633D01*
X124464284Y-100208097D01*
X124464600Y-100216943D01*
X124464600Y-104002456D01*
X124444915Y-104069495D01*
X124392111Y-104115250D01*
X124322953Y-104125194D01*
X124259397Y-104096169D01*
X124233214Y-104064457D01*
X124202173Y-104010694D01*
X124202170Y-104010691D01*
X124202169Y-104010688D01*
X124136912Y-103945431D01*
X124136909Y-103945429D01*
X124136905Y-103945426D01*
X124056993Y-103899288D01*
X124056990Y-103899287D01*
X124056989Y-103899286D01*
X124056988Y-103899286D01*
X123967844Y-103875400D01*
X123875556Y-103875400D01*
X123786412Y-103899286D01*
X123786411Y-103899286D01*
X123786409Y-103899287D01*
X123786406Y-103899288D01*
X123706494Y-103945426D01*
X123706485Y-103945433D01*
X123641233Y-104010685D01*
X123641226Y-104010694D01*
X123595088Y-104090606D01*
X123595087Y-104090609D01*
X123595086Y-104090611D01*
X123595086Y-104090612D01*
X123571200Y-104179756D01*
X116209083Y-104179756D01*
X116182016Y-104096453D01*
X116180176Y-104090240D01*
X115986557Y-103367642D01*
X115985045Y-103361342D01*
X115981814Y-103346143D01*
X115862574Y-102785156D01*
X120831100Y-102785156D01*
X120831100Y-102877444D01*
X120850675Y-102950500D01*
X120854987Y-102966590D01*
X120854988Y-102966593D01*
X120901126Y-103046505D01*
X120901129Y-103046509D01*
X120901131Y-103046512D01*
X120966388Y-103111769D01*
X120966391Y-103111770D01*
X120966394Y-103111773D01*
X121046306Y-103157911D01*
X121046307Y-103157911D01*
X121046312Y-103157914D01*
X121135456Y-103181800D01*
X121135458Y-103181800D01*
X121227742Y-103181800D01*
X121227744Y-103181800D01*
X121316888Y-103157914D01*
X121396812Y-103111769D01*
X121462069Y-103046512D01*
X121508214Y-102966588D01*
X121532100Y-102877444D01*
X121532100Y-102785156D01*
X121508214Y-102696012D01*
X121508211Y-102696006D01*
X121462073Y-102616094D01*
X121462070Y-102616091D01*
X121462069Y-102616088D01*
X121396812Y-102550831D01*
X121396809Y-102550829D01*
X121396805Y-102550826D01*
X121316893Y-102504688D01*
X121316890Y-102504687D01*
X121316889Y-102504686D01*
X121316888Y-102504686D01*
X121227744Y-102480800D01*
X121135456Y-102480800D01*
X121046312Y-102504686D01*
X121046311Y-102504686D01*
X121046309Y-102504687D01*
X121046306Y-102504688D01*
X120966394Y-102550826D01*
X120966385Y-102550833D01*
X120901133Y-102616085D01*
X120901126Y-102616094D01*
X120854988Y-102696006D01*
X120854987Y-102696009D01*
X120854986Y-102696011D01*
X120854986Y-102696012D01*
X120831100Y-102785156D01*
X115862574Y-102785156D01*
X115836972Y-102664709D01*
X115829519Y-102629644D01*
X115828336Y-102623261D01*
X115790427Y-102383914D01*
X115711310Y-101884395D01*
X115710470Y-101878019D01*
X115634358Y-101153856D01*
X121849500Y-101153856D01*
X121849500Y-101246144D01*
X121858479Y-101279656D01*
X121873387Y-101335290D01*
X121873388Y-101335293D01*
X121919526Y-101415205D01*
X121919529Y-101415209D01*
X121919531Y-101415212D01*
X121984788Y-101480469D01*
X121984791Y-101480470D01*
X121984794Y-101480473D01*
X122064706Y-101526611D01*
X122064707Y-101526611D01*
X122064712Y-101526614D01*
X122153856Y-101550500D01*
X122153858Y-101550500D01*
X122246142Y-101550500D01*
X122246144Y-101550500D01*
X122335288Y-101526614D01*
X122415212Y-101480469D01*
X122480469Y-101415212D01*
X122526614Y-101335288D01*
X122550500Y-101246144D01*
X122550500Y-101153856D01*
X122526614Y-101064712D01*
X122518408Y-101050499D01*
X122480473Y-100984794D01*
X122480470Y-100984791D01*
X122480469Y-100984788D01*
X122415212Y-100919531D01*
X122415209Y-100919529D01*
X122415205Y-100919526D01*
X122335293Y-100873388D01*
X122335290Y-100873387D01*
X122335289Y-100873386D01*
X122335288Y-100873386D01*
X122246144Y-100849500D01*
X122153856Y-100849500D01*
X122064712Y-100873386D01*
X122064711Y-100873386D01*
X122064709Y-100873387D01*
X122064706Y-100873388D01*
X121984794Y-100919526D01*
X121984785Y-100919533D01*
X121919533Y-100984785D01*
X121919526Y-100984794D01*
X121873388Y-101064706D01*
X121873387Y-101064709D01*
X121873386Y-101064711D01*
X121873386Y-101064712D01*
X121849500Y-101153856D01*
X115634358Y-101153856D01*
X115632269Y-101133985D01*
X115631765Y-101127566D01*
X115592614Y-100380518D01*
X115592444Y-100374028D01*
X115592444Y-99625971D01*
X115592614Y-99619481D01*
X115596640Y-99542662D01*
X115631765Y-98872430D01*
X115632270Y-98866011D01*
X115710471Y-98121975D01*
X115711310Y-98115609D01*
X115784444Y-97653856D01*
X125049500Y-97653856D01*
X125049500Y-97746144D01*
X125071174Y-97827034D01*
X125073387Y-97835290D01*
X125073388Y-97835293D01*
X125119526Y-97915205D01*
X125119529Y-97915209D01*
X125119531Y-97915212D01*
X125184788Y-97980469D01*
X125184791Y-97980470D01*
X125184794Y-97980473D01*
X125264706Y-98026611D01*
X125264707Y-98026611D01*
X125264712Y-98026614D01*
X125353856Y-98050500D01*
X125353858Y-98050500D01*
X125446142Y-98050500D01*
X125446144Y-98050500D01*
X125535288Y-98026614D01*
X125615212Y-97980469D01*
X125680469Y-97915212D01*
X125726614Y-97835288D01*
X125750500Y-97746144D01*
X125750500Y-97653856D01*
X125726614Y-97564712D01*
X125726611Y-97564706D01*
X125680473Y-97484794D01*
X125680470Y-97484791D01*
X125680469Y-97484788D01*
X125615212Y-97419531D01*
X125615209Y-97419529D01*
X125615205Y-97419526D01*
X125535293Y-97373388D01*
X125535290Y-97373387D01*
X125535289Y-97373386D01*
X125535288Y-97373386D01*
X125446144Y-97349500D01*
X125353856Y-97349500D01*
X125264712Y-97373386D01*
X125264711Y-97373386D01*
X125264709Y-97373387D01*
X125264706Y-97373388D01*
X125184794Y-97419526D01*
X125184785Y-97419533D01*
X125119533Y-97484785D01*
X125119526Y-97484794D01*
X125073388Y-97564706D01*
X125073387Y-97564709D01*
X125073386Y-97564711D01*
X125073386Y-97564712D01*
X125049500Y-97653856D01*
X115784444Y-97653856D01*
X115828336Y-97376735D01*
X115829519Y-97370355D01*
X115840244Y-97319899D01*
X115875537Y-97153856D01*
X123749500Y-97153856D01*
X123749500Y-97246144D01*
X123771133Y-97326880D01*
X123773387Y-97335290D01*
X123773388Y-97335293D01*
X123819526Y-97415205D01*
X123819529Y-97415209D01*
X123819531Y-97415212D01*
X123884788Y-97480469D01*
X123884791Y-97480470D01*
X123884794Y-97480473D01*
X123964706Y-97526611D01*
X123964707Y-97526611D01*
X123964712Y-97526614D01*
X124053856Y-97550500D01*
X124053858Y-97550500D01*
X124146142Y-97550500D01*
X124146144Y-97550500D01*
X124235288Y-97526614D01*
X124315212Y-97480469D01*
X124380469Y-97415212D01*
X124426614Y-97335288D01*
X124450500Y-97246144D01*
X124450500Y-97153856D01*
X126649500Y-97153856D01*
X126649500Y-97246144D01*
X126671133Y-97326880D01*
X126673387Y-97335290D01*
X126673388Y-97335293D01*
X126719526Y-97415205D01*
X126719529Y-97415209D01*
X126719531Y-97415212D01*
X126784788Y-97480469D01*
X126784791Y-97480470D01*
X126784794Y-97480473D01*
X126864706Y-97526611D01*
X126864707Y-97526611D01*
X126864712Y-97526614D01*
X126953856Y-97550500D01*
X126953858Y-97550500D01*
X127046142Y-97550500D01*
X127046144Y-97550500D01*
X127135288Y-97526614D01*
X127215212Y-97480469D01*
X127280469Y-97415212D01*
X127326614Y-97335288D01*
X127350500Y-97246144D01*
X127350500Y-97153856D01*
X127326614Y-97064712D01*
X127320922Y-97054853D01*
X127280473Y-96984794D01*
X127280470Y-96984791D01*
X127280469Y-96984788D01*
X127215212Y-96919531D01*
X127215209Y-96919529D01*
X127215205Y-96919526D01*
X127135293Y-96873388D01*
X127135290Y-96873387D01*
X127135289Y-96873386D01*
X127135288Y-96873386D01*
X127046144Y-96849500D01*
X126953856Y-96849500D01*
X126864712Y-96873386D01*
X126864711Y-96873386D01*
X126864709Y-96873387D01*
X126864706Y-96873388D01*
X126784794Y-96919526D01*
X126784785Y-96919533D01*
X126719533Y-96984785D01*
X126719526Y-96984794D01*
X126673388Y-97064706D01*
X126673387Y-97064709D01*
X126673386Y-97064711D01*
X126673386Y-97064712D01*
X126649500Y-97153856D01*
X124450500Y-97153856D01*
X124426614Y-97064712D01*
X124420922Y-97054853D01*
X124380473Y-96984794D01*
X124380470Y-96984791D01*
X124380469Y-96984788D01*
X124315212Y-96919531D01*
X124315209Y-96919529D01*
X124315205Y-96919526D01*
X124235293Y-96873388D01*
X124235290Y-96873387D01*
X124235289Y-96873386D01*
X124235288Y-96873386D01*
X124146144Y-96849500D01*
X124053856Y-96849500D01*
X123964712Y-96873386D01*
X123964711Y-96873386D01*
X123964709Y-96873387D01*
X123964706Y-96873388D01*
X123884794Y-96919526D01*
X123884785Y-96919533D01*
X123819533Y-96984785D01*
X123819526Y-96984794D01*
X123773388Y-97064706D01*
X123773387Y-97064709D01*
X123773386Y-97064711D01*
X123773386Y-97064712D01*
X123749500Y-97153856D01*
X115875537Y-97153856D01*
X115985050Y-96638635D01*
X115986554Y-96632365D01*
X116034386Y-96453856D01*
X120949500Y-96453856D01*
X120949500Y-96546144D01*
X120972597Y-96632344D01*
X120973387Y-96635290D01*
X120973388Y-96635293D01*
X121019526Y-96715205D01*
X121019529Y-96715209D01*
X121019531Y-96715212D01*
X121084788Y-96780469D01*
X121084791Y-96780470D01*
X121084794Y-96780473D01*
X121164706Y-96826611D01*
X121164707Y-96826611D01*
X121164712Y-96826614D01*
X121253856Y-96850500D01*
X121253858Y-96850500D01*
X121346142Y-96850500D01*
X121346144Y-96850500D01*
X121435288Y-96826614D01*
X121515212Y-96780469D01*
X121580469Y-96715212D01*
X121626614Y-96635288D01*
X121648434Y-96553856D01*
X124729500Y-96553856D01*
X124729500Y-96646144D01*
X124748007Y-96715214D01*
X124753387Y-96735290D01*
X124753388Y-96735293D01*
X124799526Y-96815205D01*
X124799529Y-96815209D01*
X124799531Y-96815212D01*
X124864788Y-96880469D01*
X124864791Y-96880470D01*
X124864794Y-96880473D01*
X124944706Y-96926611D01*
X124944707Y-96926611D01*
X124944712Y-96926614D01*
X125033856Y-96950500D01*
X125033858Y-96950500D01*
X125126142Y-96950500D01*
X125126144Y-96950500D01*
X125215288Y-96926614D01*
X125295212Y-96880469D01*
X125360469Y-96815212D01*
X125406614Y-96735288D01*
X125430500Y-96646144D01*
X125430500Y-96553856D01*
X125406614Y-96464712D01*
X125406611Y-96464706D01*
X125360473Y-96384794D01*
X125360470Y-96384791D01*
X125360469Y-96384788D01*
X125295212Y-96319531D01*
X125295209Y-96319529D01*
X125295205Y-96319526D01*
X125215293Y-96273388D01*
X125215290Y-96273387D01*
X125215289Y-96273386D01*
X125215288Y-96273386D01*
X125126144Y-96249500D01*
X125033856Y-96249500D01*
X124944712Y-96273386D01*
X124944711Y-96273386D01*
X124944709Y-96273387D01*
X124944706Y-96273388D01*
X124864794Y-96319526D01*
X124864785Y-96319533D01*
X124799533Y-96384785D01*
X124799526Y-96384794D01*
X124753388Y-96464706D01*
X124753387Y-96464709D01*
X124753386Y-96464711D01*
X124753386Y-96464712D01*
X124729500Y-96553856D01*
X121648434Y-96553856D01*
X121650500Y-96546144D01*
X121650500Y-96453856D01*
X121626614Y-96364712D01*
X121626611Y-96364706D01*
X121580473Y-96284794D01*
X121580470Y-96284791D01*
X121580469Y-96284788D01*
X121515212Y-96219531D01*
X121515209Y-96219529D01*
X121515205Y-96219526D01*
X121435293Y-96173388D01*
X121435290Y-96173387D01*
X121435289Y-96173386D01*
X121435288Y-96173386D01*
X121346144Y-96149500D01*
X121253856Y-96149500D01*
X121164712Y-96173386D01*
X121164711Y-96173386D01*
X121164709Y-96173387D01*
X121164706Y-96173388D01*
X121084794Y-96219526D01*
X121084785Y-96219533D01*
X121019533Y-96284785D01*
X121019526Y-96284794D01*
X120973388Y-96364706D01*
X120973387Y-96364709D01*
X120973386Y-96364711D01*
X120973386Y-96364712D01*
X120949500Y-96453856D01*
X116034386Y-96453856D01*
X116180182Y-95909738D01*
X116182013Y-95903556D01*
X116244508Y-95711216D01*
X135968200Y-95711216D01*
X135968200Y-109208583D01*
X135998724Y-109282274D01*
X136113181Y-109396731D01*
X136146666Y-109458054D01*
X136149500Y-109484412D01*
X136149500Y-109546144D01*
X136154475Y-109564712D01*
X136173387Y-109635290D01*
X136173388Y-109635293D01*
X136219526Y-109715205D01*
X136219529Y-109715209D01*
X136219531Y-109715212D01*
X136284788Y-109780469D01*
X136284791Y-109780470D01*
X136284794Y-109780473D01*
X136364706Y-109826611D01*
X136364707Y-109826611D01*
X136364712Y-109826614D01*
X136453856Y-109850500D01*
X136453858Y-109850500D01*
X136546142Y-109850500D01*
X136546144Y-109850500D01*
X136635288Y-109826614D01*
X136715212Y-109780469D01*
X136780469Y-109715212D01*
X136826614Y-109635288D01*
X136850500Y-109546144D01*
X136850500Y-109453856D01*
X136826614Y-109364712D01*
X136826463Y-109364450D01*
X136780473Y-109284794D01*
X136780470Y-109284791D01*
X136780469Y-109284788D01*
X136715212Y-109219531D01*
X136715209Y-109219529D01*
X136715205Y-109219526D01*
X136635293Y-109173388D01*
X136635290Y-109173387D01*
X136635289Y-109173386D01*
X136635288Y-109173386D01*
X136546144Y-109149500D01*
X136493200Y-109149500D01*
X136426161Y-109129815D01*
X136380406Y-109077011D01*
X136369200Y-109025500D01*
X136369200Y-108053856D01*
X138449500Y-108053856D01*
X138449500Y-108146144D01*
X138471832Y-108229490D01*
X138473387Y-108235290D01*
X138473388Y-108235293D01*
X138519526Y-108315205D01*
X138519529Y-108315209D01*
X138519531Y-108315212D01*
X138584788Y-108380469D01*
X138584791Y-108380470D01*
X138584794Y-108380473D01*
X138664706Y-108426611D01*
X138664707Y-108426611D01*
X138664712Y-108426614D01*
X138753856Y-108450500D01*
X138753858Y-108450500D01*
X138846142Y-108450500D01*
X138846144Y-108450500D01*
X138935288Y-108426614D01*
X139015212Y-108380469D01*
X139080469Y-108315212D01*
X139126614Y-108235288D01*
X139150500Y-108146144D01*
X139150500Y-108053856D01*
X139126614Y-107964712D01*
X139122793Y-107958094D01*
X139080473Y-107884794D01*
X139080470Y-107884791D01*
X139080469Y-107884788D01*
X139015212Y-107819531D01*
X139015209Y-107819529D01*
X139015205Y-107819526D01*
X138935293Y-107773388D01*
X138935290Y-107773387D01*
X138935289Y-107773386D01*
X138935288Y-107773386D01*
X138846144Y-107749500D01*
X138753856Y-107749500D01*
X138664712Y-107773386D01*
X138664711Y-107773386D01*
X138664709Y-107773387D01*
X138664706Y-107773388D01*
X138584794Y-107819526D01*
X138584785Y-107819533D01*
X138519533Y-107884785D01*
X138519526Y-107884794D01*
X138473388Y-107964706D01*
X138473387Y-107964709D01*
X138473386Y-107964711D01*
X138473386Y-107964712D01*
X138449500Y-108053856D01*
X136369200Y-108053856D01*
X136369200Y-106853856D01*
X138449500Y-106853856D01*
X138449500Y-106946144D01*
X138471061Y-107026612D01*
X138473387Y-107035290D01*
X138473388Y-107035293D01*
X138519526Y-107115205D01*
X138519529Y-107115209D01*
X138519531Y-107115212D01*
X138584788Y-107180469D01*
X138584791Y-107180470D01*
X138584794Y-107180473D01*
X138664706Y-107226611D01*
X138664707Y-107226611D01*
X138664712Y-107226614D01*
X138753856Y-107250500D01*
X138753858Y-107250500D01*
X138846142Y-107250500D01*
X138846144Y-107250500D01*
X138935288Y-107226614D01*
X139015212Y-107180469D01*
X139080469Y-107115212D01*
X139126614Y-107035288D01*
X139150500Y-106946144D01*
X139150500Y-106853856D01*
X139126614Y-106764712D01*
X139126611Y-106764706D01*
X139080473Y-106684794D01*
X139080470Y-106684791D01*
X139080469Y-106684788D01*
X139015212Y-106619531D01*
X139015209Y-106619529D01*
X139015205Y-106619526D01*
X138935293Y-106573388D01*
X138935290Y-106573387D01*
X138935289Y-106573386D01*
X138935288Y-106573386D01*
X138846144Y-106549500D01*
X138753856Y-106549500D01*
X138664712Y-106573386D01*
X138664711Y-106573386D01*
X138664709Y-106573387D01*
X138664706Y-106573388D01*
X138584794Y-106619526D01*
X138584785Y-106619533D01*
X138519533Y-106684785D01*
X138519526Y-106684794D01*
X138473388Y-106764706D01*
X138473387Y-106764709D01*
X138473386Y-106764711D01*
X138473386Y-106764712D01*
X138449500Y-106853856D01*
X136369200Y-106853856D01*
X136369200Y-106530874D01*
X136388885Y-106463835D01*
X136441689Y-106418080D01*
X136510847Y-106408136D01*
X136525265Y-106411092D01*
X136610756Y-106434000D01*
X136610760Y-106434000D01*
X136703042Y-106434000D01*
X136703044Y-106434000D01*
X136792188Y-106410114D01*
X136872112Y-106363969D01*
X136937369Y-106298712D01*
X136983514Y-106218788D01*
X137007400Y-106129644D01*
X137007400Y-106067911D01*
X137016044Y-106038473D01*
X137022568Y-106008483D01*
X137026323Y-106003466D01*
X137027085Y-106000872D01*
X137043713Y-105980235D01*
X137070092Y-105953856D01*
X139249500Y-105953856D01*
X139249500Y-106046144D01*
X139271873Y-106129643D01*
X139273387Y-106135290D01*
X139273388Y-106135293D01*
X139319526Y-106215205D01*
X139319529Y-106215209D01*
X139319531Y-106215212D01*
X139384788Y-106280469D01*
X139384791Y-106280470D01*
X139384794Y-106280473D01*
X139464706Y-106326611D01*
X139464707Y-106326611D01*
X139464712Y-106326614D01*
X139553856Y-106350500D01*
X139553858Y-106350500D01*
X139646142Y-106350500D01*
X139646144Y-106350500D01*
X139735288Y-106326614D01*
X139815212Y-106280469D01*
X139880469Y-106215212D01*
X139926614Y-106135288D01*
X139950500Y-106046144D01*
X139950500Y-105953856D01*
X139926614Y-105864712D01*
X139916316Y-105846875D01*
X139880473Y-105784794D01*
X139880470Y-105784791D01*
X139880469Y-105784788D01*
X139815212Y-105719531D01*
X139815209Y-105719529D01*
X139815205Y-105719526D01*
X139735293Y-105673388D01*
X139735290Y-105673387D01*
X139735289Y-105673386D01*
X139735288Y-105673386D01*
X139646144Y-105649500D01*
X139553856Y-105649500D01*
X139464712Y-105673386D01*
X139464711Y-105673386D01*
X139464709Y-105673387D01*
X139464706Y-105673388D01*
X139384794Y-105719526D01*
X139384785Y-105719533D01*
X139319533Y-105784785D01*
X139319526Y-105784794D01*
X139273388Y-105864706D01*
X139273387Y-105864709D01*
X139273386Y-105864711D01*
X139273386Y-105864712D01*
X139249500Y-105953856D01*
X137070092Y-105953856D01*
X137167696Y-105856254D01*
X137177074Y-105846877D01*
X137177074Y-105846875D01*
X137177076Y-105846874D01*
X137207600Y-105773182D01*
X137207600Y-105693417D01*
X137207600Y-102753856D01*
X139449500Y-102753856D01*
X139449500Y-102846144D01*
X139471061Y-102926612D01*
X139473387Y-102935290D01*
X139473388Y-102935293D01*
X139519526Y-103015205D01*
X139519529Y-103015209D01*
X139519531Y-103015212D01*
X139584788Y-103080469D01*
X139584791Y-103080470D01*
X139584794Y-103080473D01*
X139664706Y-103126611D01*
X139664707Y-103126611D01*
X139664712Y-103126614D01*
X139753856Y-103150500D01*
X139753858Y-103150500D01*
X139846142Y-103150500D01*
X139846144Y-103150500D01*
X139935288Y-103126614D01*
X140015212Y-103080469D01*
X140080469Y-103015212D01*
X140126614Y-102935288D01*
X140150500Y-102846144D01*
X140150500Y-102753856D01*
X140126614Y-102664712D01*
X140118578Y-102650793D01*
X140080473Y-102584794D01*
X140080470Y-102584791D01*
X140080469Y-102584788D01*
X140015212Y-102519531D01*
X140015209Y-102519529D01*
X140015205Y-102519526D01*
X139935293Y-102473388D01*
X139935290Y-102473387D01*
X139935289Y-102473386D01*
X139935288Y-102473386D01*
X139846144Y-102449500D01*
X139753856Y-102449500D01*
X139664712Y-102473386D01*
X139664711Y-102473386D01*
X139664709Y-102473387D01*
X139664706Y-102473388D01*
X139584794Y-102519526D01*
X139584785Y-102519533D01*
X139519533Y-102584785D01*
X139519526Y-102584794D01*
X139473388Y-102664706D01*
X139473387Y-102664709D01*
X139473386Y-102664711D01*
X139473386Y-102664712D01*
X139449500Y-102753856D01*
X137207600Y-102753856D01*
X137207600Y-97302618D01*
X137177076Y-97228926D01*
X137120674Y-97172524D01*
X137043719Y-97095569D01*
X137010234Y-97034246D01*
X137007400Y-97007888D01*
X137007400Y-96946158D01*
X137007400Y-96946156D01*
X136983514Y-96857012D01*
X136983511Y-96857006D01*
X136937373Y-96777094D01*
X136937370Y-96777091D01*
X136937369Y-96777088D01*
X136872112Y-96711831D01*
X136872109Y-96711829D01*
X136872105Y-96711826D01*
X136792193Y-96665688D01*
X136792190Y-96665687D01*
X136792189Y-96665686D01*
X136792188Y-96665686D01*
X136703044Y-96641800D01*
X136610756Y-96641800D01*
X136525291Y-96664699D01*
X136455444Y-96663037D01*
X136397581Y-96623874D01*
X136370077Y-96559646D01*
X136369200Y-96544925D01*
X136369200Y-95885511D01*
X136377844Y-95856070D01*
X136384368Y-95826084D01*
X136388122Y-95821068D01*
X136388885Y-95818472D01*
X136405515Y-95797834D01*
X136556930Y-95646418D01*
X136618253Y-95612934D01*
X136644611Y-95610100D01*
X136706342Y-95610100D01*
X136706344Y-95610100D01*
X136795488Y-95586214D01*
X136875412Y-95540069D01*
X136940669Y-95474812D01*
X136986814Y-95394888D01*
X137010700Y-95305744D01*
X137010700Y-95233600D01*
X137030385Y-95166561D01*
X137083189Y-95120806D01*
X137134700Y-95109600D01*
X137167442Y-95109600D01*
X137167444Y-95109600D01*
X137256588Y-95085714D01*
X137336512Y-95039569D01*
X137401769Y-94974312D01*
X137447914Y-94894388D01*
X137471800Y-94805244D01*
X137471800Y-94712956D01*
X137447914Y-94623812D01*
X137421362Y-94577823D01*
X137401773Y-94543894D01*
X137401770Y-94543891D01*
X137401769Y-94543888D01*
X137336512Y-94478631D01*
X137336509Y-94478629D01*
X137336505Y-94478626D01*
X137256593Y-94432488D01*
X137256590Y-94432487D01*
X137256589Y-94432486D01*
X137256588Y-94432486D01*
X137167444Y-94408600D01*
X137075156Y-94408600D01*
X136986011Y-94432486D01*
X136904947Y-94479290D01*
X136837047Y-94495763D01*
X136771020Y-94472911D01*
X136755265Y-94459584D01*
X136715214Y-94419533D01*
X136715212Y-94419531D01*
X136715209Y-94419529D01*
X136715205Y-94419526D01*
X136635293Y-94373388D01*
X136635290Y-94373387D01*
X136635289Y-94373386D01*
X136635288Y-94373386D01*
X136546144Y-94349500D01*
X136453856Y-94349500D01*
X136364712Y-94373386D01*
X136364711Y-94373386D01*
X136364709Y-94373387D01*
X136364706Y-94373388D01*
X136284794Y-94419526D01*
X136284785Y-94419533D01*
X136219533Y-94484785D01*
X136219526Y-94484794D01*
X136173388Y-94564706D01*
X136173387Y-94564709D01*
X136173386Y-94564711D01*
X136173386Y-94564712D01*
X136149500Y-94653856D01*
X136149500Y-94746144D01*
X136173253Y-94834793D01*
X136173387Y-94835290D01*
X136173388Y-94835293D01*
X136219526Y-94915205D01*
X136219529Y-94915209D01*
X136219531Y-94915212D01*
X136284788Y-94980469D01*
X136284791Y-94980471D01*
X136291237Y-94985417D01*
X136289114Y-94988183D01*
X136326262Y-95027105D01*
X136339519Y-95095706D01*
X136338539Y-95103435D01*
X136335843Y-95120401D01*
X136333586Y-95124312D01*
X136309700Y-95213456D01*
X136309700Y-95284973D01*
X136308164Y-95294642D01*
X136297210Y-95317719D01*
X136290015Y-95342226D01*
X136279224Y-95355617D01*
X136278206Y-95357762D01*
X136276781Y-95358648D01*
X136273381Y-95362868D01*
X136055126Y-95581124D01*
X135998725Y-95637524D01*
X135998724Y-95637525D01*
X135968200Y-95711216D01*
X116244508Y-95711216D01*
X116413187Y-95192077D01*
X116415337Y-95186005D01*
X116683433Y-94487591D01*
X116685903Y-94481628D01*
X116990187Y-93798196D01*
X116992951Y-93792400D01*
X117147506Y-93489070D01*
X119254499Y-93489070D01*
X119279497Y-93614737D01*
X119279499Y-93614743D01*
X119328533Y-93733123D01*
X119328538Y-93733132D01*
X119399723Y-93839667D01*
X119399726Y-93839671D01*
X119404947Y-93844892D01*
X119438432Y-93906215D01*
X119433448Y-93975907D01*
X119391576Y-94031840D01*
X119357023Y-94047252D01*
X119357564Y-94048558D01*
X119346275Y-94053234D01*
X119296496Y-94086495D01*
X119296495Y-94086496D01*
X119263234Y-94136275D01*
X119263231Y-94136282D01*
X119254500Y-94180177D01*
X119254500Y-94180180D01*
X119254500Y-95209820D01*
X119254500Y-95209822D01*
X119254499Y-95209822D01*
X119263231Y-95253717D01*
X119263234Y-95253724D01*
X119296495Y-95303503D01*
X119296496Y-95303504D01*
X119346278Y-95336767D01*
X119346281Y-95336767D01*
X119346282Y-95336768D01*
X119390177Y-95345500D01*
X119390180Y-95345500D01*
X120419822Y-95345500D01*
X120463717Y-95336768D01*
X120463717Y-95336767D01*
X120463722Y-95336767D01*
X120513504Y-95303504D01*
X120546767Y-95253722D01*
X120555500Y-95209820D01*
X120555500Y-94553856D01*
X125249500Y-94553856D01*
X125249500Y-94646144D01*
X125267402Y-94712956D01*
X125273387Y-94735290D01*
X125273388Y-94735293D01*
X125319526Y-94815205D01*
X125319529Y-94815209D01*
X125319531Y-94815212D01*
X125384788Y-94880469D01*
X125384791Y-94880470D01*
X125384794Y-94880473D01*
X125464706Y-94926611D01*
X125464707Y-94926611D01*
X125464712Y-94926614D01*
X125553856Y-94950500D01*
X125553858Y-94950500D01*
X125646142Y-94950500D01*
X125646144Y-94950500D01*
X125735288Y-94926614D01*
X125815212Y-94880469D01*
X125880469Y-94815212D01*
X125926614Y-94735288D01*
X125948568Y-94653356D01*
X130550500Y-94653356D01*
X130550500Y-94745644D01*
X130569141Y-94815214D01*
X130574387Y-94834790D01*
X130574388Y-94834793D01*
X130620526Y-94914705D01*
X130620529Y-94914709D01*
X130620531Y-94914712D01*
X130685788Y-94979969D01*
X130685791Y-94979970D01*
X130685794Y-94979973D01*
X130765706Y-95026111D01*
X130765707Y-95026111D01*
X130765712Y-95026114D01*
X130854856Y-95050000D01*
X130854858Y-95050000D01*
X130947142Y-95050000D01*
X130947144Y-95050000D01*
X131036288Y-95026114D01*
X131116212Y-94979969D01*
X131181469Y-94914712D01*
X131227614Y-94834788D01*
X131251500Y-94745644D01*
X131251500Y-94653856D01*
X131549500Y-94653856D01*
X131549500Y-94746144D01*
X131573253Y-94834793D01*
X131573387Y-94835290D01*
X131573388Y-94835293D01*
X131619526Y-94915205D01*
X131619529Y-94915209D01*
X131619531Y-94915212D01*
X131684788Y-94980469D01*
X131684791Y-94980470D01*
X131684794Y-94980473D01*
X131764706Y-95026611D01*
X131764707Y-95026611D01*
X131764712Y-95026614D01*
X131853856Y-95050500D01*
X131853858Y-95050500D01*
X131946142Y-95050500D01*
X131946144Y-95050500D01*
X132035288Y-95026614D01*
X132115212Y-94980469D01*
X132180469Y-94915212D01*
X132226614Y-94835288D01*
X132250500Y-94746144D01*
X132250500Y-94653856D01*
X132226614Y-94564712D01*
X132226611Y-94564706D01*
X132220347Y-94553856D01*
X132949500Y-94553856D01*
X132949500Y-94646144D01*
X132967402Y-94712956D01*
X132973387Y-94735290D01*
X132973388Y-94735293D01*
X133019526Y-94815205D01*
X133019529Y-94815209D01*
X133019531Y-94815212D01*
X133084788Y-94880469D01*
X133084791Y-94880470D01*
X133084794Y-94880473D01*
X133164706Y-94926611D01*
X133164707Y-94926611D01*
X133164712Y-94926614D01*
X133253856Y-94950500D01*
X133253858Y-94950500D01*
X133346142Y-94950500D01*
X133346144Y-94950500D01*
X133435288Y-94926614D01*
X133515212Y-94880469D01*
X133580469Y-94815212D01*
X133626614Y-94735288D01*
X133650500Y-94646144D01*
X133650500Y-94553856D01*
X133626614Y-94464712D01*
X133626611Y-94464706D01*
X133580473Y-94384794D01*
X133580470Y-94384791D01*
X133580469Y-94384788D01*
X133515212Y-94319531D01*
X133515209Y-94319529D01*
X133515205Y-94319526D01*
X133435293Y-94273388D01*
X133435290Y-94273387D01*
X133435289Y-94273386D01*
X133435288Y-94273386D01*
X133346144Y-94249500D01*
X133253856Y-94249500D01*
X133164712Y-94273386D01*
X133164711Y-94273386D01*
X133164709Y-94273387D01*
X133164706Y-94273388D01*
X133084794Y-94319526D01*
X133084785Y-94319533D01*
X133019533Y-94384785D01*
X133019526Y-94384794D01*
X132973388Y-94464706D01*
X132973387Y-94464709D01*
X132973386Y-94464711D01*
X132973386Y-94464712D01*
X132949500Y-94553856D01*
X132220347Y-94553856D01*
X132180473Y-94484794D01*
X132180470Y-94484791D01*
X132180469Y-94484788D01*
X132115212Y-94419531D01*
X132115209Y-94419529D01*
X132115205Y-94419526D01*
X132035293Y-94373388D01*
X132035290Y-94373387D01*
X132035289Y-94373386D01*
X132035288Y-94373386D01*
X131946144Y-94349500D01*
X131853856Y-94349500D01*
X131764712Y-94373386D01*
X131764711Y-94373386D01*
X131764709Y-94373387D01*
X131764706Y-94373388D01*
X131684794Y-94419526D01*
X131684785Y-94419533D01*
X131619533Y-94484785D01*
X131619526Y-94484794D01*
X131573388Y-94564706D01*
X131573387Y-94564709D01*
X131573386Y-94564711D01*
X131573386Y-94564712D01*
X131549500Y-94653856D01*
X131251500Y-94653856D01*
X131251500Y-94653356D01*
X131227614Y-94564212D01*
X131221635Y-94553856D01*
X131181473Y-94484294D01*
X131181470Y-94484291D01*
X131181469Y-94484288D01*
X131116212Y-94419031D01*
X131116209Y-94419029D01*
X131116205Y-94419026D01*
X131036293Y-94372888D01*
X131036290Y-94372887D01*
X131036289Y-94372886D01*
X131036288Y-94372886D01*
X130947144Y-94349000D01*
X130854856Y-94349000D01*
X130765712Y-94372886D01*
X130765711Y-94372886D01*
X130765709Y-94372887D01*
X130765706Y-94372888D01*
X130685794Y-94419026D01*
X130685785Y-94419033D01*
X130620533Y-94484285D01*
X130620526Y-94484294D01*
X130574388Y-94564206D01*
X130574387Y-94564209D01*
X130574386Y-94564211D01*
X130574386Y-94564212D01*
X130550500Y-94653356D01*
X125948568Y-94653356D01*
X125950500Y-94646144D01*
X125950500Y-94553856D01*
X125926614Y-94464712D01*
X125926611Y-94464706D01*
X125880473Y-94384794D01*
X125880470Y-94384791D01*
X125880469Y-94384788D01*
X125815212Y-94319531D01*
X125815209Y-94319529D01*
X125815205Y-94319526D01*
X125735293Y-94273388D01*
X125735290Y-94273387D01*
X125735289Y-94273386D01*
X125735288Y-94273386D01*
X125646144Y-94249500D01*
X125553856Y-94249500D01*
X125464712Y-94273386D01*
X125464711Y-94273386D01*
X125464709Y-94273387D01*
X125464706Y-94273388D01*
X125384794Y-94319526D01*
X125384785Y-94319533D01*
X125319533Y-94384785D01*
X125319526Y-94384794D01*
X125273388Y-94464706D01*
X125273387Y-94464709D01*
X125273386Y-94464711D01*
X125273386Y-94464712D01*
X125249500Y-94553856D01*
X120555500Y-94553856D01*
X120555500Y-94180180D01*
X120555500Y-94180177D01*
X120546768Y-94136282D01*
X120546767Y-94136281D01*
X120546767Y-94136278D01*
X120513504Y-94086496D01*
X120513503Y-94086495D01*
X120463724Y-94053234D01*
X120452436Y-94048558D01*
X120453385Y-94046264D01*
X120406619Y-94021794D01*
X120372053Y-93961074D01*
X120375802Y-93891305D01*
X120392157Y-93860043D01*
X120396618Y-93853856D01*
X123949500Y-93853856D01*
X123949500Y-93946144D01*
X123972462Y-94031840D01*
X123973387Y-94035290D01*
X123973388Y-94035293D01*
X124019526Y-94115205D01*
X124019529Y-94115209D01*
X124019531Y-94115212D01*
X124084788Y-94180469D01*
X124084791Y-94180470D01*
X124084794Y-94180473D01*
X124164706Y-94226611D01*
X124164707Y-94226611D01*
X124164712Y-94226614D01*
X124253856Y-94250500D01*
X124253858Y-94250500D01*
X124346142Y-94250500D01*
X124346144Y-94250500D01*
X124435288Y-94226614D01*
X124515212Y-94180469D01*
X124580469Y-94115212D01*
X124626614Y-94035288D01*
X124650500Y-93946144D01*
X124650500Y-93853856D01*
X124626614Y-93764712D01*
X124608381Y-93733132D01*
X124580473Y-93684794D01*
X124580470Y-93684791D01*
X124580469Y-93684788D01*
X124515212Y-93619531D01*
X124502853Y-93612395D01*
X124487128Y-93603316D01*
X124487127Y-93603316D01*
X124475051Y-93596344D01*
X124435288Y-93573386D01*
X124346144Y-93549500D01*
X124253856Y-93549500D01*
X124164712Y-93573386D01*
X124164711Y-93573386D01*
X124164709Y-93573387D01*
X124164706Y-93573388D01*
X124084794Y-93619526D01*
X124084785Y-93619533D01*
X124019533Y-93684785D01*
X124019526Y-93684794D01*
X123973388Y-93764706D01*
X123973387Y-93764709D01*
X123973386Y-93764711D01*
X123973386Y-93764712D01*
X123949500Y-93853856D01*
X120396618Y-93853856D01*
X120397990Y-93851953D01*
X120410276Y-93839668D01*
X120481465Y-93733126D01*
X120530501Y-93614743D01*
X120543479Y-93549500D01*
X120552519Y-93504056D01*
X127332600Y-93504056D01*
X127332600Y-93596344D01*
X127356300Y-93684794D01*
X127356487Y-93685490D01*
X127356488Y-93685493D01*
X127402626Y-93765405D01*
X127402629Y-93765409D01*
X127402631Y-93765412D01*
X127467888Y-93830669D01*
X127467891Y-93830670D01*
X127467894Y-93830673D01*
X127547806Y-93876811D01*
X127547807Y-93876811D01*
X127547812Y-93876814D01*
X127636956Y-93900700D01*
X127636958Y-93900700D01*
X127729242Y-93900700D01*
X127729244Y-93900700D01*
X127818388Y-93876814D01*
X127898312Y-93830669D01*
X127963569Y-93765412D01*
X128009714Y-93685488D01*
X128033600Y-93596344D01*
X128033600Y-93504056D01*
X128009714Y-93414912D01*
X128009711Y-93414906D01*
X127963573Y-93334994D01*
X127963570Y-93334991D01*
X127963569Y-93334988D01*
X127898312Y-93269731D01*
X127898309Y-93269729D01*
X127898305Y-93269726D01*
X127818393Y-93223588D01*
X127818390Y-93223587D01*
X127818389Y-93223586D01*
X127818388Y-93223586D01*
X127729244Y-93199700D01*
X127636956Y-93199700D01*
X127547812Y-93223586D01*
X127547811Y-93223586D01*
X127547809Y-93223587D01*
X127547806Y-93223588D01*
X127467894Y-93269726D01*
X127467885Y-93269733D01*
X127402633Y-93334985D01*
X127402626Y-93334994D01*
X127356488Y-93414906D01*
X127356487Y-93414909D01*
X127356486Y-93414911D01*
X127356486Y-93414912D01*
X127332600Y-93504056D01*
X120552519Y-93504056D01*
X120555500Y-93489070D01*
X120555500Y-93360927D01*
X120530502Y-93235260D01*
X120530501Y-93235259D01*
X120530501Y-93235255D01*
X120487074Y-93130414D01*
X120481466Y-93116874D01*
X120481461Y-93116865D01*
X120410276Y-93010330D01*
X120410273Y-93010326D01*
X120319672Y-92919725D01*
X120319668Y-92919722D01*
X120279826Y-92893100D01*
X120259846Y-92869193D01*
X120238394Y-92846608D01*
X120237631Y-92842610D01*
X120235021Y-92839487D01*
X120231138Y-92808577D01*
X120225301Y-92777976D01*
X120226821Y-92774199D01*
X120226314Y-92770162D01*
X120232297Y-92757656D01*
X128049200Y-92757656D01*
X128049200Y-92849944D01*
X128072069Y-92935293D01*
X128073087Y-92939090D01*
X128073088Y-92939093D01*
X128119226Y-93019005D01*
X128119229Y-93019009D01*
X128119231Y-93019012D01*
X128184488Y-93084269D01*
X128184491Y-93084270D01*
X128184494Y-93084273D01*
X128264406Y-93130411D01*
X128264407Y-93130411D01*
X128264412Y-93130414D01*
X128353556Y-93154300D01*
X128353558Y-93154300D01*
X128445842Y-93154300D01*
X128445844Y-93154300D01*
X128534988Y-93130414D01*
X128614912Y-93084269D01*
X128680169Y-93019012D01*
X128726314Y-92939088D01*
X128750200Y-92849944D01*
X128750200Y-92757656D01*
X128749182Y-92753856D01*
X135949500Y-92753856D01*
X135949500Y-92846144D01*
X135969215Y-92919723D01*
X135973387Y-92935290D01*
X135973388Y-92935293D01*
X136019526Y-93015205D01*
X136019529Y-93015209D01*
X136019531Y-93015212D01*
X136084788Y-93080469D01*
X136084791Y-93080470D01*
X136084794Y-93080473D01*
X136164706Y-93126611D01*
X136164707Y-93126611D01*
X136164712Y-93126614D01*
X136253856Y-93150500D01*
X136253858Y-93150500D01*
X136346142Y-93150500D01*
X136346144Y-93150500D01*
X136435288Y-93126614D01*
X136515212Y-93080469D01*
X136580469Y-93015212D01*
X136626614Y-92935288D01*
X136631146Y-92918371D01*
X136667509Y-92858712D01*
X136730355Y-92828181D01*
X136799731Y-92836475D01*
X136838602Y-92862783D01*
X136875788Y-92899969D01*
X136875791Y-92899970D01*
X136875794Y-92899973D01*
X136955706Y-92946111D01*
X136955707Y-92946111D01*
X136955712Y-92946114D01*
X137044856Y-92970000D01*
X137044858Y-92970000D01*
X137137142Y-92970000D01*
X137137144Y-92970000D01*
X137226288Y-92946114D01*
X137306212Y-92899969D01*
X137371469Y-92834712D01*
X137417614Y-92754788D01*
X137441500Y-92665644D01*
X137441500Y-92573356D01*
X137417614Y-92484212D01*
X137413559Y-92477188D01*
X137371473Y-92404294D01*
X137371470Y-92404291D01*
X137371469Y-92404288D01*
X137306212Y-92339031D01*
X137306209Y-92339029D01*
X137306205Y-92339026D01*
X137226293Y-92292888D01*
X137226290Y-92292887D01*
X137226289Y-92292886D01*
X137226288Y-92292886D01*
X137137144Y-92269000D01*
X137044856Y-92269000D01*
X136955712Y-92292886D01*
X136955711Y-92292886D01*
X136955709Y-92292887D01*
X136955708Y-92292887D01*
X136924778Y-92310745D01*
X136856877Y-92327218D01*
X136790851Y-92304365D01*
X136747660Y-92249444D01*
X136741019Y-92179890D01*
X136742995Y-92171297D01*
X136761900Y-92100744D01*
X136761900Y-92008456D01*
X136738014Y-91919312D01*
X136706779Y-91865212D01*
X136691873Y-91839394D01*
X136691870Y-91839391D01*
X136691869Y-91839388D01*
X136626612Y-91774131D01*
X136626609Y-91774129D01*
X136626605Y-91774126D01*
X136546693Y-91727988D01*
X136546690Y-91727987D01*
X136546689Y-91727986D01*
X136546688Y-91727986D01*
X136457544Y-91704100D01*
X136365256Y-91704100D01*
X136276112Y-91727986D01*
X136276111Y-91727986D01*
X136276109Y-91727987D01*
X136276106Y-91727988D01*
X136196194Y-91774126D01*
X136196185Y-91774133D01*
X136130933Y-91839385D01*
X136130926Y-91839394D01*
X136084788Y-91919306D01*
X136084787Y-91919309D01*
X136084786Y-91919311D01*
X136084786Y-91919312D01*
X136060900Y-92008456D01*
X136060900Y-92100744D01*
X136070291Y-92135793D01*
X136084787Y-92189890D01*
X136084788Y-92189893D01*
X136130926Y-92269805D01*
X136130933Y-92269814D01*
X136158088Y-92296969D01*
X136191573Y-92358292D01*
X136186589Y-92427984D01*
X136144717Y-92483917D01*
X136132409Y-92492036D01*
X136084791Y-92519529D01*
X136084785Y-92519533D01*
X136019533Y-92584785D01*
X136019526Y-92584794D01*
X135973388Y-92664706D01*
X135973387Y-92664709D01*
X135973386Y-92664711D01*
X135973386Y-92664712D01*
X135949500Y-92753856D01*
X128749182Y-92753856D01*
X128726314Y-92668512D01*
X128726311Y-92668506D01*
X128680173Y-92588594D01*
X128680170Y-92588591D01*
X128680169Y-92588588D01*
X128614912Y-92523331D01*
X128614909Y-92523329D01*
X128614905Y-92523326D01*
X128534993Y-92477188D01*
X128534990Y-92477187D01*
X128534989Y-92477186D01*
X128534988Y-92477186D01*
X128445844Y-92453300D01*
X128353556Y-92453300D01*
X128264412Y-92477186D01*
X128264411Y-92477186D01*
X128264409Y-92477187D01*
X128264406Y-92477188D01*
X128184494Y-92523326D01*
X128184485Y-92523333D01*
X128119233Y-92588585D01*
X128119226Y-92588594D01*
X128073088Y-92668506D01*
X128073087Y-92668509D01*
X128073086Y-92668511D01*
X128073086Y-92668512D01*
X128049200Y-92757656D01*
X120232297Y-92757656D01*
X120239756Y-92742065D01*
X120251392Y-92713161D01*
X120255323Y-92709529D01*
X120256469Y-92707135D01*
X120276982Y-92688854D01*
X120278389Y-92687855D01*
X120319670Y-92660273D01*
X120410277Y-92569666D01*
X120481466Y-92463124D01*
X120530502Y-92344741D01*
X120540005Y-92296969D01*
X120555501Y-92219068D01*
X120555501Y-92090925D01*
X120531431Y-91969921D01*
X120530503Y-91965257D01*
X120530502Y-91965255D01*
X120530502Y-91965253D01*
X120525781Y-91953856D01*
X125049500Y-91953856D01*
X125049500Y-92046144D01*
X125064129Y-92100741D01*
X125073387Y-92135290D01*
X125073388Y-92135293D01*
X125119526Y-92215205D01*
X125119529Y-92215209D01*
X125119531Y-92215212D01*
X125184788Y-92280469D01*
X125184791Y-92280470D01*
X125184794Y-92280473D01*
X125264706Y-92326611D01*
X125264707Y-92326611D01*
X125264712Y-92326614D01*
X125353856Y-92350500D01*
X125353858Y-92350500D01*
X125446142Y-92350500D01*
X125446144Y-92350500D01*
X125535288Y-92326614D01*
X125615212Y-92280469D01*
X125680469Y-92215212D01*
X125726614Y-92135288D01*
X125750500Y-92046144D01*
X125750500Y-91954356D01*
X126617600Y-91954356D01*
X126617600Y-92046644D01*
X126641353Y-92135293D01*
X126641487Y-92135790D01*
X126641488Y-92135793D01*
X126687626Y-92215705D01*
X126687629Y-92215709D01*
X126687631Y-92215712D01*
X126752888Y-92280969D01*
X126752891Y-92280970D01*
X126752894Y-92280973D01*
X126832806Y-92327111D01*
X126832807Y-92327111D01*
X126832812Y-92327114D01*
X126921956Y-92351000D01*
X126921958Y-92351000D01*
X127014242Y-92351000D01*
X127014244Y-92351000D01*
X127103388Y-92327114D01*
X127183312Y-92280969D01*
X127248569Y-92215712D01*
X127294714Y-92135788D01*
X127318600Y-92046644D01*
X127318600Y-91954356D01*
X127318466Y-91953856D01*
X132249500Y-91953856D01*
X132249500Y-92046144D01*
X132264129Y-92100741D01*
X132273387Y-92135290D01*
X132273388Y-92135293D01*
X132319526Y-92215205D01*
X132319529Y-92215209D01*
X132319531Y-92215212D01*
X132384788Y-92280469D01*
X132384791Y-92280470D01*
X132384794Y-92280473D01*
X132464706Y-92326611D01*
X132464707Y-92326611D01*
X132464712Y-92326614D01*
X132553856Y-92350500D01*
X132553858Y-92350500D01*
X132646142Y-92350500D01*
X132646144Y-92350500D01*
X132735288Y-92326614D01*
X132815212Y-92280469D01*
X132880469Y-92215212D01*
X132926614Y-92135288D01*
X132950500Y-92046144D01*
X132950500Y-91953856D01*
X132926614Y-91864712D01*
X132916309Y-91846863D01*
X132880473Y-91784794D01*
X132880470Y-91784791D01*
X132880469Y-91784788D01*
X132815212Y-91719531D01*
X132815209Y-91719529D01*
X132815205Y-91719526D01*
X132735293Y-91673388D01*
X132735290Y-91673387D01*
X132735289Y-91673386D01*
X132735288Y-91673386D01*
X132646144Y-91649500D01*
X132553856Y-91649500D01*
X132464712Y-91673386D01*
X132464711Y-91673386D01*
X132464709Y-91673387D01*
X132464706Y-91673388D01*
X132384794Y-91719526D01*
X132384785Y-91719533D01*
X132319533Y-91784785D01*
X132319526Y-91784794D01*
X132273388Y-91864706D01*
X132273387Y-91864709D01*
X132273386Y-91864711D01*
X132273386Y-91864712D01*
X132249500Y-91953856D01*
X127318466Y-91953856D01*
X127294714Y-91865212D01*
X127294711Y-91865206D01*
X127248573Y-91785294D01*
X127248570Y-91785291D01*
X127248569Y-91785288D01*
X127183312Y-91720031D01*
X127183309Y-91720029D01*
X127183305Y-91720026D01*
X127103393Y-91673888D01*
X127103390Y-91673887D01*
X127103389Y-91673886D01*
X127103388Y-91673886D01*
X127014244Y-91650000D01*
X126921956Y-91650000D01*
X126832812Y-91673886D01*
X126832811Y-91673886D01*
X126832809Y-91673887D01*
X126832806Y-91673888D01*
X126752894Y-91720026D01*
X126752885Y-91720033D01*
X126687633Y-91785285D01*
X126687626Y-91785294D01*
X126641488Y-91865206D01*
X126641487Y-91865209D01*
X126641486Y-91865211D01*
X126641486Y-91865212D01*
X126617600Y-91954356D01*
X125750500Y-91954356D01*
X125750500Y-91953856D01*
X125726614Y-91864712D01*
X125716309Y-91846863D01*
X125680473Y-91784794D01*
X125680470Y-91784791D01*
X125680469Y-91784788D01*
X125615212Y-91719531D01*
X125615209Y-91719529D01*
X125615205Y-91719526D01*
X125535293Y-91673388D01*
X125535290Y-91673387D01*
X125535289Y-91673386D01*
X125535288Y-91673386D01*
X125446144Y-91649500D01*
X125353856Y-91649500D01*
X125264712Y-91673386D01*
X125264711Y-91673386D01*
X125264709Y-91673387D01*
X125264706Y-91673388D01*
X125184794Y-91719526D01*
X125184785Y-91719533D01*
X125119533Y-91784785D01*
X125119526Y-91784794D01*
X125073388Y-91864706D01*
X125073387Y-91864709D01*
X125073386Y-91864711D01*
X125073386Y-91864712D01*
X125049500Y-91953856D01*
X120525781Y-91953856D01*
X120481466Y-91846870D01*
X120481465Y-91846869D01*
X120481462Y-91846863D01*
X120410277Y-91740328D01*
X120410274Y-91740324D01*
X120319673Y-91649723D01*
X120319669Y-91649720D01*
X120213134Y-91578535D01*
X120213125Y-91578530D01*
X120094745Y-91529496D01*
X120094739Y-91529494D01*
X119969072Y-91504497D01*
X119969070Y-91504497D01*
X119840932Y-91504497D01*
X119840930Y-91504497D01*
X119715262Y-91529494D01*
X119715256Y-91529496D01*
X119596876Y-91578530D01*
X119596867Y-91578535D01*
X119490332Y-91649720D01*
X119490328Y-91649723D01*
X119399727Y-91740324D01*
X119399724Y-91740328D01*
X119328539Y-91846863D01*
X119328534Y-91846872D01*
X119279500Y-91965252D01*
X119279498Y-91965258D01*
X119254501Y-92090925D01*
X119254501Y-92090928D01*
X119254501Y-92219066D01*
X119254501Y-92219068D01*
X119254500Y-92219068D01*
X119279498Y-92344735D01*
X119279500Y-92344741D01*
X119328534Y-92463121D01*
X119328539Y-92463130D01*
X119399724Y-92569665D01*
X119399727Y-92569669D01*
X119490328Y-92660270D01*
X119490332Y-92660273D01*
X119530174Y-92686895D01*
X119574979Y-92740507D01*
X119583686Y-92809832D01*
X119553531Y-92872860D01*
X119530176Y-92893098D01*
X119490329Y-92919723D01*
X119399726Y-93010326D01*
X119399723Y-93010330D01*
X119328538Y-93116865D01*
X119328533Y-93116874D01*
X119279499Y-93235254D01*
X119279497Y-93235260D01*
X119254500Y-93360927D01*
X119254500Y-93360930D01*
X119254500Y-93489068D01*
X119254500Y-93489070D01*
X119254499Y-93489070D01*
X117147506Y-93489070D01*
X117332590Y-93125822D01*
X117335671Y-93120149D01*
X117709726Y-92472266D01*
X117713075Y-92466801D01*
X118120539Y-91839360D01*
X118124169Y-91834079D01*
X118473072Y-91353856D01*
X131449500Y-91353856D01*
X131449500Y-91446143D01*
X131473387Y-91535290D01*
X131473388Y-91535293D01*
X131519526Y-91615205D01*
X131519529Y-91615209D01*
X131519531Y-91615212D01*
X131584788Y-91680469D01*
X131584791Y-91680470D01*
X131584794Y-91680473D01*
X131664706Y-91726611D01*
X131664707Y-91726611D01*
X131664712Y-91726614D01*
X131753856Y-91750500D01*
X131753858Y-91750500D01*
X131846142Y-91750500D01*
X131846144Y-91750500D01*
X131935288Y-91726614D01*
X132015212Y-91680469D01*
X132080469Y-91615212D01*
X132126614Y-91535288D01*
X132150500Y-91446144D01*
X132150500Y-91353856D01*
X132126614Y-91264712D01*
X132126611Y-91264706D01*
X132080473Y-91184794D01*
X132080470Y-91184791D01*
X132080469Y-91184788D01*
X132015212Y-91119531D01*
X132015209Y-91119529D01*
X132015205Y-91119526D01*
X131935293Y-91073388D01*
X131935290Y-91073387D01*
X131935289Y-91073386D01*
X131935288Y-91073386D01*
X131846144Y-91049500D01*
X131753856Y-91049500D01*
X131664712Y-91073386D01*
X131664711Y-91073386D01*
X131664709Y-91073387D01*
X131664706Y-91073388D01*
X131584794Y-91119526D01*
X131584785Y-91119533D01*
X131519533Y-91184785D01*
X131519526Y-91184794D01*
X131473388Y-91264706D01*
X131473387Y-91264709D01*
X131449500Y-91353856D01*
X118473072Y-91353856D01*
X118563917Y-91228818D01*
X118567818Y-91223735D01*
X119038618Y-90642345D01*
X119042828Y-90637417D01*
X119062828Y-90615205D01*
X119478228Y-90153856D01*
X126149500Y-90153856D01*
X126149500Y-90246144D01*
X126154475Y-90264712D01*
X126173387Y-90335290D01*
X126173388Y-90335293D01*
X126219526Y-90415205D01*
X126224478Y-90421658D01*
X126222549Y-90423137D01*
X126250127Y-90473663D01*
X126245130Y-90543354D01*
X126223250Y-90577400D01*
X126224478Y-90578342D01*
X126219526Y-90584794D01*
X126173388Y-90664706D01*
X126173387Y-90664709D01*
X126173386Y-90664711D01*
X126173386Y-90664712D01*
X126150400Y-90750499D01*
X126149500Y-90753856D01*
X126149500Y-90846143D01*
X126173387Y-90935290D01*
X126173388Y-90935293D01*
X126219526Y-91015205D01*
X126219529Y-91015209D01*
X126219531Y-91015212D01*
X126284788Y-91080469D01*
X126284791Y-91080470D01*
X126284794Y-91080473D01*
X126364706Y-91126611D01*
X126364707Y-91126611D01*
X126364712Y-91126614D01*
X126453856Y-91150500D01*
X126453858Y-91150500D01*
X126546142Y-91150500D01*
X126546144Y-91150500D01*
X126635288Y-91126614D01*
X126715212Y-91080469D01*
X126780469Y-91015212D01*
X126826614Y-90935288D01*
X126850500Y-90846144D01*
X126850500Y-90753856D01*
X126826614Y-90664712D01*
X126821195Y-90655326D01*
X126780473Y-90584794D01*
X126780470Y-90584791D01*
X126780469Y-90584788D01*
X126780466Y-90584785D01*
X126775522Y-90578342D01*
X126777453Y-90576860D01*
X126749877Y-90526358D01*
X126754861Y-90456666D01*
X126761299Y-90442274D01*
X126770056Y-90425624D01*
X126780469Y-90415212D01*
X126815894Y-90353856D01*
X131049500Y-90353856D01*
X131049500Y-90446144D01*
X131070993Y-90526358D01*
X131073387Y-90535290D01*
X131073388Y-90535293D01*
X131119526Y-90615205D01*
X131119529Y-90615209D01*
X131119531Y-90615212D01*
X131184788Y-90680469D01*
X131184791Y-90680470D01*
X131184794Y-90680473D01*
X131264706Y-90726611D01*
X131264707Y-90726611D01*
X131264712Y-90726614D01*
X131353856Y-90750500D01*
X131353858Y-90750500D01*
X131446142Y-90750500D01*
X131446144Y-90750500D01*
X131535288Y-90726614D01*
X131615212Y-90680469D01*
X131680469Y-90615212D01*
X131726614Y-90535288D01*
X131750500Y-90446144D01*
X131750500Y-90353856D01*
X131726614Y-90264712D01*
X131715892Y-90246141D01*
X131680473Y-90184794D01*
X131680470Y-90184791D01*
X131680469Y-90184788D01*
X131615212Y-90119531D01*
X131615209Y-90119529D01*
X131615205Y-90119526D01*
X131535293Y-90073388D01*
X131535290Y-90073387D01*
X131535289Y-90073386D01*
X131535288Y-90073386D01*
X131446144Y-90049500D01*
X131353856Y-90049500D01*
X131264712Y-90073386D01*
X131264711Y-90073386D01*
X131264709Y-90073387D01*
X131264706Y-90073388D01*
X131184794Y-90119526D01*
X131184785Y-90119533D01*
X131119533Y-90184785D01*
X131119526Y-90184794D01*
X131073388Y-90264706D01*
X131073387Y-90264709D01*
X131073386Y-90264711D01*
X131073386Y-90264712D01*
X131049500Y-90353856D01*
X126815894Y-90353856D01*
X126826614Y-90335288D01*
X126850500Y-90246144D01*
X126850500Y-90153856D01*
X126826614Y-90064712D01*
X126826611Y-90064706D01*
X126780473Y-89984794D01*
X126780470Y-89984791D01*
X126780469Y-89984788D01*
X126715212Y-89919531D01*
X126715209Y-89919529D01*
X126715205Y-89919526D01*
X126635293Y-89873388D01*
X126635290Y-89873387D01*
X126635289Y-89873386D01*
X126635288Y-89873386D01*
X126546144Y-89849500D01*
X126453856Y-89849500D01*
X126364712Y-89873386D01*
X126364711Y-89873386D01*
X126364709Y-89873387D01*
X126364706Y-89873388D01*
X126284794Y-89919526D01*
X126284785Y-89919533D01*
X126219533Y-89984785D01*
X126219526Y-89984794D01*
X126173388Y-90064706D01*
X126173387Y-90064709D01*
X126173386Y-90064711D01*
X126173386Y-90064712D01*
X126149500Y-90153856D01*
X119478228Y-90153856D01*
X119543394Y-90081482D01*
X119547826Y-90076812D01*
X120070782Y-89553856D01*
X137749500Y-89553856D01*
X137749500Y-89646143D01*
X137773387Y-89735290D01*
X137773388Y-89735293D01*
X137819526Y-89815205D01*
X137819529Y-89815209D01*
X137819531Y-89815212D01*
X137884788Y-89880469D01*
X137884791Y-89880470D01*
X137884794Y-89880473D01*
X137964706Y-89926611D01*
X137964707Y-89926611D01*
X137964712Y-89926614D01*
X138053856Y-89950500D01*
X138053858Y-89950500D01*
X138146142Y-89950500D01*
X138146144Y-89950500D01*
X138235288Y-89926614D01*
X138315212Y-89880469D01*
X138380469Y-89815212D01*
X138426614Y-89735288D01*
X138450500Y-89646144D01*
X138450500Y-89553856D01*
X138426614Y-89464712D01*
X138411389Y-89438342D01*
X138380473Y-89384794D01*
X138380470Y-89384791D01*
X138380469Y-89384788D01*
X138315212Y-89319531D01*
X138315209Y-89319529D01*
X138315205Y-89319526D01*
X138235293Y-89273388D01*
X138235290Y-89273387D01*
X138235289Y-89273386D01*
X138235288Y-89273386D01*
X138146144Y-89249500D01*
X138053856Y-89249500D01*
X137964712Y-89273386D01*
X137964711Y-89273386D01*
X137964709Y-89273387D01*
X137964706Y-89273388D01*
X137884794Y-89319526D01*
X137884785Y-89319533D01*
X137819533Y-89384785D01*
X137819526Y-89384794D01*
X137773388Y-89464706D01*
X137773387Y-89464709D01*
X137773386Y-89464711D01*
X137773386Y-89464712D01*
X137766289Y-89491199D01*
X137749500Y-89553856D01*
X120070782Y-89553856D01*
X120076812Y-89547826D01*
X120081482Y-89543394D01*
X120579967Y-89094556D01*
X123236500Y-89094556D01*
X123236500Y-89186844D01*
X123260255Y-89275500D01*
X123260387Y-89275990D01*
X123260388Y-89275993D01*
X123306526Y-89355905D01*
X123306529Y-89355909D01*
X123306531Y-89355912D01*
X123371788Y-89421169D01*
X123371791Y-89421170D01*
X123371794Y-89421173D01*
X123451706Y-89467311D01*
X123451707Y-89467311D01*
X123451712Y-89467314D01*
X123540856Y-89491200D01*
X123540858Y-89491200D01*
X123633142Y-89491200D01*
X123633144Y-89491200D01*
X123722288Y-89467314D01*
X123722292Y-89467312D01*
X123772466Y-89438343D01*
X123772465Y-89438343D01*
X123802212Y-89421169D01*
X123867469Y-89355912D01*
X123913614Y-89275988D01*
X123937500Y-89186844D01*
X123937500Y-89094556D01*
X123913614Y-89005412D01*
X123868118Y-88926612D01*
X123867471Y-88925491D01*
X123867466Y-88925485D01*
X123820837Y-88878856D01*
X134174500Y-88878856D01*
X134174500Y-88971144D01*
X134183681Y-89005409D01*
X134198387Y-89060290D01*
X134198388Y-89060293D01*
X134244526Y-89140205D01*
X134244529Y-89140209D01*
X134244531Y-89140212D01*
X134309788Y-89205469D01*
X134309791Y-89205470D01*
X134309794Y-89205473D01*
X134389706Y-89251611D01*
X134389707Y-89251611D01*
X134389712Y-89251614D01*
X134478856Y-89275500D01*
X134478858Y-89275500D01*
X134571142Y-89275500D01*
X134571144Y-89275500D01*
X134660288Y-89251614D01*
X134740212Y-89205469D01*
X134805469Y-89140212D01*
X134851614Y-89060288D01*
X134875500Y-88971144D01*
X134875500Y-88878856D01*
X134851614Y-88789712D01*
X134820192Y-88735288D01*
X134805473Y-88709794D01*
X134805470Y-88709791D01*
X134805469Y-88709788D01*
X134740212Y-88644531D01*
X134740211Y-88644530D01*
X134740209Y-88644529D01*
X134660293Y-88598388D01*
X134660290Y-88598387D01*
X134660289Y-88598386D01*
X134660288Y-88598386D01*
X134571144Y-88574500D01*
X134478856Y-88574500D01*
X134389712Y-88598386D01*
X134389711Y-88598386D01*
X134389709Y-88598387D01*
X134389706Y-88598388D01*
X134309794Y-88644526D01*
X134309785Y-88644533D01*
X134244533Y-88709785D01*
X134244526Y-88709794D01*
X134198388Y-88789706D01*
X134198387Y-88789709D01*
X134198386Y-88789711D01*
X134198386Y-88789712D01*
X134174500Y-88878856D01*
X123820837Y-88878856D01*
X123802214Y-88860233D01*
X123802212Y-88860231D01*
X123802209Y-88860229D01*
X123802205Y-88860226D01*
X123722293Y-88814088D01*
X123722290Y-88814087D01*
X123722289Y-88814086D01*
X123722288Y-88814086D01*
X123633144Y-88790200D01*
X123540856Y-88790200D01*
X123451712Y-88814086D01*
X123451711Y-88814086D01*
X123451709Y-88814087D01*
X123451706Y-88814088D01*
X123371794Y-88860226D01*
X123371785Y-88860233D01*
X123306533Y-88925485D01*
X123306526Y-88925494D01*
X123260388Y-89005406D01*
X123260387Y-89005409D01*
X123260386Y-89005411D01*
X123260386Y-89005412D01*
X123236500Y-89094556D01*
X120579967Y-89094556D01*
X120637425Y-89042821D01*
X120642353Y-89038612D01*
X120683353Y-89005411D01*
X121223735Y-88567818D01*
X121228837Y-88563904D01*
X121834079Y-88124169D01*
X121839360Y-88120539D01*
X122330838Y-87801370D01*
X126628499Y-87801370D01*
X126660637Y-87962934D01*
X126660639Y-87962940D01*
X126723679Y-88115133D01*
X126723684Y-88115142D01*
X126815203Y-88252109D01*
X126815206Y-88252113D01*
X126931686Y-88368593D01*
X126931690Y-88368596D01*
X127068657Y-88460115D01*
X127068666Y-88460120D01*
X127076884Y-88463524D01*
X127220860Y-88523161D01*
X127220864Y-88523161D01*
X127220865Y-88523162D01*
X127382429Y-88555300D01*
X127382432Y-88555300D01*
X127547170Y-88555300D01*
X127655868Y-88533677D01*
X127708740Y-88523161D01*
X127860936Y-88460119D01*
X127997910Y-88368596D01*
X128114396Y-88252110D01*
X128205919Y-88115136D01*
X128268961Y-87962940D01*
X128301100Y-87801368D01*
X128301100Y-87801367D01*
X129168495Y-87801367D01*
X129200633Y-87962931D01*
X129200635Y-87962937D01*
X129263675Y-88115130D01*
X129263680Y-88115139D01*
X129355199Y-88252106D01*
X129355202Y-88252110D01*
X129471682Y-88368590D01*
X129471686Y-88368593D01*
X129608653Y-88460112D01*
X129608662Y-88460117D01*
X129643139Y-88474397D01*
X129760856Y-88523158D01*
X129760860Y-88523158D01*
X129760861Y-88523159D01*
X129922425Y-88555297D01*
X129922428Y-88555297D01*
X130087166Y-88555297D01*
X130195864Y-88533674D01*
X130248736Y-88523158D01*
X130400932Y-88460116D01*
X130461536Y-88419622D01*
X131708499Y-88419622D01*
X131717231Y-88463517D01*
X131717232Y-88463521D01*
X131717233Y-88463522D01*
X131750496Y-88513304D01*
X131800278Y-88546567D01*
X131800281Y-88546567D01*
X131800282Y-88546568D01*
X131844177Y-88555300D01*
X131844180Y-88555300D01*
X133245422Y-88555300D01*
X133252681Y-88553856D01*
X137349500Y-88553856D01*
X137349500Y-88646144D01*
X137366553Y-88709788D01*
X137373387Y-88735290D01*
X137373388Y-88735293D01*
X137419526Y-88815205D01*
X137419529Y-88815209D01*
X137419531Y-88815212D01*
X137484788Y-88880469D01*
X137484791Y-88880470D01*
X137484794Y-88880473D01*
X137564706Y-88926611D01*
X137564707Y-88926611D01*
X137564712Y-88926614D01*
X137653856Y-88950500D01*
X137653858Y-88950500D01*
X137746142Y-88950500D01*
X137746144Y-88950500D01*
X137835288Y-88926614D01*
X137915212Y-88880469D01*
X137980469Y-88815212D01*
X138026614Y-88735288D01*
X138050500Y-88646144D01*
X138050500Y-88553856D01*
X138026614Y-88464712D01*
X138026611Y-88464706D01*
X137980473Y-88384794D01*
X137980470Y-88384791D01*
X137980469Y-88384788D01*
X137915212Y-88319531D01*
X137915209Y-88319529D01*
X137915205Y-88319526D01*
X137835293Y-88273388D01*
X137835290Y-88273387D01*
X137835289Y-88273386D01*
X137835288Y-88273386D01*
X137746144Y-88249500D01*
X137653856Y-88249500D01*
X137564712Y-88273386D01*
X137564711Y-88273386D01*
X137564709Y-88273387D01*
X137564706Y-88273388D01*
X137484794Y-88319526D01*
X137484785Y-88319533D01*
X137419533Y-88384785D01*
X137419526Y-88384794D01*
X137373388Y-88464706D01*
X137373387Y-88464709D01*
X137373386Y-88464711D01*
X137373386Y-88464712D01*
X137349500Y-88553856D01*
X133252681Y-88553856D01*
X133289317Y-88546568D01*
X133289317Y-88546567D01*
X133289322Y-88546567D01*
X133339104Y-88513304D01*
X133372367Y-88463522D01*
X133381100Y-88419620D01*
X133381100Y-87018380D01*
X133381100Y-87018377D01*
X133372368Y-86974482D01*
X133372367Y-86974481D01*
X133372367Y-86974478D01*
X133339104Y-86924696D01*
X133324349Y-86914837D01*
X133289324Y-86891434D01*
X133289317Y-86891431D01*
X133245422Y-86882700D01*
X133245420Y-86882700D01*
X131844180Y-86882700D01*
X131844178Y-86882700D01*
X131800282Y-86891431D01*
X131800275Y-86891434D01*
X131750496Y-86924695D01*
X131750495Y-86924696D01*
X131717234Y-86974475D01*
X131717231Y-86974482D01*
X131708500Y-87018377D01*
X131708500Y-87018380D01*
X131708500Y-88419620D01*
X131708500Y-88419622D01*
X131708499Y-88419622D01*
X130461536Y-88419622D01*
X130537906Y-88368593D01*
X130654392Y-88252107D01*
X130745915Y-88115133D01*
X130808957Y-87962937D01*
X130841095Y-87801370D01*
X130841096Y-87801367D01*
X130841096Y-87636626D01*
X130808958Y-87475062D01*
X130808957Y-87475061D01*
X130808957Y-87475057D01*
X130745915Y-87322861D01*
X130745914Y-87322860D01*
X130745911Y-87322854D01*
X130654392Y-87185887D01*
X130654389Y-87185883D01*
X130537909Y-87069403D01*
X130537905Y-87069400D01*
X130400938Y-86977881D01*
X130400929Y-86977876D01*
X130248736Y-86914836D01*
X130248730Y-86914834D01*
X130087166Y-86882697D01*
X130087164Y-86882697D01*
X129922428Y-86882697D01*
X129922426Y-86882697D01*
X129760861Y-86914834D01*
X129760855Y-86914836D01*
X129608662Y-86977876D01*
X129608653Y-86977881D01*
X129471686Y-87069400D01*
X129471682Y-87069403D01*
X129355202Y-87185883D01*
X129355199Y-87185887D01*
X129263680Y-87322854D01*
X129263675Y-87322863D01*
X129200635Y-87475056D01*
X129200633Y-87475062D01*
X129168496Y-87636626D01*
X129168496Y-87636628D01*
X129168496Y-87636629D01*
X129168496Y-87801365D01*
X129168496Y-87801367D01*
X129168495Y-87801367D01*
X128301100Y-87801367D01*
X128301100Y-87636632D01*
X128268961Y-87475060D01*
X128209944Y-87332582D01*
X128205920Y-87322866D01*
X128205915Y-87322857D01*
X128114396Y-87185890D01*
X128114393Y-87185886D01*
X127997913Y-87069406D01*
X127997909Y-87069403D01*
X127860942Y-86977884D01*
X127860933Y-86977879D01*
X127708740Y-86914839D01*
X127708734Y-86914837D01*
X127547170Y-86882700D01*
X127547168Y-86882700D01*
X127382432Y-86882700D01*
X127382430Y-86882700D01*
X127220865Y-86914837D01*
X127220859Y-86914839D01*
X127068666Y-86977879D01*
X127068657Y-86977884D01*
X126931690Y-87069403D01*
X126931686Y-87069406D01*
X126815206Y-87185886D01*
X126815203Y-87185890D01*
X126723684Y-87322857D01*
X126723679Y-87322866D01*
X126660639Y-87475059D01*
X126660637Y-87475065D01*
X126628500Y-87636629D01*
X126628500Y-87636631D01*
X126628500Y-87636632D01*
X126628500Y-87801368D01*
X126628500Y-87801370D01*
X126628499Y-87801370D01*
X122330838Y-87801370D01*
X122466801Y-87713075D01*
X122472266Y-87709726D01*
X123120149Y-87335671D01*
X123125822Y-87332590D01*
X123792400Y-86992951D01*
X123798196Y-86990187D01*
X124481628Y-86685903D01*
X124487591Y-86683433D01*
X125186005Y-86415337D01*
X125192077Y-86413187D01*
X125903556Y-86182013D01*
X125909738Y-86180182D01*
X126632365Y-85986554D01*
X126638635Y-85985050D01*
X127370357Y-85829518D01*
X127376738Y-85828336D01*
X128115609Y-85711310D01*
X128121975Y-85710471D01*
X128866011Y-85632270D01*
X128872430Y-85631765D01*
X129619481Y-85592613D01*
X129625971Y-85592444D01*
X130374029Y-85592444D01*
X130380518Y-85592613D01*
G37*
%TD.AperFunction*%
%TD*%
M02*
