%TF.GenerationSoftware,KiCad,Pcbnew,9.0.2*%
%TF.CreationDate,2025-11-09T00:07:38+05:30*%
%TF.ProjectId,Nade,4e616465-2e6b-4696-9361-645f70636258,rev?*%
%TF.SameCoordinates,Original*%
%TF.FileFunction,Copper,L2,Bot*%
%TF.FilePolarity,Positive*%
%FSLAX46Y46*%
G04 Gerber Fmt 4.6, Leading zero omitted, Abs format (unit mm)*
G04 Created by KiCad (PCBNEW 9.0.2) date 2025-11-09 00:07:38*
%MOMM*%
%LPD*%
G01*
G04 APERTURE LIST*
G04 Aperture macros list*
%AMRoundRect*
0 Rectangle with rounded corners*
0 $1 Rounding radius*
0 $2 $3 $4 $5 $6 $7 $8 $9 X,Y pos of 4 corners*
0 Add a 4 corners polygon primitive as box body*
4,1,4,$2,$3,$4,$5,$6,$7,$8,$9,$2,$3,0*
0 Add four circle primitives for the rounded corners*
1,1,$1+$1,$2,$3*
1,1,$1+$1,$4,$5*
1,1,$1+$1,$6,$7*
1,1,$1+$1,$8,$9*
0 Add four rect primitives between the rounded corners*
20,1,$1+$1,$2,$3,$4,$5,0*
20,1,$1+$1,$4,$5,$6,$7,0*
20,1,$1+$1,$6,$7,$8,$9,0*
20,1,$1+$1,$8,$9,$2,$3,0*%
%AMRotRect*
0 Rectangle, with rotation*
0 The origin of the aperture is its center*
0 $1 length*
0 $2 width*
0 $3 Rotation angle, in degrees counterclockwise*
0 Add horizontal line*
21,1,$1,$2,0,0,$3*%
G04 Aperture macros list end*
%TA.AperFunction,ComponentPad*%
%ADD10R,1.700000X1.700000*%
%TD*%
%TA.AperFunction,ComponentPad*%
%ADD11C,1.700000*%
%TD*%
%TA.AperFunction,ComponentPad*%
%ADD12C,3.400000*%
%TD*%
%TA.AperFunction,ComponentPad*%
%ADD13RotRect,1.371600X1.371600X330.000000*%
%TD*%
%TA.AperFunction,ComponentPad*%
%ADD14C,1.371600*%
%TD*%
%TA.AperFunction,ComponentPad*%
%ADD15R,1.498000X1.498000*%
%TD*%
%TA.AperFunction,ComponentPad*%
%ADD16C,1.498000*%
%TD*%
%TA.AperFunction,ComponentPad*%
%ADD17C,1.280000*%
%TD*%
%TA.AperFunction,SMDPad,CuDef*%
%ADD18RoundRect,0.100000X0.130000X0.100000X-0.130000X0.100000X-0.130000X-0.100000X0.130000X-0.100000X0*%
%TD*%
%TA.AperFunction,SMDPad,CuDef*%
%ADD19RoundRect,0.100000X0.100000X-0.130000X0.100000X0.130000X-0.100000X0.130000X-0.100000X-0.130000X0*%
%TD*%
%TA.AperFunction,SMDPad,CuDef*%
%ADD20R,0.762000X0.254000*%
%TD*%
%TA.AperFunction,SMDPad,CuDef*%
%ADD21R,0.254000X0.762000*%
%TD*%
%TA.AperFunction,SMDPad,CuDef*%
%ADD22R,3.708400X3.708400*%
%TD*%
%TA.AperFunction,ViaPad*%
%ADD23C,0.400000*%
%TD*%
%TA.AperFunction,Conductor*%
%ADD24C,0.100000*%
%TD*%
%TA.AperFunction,Conductor*%
%ADD25C,0.200000*%
%TD*%
G04 APERTURE END LIST*
D10*
%TO.P,J7,1,Pin_1*%
%TO.N,Net-(J7-Pin_1)*%
X108195000Y-95521410D03*
D11*
%TO.P,J7,2,Pin_2*%
%TO.N,Net-(J7-Pin_2)*%
X108195000Y-98061410D03*
%TO.P,J7,3,Pin_3*%
%TO.N,Net-(J7-Pin_3)*%
X108195000Y-100601410D03*
%TO.P,J7,4,Pin_4*%
%TO.N,Net-(J7-Pin_4)*%
X108195000Y-103141410D03*
%TO.P,J7,5,Pin_5*%
%TO.N,Net-(J7-Pin_5)*%
X108195000Y-105681410D03*
%TO.P,J7,6,Pin_6*%
%TO.N,Net-(J7-Pin_6)*%
X108195000Y-108221410D03*
%TD*%
D12*
%TO.P,TP5,1,1*%
%TO.N,GND*%
X145907115Y-117825000D03*
%TD*%
%TO.P,TP4,1,1*%
%TO.N,/PA11*%
X139025000Y-126375000D03*
%TD*%
%TO.P,TP3,1,1*%
%TO.N,Net-(U1-OUT)*%
X132225000Y-126725000D03*
%TD*%
%TO.P,TP2,1,1*%
%TO.N,VDD*%
X138325000Y-86475000D03*
%TD*%
%TO.P,TP1,1,1*%
%TO.N,Net-(SW2-A)*%
X116125000Y-112025000D03*
%TD*%
D13*
%TO.P,SW2,1,A*%
%TO.N,Net-(SW2-A)*%
X118060857Y-118527911D03*
D14*
%TO.P,SW2,2,B*%
%TO.N,Net-(J4-Pin_1)*%
X116790857Y-120727616D03*
%TO.P,SW2,3,C*%
%TO.N,unconnected-(SW2-C-Pad3)*%
X115520857Y-122927320D03*
%TD*%
D15*
%TO.P,SW1,1*%
%TO.N,GND*%
X116695000Y-102485000D03*
D16*
%TO.P,SW1,2*%
X116695000Y-95985000D03*
%TO.P,SW1,3*%
%TO.N,RESET'*%
X121195000Y-102485000D03*
%TO.P,SW1,4*%
X121195000Y-95985000D03*
%TD*%
D10*
%TO.P,J2,1,Pin_1*%
%TO.N,Net-(J2-Pin_1)*%
X116125000Y-107575000D03*
D11*
%TO.P,J2,2,Pin_2*%
%TO.N,Net-(J2-Pin_2)*%
X118665000Y-107575000D03*
%TO.P,J2,3,Pin_3*%
%TO.N,Net-(J2-Pin_3)*%
X121205000Y-107575000D03*
%TD*%
D17*
%TO.P,LS1,1*%
%TO.N,GND*%
X131774999Y-76825000D03*
%TO.P,LS1,2*%
%TO.N,Net-(Q1-S)*%
X131775001Y-81825000D03*
%TD*%
D10*
%TO.P,J6,1,Pin_1*%
%TO.N,GND*%
X157125000Y-112375000D03*
D11*
%TO.P,J6,2,Pin_2*%
%TO.N,Net-(J6-Pin_2)*%
X154584996Y-112374999D03*
%TD*%
D18*
%TO.P,R17,1*%
%TO.N,/PC1*%
X129513826Y-101148852D03*
%TO.P,R17,2*%
%TO.N,VDD*%
X128873826Y-101148852D03*
%TD*%
D19*
%TO.P,R16,1*%
%TO.N,/PC0*%
X132143825Y-99068853D03*
%TO.P,R16,2*%
%TO.N,VDD*%
X132143825Y-98428853D03*
%TD*%
D20*
%TO.P,U3,1,GND*%
%TO.N,GND*%
X135864200Y-101075501D03*
%TO.P,U3,2,RESERVED*%
%TO.N,unconnected-(U3-RESERVED-Pad2)*%
X135864200Y-101575500D03*
%TO.P,U3,3,GND*%
%TO.N,GND*%
X135864200Y-102075499D03*
%TO.P,U3,4,GND*%
X135864200Y-102575500D03*
%TO.P,U3,5,VS*%
%TO.N,VDD*%
X135864200Y-103075500D03*
%TO.P,U3,6,\u002ACS*%
X135864200Y-103575501D03*
%TO.P,U3,7,RESERVED*%
%TO.N,unconnected-(U3-RESERVED-Pad7)*%
X135864200Y-104075500D03*
%TO.P,U3,8,NC*%
%TO.N,unconnected-(U3-NC-Pad8)*%
X135864200Y-104575499D03*
D21*
%TO.P,U3,9,NC*%
%TO.N,unconnected-(U3-NC-Pad9)*%
X135137699Y-105302000D03*
%TO.P,U3,10,NC*%
%TO.N,unconnected-(U3-NC-Pad10)*%
X134637700Y-105302000D03*
%TO.P,U3,11,NC*%
%TO.N,unconnected-(U3-NC-Pad11)*%
X134137701Y-105302000D03*
%TO.P,U3,12,NC*%
%TO.N,unconnected-(U3-NC-Pad12)*%
X133637700Y-105302000D03*
%TO.P,U3,13,NC*%
%TO.N,unconnected-(U3-NC-Pad13)*%
X133137700Y-105302000D03*
%TO.P,U3,14,NC*%
%TO.N,unconnected-(U3-NC-Pad14)*%
X132637699Y-105302000D03*
%TO.P,U3,15,NC*%
%TO.N,unconnected-(U3-NC-Pad15)*%
X132137700Y-105302000D03*
%TO.P,U3,16,NC*%
%TO.N,unconnected-(U3-NC-Pad16)*%
X131637701Y-105302000D03*
D20*
%TO.P,U3,17,NC*%
%TO.N,unconnected-(U3-NC-Pad17)*%
X130911200Y-104575499D03*
%TO.P,U3,18,NC*%
%TO.N,unconnected-(U3-NC-Pad18)*%
X130911200Y-104075500D03*
%TO.P,U3,19,NC*%
%TO.N,unconnected-(U3-NC-Pad19)*%
X130911200Y-103575501D03*
%TO.P,U3,20,INT1*%
%TO.N,unconnected-(U3-INT1-Pad20)*%
X130911200Y-103075500D03*
%TO.P,U3,21,INT2*%
%TO.N,unconnected-(U3-INT2-Pad21)*%
X130911200Y-102575500D03*
%TO.P,U3,22,RESERVED*%
%TO.N,unconnected-(U3-RESERVED-Pad22)*%
X130911200Y-102075499D03*
%TO.P,U3,23,SDO/ALT_ADDRESS*%
%TO.N,GND*%
X130911200Y-101575500D03*
%TO.P,U3,24,SDA/SDI/SDIO*%
%TO.N,/PC1*%
X130911200Y-101075501D03*
D21*
%TO.P,U3,25,NC*%
%TO.N,unconnected-(U3-NC-Pad25)*%
X131637701Y-100349000D03*
%TO.P,U3,26,SCL/SCLK*%
%TO.N,/PC0*%
X132137700Y-100349000D03*
%TO.P,U3,27,NC*%
%TO.N,unconnected-(U3-NC-Pad27)*%
X132637699Y-100349000D03*
%TO.P,U3,28,NC*%
%TO.N,unconnected-(U3-NC-Pad28)*%
X133137700Y-100349000D03*
%TO.P,U3,29,NC*%
%TO.N,unconnected-(U3-NC-Pad29)*%
X133637700Y-100349000D03*
%TO.P,U3,30,NC*%
%TO.N,unconnected-(U3-NC-Pad30)*%
X134137701Y-100349000D03*
%TO.P,U3,31,VDD_I/O*%
%TO.N,VDD*%
X134637700Y-100349000D03*
%TO.P,U3,32,NC*%
%TO.N,unconnected-(U3-NC-Pad32)*%
X135137699Y-100349000D03*
D22*
%TO.P,U3,33,GND*%
%TO.N,GND*%
X133387700Y-102825500D03*
%TD*%
D23*
%TO.N,GND*%
X115000000Y-81900000D03*
X108600000Y-89900000D03*
X110900000Y-91800000D03*
X113300000Y-93900000D03*
X111500000Y-95600000D03*
X113500000Y-98100000D03*
X111400000Y-107600000D03*
X111700000Y-109500000D03*
X123900000Y-107400000D03*
%TO.N,Net-(J7-Pin_6)*%
X113700000Y-106100000D03*
X119200000Y-106100015D03*
%TO.N,Net-(J7-Pin_5)*%
X113700000Y-105600000D03*
X119200000Y-105600012D03*
%TO.N,Net-(J7-Pin_4)*%
X113700000Y-105100000D03*
X119200000Y-105100009D03*
%TO.N,Net-(J7-Pin_3)*%
X119200000Y-104600006D03*
X113700000Y-104600000D03*
%TO.N,Net-(J7-Pin_2)*%
X113700000Y-104100000D03*
X119200000Y-104100003D03*
%TO.N,Net-(J7-Pin_1)*%
X119200000Y-103600000D03*
X118365000Y-103600000D03*
%TO.N,GND*%
X148200000Y-121400000D03*
X143100000Y-120200000D03*
X142900000Y-117200000D03*
X148300000Y-115400000D03*
X145500000Y-114400000D03*
X143200000Y-114400000D03*
X119000000Y-88100000D03*
X123700000Y-94400000D03*
X149100000Y-110100000D03*
X147800000Y-110800000D03*
X147000000Y-112100000D03*
X124700000Y-111500000D03*
X126100000Y-110300000D03*
X136700000Y-107200000D03*
X139000000Y-107200000D03*
X139300000Y-99200000D03*
X137800000Y-98100000D03*
X135500000Y-98500000D03*
X133600000Y-97700000D03*
X129900000Y-97900000D03*
X126900000Y-97900000D03*
X127200000Y-100700000D03*
X127800000Y-103800000D03*
X129500000Y-104200000D03*
X130000000Y-107000000D03*
X160000000Y-109700000D03*
X156500000Y-108900000D03*
X158900000Y-107700000D03*
X160300000Y-105400000D03*
X161400000Y-102600000D03*
X160000000Y-102100000D03*
X158700000Y-100300000D03*
X159700000Y-98000000D03*
X159900000Y-95000000D03*
X155800000Y-88200000D03*
X140800000Y-75000000D03*
X139700000Y-78400000D03*
X140000000Y-83000000D03*
X142500000Y-88300000D03*
X139400000Y-92200000D03*
X137500000Y-91600000D03*
X137200000Y-90400000D03*
X134700000Y-92000000D03*
X139800000Y-89600000D03*
X146500000Y-88400000D03*
X149100000Y-88500000D03*
X151400000Y-87600000D03*
X152200000Y-85700000D03*
X150900000Y-83700000D03*
X145400000Y-82700000D03*
X143900000Y-79100000D03*
X146500000Y-79900000D03*
X148400000Y-84600000D03*
X144300000Y-85900000D03*
X142800000Y-81700000D03*
X141800000Y-80400000D03*
X134700000Y-75200000D03*
X135200000Y-76000000D03*
X135800000Y-79700000D03*
X132900000Y-79800000D03*
X129200000Y-79100000D03*
X129700000Y-73900000D03*
X128500000Y-77400000D03*
X126800000Y-80700000D03*
X122700000Y-84500000D03*
X124100000Y-82100000D03*
X125000000Y-77700000D03*
X121500000Y-79200000D03*
X118700000Y-94100000D03*
X119700000Y-90900000D03*
X113300000Y-89400000D03*
X115000000Y-88400000D03*
X116000000Y-86100000D03*
X113100000Y-86300000D03*
X115900000Y-91900000D03*
X120100000Y-85300000D03*
X120000000Y-82100000D03*
X110100000Y-86900000D03*
X115900000Y-99600000D03*
X118500000Y-100100000D03*
X121100000Y-112000000D03*
X120300000Y-111600000D03*
X112500000Y-112900000D03*
X110700000Y-115400000D03*
X112200000Y-115100000D03*
X109000000Y-113800000D03*
X110100000Y-117600000D03*
X115700000Y-117300000D03*
X112700000Y-117200000D03*
X113700000Y-117400000D03*
X113900000Y-119200000D03*
X113200000Y-121700000D03*
X125600000Y-116500000D03*
X128100000Y-116400000D03*
X127900000Y-117500000D03*
X128100000Y-118800000D03*
X127700000Y-120400000D03*
X129400000Y-128500000D03*
X126700000Y-125500000D03*
X125900000Y-126500000D03*
X125300000Y-128100000D03*
X127400000Y-129400000D03*
X130600000Y-129900000D03*
X133200000Y-130200000D03*
X134900000Y-127600000D03*
X135300000Y-124000000D03*
X135600000Y-125800000D03*
X136100000Y-129900000D03*
X136600000Y-130100000D03*
X138200000Y-129700000D03*
X153400000Y-121000000D03*
X142600000Y-128300000D03*
X143900000Y-127900000D03*
X147100000Y-125900000D03*
X143900000Y-125300000D03*
X143200000Y-122400000D03*
X145300000Y-122900000D03*
X149800000Y-122500000D03*
X150600000Y-120400000D03*
X150000000Y-124400000D03*
X151800000Y-122600000D03*
X146500000Y-123900000D03*
X148500000Y-123400000D03*
X155600000Y-116300000D03*
X153600000Y-118000000D03*
X152800000Y-116800000D03*
X156100000Y-115100000D03*
X157200000Y-116600000D03*
X154700000Y-119300000D03*
X151900000Y-119800000D03*
X149700000Y-117900000D03*
%TO.N,/PA11*%
X129300000Y-113400000D03*
%TO.N,GND*%
X126000000Y-113300000D03*
X127100000Y-113300000D03*
X124800000Y-113500000D03*
X130200000Y-113000000D03*
X129200000Y-114300000D03*
X128300000Y-115000000D03*
X126300000Y-115100000D03*
X124800000Y-115100000D03*
X123800000Y-114900000D03*
X123600000Y-114000000D03*
X119900000Y-119300000D03*
X119000000Y-119300000D03*
X118900000Y-120100000D03*
X119600000Y-120800000D03*
X121900000Y-123100000D03*
X122100000Y-122200000D03*
X124500000Y-122300000D03*
X123700000Y-121900000D03*
X122800000Y-121300000D03*
%TO.N,VDD*%
X135200000Y-113900000D03*
X132200000Y-111900000D03*
X135400000Y-112300000D03*
X135100000Y-90000000D03*
X137900000Y-104100000D03*
X133200000Y-108500000D03*
%TO.N,GND*%
X121900000Y-114000000D03*
X127400000Y-92500000D03*
X142900000Y-94000000D03*
X143800000Y-101600000D03*
X126900000Y-93300000D03*
X146400000Y-105400000D03*
X150900000Y-101500000D03*
X142700000Y-98800000D03*
X141700000Y-103300000D03*
X150900000Y-99700000D03*
X152600000Y-92000000D03*
X148200000Y-105400000D03*
X151000000Y-93500000D03*
X146300000Y-93600000D03*
X131000000Y-89600000D03*
X153100000Y-104900000D03*
X149900000Y-93600000D03*
X141600000Y-91600000D03*
X141100000Y-93800000D03*
X150000000Y-105300000D03*
X146600000Y-104200000D03*
X142600000Y-91000000D03*
X121600000Y-118200000D03*
X143400000Y-102900000D03*
X142000000Y-97900000D03*
X142700000Y-102200000D03*
X120300000Y-117200000D03*
X143700000Y-96100000D03*
X146400000Y-99600000D03*
X143700000Y-92000000D03*
X130600000Y-88800000D03*
X145800000Y-106300000D03*
X128100000Y-89100000D03*
X126000000Y-92700000D03*
X127800000Y-89800000D03*
X144700000Y-102500000D03*
X152000000Y-106500000D03*
X145600000Y-101700000D03*
X144600000Y-95200000D03*
X153300000Y-94500000D03*
X146400000Y-94800000D03*
X122500000Y-114800000D03*
X145300000Y-91900000D03*
X146400000Y-101000000D03*
X127900000Y-93200000D03*
X152200000Y-94500000D03*
X146400000Y-102200000D03*
X148500000Y-91900000D03*
X147200000Y-106400000D03*
X146900000Y-91900000D03*
X143700000Y-94500000D03*
X144500000Y-100700000D03*
X120300000Y-116400000D03*
X152000000Y-107600000D03*
X120300000Y-118100000D03*
X128500000Y-92600000D03*
X144500000Y-93600000D03*
X129100000Y-90000000D03*
X146400000Y-96400000D03*
X122200000Y-117400000D03*
X151500000Y-91200000D03*
X149000000Y-106900000D03*
X144100000Y-103600000D03*
X141200000Y-95000000D03*
X142900000Y-97000000D03*
X142900000Y-95300000D03*
X150500000Y-108100000D03*
X141200000Y-92700000D03*
X142000000Y-101600000D03*
X147800000Y-93500000D03*
X121000000Y-118800000D03*
X151400000Y-105300000D03*
X142900000Y-92800000D03*
X122200000Y-116100000D03*
X144900000Y-105400000D03*
X142600000Y-100300000D03*
X143700000Y-99800000D03*
X130100000Y-89800000D03*
X130000000Y-90900000D03*
X150400000Y-91900000D03*
X146400000Y-98000000D03*
X128400000Y-88400000D03*
X151400000Y-108900000D03*
%TO.N,RESET'*%
X139600000Y-121000000D03*
%TO.N,/PC1*%
X130900000Y-100400000D03*
%TO.N,Net-(SW2-A)*%
X122533327Y-113400000D03*
X123533327Y-113400000D03*
%TO.N,/PB2*%
X121300000Y-122000000D03*
X127600000Y-111500000D03*
%TO.N,/PC0*%
X133000000Y-99100000D03*
%TO.N,/PA3*%
X154247593Y-102800000D03*
X152900000Y-102800000D03*
%TO.N,PA12*%
X129200000Y-116074000D03*
X129200000Y-115074000D03*
%TO.N,Net-(J2-Pin_2)*%
X122500000Y-98700000D03*
X123767108Y-97850000D03*
%TD*%
D24*
%TO.N,Net-(J7-Pin_6)*%
X119200000Y-106100015D02*
X119199985Y-106100000D01*
X119199985Y-106100000D02*
X113700000Y-106100000D01*
%TO.N,Net-(J7-Pin_5)*%
X119200000Y-105600012D02*
X113700012Y-105600012D01*
X113700012Y-105600012D02*
X113700000Y-105600000D01*
%TO.N,Net-(J7-Pin_4)*%
X113700009Y-105100009D02*
X113700000Y-105100000D01*
X119200000Y-105100009D02*
X113700009Y-105100009D01*
%TO.N,Net-(J7-Pin_3)*%
X119200000Y-104600006D02*
X113700006Y-104600006D01*
X113700006Y-104600006D02*
X113700000Y-104600000D01*
%TO.N,Net-(J7-Pin_2)*%
X113700000Y-104100000D02*
X118365000Y-104100000D01*
X118365000Y-104100000D02*
X118365003Y-104100003D01*
X118365003Y-104100003D02*
X119200000Y-104100003D01*
%TO.N,Net-(J7-Pin_1)*%
X118365000Y-103600000D02*
X119200000Y-103600000D01*
D25*
%TO.N,/PA11*%
X129300000Y-113400000D02*
X139025000Y-123125000D01*
X139025000Y-123125000D02*
X139025000Y-126375000D01*
%TO.N,VDD*%
X135200000Y-113900000D02*
X135200000Y-112500000D01*
X134637700Y-95400000D02*
X134637700Y-100349000D01*
X136546200Y-97308500D02*
X136546200Y-103003500D01*
X135200000Y-113900000D02*
X134200000Y-113900000D01*
X134200000Y-113900000D02*
X132200000Y-111900000D01*
X133200000Y-108500000D02*
X136546200Y-105153800D01*
X135200000Y-112500000D02*
X135400000Y-112300000D01*
X128873826Y-101148852D02*
X128873826Y-96226174D01*
X136546200Y-105153800D02*
X136546200Y-103003500D01*
X132143825Y-92956175D02*
X132256175Y-92956175D01*
X135100000Y-90000000D02*
X132143825Y-92956175D01*
X137642700Y-104100000D02*
X137900000Y-104100000D01*
X136474200Y-103075500D02*
X135864200Y-103075500D01*
X134637700Y-95400000D02*
X136546200Y-97308500D01*
X134637700Y-95337700D02*
X134637700Y-95400000D01*
X135974199Y-103575501D02*
X136474200Y-103075500D01*
X136546200Y-103003500D02*
X137642700Y-104100000D01*
X136546200Y-103003500D02*
X136474200Y-103075500D01*
X132143825Y-92956175D02*
X132143825Y-98428853D01*
X128873826Y-96226174D02*
X132143825Y-92956175D01*
X135864200Y-103575501D02*
X135974199Y-103575501D01*
X132256175Y-92956175D02*
X134637700Y-95337700D01*
%TO.N,RESET'*%
X139300000Y-120590000D02*
X121195000Y-102485000D01*
X139600000Y-121000000D02*
X139300000Y-120700000D01*
X139300000Y-120700000D02*
X139300000Y-120590000D01*
%TO.N,/PC1*%
X130900000Y-101064301D02*
X130911200Y-101075501D01*
X130837849Y-101148852D02*
X130911200Y-101075501D01*
X130900000Y-100400000D02*
X130900000Y-101064301D01*
X129513826Y-101148852D02*
X130837849Y-101148852D01*
%TO.N,Net-(SW2-A)*%
X122533327Y-113400000D02*
X123533327Y-113400000D01*
%TO.N,/PB2*%
X121300000Y-122000000D02*
X127600000Y-115700000D01*
X127600000Y-115700000D02*
X127600000Y-111500000D01*
%TO.N,/PC0*%
X132174972Y-99100000D02*
X132143825Y-99068853D01*
X132137700Y-99074978D02*
X132143825Y-99068853D01*
X133000000Y-99100000D02*
X132174972Y-99100000D01*
X132137700Y-100349000D02*
X132137700Y-99074978D01*
%TO.N,/PA3*%
X152900000Y-102800000D02*
X154247593Y-102800000D01*
%TO.N,PA12*%
X129200000Y-115074000D02*
X129200000Y-116074000D01*
%TO.N,Net-(J2-Pin_2)*%
X123450000Y-97850000D02*
X122600000Y-98700000D01*
X123767108Y-97850000D02*
X123450000Y-97850000D01*
X122600000Y-98700000D02*
X122500000Y-98700000D01*
%TD*%
%TA.AperFunction,Conductor*%
%TO.N,GND*%
G36*
X131871651Y-93687261D02*
G01*
X131893325Y-93739587D01*
X131893325Y-98058585D01*
X131871651Y-98110911D01*
X131865594Y-98115881D01*
X131863223Y-98118252D01*
X131807859Y-98201112D01*
X131793325Y-98274180D01*
X131793325Y-98583525D01*
X131807859Y-98656594D01*
X131842034Y-98707742D01*
X131853083Y-98763291D01*
X131842034Y-98789964D01*
X131807859Y-98841111D01*
X131799171Y-98884788D01*
X131793325Y-98914179D01*
X131793325Y-99223527D01*
X131807859Y-99296593D01*
X131863224Y-99379454D01*
X131863227Y-99379456D01*
X131865526Y-99381755D01*
X131866771Y-99384762D01*
X131867274Y-99385514D01*
X131867124Y-99385613D01*
X131887200Y-99434081D01*
X131887200Y-99748749D01*
X131865526Y-99801075D01*
X131813200Y-99822749D01*
X131798765Y-99821327D01*
X131779523Y-99817500D01*
X131779521Y-99817500D01*
X131495881Y-99817500D01*
X131476642Y-99821327D01*
X131451978Y-99826233D01*
X131402197Y-99859495D01*
X131402196Y-99859496D01*
X131368934Y-99909277D01*
X131360201Y-99953180D01*
X131360201Y-100219919D01*
X131338527Y-100272245D01*
X131286201Y-100293919D01*
X131233875Y-100272245D01*
X131222115Y-100256919D01*
X131180471Y-100184791D01*
X131180470Y-100184790D01*
X131180469Y-100184788D01*
X131115212Y-100119531D01*
X131115209Y-100119529D01*
X131115208Y-100119528D01*
X131035289Y-100073386D01*
X131035284Y-100073384D01*
X130946146Y-100049500D01*
X130946144Y-100049500D01*
X130853856Y-100049500D01*
X130853854Y-100049500D01*
X130764715Y-100073384D01*
X130764710Y-100073386D01*
X130684791Y-100119528D01*
X130619528Y-100184791D01*
X130573386Y-100264710D01*
X130573384Y-100264715D01*
X130549500Y-100353853D01*
X130549500Y-100446146D01*
X130573384Y-100535284D01*
X130573386Y-100535289D01*
X130619528Y-100615208D01*
X130619529Y-100615209D01*
X130619531Y-100615212D01*
X130627826Y-100623507D01*
X130649500Y-100675832D01*
X130649500Y-100724001D01*
X130627826Y-100776327D01*
X130575500Y-100798001D01*
X130515380Y-100798001D01*
X130493429Y-100802367D01*
X130471477Y-100806734D01*
X130421696Y-100839996D01*
X130421693Y-100839999D01*
X130404680Y-100865463D01*
X130357589Y-100896930D01*
X130343151Y-100898352D01*
X129884094Y-100898352D01*
X129831768Y-100876678D01*
X129826797Y-100870621D01*
X129824426Y-100868250D01*
X129741566Y-100812886D01*
X129710638Y-100806734D01*
X129668500Y-100798352D01*
X129359152Y-100798352D01*
X129322619Y-100805619D01*
X129286084Y-100812886D01*
X129239437Y-100844054D01*
X129183888Y-100855103D01*
X129136797Y-100823636D01*
X129124326Y-100782525D01*
X129124326Y-96360586D01*
X129146000Y-96308260D01*
X131766999Y-93687261D01*
X131819325Y-93665587D01*
X131871651Y-93687261D01*
G37*
%TD.AperFunction*%
%TA.AperFunction,Conductor*%
G36*
X132520651Y-93574911D02*
G01*
X134365526Y-95419786D01*
X134387200Y-95472112D01*
X134387200Y-99748749D01*
X134365526Y-99801075D01*
X134313200Y-99822749D01*
X134298765Y-99821327D01*
X134279523Y-99817500D01*
X134279521Y-99817500D01*
X133995881Y-99817500D01*
X133969494Y-99822749D01*
X133951979Y-99826233D01*
X133928811Y-99841713D01*
X133873262Y-99852761D01*
X133846588Y-99841712D01*
X133823422Y-99826233D01*
X133779520Y-99817500D01*
X133495880Y-99817500D01*
X133481246Y-99820411D01*
X133451976Y-99826233D01*
X133428810Y-99841712D01*
X133373261Y-99852760D01*
X133346590Y-99841712D01*
X133323422Y-99826233D01*
X133323423Y-99826233D01*
X133298759Y-99821327D01*
X133279520Y-99817500D01*
X132995880Y-99817500D01*
X132969493Y-99822749D01*
X132951978Y-99826233D01*
X132928810Y-99841713D01*
X132873261Y-99852761D01*
X132846587Y-99841712D01*
X132823421Y-99826233D01*
X132779519Y-99817500D01*
X132495879Y-99817500D01*
X132495877Y-99817500D01*
X132476635Y-99821327D01*
X132421086Y-99810277D01*
X132389622Y-99763184D01*
X132388200Y-99748749D01*
X132388200Y-99443213D01*
X132389116Y-99441001D01*
X132388335Y-99438737D01*
X132394507Y-99427986D01*
X132409874Y-99390887D01*
X132413135Y-99387818D01*
X132416902Y-99384480D01*
X132424426Y-99379454D01*
X132427105Y-99375443D01*
X132434262Y-99369105D01*
X132452691Y-99362747D01*
X132468901Y-99351920D01*
X132483327Y-99350500D01*
X132724168Y-99350500D01*
X132776492Y-99372173D01*
X132784788Y-99380469D01*
X132784790Y-99380470D01*
X132784791Y-99380471D01*
X132864710Y-99426613D01*
X132864712Y-99426614D01*
X132864713Y-99426614D01*
X132864715Y-99426615D01*
X132869832Y-99427986D01*
X132953853Y-99450499D01*
X132953854Y-99450500D01*
X132953856Y-99450500D01*
X133046146Y-99450500D01*
X133046146Y-99450499D01*
X133135288Y-99426614D01*
X133215212Y-99380469D01*
X133280469Y-99315212D01*
X133326614Y-99235288D01*
X133350499Y-99146146D01*
X133350500Y-99146146D01*
X133350500Y-99053854D01*
X133350499Y-99053853D01*
X133343200Y-99026614D01*
X133326614Y-98964712D01*
X133326613Y-98964710D01*
X133280471Y-98884791D01*
X133280470Y-98884790D01*
X133280469Y-98884788D01*
X133215212Y-98819531D01*
X133215209Y-98819529D01*
X133215208Y-98819528D01*
X133135289Y-98773386D01*
X133135284Y-98773384D01*
X133046146Y-98749500D01*
X133046144Y-98749500D01*
X132953856Y-98749500D01*
X132953854Y-98749500D01*
X132864715Y-98773384D01*
X132864710Y-98773386D01*
X132784791Y-98819528D01*
X132784788Y-98819530D01*
X132784788Y-98819531D01*
X132776492Y-98827826D01*
X132724168Y-98849500D01*
X132524949Y-98849500D01*
X132517946Y-98846599D01*
X132510512Y-98848078D01*
X132492565Y-98836086D01*
X132472623Y-98827826D01*
X132463420Y-98816612D01*
X132460227Y-98811833D01*
X132445614Y-98789963D01*
X132434566Y-98734416D01*
X132445615Y-98707742D01*
X132479791Y-98656593D01*
X132494325Y-98583527D01*
X132494325Y-98274179D01*
X132479791Y-98201113D01*
X132424426Y-98118252D01*
X132419273Y-98113099D01*
X132421222Y-98111149D01*
X132395746Y-98073016D01*
X132394325Y-98058585D01*
X132394325Y-93627237D01*
X132415999Y-93574911D01*
X132468325Y-93553237D01*
X132520651Y-93574911D01*
G37*
%TD.AperFunction*%
%TA.AperFunction,Conductor*%
G36*
X133722605Y-73149177D02*
G01*
X134761924Y-73186297D01*
X134764515Y-73186436D01*
X135801847Y-73260627D01*
X135804381Y-73260853D01*
X136838417Y-73372024D01*
X136841030Y-73372352D01*
X137870423Y-73520357D01*
X137872991Y-73520773D01*
X138896429Y-73705422D01*
X138898971Y-73705927D01*
X139915229Y-73927000D01*
X139917719Y-73927589D01*
X140925389Y-74184782D01*
X140927936Y-74185481D01*
X141925731Y-74478460D01*
X141928252Y-74479249D01*
X142240829Y-74583284D01*
X142915019Y-74807676D01*
X142917448Y-74808533D01*
X143891848Y-75171966D01*
X143894289Y-75172926D01*
X144855086Y-75570901D01*
X144857458Y-75571933D01*
X145526787Y-75877605D01*
X145803456Y-76003956D01*
X145805839Y-76005096D01*
X146263866Y-76234367D01*
X146735817Y-76470609D01*
X146738127Y-76471819D01*
X147650842Y-76970199D01*
X147653134Y-76971503D01*
X148547523Y-77502169D01*
X148549740Y-77503539D01*
X149424621Y-78065790D01*
X149426804Y-78067249D01*
X150281023Y-78660345D01*
X150283165Y-78661890D01*
X151115694Y-79285112D01*
X151117764Y-79286720D01*
X151927535Y-79939274D01*
X151929510Y-79940926D01*
X152404566Y-80352564D01*
X152715467Y-80621962D01*
X152717432Y-80623727D01*
X153478553Y-81332355D01*
X153480454Y-81334189D01*
X154215810Y-82069545D01*
X154217644Y-82071446D01*
X154926272Y-82832567D01*
X154928037Y-82834532D01*
X155268544Y-83227497D01*
X155609069Y-83620483D01*
X155610729Y-83622470D01*
X156263266Y-84432218D01*
X156264887Y-84434305D01*
X156888109Y-85266834D01*
X156889654Y-85268976D01*
X157482750Y-86123195D01*
X157484218Y-86125392D01*
X158046451Y-87000244D01*
X158047839Y-87002491D01*
X158578493Y-87896861D01*
X158579800Y-87899157D01*
X159078172Y-88811857D01*
X159079397Y-88814197D01*
X159544903Y-89744160D01*
X159546043Y-89746543D01*
X159978051Y-90692506D01*
X159979105Y-90694929D01*
X160377073Y-91655712D01*
X160378040Y-91658170D01*
X160741455Y-92632520D01*
X160742334Y-92635011D01*
X161070750Y-93621747D01*
X161071539Y-93624268D01*
X161364518Y-94622063D01*
X161365217Y-94624610D01*
X161622400Y-95632239D01*
X161623008Y-95634810D01*
X161844067Y-96651004D01*
X161844582Y-96653595D01*
X162029222Y-97676988D01*
X162029645Y-97679596D01*
X162177646Y-98708965D01*
X162177975Y-98711586D01*
X162289141Y-99745570D01*
X162289376Y-99748201D01*
X162363561Y-100785460D01*
X162363703Y-100788098D01*
X162400822Y-101827394D01*
X162400869Y-101830035D01*
X162400869Y-102869964D01*
X162400822Y-102872605D01*
X162363703Y-103911901D01*
X162363561Y-103914539D01*
X162289376Y-104951798D01*
X162289141Y-104954429D01*
X162177975Y-105988413D01*
X162177646Y-105991034D01*
X162029645Y-107020403D01*
X162029222Y-107023011D01*
X161844582Y-108046404D01*
X161844067Y-108048995D01*
X161623008Y-109065189D01*
X161622400Y-109067760D01*
X161365217Y-110075389D01*
X161364518Y-110077936D01*
X161071539Y-111075731D01*
X161070750Y-111078252D01*
X160742334Y-112064988D01*
X160741455Y-112067479D01*
X160378040Y-113041829D01*
X160377073Y-113044287D01*
X159979105Y-114005070D01*
X159978051Y-114007493D01*
X159546043Y-114953456D01*
X159544903Y-114955839D01*
X159079397Y-115885802D01*
X159078172Y-115888142D01*
X158579800Y-116800842D01*
X158578493Y-116803138D01*
X158047839Y-117697508D01*
X158046451Y-117699755D01*
X157484218Y-118574607D01*
X157482750Y-118576804D01*
X156889654Y-119431023D01*
X156888109Y-119433165D01*
X156264887Y-120265694D01*
X156263266Y-120267781D01*
X155610746Y-121077509D01*
X155609052Y-121079536D01*
X154928037Y-121865467D01*
X154926272Y-121867432D01*
X154217644Y-122628553D01*
X154215810Y-122630454D01*
X153480454Y-123365810D01*
X153478553Y-123367644D01*
X152717432Y-124076272D01*
X152715467Y-124078037D01*
X151929536Y-124759052D01*
X151927509Y-124760746D01*
X151117781Y-125413266D01*
X151115694Y-125414887D01*
X150283165Y-126038109D01*
X150281023Y-126039654D01*
X149426804Y-126632750D01*
X149424607Y-126634218D01*
X148549755Y-127196451D01*
X148547508Y-127197839D01*
X147653138Y-127728493D01*
X147650842Y-127729800D01*
X146738142Y-128228172D01*
X146735802Y-128229397D01*
X145805839Y-128694903D01*
X145803456Y-128696043D01*
X144857493Y-129128051D01*
X144855070Y-129129105D01*
X143894287Y-129527073D01*
X143891829Y-129528040D01*
X142917479Y-129891455D01*
X142914988Y-129892334D01*
X141928252Y-130220750D01*
X141925731Y-130221539D01*
X140927936Y-130514518D01*
X140925389Y-130515217D01*
X139917760Y-130772400D01*
X139915189Y-130773008D01*
X138898995Y-130994067D01*
X138896404Y-130994582D01*
X137873011Y-131179222D01*
X137870403Y-131179645D01*
X136841034Y-131327646D01*
X136838413Y-131327975D01*
X135804429Y-131439141D01*
X135801798Y-131439376D01*
X134764539Y-131513561D01*
X134761901Y-131513703D01*
X133722606Y-131550822D01*
X133719965Y-131550869D01*
X132680035Y-131550869D01*
X132677394Y-131550822D01*
X131638098Y-131513703D01*
X131635460Y-131513561D01*
X130598201Y-131439376D01*
X130595570Y-131439141D01*
X129561586Y-131327975D01*
X129558965Y-131327646D01*
X128529596Y-131179645D01*
X128526988Y-131179222D01*
X127503595Y-130994582D01*
X127501004Y-130994067D01*
X126484810Y-130773008D01*
X126482239Y-130772400D01*
X125474610Y-130515217D01*
X125472063Y-130514518D01*
X124474268Y-130221539D01*
X124471747Y-130220750D01*
X123485011Y-129892334D01*
X123482520Y-129891455D01*
X122508170Y-129528040D01*
X122505712Y-129527073D01*
X121544929Y-129129105D01*
X121542506Y-129128051D01*
X120596543Y-128696043D01*
X120594160Y-128694903D01*
X119664197Y-128229397D01*
X119661857Y-128228172D01*
X118749157Y-127729800D01*
X118746861Y-127728493D01*
X117852491Y-127197839D01*
X117850244Y-127196451D01*
X117021023Y-126663543D01*
X116975392Y-126634218D01*
X116973195Y-126632750D01*
X116931374Y-126603713D01*
X130374500Y-126603713D01*
X130374500Y-126846286D01*
X130406160Y-127086782D01*
X130406162Y-127086791D01*
X130468945Y-127321099D01*
X130561772Y-127545203D01*
X130561775Y-127545211D01*
X130683061Y-127755285D01*
X130683065Y-127755291D01*
X130830735Y-127947738D01*
X131002261Y-128119264D01*
X131144192Y-128228172D01*
X131194711Y-128266936D01*
X131404788Y-128388224D01*
X131628900Y-128481054D01*
X131863211Y-128543838D01*
X131863214Y-128543838D01*
X131863217Y-128543839D01*
X131969951Y-128557890D01*
X132103712Y-128575500D01*
X132103714Y-128575500D01*
X132346286Y-128575500D01*
X132346288Y-128575500D01*
X132531575Y-128551106D01*
X132586782Y-128543839D01*
X132586782Y-128543838D01*
X132586789Y-128543838D01*
X132821100Y-128481054D01*
X133045212Y-128388224D01*
X133255289Y-128266936D01*
X133447738Y-128119265D01*
X133619265Y-127947738D01*
X133766936Y-127755289D01*
X133888224Y-127545212D01*
X133981054Y-127321100D01*
X134043838Y-127086789D01*
X134075500Y-126846288D01*
X134075500Y-126603712D01*
X134043838Y-126363211D01*
X133981054Y-126128900D01*
X133888224Y-125904788D01*
X133815543Y-125778900D01*
X133766938Y-125694714D01*
X133766934Y-125694708D01*
X133659576Y-125554796D01*
X133619265Y-125502262D01*
X133447738Y-125330735D01*
X133255291Y-125183065D01*
X133255285Y-125183061D01*
X133045211Y-125061775D01*
X133045203Y-125061772D01*
X132821099Y-124968945D01*
X132586791Y-124906162D01*
X132586782Y-124906160D01*
X132393480Y-124880712D01*
X132346288Y-124874500D01*
X132103712Y-124874500D01*
X132060736Y-124880157D01*
X131863217Y-124906160D01*
X131863208Y-124906162D01*
X131628900Y-124968945D01*
X131404796Y-125061772D01*
X131404788Y-125061775D01*
X131194714Y-125183061D01*
X131194708Y-125183065D01*
X131002261Y-125330735D01*
X130830735Y-125502261D01*
X130683065Y-125694708D01*
X130683061Y-125694714D01*
X130561775Y-125904788D01*
X130561772Y-125904796D01*
X130468945Y-126128900D01*
X130406162Y-126363208D01*
X130406160Y-126363217D01*
X130374500Y-126603713D01*
X116931374Y-126603713D01*
X116118976Y-126039654D01*
X116116834Y-126038109D01*
X115284305Y-125414887D01*
X115282218Y-125413266D01*
X114472470Y-124760729D01*
X114470483Y-124759069D01*
X114077497Y-124418544D01*
X113684532Y-124078037D01*
X113682567Y-124076272D01*
X112921446Y-123367644D01*
X112919545Y-123365810D01*
X112398688Y-122844953D01*
X114684557Y-122844953D01*
X114684557Y-123009686D01*
X114716694Y-123171254D01*
X114716696Y-123171260D01*
X114779738Y-123323456D01*
X114871261Y-123460430D01*
X114987747Y-123576916D01*
X115124721Y-123668439D01*
X115276917Y-123731481D01*
X115438489Y-123763620D01*
X115438491Y-123763620D01*
X115603223Y-123763620D01*
X115603225Y-123763620D01*
X115764797Y-123731481D01*
X115916993Y-123668439D01*
X116053967Y-123576916D01*
X116170453Y-123460430D01*
X116261976Y-123323456D01*
X116325018Y-123171260D01*
X116357157Y-123009688D01*
X116357157Y-122844952D01*
X116325018Y-122683380D01*
X116261976Y-122531184D01*
X116170453Y-122394210D01*
X116053967Y-122277724D01*
X115916993Y-122186201D01*
X115916990Y-122186199D01*
X115916989Y-122186199D01*
X115764797Y-122123159D01*
X115764791Y-122123157D01*
X115656593Y-122101635D01*
X115603225Y-122091020D01*
X115438489Y-122091020D01*
X115392685Y-122100130D01*
X115276922Y-122123157D01*
X115276916Y-122123159D01*
X115124724Y-122186199D01*
X114987747Y-122277723D01*
X114987746Y-122277725D01*
X114871262Y-122394209D01*
X114871260Y-122394210D01*
X114779736Y-122531187D01*
X114716696Y-122683379D01*
X114716694Y-122683385D01*
X114684557Y-122844953D01*
X112398688Y-122844953D01*
X112184189Y-122630454D01*
X112182355Y-122628553D01*
X111596622Y-121999431D01*
X111554188Y-121953853D01*
X120949500Y-121953853D01*
X120949500Y-122046146D01*
X120973384Y-122135284D01*
X120973386Y-122135289D01*
X121019528Y-122215208D01*
X121019529Y-122215209D01*
X121019531Y-122215212D01*
X121084788Y-122280469D01*
X121164712Y-122326614D01*
X121164713Y-122326614D01*
X121164715Y-122326615D01*
X121209284Y-122338557D01*
X121253853Y-122350499D01*
X121253854Y-122350500D01*
X121253856Y-122350500D01*
X121346146Y-122350500D01*
X121346146Y-122350499D01*
X121435288Y-122326614D01*
X121515212Y-122280469D01*
X121580469Y-122215212D01*
X121626614Y-122135288D01*
X121650499Y-122046146D01*
X121650500Y-122046146D01*
X121650500Y-122034413D01*
X121672174Y-121982087D01*
X127812363Y-115841898D01*
X127812364Y-115841897D01*
X127850500Y-115749828D01*
X127850500Y-115650173D01*
X127850500Y-115027853D01*
X128849500Y-115027853D01*
X128849500Y-115120146D01*
X128873384Y-115209284D01*
X128873386Y-115209289D01*
X128919528Y-115289208D01*
X128919529Y-115289209D01*
X128919531Y-115289212D01*
X128927826Y-115297507D01*
X128949500Y-115349832D01*
X128949500Y-115798167D01*
X128927828Y-115850491D01*
X128919528Y-115858790D01*
X128873386Y-115938710D01*
X128873384Y-115938715D01*
X128849500Y-116027853D01*
X128849500Y-116120146D01*
X128873384Y-116209284D01*
X128873386Y-116209289D01*
X128919528Y-116289208D01*
X128919529Y-116289209D01*
X128919531Y-116289212D01*
X128984788Y-116354469D01*
X129064712Y-116400614D01*
X129064713Y-116400614D01*
X129064715Y-116400615D01*
X129109284Y-116412557D01*
X129153853Y-116424499D01*
X129153854Y-116424500D01*
X129153856Y-116424500D01*
X129246146Y-116424500D01*
X129246146Y-116424499D01*
X129335288Y-116400614D01*
X129415212Y-116354469D01*
X129480469Y-116289212D01*
X129526614Y-116209288D01*
X129550499Y-116120146D01*
X129550500Y-116120146D01*
X129550500Y-116027854D01*
X129550499Y-116027853D01*
X129526615Y-115938715D01*
X129526613Y-115938710D01*
X129480471Y-115858790D01*
X129472172Y-115850491D01*
X129450500Y-115798167D01*
X129450500Y-115349832D01*
X129472173Y-115297507D01*
X129480469Y-115289212D01*
X129526614Y-115209288D01*
X129550499Y-115120146D01*
X129550500Y-115120146D01*
X129550500Y-115027854D01*
X129550499Y-115027853D01*
X129526615Y-114938715D01*
X129526613Y-114938710D01*
X129480471Y-114858791D01*
X129480470Y-114858790D01*
X129480469Y-114858788D01*
X129415212Y-114793531D01*
X129415209Y-114793529D01*
X129415208Y-114793528D01*
X129335289Y-114747386D01*
X129335284Y-114747384D01*
X129246146Y-114723500D01*
X129246144Y-114723500D01*
X129153856Y-114723500D01*
X129153854Y-114723500D01*
X129064715Y-114747384D01*
X129064710Y-114747386D01*
X128984791Y-114793528D01*
X128919528Y-114858791D01*
X128873386Y-114938710D01*
X128873384Y-114938715D01*
X128849500Y-115027853D01*
X127850500Y-115027853D01*
X127850500Y-113353853D01*
X128949500Y-113353853D01*
X128949500Y-113446146D01*
X128973384Y-113535284D01*
X128973386Y-113535289D01*
X129019528Y-113615208D01*
X129019529Y-113615209D01*
X129019531Y-113615212D01*
X129084788Y-113680469D01*
X129084790Y-113680470D01*
X129084791Y-113680471D01*
X129098225Y-113688227D01*
X129164712Y-113726614D01*
X129164713Y-113726614D01*
X129164715Y-113726615D01*
X129209284Y-113738557D01*
X129253853Y-113750499D01*
X129253854Y-113750500D01*
X129253856Y-113750500D01*
X129265587Y-113750500D01*
X129317913Y-113772174D01*
X138752826Y-123207086D01*
X138774500Y-123259412D01*
X138774500Y-124476613D01*
X138752826Y-124528939D01*
X138710160Y-124549980D01*
X138663215Y-124556161D01*
X138663208Y-124556162D01*
X138428900Y-124618945D01*
X138204796Y-124711772D01*
X138204788Y-124711775D01*
X137994714Y-124833061D01*
X137994708Y-124833065D01*
X137802261Y-124980735D01*
X137630735Y-125152261D01*
X137483065Y-125344708D01*
X137483061Y-125344714D01*
X137361775Y-125554788D01*
X137361772Y-125554796D01*
X137268945Y-125778900D01*
X137206162Y-126013208D01*
X137206160Y-126013217D01*
X137174500Y-126253713D01*
X137174500Y-126496286D01*
X137206160Y-126736782D01*
X137206162Y-126736791D01*
X137268945Y-126971099D01*
X137361772Y-127195203D01*
X137361775Y-127195211D01*
X137483061Y-127405285D01*
X137483065Y-127405291D01*
X137630735Y-127597738D01*
X137802261Y-127769264D01*
X137994708Y-127916934D01*
X137994714Y-127916938D01*
X138198553Y-128034624D01*
X138204788Y-128038224D01*
X138428900Y-128131054D01*
X138663211Y-128193838D01*
X138663214Y-128193838D01*
X138663217Y-128193839D01*
X138769951Y-128207890D01*
X138903712Y-128225500D01*
X138903714Y-128225500D01*
X139146286Y-128225500D01*
X139146288Y-128225500D01*
X139331575Y-128201106D01*
X139386782Y-128193839D01*
X139386782Y-128193838D01*
X139386789Y-128193838D01*
X139621100Y-128131054D01*
X139845212Y-128038224D01*
X140055289Y-127916936D01*
X140247738Y-127769265D01*
X140419265Y-127597738D01*
X140566936Y-127405289D01*
X140688224Y-127195212D01*
X140781054Y-126971100D01*
X140843838Y-126736789D01*
X140875500Y-126496288D01*
X140875500Y-126253712D01*
X140863303Y-126161068D01*
X140843839Y-126013217D01*
X140843837Y-126013208D01*
X140781054Y-125778900D01*
X140688227Y-125554796D01*
X140688224Y-125554788D01*
X140566938Y-125344714D01*
X140566934Y-125344708D01*
X140419264Y-125152261D01*
X140247738Y-124980735D01*
X140055291Y-124833065D01*
X140055285Y-124833061D01*
X139845211Y-124711775D01*
X139845203Y-124711772D01*
X139621099Y-124618945D01*
X139386791Y-124556162D01*
X139386784Y-124556161D01*
X139339840Y-124549980D01*
X139290791Y-124521660D01*
X139275500Y-124476613D01*
X139275500Y-123075172D01*
X139275499Y-123075170D01*
X139237365Y-122983105D01*
X139237363Y-122983102D01*
X139162682Y-122908421D01*
X139162675Y-122908415D01*
X129672174Y-113417913D01*
X129650500Y-113365587D01*
X129650500Y-113353854D01*
X129650499Y-113353853D01*
X129626615Y-113264715D01*
X129626613Y-113264710D01*
X129580471Y-113184791D01*
X129580470Y-113184790D01*
X129580469Y-113184788D01*
X129515212Y-113119531D01*
X129515209Y-113119529D01*
X129515208Y-113119528D01*
X129435289Y-113073386D01*
X129435284Y-113073384D01*
X129346146Y-113049500D01*
X129346144Y-113049500D01*
X129253856Y-113049500D01*
X129253854Y-113049500D01*
X129164715Y-113073384D01*
X129164710Y-113073386D01*
X129084791Y-113119528D01*
X129019528Y-113184791D01*
X128973386Y-113264710D01*
X128973384Y-113264715D01*
X128949500Y-113353853D01*
X127850500Y-113353853D01*
X127850500Y-111775832D01*
X127872173Y-111723507D01*
X127880469Y-111715212D01*
X127926614Y-111635288D01*
X127950499Y-111546146D01*
X127950500Y-111546146D01*
X127950500Y-111453854D01*
X127950499Y-111453853D01*
X127926615Y-111364715D01*
X127926613Y-111364710D01*
X127880471Y-111284791D01*
X127880470Y-111284790D01*
X127880469Y-111284788D01*
X127815212Y-111219531D01*
X127815209Y-111219529D01*
X127815208Y-111219528D01*
X127735289Y-111173386D01*
X127735284Y-111173384D01*
X127646146Y-111149500D01*
X127646144Y-111149500D01*
X127553856Y-111149500D01*
X127553854Y-111149500D01*
X127464715Y-111173384D01*
X127464710Y-111173386D01*
X127384791Y-111219528D01*
X127319528Y-111284791D01*
X127273386Y-111364710D01*
X127273384Y-111364715D01*
X127249500Y-111453853D01*
X127249500Y-111546146D01*
X127273384Y-111635284D01*
X127273386Y-111635289D01*
X127319528Y-111715208D01*
X127319529Y-111715209D01*
X127319531Y-111715212D01*
X127327826Y-111723507D01*
X127349500Y-111775832D01*
X127349500Y-115565587D01*
X127327826Y-115617913D01*
X121317913Y-121627826D01*
X121265587Y-121649500D01*
X121253854Y-121649500D01*
X121164715Y-121673384D01*
X121164710Y-121673386D01*
X121084791Y-121719528D01*
X121019528Y-121784791D01*
X120973386Y-121864710D01*
X120973384Y-121864715D01*
X120949500Y-121953853D01*
X111554188Y-121953853D01*
X111473727Y-121867432D01*
X111471962Y-121865467D01*
X111128192Y-121468736D01*
X110790926Y-121079510D01*
X110789274Y-121077535D01*
X110440915Y-120645248D01*
X115954557Y-120645248D01*
X115954557Y-120809984D01*
X115960905Y-120841897D01*
X115986694Y-120971550D01*
X115986696Y-120971556D01*
X116017591Y-121046144D01*
X116049738Y-121123752D01*
X116141261Y-121260726D01*
X116257747Y-121377212D01*
X116394721Y-121468735D01*
X116546917Y-121531777D01*
X116708489Y-121563916D01*
X116708491Y-121563916D01*
X116873223Y-121563916D01*
X116873225Y-121563916D01*
X117034797Y-121531777D01*
X117186993Y-121468735D01*
X117323967Y-121377212D01*
X117440453Y-121260726D01*
X117531976Y-121123752D01*
X117595018Y-120971556D01*
X117627157Y-120809984D01*
X117627157Y-120645248D01*
X117595018Y-120483676D01*
X117531976Y-120331480D01*
X117440453Y-120194506D01*
X117323967Y-120078020D01*
X117186993Y-119986497D01*
X117186990Y-119986495D01*
X117186989Y-119986495D01*
X117034797Y-119923455D01*
X117034791Y-119923453D01*
X116926593Y-119901931D01*
X116873225Y-119891316D01*
X116708489Y-119891316D01*
X116662685Y-119900426D01*
X116546922Y-119923453D01*
X116546916Y-119923455D01*
X116394724Y-119986495D01*
X116257747Y-120078019D01*
X116257746Y-120078021D01*
X116141262Y-120194505D01*
X116141260Y-120194506D01*
X116049736Y-120331483D01*
X116001430Y-120448104D01*
X115986696Y-120483676D01*
X115954557Y-120645248D01*
X110440915Y-120645248D01*
X110136720Y-120267764D01*
X110135112Y-120265694D01*
X109511890Y-119433165D01*
X109510345Y-119431023D01*
X109071296Y-118798673D01*
X109043681Y-118758900D01*
X116971902Y-118758900D01*
X116971902Y-118758901D01*
X116971902Y-118758902D01*
X116975818Y-118818646D01*
X117002299Y-118872344D01*
X117035952Y-118901858D01*
X118249462Y-119602478D01*
X118291848Y-119616866D01*
X118351592Y-119612950D01*
X118405290Y-119586469D01*
X118434804Y-119552816D01*
X119135424Y-118339306D01*
X119149812Y-118296920D01*
X119145896Y-118237176D01*
X119119415Y-118183478D01*
X119085762Y-118153964D01*
X119085759Y-118153962D01*
X117872256Y-117453346D01*
X117872254Y-117453345D01*
X117872252Y-117453344D01*
X117841402Y-117442872D01*
X117829867Y-117438956D01*
X117829866Y-117438956D01*
X117770122Y-117442872D01*
X117716422Y-117469354D01*
X117686908Y-117503008D01*
X116986292Y-118716511D01*
X116971902Y-118758900D01*
X109043681Y-118758900D01*
X108917249Y-118576804D01*
X108915781Y-118574607D01*
X108698927Y-118237176D01*
X108353539Y-117699740D01*
X108352160Y-117697508D01*
X107821506Y-116803138D01*
X107820199Y-116800842D01*
X107614700Y-116424499D01*
X107321819Y-115888127D01*
X107320602Y-115885802D01*
X107298625Y-115841898D01*
X107026122Y-115297506D01*
X106855096Y-114955839D01*
X106853956Y-114953456D01*
X106532926Y-114250500D01*
X106421933Y-114007458D01*
X106420894Y-114005070D01*
X106358258Y-113853854D01*
X106027484Y-113055291D01*
X106022926Y-113044287D01*
X106021959Y-113041829D01*
X106011125Y-113012782D01*
X105658533Y-112067448D01*
X105657676Y-112065019D01*
X105603988Y-111903713D01*
X114274500Y-111903713D01*
X114274500Y-112146286D01*
X114306160Y-112386782D01*
X114306162Y-112386791D01*
X114368945Y-112621099D01*
X114461772Y-112845203D01*
X114461775Y-112845211D01*
X114583061Y-113055285D01*
X114583065Y-113055291D01*
X114682432Y-113184788D01*
X114730735Y-113247738D01*
X114902262Y-113419265D01*
X114937294Y-113446146D01*
X115094708Y-113566934D01*
X115094714Y-113566938D01*
X115237716Y-113649500D01*
X115304788Y-113688224D01*
X115528900Y-113781054D01*
X115763211Y-113843838D01*
X115763214Y-113843838D01*
X115763217Y-113843839D01*
X115869951Y-113857890D01*
X116003712Y-113875500D01*
X116003714Y-113875500D01*
X116246286Y-113875500D01*
X116246288Y-113875500D01*
X116431575Y-113851106D01*
X116486782Y-113843839D01*
X116486782Y-113843838D01*
X116486789Y-113843838D01*
X116721100Y-113781054D01*
X116945212Y-113688224D01*
X117155289Y-113566936D01*
X117347738Y-113419265D01*
X117413150Y-113353853D01*
X122182827Y-113353853D01*
X122182827Y-113446146D01*
X122206711Y-113535284D01*
X122206713Y-113535289D01*
X122252855Y-113615208D01*
X122252856Y-113615209D01*
X122252858Y-113615212D01*
X122318115Y-113680469D01*
X122318117Y-113680470D01*
X122318118Y-113680471D01*
X122331552Y-113688227D01*
X122398039Y-113726614D01*
X122398040Y-113726614D01*
X122398042Y-113726615D01*
X122442611Y-113738557D01*
X122487180Y-113750499D01*
X122487181Y-113750500D01*
X122487183Y-113750500D01*
X122579473Y-113750500D01*
X122579473Y-113750499D01*
X122668615Y-113726614D01*
X122748539Y-113680469D01*
X122756834Y-113672173D01*
X122809159Y-113650500D01*
X123257495Y-113650500D01*
X123309819Y-113672173D01*
X123318115Y-113680469D01*
X123318117Y-113680470D01*
X123318118Y-113680471D01*
X123331552Y-113688227D01*
X123398039Y-113726614D01*
X123398040Y-113726614D01*
X123398042Y-113726615D01*
X123442611Y-113738557D01*
X123487180Y-113750499D01*
X123487181Y-113750500D01*
X123487183Y-113750500D01*
X123579473Y-113750500D01*
X123579473Y-113750499D01*
X123668615Y-113726614D01*
X123748539Y-113680469D01*
X123813796Y-113615212D01*
X123859941Y-113535288D01*
X123883826Y-113446146D01*
X123883827Y-113446146D01*
X123883827Y-113353854D01*
X123883826Y-113353853D01*
X123859942Y-113264715D01*
X123859940Y-113264710D01*
X123813798Y-113184791D01*
X123813797Y-113184790D01*
X123813796Y-113184788D01*
X123748539Y-113119531D01*
X123748536Y-113119529D01*
X123748535Y-113119528D01*
X123668616Y-113073386D01*
X123668611Y-113073384D01*
X123579473Y-113049500D01*
X123579471Y-113049500D01*
X123487183Y-113049500D01*
X123487181Y-113049500D01*
X123398042Y-113073384D01*
X123398037Y-113073386D01*
X123318118Y-113119528D01*
X123318115Y-113119530D01*
X123318115Y-113119531D01*
X123309819Y-113127826D01*
X123257495Y-113149500D01*
X122809159Y-113149500D01*
X122756834Y-113127826D01*
X122748539Y-113119531D01*
X122748536Y-113119529D01*
X122748535Y-113119528D01*
X122668616Y-113073386D01*
X122668611Y-113073384D01*
X122579473Y-113049500D01*
X122579471Y-113049500D01*
X122487183Y-113049500D01*
X122487181Y-113049500D01*
X122398042Y-113073384D01*
X122398037Y-113073386D01*
X122318118Y-113119528D01*
X122252855Y-113184791D01*
X122206713Y-113264710D01*
X122206711Y-113264715D01*
X122182827Y-113353853D01*
X117413150Y-113353853D01*
X117519265Y-113247738D01*
X117666936Y-113055289D01*
X117788224Y-112845212D01*
X117881054Y-112621100D01*
X117943838Y-112386789D01*
X117975500Y-112146288D01*
X117975500Y-111903712D01*
X117950684Y-111715212D01*
X117943839Y-111663217D01*
X117943837Y-111663208D01*
X117881054Y-111428900D01*
X117854468Y-111364715D01*
X117788224Y-111204788D01*
X117770093Y-111173384D01*
X117666938Y-110994714D01*
X117666934Y-110994708D01*
X117519264Y-110802261D01*
X117347738Y-110630735D01*
X117155291Y-110483065D01*
X117155285Y-110483061D01*
X116945211Y-110361775D01*
X116945203Y-110361772D01*
X116721099Y-110268945D01*
X116486791Y-110206162D01*
X116486782Y-110206160D01*
X116293480Y-110180712D01*
X116246288Y-110174500D01*
X116003712Y-110174500D01*
X115960736Y-110180157D01*
X115763217Y-110206160D01*
X115763208Y-110206162D01*
X115528900Y-110268945D01*
X115304796Y-110361772D01*
X115304788Y-110361775D01*
X115094714Y-110483061D01*
X115094708Y-110483065D01*
X114902261Y-110630735D01*
X114730735Y-110802261D01*
X114583065Y-110994708D01*
X114583061Y-110994714D01*
X114461775Y-111204788D01*
X114461772Y-111204796D01*
X114368945Y-111428900D01*
X114306162Y-111663208D01*
X114306160Y-111663217D01*
X114274500Y-111903713D01*
X105603988Y-111903713D01*
X105360912Y-111173384D01*
X105329249Y-111078252D01*
X105328460Y-111075731D01*
X105035481Y-110077936D01*
X105034782Y-110075389D01*
X104816944Y-109221910D01*
X104777589Y-109067719D01*
X104777000Y-109065229D01*
X104572002Y-108122869D01*
X107194500Y-108122869D01*
X107194500Y-108319951D01*
X107200903Y-108352139D01*
X107232947Y-108513239D01*
X107232950Y-108513249D01*
X107308367Y-108695323D01*
X107412053Y-108850499D01*
X107417861Y-108859192D01*
X107557218Y-108998549D01*
X107721086Y-109108042D01*
X107903165Y-109183461D01*
X108096459Y-109221910D01*
X108096461Y-109221910D01*
X108293539Y-109221910D01*
X108293541Y-109221910D01*
X108486835Y-109183461D01*
X108668914Y-109108042D01*
X108832782Y-108998549D01*
X108972139Y-108859192D01*
X109081632Y-108695324D01*
X109157051Y-108513245D01*
X109195500Y-108319951D01*
X109195500Y-108122869D01*
X109157051Y-107929575D01*
X109081632Y-107747496D01*
X108972139Y-107583628D01*
X108832782Y-107444271D01*
X108668914Y-107334778D01*
X108668915Y-107334778D01*
X108668913Y-107334777D01*
X108486839Y-107259360D01*
X108486829Y-107259357D01*
X108357388Y-107233610D01*
X108293541Y-107220910D01*
X108096459Y-107220910D01*
X108041662Y-107231809D01*
X107903170Y-107259357D01*
X107903160Y-107259360D01*
X107721086Y-107334777D01*
X107557218Y-107444270D01*
X107557217Y-107444272D01*
X107417862Y-107583627D01*
X107417860Y-107583628D01*
X107308367Y-107747496D01*
X107232950Y-107929570D01*
X107232947Y-107929580D01*
X107200850Y-108090945D01*
X107194500Y-108122869D01*
X104572002Y-108122869D01*
X104555927Y-108048971D01*
X104555417Y-108046404D01*
X104523018Y-107866829D01*
X104370773Y-107022991D01*
X104370354Y-107020403D01*
X104338357Y-106797862D01*
X104325750Y-106710180D01*
X115124500Y-106710180D01*
X115124500Y-108439820D01*
X115127292Y-108453856D01*
X115133233Y-108483722D01*
X115146622Y-108503761D01*
X115166496Y-108533504D01*
X115216278Y-108566767D01*
X115260180Y-108575500D01*
X115260181Y-108575500D01*
X116989819Y-108575500D01*
X116989820Y-108575500D01*
X117033722Y-108566767D01*
X117083504Y-108533504D01*
X117116767Y-108483722D01*
X117125500Y-108439820D01*
X117125500Y-107476460D01*
X117664500Y-107476460D01*
X117664500Y-107673539D01*
X117702947Y-107866829D01*
X117702950Y-107866839D01*
X117778367Y-108048913D01*
X117827784Y-108122870D01*
X117887861Y-108212782D01*
X118027218Y-108352139D01*
X118191086Y-108461632D01*
X118373165Y-108537051D01*
X118566459Y-108575500D01*
X118566461Y-108575500D01*
X118763539Y-108575500D01*
X118763541Y-108575500D01*
X118956835Y-108537051D01*
X119138914Y-108461632D01*
X119302782Y-108352139D01*
X119442139Y-108212782D01*
X119551632Y-108048914D01*
X119627051Y-107866835D01*
X119665500Y-107673541D01*
X119665500Y-107476460D01*
X120204500Y-107476460D01*
X120204500Y-107673539D01*
X120242947Y-107866829D01*
X120242950Y-107866839D01*
X120318367Y-108048913D01*
X120367784Y-108122870D01*
X120427861Y-108212782D01*
X120567218Y-108352139D01*
X120731086Y-108461632D01*
X120913165Y-108537051D01*
X121106459Y-108575500D01*
X121106461Y-108575500D01*
X121303539Y-108575500D01*
X121303541Y-108575500D01*
X121496835Y-108537051D01*
X121678914Y-108461632D01*
X121842782Y-108352139D01*
X121982139Y-108212782D01*
X122091632Y-108048914D01*
X122167051Y-107866835D01*
X122205500Y-107673541D01*
X122205500Y-107476459D01*
X122167051Y-107283165D01*
X122165583Y-107279622D01*
X122091632Y-107101086D01*
X121982139Y-106937218D01*
X121842781Y-106797860D01*
X121678913Y-106688367D01*
X121496839Y-106612950D01*
X121496829Y-106612947D01*
X121347444Y-106583233D01*
X121303541Y-106574500D01*
X121106459Y-106574500D01*
X121062556Y-106583233D01*
X120913170Y-106612947D01*
X120913160Y-106612950D01*
X120731086Y-106688367D01*
X120567218Y-106797860D01*
X120567217Y-106797862D01*
X120427862Y-106937217D01*
X120427860Y-106937218D01*
X120318367Y-107101086D01*
X120242950Y-107283160D01*
X120242947Y-107283170D01*
X120204500Y-107476460D01*
X119665500Y-107476460D01*
X119665500Y-107476459D01*
X119627051Y-107283165D01*
X119625583Y-107279622D01*
X119551632Y-107101086D01*
X119442139Y-106937218D01*
X119302781Y-106797860D01*
X119138913Y-106688367D01*
X118956839Y-106612950D01*
X118956829Y-106612947D01*
X118807444Y-106583233D01*
X118763541Y-106574500D01*
X118566459Y-106574500D01*
X118522556Y-106583233D01*
X118373170Y-106612947D01*
X118373160Y-106612950D01*
X118191086Y-106688367D01*
X118027218Y-106797860D01*
X118027217Y-106797862D01*
X117887862Y-106937217D01*
X117887860Y-106937218D01*
X117778367Y-107101086D01*
X117702950Y-107283160D01*
X117702947Y-107283170D01*
X117664500Y-107476460D01*
X117125500Y-107476460D01*
X117125500Y-106710180D01*
X117116767Y-106666278D01*
X117083504Y-106616496D01*
X117078195Y-106612949D01*
X117033722Y-106583233D01*
X116989820Y-106574500D01*
X115260180Y-106574500D01*
X115238229Y-106578866D01*
X115216277Y-106583233D01*
X115166496Y-106616495D01*
X115166495Y-106616496D01*
X115133233Y-106666277D01*
X115133233Y-106666278D01*
X115124500Y-106710180D01*
X104325750Y-106710180D01*
X104222352Y-105991030D01*
X104222024Y-105988413D01*
X104197851Y-105763576D01*
X104178423Y-105582869D01*
X107194500Y-105582869D01*
X107194500Y-105779951D01*
X107200336Y-105809288D01*
X107232947Y-105973239D01*
X107232950Y-105973249D01*
X107308367Y-106155323D01*
X107415212Y-106315227D01*
X107417861Y-106319192D01*
X107557218Y-106458549D01*
X107721086Y-106568042D01*
X107903165Y-106643461D01*
X108096459Y-106681910D01*
X108096461Y-106681910D01*
X108293539Y-106681910D01*
X108293541Y-106681910D01*
X108486835Y-106643461D01*
X108668914Y-106568042D01*
X108832782Y-106458549D01*
X108972139Y-106319192D01*
X109081632Y-106155324D01*
X109157051Y-105973245D01*
X109195500Y-105779951D01*
X109195500Y-105582869D01*
X109157051Y-105389575D01*
X109081632Y-105207496D01*
X108972139Y-105043628D01*
X108832782Y-104904271D01*
X108825656Y-104899509D01*
X108668913Y-104794777D01*
X108486839Y-104719360D01*
X108486829Y-104719357D01*
X108357388Y-104693610D01*
X108293541Y-104680910D01*
X108096459Y-104680910D01*
X108041662Y-104691809D01*
X107903170Y-104719357D01*
X107903160Y-104719360D01*
X107721086Y-104794777D01*
X107557218Y-104904270D01*
X107557217Y-104904272D01*
X107417862Y-105043627D01*
X107417860Y-105043628D01*
X107308367Y-105207496D01*
X107232950Y-105389570D01*
X107232947Y-105389580D01*
X107218000Y-105464727D01*
X107194500Y-105582869D01*
X104178423Y-105582869D01*
X104110853Y-104954381D01*
X104110627Y-104951847D01*
X104036436Y-103914515D01*
X104036296Y-103911901D01*
X104005259Y-103042869D01*
X107194500Y-103042869D01*
X107194500Y-103239951D01*
X107202889Y-103282126D01*
X107232947Y-103433239D01*
X107232950Y-103433249D01*
X107308367Y-103615323D01*
X107413982Y-103773386D01*
X107417861Y-103779192D01*
X107557218Y-103918549D01*
X107721086Y-104028042D01*
X107903165Y-104103461D01*
X108096459Y-104141910D01*
X108096461Y-104141910D01*
X108293539Y-104141910D01*
X108293541Y-104141910D01*
X108486835Y-104103461D01*
X108606600Y-104053853D01*
X113349500Y-104053853D01*
X113349500Y-104146146D01*
X113373384Y-104235284D01*
X113373386Y-104235289D01*
X113418253Y-104313000D01*
X113425646Y-104369153D01*
X113418253Y-104387000D01*
X113373386Y-104464710D01*
X113373384Y-104464715D01*
X113349500Y-104553853D01*
X113349500Y-104646146D01*
X113373384Y-104735284D01*
X113373386Y-104735289D01*
X113418253Y-104813000D01*
X113425646Y-104869153D01*
X113418253Y-104887000D01*
X113373386Y-104964710D01*
X113373384Y-104964715D01*
X113349500Y-105053853D01*
X113349500Y-105146146D01*
X113373384Y-105235284D01*
X113373386Y-105235289D01*
X113418253Y-105313000D01*
X113425646Y-105369153D01*
X113418253Y-105387000D01*
X113373386Y-105464710D01*
X113373384Y-105464715D01*
X113349500Y-105553853D01*
X113349500Y-105646146D01*
X113373384Y-105735284D01*
X113373386Y-105735289D01*
X113418253Y-105813000D01*
X113425646Y-105869153D01*
X113418253Y-105887000D01*
X113373386Y-105964710D01*
X113373384Y-105964715D01*
X113349500Y-106053853D01*
X113349500Y-106146146D01*
X113373384Y-106235284D01*
X113373386Y-106235289D01*
X113419528Y-106315208D01*
X113419529Y-106315209D01*
X113419531Y-106315212D01*
X113484788Y-106380469D01*
X113484790Y-106380470D01*
X113484791Y-106380471D01*
X113484817Y-106380486D01*
X113564712Y-106426614D01*
X113564713Y-106426614D01*
X113564715Y-106426615D01*
X113609284Y-106438557D01*
X113653853Y-106450499D01*
X113653854Y-106450500D01*
X113653856Y-106450500D01*
X113746146Y-106450500D01*
X113746146Y-106450499D01*
X113835288Y-106426614D01*
X113915212Y-106380469D01*
X113944360Y-106351321D01*
X113973508Y-106322174D01*
X114025833Y-106300500D01*
X118874152Y-106300500D01*
X118926477Y-106322174D01*
X118984772Y-106380468D01*
X118984788Y-106380484D01*
X119024750Y-106403556D01*
X119064687Y-106426615D01*
X119064712Y-106426629D01*
X119064713Y-106426629D01*
X119064715Y-106426630D01*
X119109284Y-106438572D01*
X119153853Y-106450514D01*
X119153854Y-106450515D01*
X119153856Y-106450515D01*
X119246146Y-106450515D01*
X119246146Y-106450514D01*
X119335288Y-106426629D01*
X119415212Y-106380484D01*
X119480469Y-106315227D01*
X119526614Y-106235303D01*
X119550499Y-106146161D01*
X119550500Y-106146161D01*
X119550500Y-106053869D01*
X119550499Y-106053868D01*
X119526615Y-105964730D01*
X119526613Y-105964725D01*
X119481745Y-105887012D01*
X119474352Y-105830860D01*
X119481744Y-105813015D01*
X119526614Y-105735300D01*
X119550499Y-105646158D01*
X119550500Y-105646158D01*
X119550500Y-105553866D01*
X119550499Y-105553865D01*
X119526615Y-105464727D01*
X119526613Y-105464722D01*
X119481745Y-105387009D01*
X119474352Y-105330857D01*
X119481744Y-105313012D01*
X119526614Y-105235297D01*
X119550499Y-105146155D01*
X119550500Y-105146155D01*
X119550500Y-105053863D01*
X119550499Y-105053862D01*
X119550497Y-105053856D01*
X119526614Y-104964721D01*
X119492815Y-104906180D01*
X119481745Y-104887006D01*
X119474352Y-104830854D01*
X119481744Y-104813009D01*
X119526614Y-104735294D01*
X119550499Y-104646152D01*
X119550500Y-104646152D01*
X119550500Y-104553860D01*
X119550499Y-104553859D01*
X119550497Y-104553853D01*
X119526614Y-104464718D01*
X119526611Y-104464712D01*
X119481745Y-104387003D01*
X119474352Y-104330851D01*
X119481744Y-104313006D01*
X119526614Y-104235291D01*
X119550499Y-104146149D01*
X119550500Y-104146149D01*
X119550500Y-104053857D01*
X119550499Y-104053856D01*
X119550498Y-104053854D01*
X119526614Y-103964715D01*
X119499959Y-103918548D01*
X119481745Y-103887000D01*
X119474352Y-103830848D01*
X119481744Y-103813003D01*
X119526614Y-103735288D01*
X119550499Y-103646146D01*
X119550500Y-103646146D01*
X119550500Y-103553854D01*
X119550499Y-103553853D01*
X119526615Y-103464715D01*
X119526613Y-103464710D01*
X119480471Y-103384791D01*
X119480470Y-103384790D01*
X119480469Y-103384788D01*
X119415212Y-103319531D01*
X119415209Y-103319529D01*
X119415208Y-103319528D01*
X119335289Y-103273386D01*
X119335284Y-103273384D01*
X119246146Y-103249500D01*
X119246144Y-103249500D01*
X119153856Y-103249500D01*
X119153854Y-103249500D01*
X119064715Y-103273384D01*
X119064710Y-103273386D01*
X118984790Y-103319529D01*
X118984787Y-103319531D01*
X118926492Y-103377826D01*
X118874167Y-103399500D01*
X118690833Y-103399500D01*
X118638508Y-103377826D01*
X118580212Y-103319531D01*
X118580209Y-103319529D01*
X118500289Y-103273386D01*
X118500284Y-103273384D01*
X118411146Y-103249500D01*
X118411144Y-103249500D01*
X118318856Y-103249500D01*
X118318854Y-103249500D01*
X118229715Y-103273384D01*
X118229710Y-103273386D01*
X118149791Y-103319528D01*
X118084528Y-103384791D01*
X118038386Y-103464710D01*
X118038384Y-103464715D01*
X118014500Y-103553853D01*
X118014500Y-103646146D01*
X118038384Y-103735284D01*
X118038386Y-103735289D01*
X118069108Y-103788500D01*
X118076501Y-103844652D01*
X118042022Y-103889586D01*
X118005022Y-103899500D01*
X114025833Y-103899500D01*
X113973508Y-103877826D01*
X113915212Y-103819531D01*
X113915209Y-103819529D01*
X113835289Y-103773386D01*
X113835284Y-103773384D01*
X113746146Y-103749500D01*
X113746144Y-103749500D01*
X113653856Y-103749500D01*
X113653854Y-103749500D01*
X113564715Y-103773384D01*
X113564710Y-103773386D01*
X113484791Y-103819528D01*
X113419528Y-103884791D01*
X113373386Y-103964710D01*
X113373384Y-103964715D01*
X113349500Y-104053853D01*
X108606600Y-104053853D01*
X108668914Y-104028042D01*
X108832782Y-103918549D01*
X108972139Y-103779192D01*
X109081632Y-103615324D01*
X109157051Y-103433245D01*
X109195500Y-103239951D01*
X109195500Y-103042869D01*
X109157051Y-102849575D01*
X109141074Y-102811004D01*
X109081632Y-102667496D01*
X108972139Y-102503628D01*
X108864918Y-102396407D01*
X120295500Y-102396407D01*
X120295500Y-102573593D01*
X120306918Y-102630995D01*
X120330066Y-102747368D01*
X120330069Y-102747378D01*
X120397873Y-102911072D01*
X120491036Y-103050500D01*
X120496313Y-103058398D01*
X120621602Y-103183687D01*
X120768927Y-103282126D01*
X120932626Y-103349932D01*
X121106407Y-103384500D01*
X121106409Y-103384500D01*
X121283591Y-103384500D01*
X121283593Y-103384500D01*
X121457374Y-103349932D01*
X121587267Y-103296129D01*
X121643901Y-103296129D01*
X121667909Y-103312170D01*
X139027826Y-120672086D01*
X139049500Y-120724412D01*
X139049500Y-120749829D01*
X139087634Y-120841894D01*
X139087637Y-120841898D01*
X139227826Y-120982087D01*
X139249500Y-121034413D01*
X139249500Y-121046146D01*
X139273384Y-121135284D01*
X139273386Y-121135289D01*
X139319528Y-121215208D01*
X139319529Y-121215209D01*
X139319531Y-121215212D01*
X139384788Y-121280469D01*
X139464712Y-121326614D01*
X139464713Y-121326614D01*
X139464715Y-121326615D01*
X139509284Y-121338557D01*
X139553853Y-121350499D01*
X139553854Y-121350500D01*
X139553856Y-121350500D01*
X139646146Y-121350500D01*
X139646146Y-121350499D01*
X139735288Y-121326614D01*
X139815212Y-121280469D01*
X139880469Y-121215212D01*
X139926614Y-121135288D01*
X139950499Y-121046146D01*
X139950500Y-121046146D01*
X139950500Y-120953854D01*
X139950499Y-120953853D01*
X139926615Y-120864715D01*
X139926613Y-120864710D01*
X139880471Y-120784791D01*
X139880470Y-120784790D01*
X139880469Y-120784788D01*
X139815212Y-120719531D01*
X139815209Y-120719529D01*
X139815208Y-120719528D01*
X139735289Y-120673386D01*
X139735284Y-120673384D01*
X139646146Y-120649500D01*
X139646144Y-120649500D01*
X139634413Y-120649500D01*
X139582087Y-120627826D01*
X139572175Y-120617914D01*
X139550501Y-120565588D01*
X139550501Y-120540173D01*
X139527099Y-120483676D01*
X139512364Y-120448103D01*
X139441897Y-120377636D01*
X139441896Y-120377635D01*
X139437682Y-120373421D01*
X139437675Y-120373415D01*
X130965592Y-111901332D01*
X130918113Y-111853853D01*
X131849500Y-111853853D01*
X131849500Y-111946146D01*
X131873384Y-112035284D01*
X131873386Y-112035289D01*
X131919528Y-112115208D01*
X131919529Y-112115209D01*
X131919531Y-112115212D01*
X131984788Y-112180469D01*
X132064712Y-112226614D01*
X132064713Y-112226614D01*
X132064715Y-112226615D01*
X132109284Y-112238557D01*
X132153853Y-112250499D01*
X132153854Y-112250500D01*
X132153856Y-112250500D01*
X132165587Y-112250500D01*
X132217913Y-112272174D01*
X134058102Y-114112363D01*
X134058105Y-114112365D01*
X134104137Y-114131432D01*
X134150172Y-114150500D01*
X134249828Y-114150500D01*
X134924168Y-114150500D01*
X134976492Y-114172173D01*
X134984788Y-114180469D01*
X135064712Y-114226614D01*
X135064713Y-114226614D01*
X135064715Y-114226615D01*
X135109284Y-114238557D01*
X135153853Y-114250499D01*
X135153854Y-114250500D01*
X135153856Y-114250500D01*
X135246146Y-114250500D01*
X135246146Y-114250499D01*
X135335288Y-114226614D01*
X135415212Y-114180469D01*
X135480469Y-114115212D01*
X135526614Y-114035288D01*
X135550499Y-113946146D01*
X135550500Y-113946146D01*
X135550500Y-113853854D01*
X135550499Y-113853853D01*
X135526615Y-113764715D01*
X135526613Y-113764710D01*
X135480471Y-113684790D01*
X135472172Y-113676491D01*
X135450500Y-113624167D01*
X135450500Y-112706114D01*
X135472174Y-112653788D01*
X135505346Y-112634636D01*
X135535288Y-112626614D01*
X135615212Y-112580469D01*
X135680469Y-112515212D01*
X135726614Y-112435288D01*
X135750499Y-112346146D01*
X135750500Y-112346146D01*
X135750500Y-112276458D01*
X153584496Y-112276458D01*
X153584496Y-112473540D01*
X153592785Y-112515212D01*
X153622943Y-112666828D01*
X153622946Y-112666838D01*
X153698363Y-112848912D01*
X153698364Y-112848913D01*
X153807857Y-113012781D01*
X153947214Y-113152138D01*
X154111082Y-113261631D01*
X154293161Y-113337050D01*
X154486455Y-113375499D01*
X154486457Y-113375499D01*
X154683535Y-113375499D01*
X154683537Y-113375499D01*
X154876831Y-113337050D01*
X155058910Y-113261631D01*
X155222778Y-113152138D01*
X155362135Y-113012781D01*
X155471628Y-112848913D01*
X155547047Y-112666834D01*
X155585496Y-112473540D01*
X155585496Y-112276458D01*
X155547047Y-112083164D01*
X155471628Y-111901085D01*
X155362135Y-111737217D01*
X155222778Y-111597860D01*
X155186151Y-111573386D01*
X155058909Y-111488366D01*
X154876835Y-111412949D01*
X154876825Y-111412946D01*
X154747384Y-111387199D01*
X154683537Y-111374499D01*
X154486455Y-111374499D01*
X154431658Y-111385398D01*
X154293166Y-111412946D01*
X154293156Y-111412949D01*
X154111082Y-111488366D01*
X153947214Y-111597859D01*
X153947213Y-111597861D01*
X153807858Y-111737216D01*
X153807856Y-111737217D01*
X153698363Y-111901085D01*
X153622946Y-112083159D01*
X153622943Y-112083169D01*
X153590846Y-112244534D01*
X153584496Y-112276458D01*
X135750500Y-112276458D01*
X135750500Y-112253854D01*
X135750499Y-112253853D01*
X135743200Y-112226614D01*
X135726614Y-112164712D01*
X135698035Y-112115212D01*
X135680471Y-112084791D01*
X135680470Y-112084790D01*
X135680469Y-112084788D01*
X135615212Y-112019531D01*
X135615209Y-112019529D01*
X135615208Y-112019528D01*
X135535289Y-111973386D01*
X135535284Y-111973384D01*
X135446146Y-111949500D01*
X135446144Y-111949500D01*
X135353856Y-111949500D01*
X135353854Y-111949500D01*
X135264715Y-111973384D01*
X135264710Y-111973386D01*
X135184791Y-112019528D01*
X135119528Y-112084791D01*
X135073386Y-112164710D01*
X135073384Y-112164715D01*
X135049500Y-112253853D01*
X135049500Y-112265587D01*
X135027826Y-112317913D01*
X134987634Y-112358105D01*
X134949500Y-112450170D01*
X134949500Y-113575500D01*
X134927826Y-113627826D01*
X134875500Y-113649500D01*
X134334413Y-113649500D01*
X134282087Y-113627826D01*
X132572174Y-111917913D01*
X132550500Y-111865587D01*
X132550500Y-111853854D01*
X132550499Y-111853853D01*
X132526615Y-111764715D01*
X132526613Y-111764710D01*
X132480471Y-111684791D01*
X132480470Y-111684790D01*
X132480469Y-111684788D01*
X132415212Y-111619531D01*
X132415209Y-111619529D01*
X132415208Y-111619528D01*
X132335289Y-111573386D01*
X132335284Y-111573384D01*
X132246146Y-111549500D01*
X132246144Y-111549500D01*
X132153856Y-111549500D01*
X132153854Y-111549500D01*
X132064715Y-111573384D01*
X132064710Y-111573386D01*
X131984791Y-111619528D01*
X131919528Y-111684791D01*
X131873386Y-111764710D01*
X131873384Y-111764715D01*
X131849500Y-111853853D01*
X130918113Y-111853853D01*
X130699549Y-111635289D01*
X122022170Y-102957909D01*
X122000496Y-102905583D01*
X122006128Y-102877268D01*
X122059932Y-102747374D01*
X122094500Y-102573593D01*
X122094500Y-102396407D01*
X122059932Y-102222626D01*
X122042009Y-102179357D01*
X121992126Y-102058927D01*
X121893687Y-101911602D01*
X121768397Y-101786312D01*
X121621072Y-101687873D01*
X121457378Y-101620069D01*
X121457368Y-101620066D01*
X121340995Y-101596918D01*
X121283593Y-101585500D01*
X121106407Y-101585500D01*
X121057141Y-101595299D01*
X120932631Y-101620066D01*
X120932621Y-101620069D01*
X120768927Y-101687873D01*
X120621602Y-101786312D01*
X120621601Y-101786314D01*
X120496314Y-101911601D01*
X120496312Y-101911602D01*
X120397873Y-102058927D01*
X120330069Y-102222621D01*
X120330066Y-102222631D01*
X120312488Y-102311003D01*
X120295500Y-102396407D01*
X108864918Y-102396407D01*
X108832781Y-102364270D01*
X108668913Y-102254777D01*
X108486839Y-102179360D01*
X108486829Y-102179357D01*
X108357388Y-102153610D01*
X108293541Y-102140910D01*
X108096459Y-102140910D01*
X108041662Y-102151809D01*
X107903170Y-102179357D01*
X107903160Y-102179360D01*
X107721086Y-102254777D01*
X107557218Y-102364270D01*
X107557217Y-102364272D01*
X107417862Y-102503627D01*
X107417860Y-102503628D01*
X107308367Y-102667496D01*
X107232950Y-102849570D01*
X107232947Y-102849580D01*
X107200850Y-103010945D01*
X107194500Y-103042869D01*
X104005259Y-103042869D01*
X103999178Y-102872605D01*
X103999131Y-102869964D01*
X103999131Y-101830035D01*
X103999178Y-101827394D01*
X104013390Y-101429453D01*
X104036297Y-100788072D01*
X104036438Y-100785460D01*
X104037092Y-100776327D01*
X104056650Y-100502870D01*
X107194500Y-100502870D01*
X107194500Y-100699949D01*
X107232947Y-100893239D01*
X107232950Y-100893249D01*
X107308367Y-101075323D01*
X107403247Y-101217320D01*
X107417861Y-101239192D01*
X107557218Y-101378549D01*
X107721086Y-101488042D01*
X107903165Y-101563461D01*
X108096459Y-101601910D01*
X108096461Y-101601910D01*
X108293539Y-101601910D01*
X108293541Y-101601910D01*
X108486835Y-101563461D01*
X108668914Y-101488042D01*
X108832782Y-101378549D01*
X108972139Y-101239192D01*
X109081632Y-101075324D01*
X109102817Y-101024178D01*
X128493326Y-101024178D01*
X128493326Y-101273526D01*
X128500781Y-101311004D01*
X128507860Y-101346592D01*
X128529212Y-101378549D01*
X128563225Y-101429453D01*
X128646086Y-101484818D01*
X128719152Y-101499352D01*
X128719154Y-101499352D01*
X129028498Y-101499352D01*
X129028500Y-101499352D01*
X129101566Y-101484818D01*
X129152715Y-101450641D01*
X129208263Y-101439593D01*
X129234935Y-101450641D01*
X129286086Y-101484818D01*
X129359152Y-101499352D01*
X129359154Y-101499352D01*
X129668498Y-101499352D01*
X129668500Y-101499352D01*
X129741566Y-101484818D01*
X129824427Y-101429453D01*
X129824429Y-101429449D01*
X129829580Y-101424300D01*
X129831529Y-101426249D01*
X129869663Y-101400773D01*
X129884094Y-101399352D01*
X130887676Y-101399352D01*
X130887677Y-101399352D01*
X130979746Y-101361216D01*
X130979745Y-101361216D01*
X130985980Y-101358634D01*
X131014298Y-101353001D01*
X131307019Y-101353001D01*
X131307020Y-101353001D01*
X131350922Y-101344268D01*
X131400704Y-101311005D01*
X131433967Y-101261223D01*
X131442700Y-101217321D01*
X131442700Y-100954500D01*
X131464374Y-100902174D01*
X131516700Y-100880500D01*
X131779520Y-100880500D01*
X131779521Y-100880500D01*
X131823423Y-100871767D01*
X131846587Y-100856288D01*
X131902136Y-100845239D01*
X131928811Y-100856287D01*
X131951978Y-100871767D01*
X131995880Y-100880500D01*
X131995881Y-100880500D01*
X132279519Y-100880500D01*
X132279520Y-100880500D01*
X132323422Y-100871767D01*
X132346586Y-100856288D01*
X132402135Y-100845239D01*
X132428810Y-100856287D01*
X132451977Y-100871767D01*
X132495879Y-100880500D01*
X132495880Y-100880500D01*
X132779518Y-100880500D01*
X132779519Y-100880500D01*
X132823421Y-100871767D01*
X132846587Y-100856287D01*
X132902134Y-100845238D01*
X132928809Y-100856286D01*
X132951978Y-100871767D01*
X132995880Y-100880500D01*
X132995881Y-100880500D01*
X133279519Y-100880500D01*
X133279520Y-100880500D01*
X133323422Y-100871767D01*
X133346588Y-100856287D01*
X133402137Y-100845239D01*
X133428811Y-100856287D01*
X133451978Y-100871767D01*
X133495880Y-100880500D01*
X133495881Y-100880500D01*
X133779519Y-100880500D01*
X133779520Y-100880500D01*
X133823422Y-100871767D01*
X133846588Y-100856287D01*
X133902135Y-100845238D01*
X133928810Y-100856286D01*
X133951979Y-100871767D01*
X133995881Y-100880500D01*
X133995882Y-100880500D01*
X134279520Y-100880500D01*
X134279521Y-100880500D01*
X134323423Y-100871767D01*
X134346587Y-100856288D01*
X134402136Y-100845239D01*
X134428811Y-100856287D01*
X134451978Y-100871767D01*
X134495880Y-100880500D01*
X134495881Y-100880500D01*
X134779519Y-100880500D01*
X134779520Y-100880500D01*
X134823422Y-100871767D01*
X134846586Y-100856288D01*
X134902135Y-100845239D01*
X134928810Y-100856287D01*
X134951977Y-100871767D01*
X134995879Y-100880500D01*
X134995880Y-100880500D01*
X135279518Y-100880500D01*
X135279519Y-100880500D01*
X135323421Y-100871767D01*
X135373203Y-100838504D01*
X135406466Y-100788722D01*
X135415199Y-100744820D01*
X135415199Y-99953180D01*
X135406466Y-99909278D01*
X135373203Y-99859496D01*
X135363123Y-99852761D01*
X135323421Y-99826233D01*
X135305906Y-99822749D01*
X135279519Y-99817500D01*
X134995879Y-99817500D01*
X134995877Y-99817500D01*
X134976635Y-99821327D01*
X134921086Y-99810277D01*
X134889622Y-99763184D01*
X134888200Y-99748749D01*
X134888200Y-96183412D01*
X134909874Y-96131086D01*
X134962200Y-96109412D01*
X135014526Y-96131086D01*
X136274026Y-97390586D01*
X136295700Y-97442912D01*
X136295700Y-101224000D01*
X136274026Y-101276326D01*
X136221700Y-101298000D01*
X135468380Y-101298000D01*
X135446429Y-101302366D01*
X135424477Y-101306733D01*
X135374696Y-101339995D01*
X135374695Y-101339996D01*
X135341433Y-101389777D01*
X135332700Y-101433680D01*
X135332700Y-101717319D01*
X135341433Y-101761222D01*
X135371841Y-101806732D01*
X135374696Y-101811004D01*
X135424478Y-101844267D01*
X135468380Y-101853000D01*
X135468381Y-101853000D01*
X136221700Y-101853000D01*
X136274026Y-101874674D01*
X136295700Y-101927000D01*
X136295700Y-102724000D01*
X136274026Y-102776326D01*
X136221700Y-102798000D01*
X135468380Y-102798000D01*
X135446429Y-102802366D01*
X135424477Y-102806733D01*
X135374696Y-102839995D01*
X135374695Y-102839996D01*
X135341433Y-102889777D01*
X135338289Y-102905583D01*
X135332700Y-102933680D01*
X135332700Y-103217320D01*
X135341433Y-103261222D01*
X135356911Y-103284387D01*
X135356912Y-103284388D01*
X135367961Y-103339937D01*
X135356913Y-103366611D01*
X135341433Y-103389779D01*
X135332700Y-103433681D01*
X135332700Y-103717320D01*
X135341433Y-103761224D01*
X135356911Y-103784389D01*
X135367960Y-103839938D01*
X135356912Y-103866610D01*
X135341433Y-103889776D01*
X135332700Y-103933680D01*
X135332700Y-104217319D01*
X135341433Y-104261223D01*
X135356911Y-104284388D01*
X135367960Y-104339937D01*
X135356912Y-104366609D01*
X135341433Y-104389775D01*
X135332700Y-104433679D01*
X135332700Y-104696500D01*
X135311026Y-104748826D01*
X135258700Y-104770500D01*
X134995879Y-104770500D01*
X134981245Y-104773411D01*
X134951975Y-104779233D01*
X134928809Y-104794712D01*
X134873260Y-104805760D01*
X134846588Y-104794711D01*
X134823423Y-104779233D01*
X134801471Y-104774866D01*
X134779520Y-104770500D01*
X134495880Y-104770500D01*
X134481246Y-104773411D01*
X134451976Y-104779233D01*
X134428810Y-104794712D01*
X134373261Y-104805760D01*
X134346589Y-104794711D01*
X134323424Y-104779233D01*
X134301472Y-104774866D01*
X134279521Y-104770500D01*
X133995881Y-104770500D01*
X133951979Y-104779233D01*
X133928811Y-104794713D01*
X133873262Y-104805761D01*
X133846588Y-104794712D01*
X133846587Y-104794711D01*
X133823422Y-104779233D01*
X133779520Y-104770500D01*
X133495880Y-104770500D01*
X133481246Y-104773411D01*
X133451976Y-104779233D01*
X133428810Y-104794712D01*
X133373261Y-104805760D01*
X133346590Y-104794712D01*
X133323422Y-104779233D01*
X133323423Y-104779233D01*
X133301471Y-104774866D01*
X133279520Y-104770500D01*
X132995880Y-104770500D01*
X132951978Y-104779233D01*
X132928810Y-104794713D01*
X132873261Y-104805761D01*
X132846587Y-104794712D01*
X132846586Y-104794711D01*
X132823421Y-104779233D01*
X132779519Y-104770500D01*
X132495879Y-104770500D01*
X132481245Y-104773411D01*
X132451975Y-104779233D01*
X132428809Y-104794712D01*
X132373260Y-104805760D01*
X132346588Y-104794711D01*
X132323423Y-104779233D01*
X132301471Y-104774866D01*
X132279520Y-104770500D01*
X131995880Y-104770500D01*
X131981246Y-104773411D01*
X131951976Y-104779233D01*
X131928810Y-104794712D01*
X131873261Y-104805760D01*
X131846589Y-104794711D01*
X131823424Y-104779233D01*
X131801472Y-104774866D01*
X131779521Y-104770500D01*
X131516700Y-104770500D01*
X131464374Y-104748826D01*
X131442700Y-104696500D01*
X131442700Y-104433679D01*
X131441295Y-104426615D01*
X131433967Y-104389777D01*
X131418487Y-104366610D01*
X131407439Y-104311062D01*
X131418489Y-104284386D01*
X131433967Y-104261222D01*
X131442700Y-104217320D01*
X131442700Y-103933680D01*
X131433967Y-103889778D01*
X131418487Y-103866611D01*
X131407439Y-103811063D01*
X131418489Y-103784387D01*
X131433967Y-103761223D01*
X131442700Y-103717321D01*
X131442700Y-103433681D01*
X131433967Y-103389779D01*
X131418486Y-103366611D01*
X131407438Y-103311064D01*
X131418488Y-103284388D01*
X131433967Y-103261222D01*
X131442700Y-103217320D01*
X131442700Y-102933680D01*
X131433967Y-102889778D01*
X131418487Y-102866611D01*
X131407439Y-102811063D01*
X131418488Y-102784388D01*
X131433967Y-102761222D01*
X131442700Y-102717320D01*
X131442700Y-102433680D01*
X131433967Y-102389778D01*
X131418486Y-102366610D01*
X131407438Y-102311063D01*
X131418488Y-102284387D01*
X131433967Y-102261221D01*
X131442700Y-102217319D01*
X131442700Y-101933679D01*
X131433967Y-101889777D01*
X131400704Y-101839995D01*
X131350922Y-101806732D01*
X131307020Y-101797999D01*
X130515380Y-101797999D01*
X130493429Y-101802365D01*
X130471477Y-101806732D01*
X130421696Y-101839994D01*
X130421695Y-101839995D01*
X130388433Y-101889776D01*
X130381029Y-101927000D01*
X130379700Y-101933679D01*
X130379700Y-102217319D01*
X130388433Y-102261221D01*
X130403911Y-102284386D01*
X130403912Y-102284387D01*
X130414961Y-102339936D01*
X130403913Y-102366610D01*
X130388433Y-102389778D01*
X130379700Y-102433680D01*
X130379700Y-102717319D01*
X130388433Y-102761223D01*
X130403912Y-102784390D01*
X130414960Y-102839939D01*
X130403912Y-102866610D01*
X130388433Y-102889776D01*
X130385289Y-102905583D01*
X130379700Y-102933680D01*
X130379700Y-103217320D01*
X130388433Y-103261222D01*
X130403911Y-103284387D01*
X130403912Y-103284388D01*
X130414961Y-103339937D01*
X130403913Y-103366611D01*
X130388433Y-103389779D01*
X130379700Y-103433681D01*
X130379700Y-103717320D01*
X130388433Y-103761224D01*
X130403911Y-103784389D01*
X130414960Y-103839938D01*
X130403912Y-103866610D01*
X130388433Y-103889776D01*
X130379700Y-103933680D01*
X130379700Y-104217319D01*
X130388433Y-104261223D01*
X130403911Y-104284388D01*
X130414960Y-104339937D01*
X130403912Y-104366609D01*
X130388433Y-104389775D01*
X130381106Y-104426613D01*
X130379700Y-104433679D01*
X130379700Y-104717319D01*
X130383275Y-104735289D01*
X130388433Y-104761221D01*
X130418192Y-104805760D01*
X130421696Y-104811003D01*
X130471478Y-104844266D01*
X130515380Y-104852999D01*
X130515381Y-104852999D01*
X131286201Y-104852999D01*
X131338527Y-104874673D01*
X131360201Y-104926999D01*
X131360201Y-105697819D01*
X131368934Y-105741722D01*
X131394477Y-105779951D01*
X131402197Y-105791504D01*
X131451979Y-105824767D01*
X131495881Y-105833500D01*
X131495882Y-105833500D01*
X131779520Y-105833500D01*
X131779521Y-105833500D01*
X131823423Y-105824767D01*
X131846587Y-105809288D01*
X131902136Y-105798239D01*
X131928811Y-105809287D01*
X131951978Y-105824767D01*
X131995880Y-105833500D01*
X131995881Y-105833500D01*
X132279519Y-105833500D01*
X132279520Y-105833500D01*
X132323422Y-105824767D01*
X132346586Y-105809288D01*
X132402135Y-105798239D01*
X132428810Y-105809287D01*
X132451977Y-105824767D01*
X132495879Y-105833500D01*
X132495880Y-105833500D01*
X132779518Y-105833500D01*
X132779519Y-105833500D01*
X132823421Y-105824767D01*
X132846587Y-105809287D01*
X132902134Y-105798238D01*
X132928809Y-105809286D01*
X132951978Y-105824767D01*
X132995880Y-105833500D01*
X132995881Y-105833500D01*
X133279519Y-105833500D01*
X133279520Y-105833500D01*
X133323422Y-105824767D01*
X133346588Y-105809287D01*
X133402137Y-105798239D01*
X133428811Y-105809287D01*
X133451978Y-105824767D01*
X133495880Y-105833500D01*
X133495881Y-105833500D01*
X133779519Y-105833500D01*
X133779520Y-105833500D01*
X133823422Y-105824767D01*
X133846588Y-105809287D01*
X133902135Y-105798238D01*
X133928810Y-105809286D01*
X133951979Y-105824767D01*
X133995881Y-105833500D01*
X133995882Y-105833500D01*
X134279520Y-105833500D01*
X134279521Y-105833500D01*
X134323423Y-105824767D01*
X134346587Y-105809288D01*
X134402136Y-105798239D01*
X134428811Y-105809287D01*
X134451978Y-105824767D01*
X134495880Y-105833500D01*
X134495881Y-105833500D01*
X134779519Y-105833500D01*
X134779520Y-105833500D01*
X134823422Y-105824767D01*
X134846586Y-105809288D01*
X134902135Y-105798239D01*
X134928810Y-105809287D01*
X134951977Y-105824767D01*
X134995879Y-105833500D01*
X134995880Y-105833500D01*
X135279518Y-105833500D01*
X135279519Y-105833500D01*
X135323421Y-105824767D01*
X135323421Y-105824766D01*
X135330569Y-105823345D01*
X135331389Y-105827469D01*
X135373469Y-105827392D01*
X135413590Y-105867367D01*
X135413694Y-105924005D01*
X135397601Y-105948137D01*
X133217913Y-108127826D01*
X133165587Y-108149500D01*
X133153854Y-108149500D01*
X133064715Y-108173384D01*
X133064710Y-108173386D01*
X132984791Y-108219528D01*
X132919528Y-108284791D01*
X132873386Y-108364710D01*
X132873384Y-108364715D01*
X132849500Y-108453853D01*
X132849500Y-108546146D01*
X132873384Y-108635284D01*
X132873386Y-108635289D01*
X132919528Y-108715208D01*
X132919529Y-108715209D01*
X132919531Y-108715212D01*
X132984788Y-108780469D01*
X133064712Y-108826614D01*
X133064713Y-108826614D01*
X133064715Y-108826615D01*
X133109284Y-108838557D01*
X133153853Y-108850499D01*
X133153854Y-108850500D01*
X133153856Y-108850500D01*
X133246146Y-108850500D01*
X133246146Y-108850499D01*
X133335288Y-108826614D01*
X133415212Y-108780469D01*
X133480469Y-108715212D01*
X133526614Y-108635288D01*
X133550499Y-108546146D01*
X133550500Y-108546146D01*
X133550500Y-108534413D01*
X133572174Y-108482087D01*
X136758563Y-105295698D01*
X136758564Y-105295697D01*
X136796700Y-105203628D01*
X136796700Y-105103973D01*
X136796700Y-103786913D01*
X136818374Y-103734587D01*
X136870700Y-103712913D01*
X136923026Y-103734587D01*
X137500802Y-104312363D01*
X137500805Y-104312365D01*
X137507686Y-104315215D01*
X137592872Y-104350500D01*
X137624168Y-104350500D01*
X137676492Y-104372173D01*
X137684788Y-104380469D01*
X137684790Y-104380470D01*
X137684791Y-104380471D01*
X137717760Y-104399506D01*
X137764712Y-104426614D01*
X137764713Y-104426614D01*
X137764715Y-104426615D01*
X137791079Y-104433679D01*
X137853853Y-104450499D01*
X137853854Y-104450500D01*
X137853856Y-104450500D01*
X137946146Y-104450500D01*
X137946146Y-104450499D01*
X138035288Y-104426614D01*
X138115212Y-104380469D01*
X138180469Y-104315212D01*
X138226614Y-104235288D01*
X138250499Y-104146146D01*
X138250500Y-104146146D01*
X138250500Y-104053854D01*
X138250499Y-104053853D01*
X138226615Y-103964715D01*
X138226613Y-103964710D01*
X138180471Y-103884791D01*
X138180470Y-103884790D01*
X138180469Y-103884788D01*
X138115212Y-103819531D01*
X138115209Y-103819529D01*
X138115208Y-103819528D01*
X138035289Y-103773386D01*
X138035284Y-103773384D01*
X137946146Y-103749500D01*
X137946144Y-103749500D01*
X137853856Y-103749500D01*
X137853854Y-103749500D01*
X137764715Y-103773384D01*
X137764706Y-103773388D01*
X137754057Y-103779536D01*
X137697904Y-103786925D01*
X137664735Y-103767774D01*
X136818374Y-102921413D01*
X136796700Y-102869087D01*
X136796700Y-102753853D01*
X152549500Y-102753853D01*
X152549500Y-102846146D01*
X152573384Y-102935284D01*
X152573386Y-102935289D01*
X152619528Y-103015208D01*
X152619529Y-103015209D01*
X152619531Y-103015212D01*
X152684788Y-103080469D01*
X152764712Y-103126614D01*
X152764713Y-103126614D01*
X152764715Y-103126615D01*
X152809284Y-103138557D01*
X152853853Y-103150499D01*
X152853854Y-103150500D01*
X152853856Y-103150500D01*
X152946146Y-103150500D01*
X152946146Y-103150499D01*
X153035288Y-103126614D01*
X153115212Y-103080469D01*
X153123507Y-103072173D01*
X153175832Y-103050500D01*
X153971761Y-103050500D01*
X154024085Y-103072173D01*
X154032381Y-103080469D01*
X154112305Y-103126614D01*
X154112306Y-103126614D01*
X154112308Y-103126615D01*
X154156877Y-103138557D01*
X154201446Y-103150499D01*
X154201447Y-103150500D01*
X154201449Y-103150500D01*
X154293739Y-103150500D01*
X154293739Y-103150499D01*
X154382881Y-103126614D01*
X154462805Y-103080469D01*
X154528062Y-103015212D01*
X154574207Y-102935288D01*
X154598092Y-102846146D01*
X154598093Y-102846146D01*
X154598093Y-102753854D01*
X154598092Y-102753853D01*
X154596354Y-102747368D01*
X154574207Y-102664712D01*
X154528062Y-102584788D01*
X154462805Y-102519531D01*
X154462802Y-102519529D01*
X154462801Y-102519528D01*
X154382882Y-102473386D01*
X154382877Y-102473384D01*
X154293739Y-102449500D01*
X154293737Y-102449500D01*
X154201449Y-102449500D01*
X154201447Y-102449500D01*
X154112308Y-102473384D01*
X154112303Y-102473386D01*
X154032384Y-102519528D01*
X154032381Y-102519530D01*
X154032381Y-102519531D01*
X154024085Y-102527826D01*
X153971761Y-102549500D01*
X153175832Y-102549500D01*
X153123507Y-102527826D01*
X153115212Y-102519531D01*
X153115209Y-102519529D01*
X153115208Y-102519528D01*
X153035289Y-102473386D01*
X153035284Y-102473384D01*
X152946146Y-102449500D01*
X152946144Y-102449500D01*
X152853856Y-102449500D01*
X152853854Y-102449500D01*
X152764715Y-102473384D01*
X152764710Y-102473386D01*
X152684791Y-102519528D01*
X152619528Y-102584791D01*
X152573386Y-102664710D01*
X152573384Y-102664715D01*
X152549500Y-102753853D01*
X136796700Y-102753853D01*
X136796700Y-97366948D01*
X136796701Y-97366939D01*
X136796701Y-97258673D01*
X136763580Y-97178714D01*
X136758564Y-97166604D01*
X136758564Y-97166603D01*
X136688097Y-97096136D01*
X136688095Y-97096135D01*
X134904524Y-95312563D01*
X134888483Y-95288555D01*
X134850065Y-95195805D01*
X134850063Y-95195802D01*
X134775382Y-95121121D01*
X134775375Y-95121115D01*
X133983711Y-94329451D01*
X132606584Y-92952323D01*
X132584911Y-92899999D01*
X132606584Y-92847674D01*
X135082086Y-90372174D01*
X135134412Y-90350500D01*
X135146146Y-90350500D01*
X135146146Y-90350499D01*
X135235288Y-90326614D01*
X135315212Y-90280469D01*
X135380469Y-90215212D01*
X135426614Y-90135288D01*
X135450499Y-90046146D01*
X135450500Y-90046146D01*
X135450500Y-89953854D01*
X135450499Y-89953853D01*
X135426615Y-89864715D01*
X135426613Y-89864710D01*
X135380471Y-89784791D01*
X135380470Y-89784790D01*
X135380469Y-89784788D01*
X135315212Y-89719531D01*
X135315209Y-89719529D01*
X135315208Y-89719528D01*
X135235289Y-89673386D01*
X135235284Y-89673384D01*
X135146146Y-89649500D01*
X135146144Y-89649500D01*
X135053856Y-89649500D01*
X135053854Y-89649500D01*
X134964715Y-89673384D01*
X134964710Y-89673386D01*
X134884791Y-89719528D01*
X134819528Y-89784791D01*
X134773386Y-89864710D01*
X134773384Y-89864715D01*
X134749500Y-89953853D01*
X134749500Y-89965586D01*
X134727826Y-90017912D01*
X131991519Y-92754219D01*
X131991518Y-92754218D01*
X131931461Y-92814276D01*
X131931461Y-92814278D01*
X131931460Y-92814279D01*
X128721521Y-96024217D01*
X128661463Y-96084275D01*
X128661460Y-96084279D01*
X128623326Y-96176344D01*
X128623326Y-100788538D01*
X128601652Y-100840864D01*
X128590439Y-100850066D01*
X128563226Y-100868249D01*
X128563224Y-100868251D01*
X128507860Y-100951111D01*
X128507860Y-100951112D01*
X128493326Y-101024178D01*
X109102817Y-101024178D01*
X109157051Y-100893245D01*
X109195500Y-100699951D01*
X109195500Y-100502869D01*
X109157051Y-100309575D01*
X109138467Y-100264710D01*
X109081632Y-100127496D01*
X108972139Y-99963628D01*
X108832781Y-99824270D01*
X108668913Y-99714777D01*
X108486839Y-99639360D01*
X108486829Y-99639357D01*
X108357388Y-99613610D01*
X108293541Y-99600910D01*
X108096459Y-99600910D01*
X108041662Y-99611809D01*
X107903170Y-99639357D01*
X107903160Y-99639360D01*
X107721086Y-99714777D01*
X107557218Y-99824270D01*
X107557217Y-99824272D01*
X107417862Y-99963627D01*
X107417860Y-99963628D01*
X107308367Y-100127496D01*
X107232950Y-100309570D01*
X107232947Y-100309580D01*
X107194500Y-100502870D01*
X104056650Y-100502870D01*
X104110627Y-99748147D01*
X104110853Y-99745623D01*
X104222025Y-98711575D01*
X104222353Y-98708965D01*
X104247319Y-98535323D01*
X104329625Y-97962869D01*
X107194500Y-97962869D01*
X107194500Y-98159951D01*
X107197815Y-98176614D01*
X107232947Y-98353239D01*
X107232950Y-98353249D01*
X107308367Y-98535323D01*
X107356858Y-98607894D01*
X107417861Y-98699192D01*
X107557218Y-98838549D01*
X107721086Y-98948042D01*
X107903165Y-99023461D01*
X108096459Y-99061910D01*
X108096461Y-99061910D01*
X108293539Y-99061910D01*
X108293541Y-99061910D01*
X108486835Y-99023461D01*
X108668914Y-98948042D01*
X108832782Y-98838549D01*
X108972139Y-98699192D01*
X109002434Y-98653853D01*
X122149500Y-98653853D01*
X122149500Y-98746146D01*
X122173384Y-98835284D01*
X122173386Y-98835289D01*
X122219528Y-98915208D01*
X122219529Y-98915209D01*
X122219531Y-98915212D01*
X122284788Y-98980469D01*
X122284790Y-98980470D01*
X122284791Y-98980471D01*
X122364710Y-99026613D01*
X122364712Y-99026614D01*
X122364713Y-99026614D01*
X122364715Y-99026615D01*
X122409284Y-99038557D01*
X122453853Y-99050499D01*
X122453854Y-99050500D01*
X122453856Y-99050500D01*
X122546146Y-99050500D01*
X122546146Y-99050499D01*
X122635288Y-99026614D01*
X122715212Y-98980469D01*
X122780469Y-98915212D01*
X122826614Y-98835288D01*
X122826614Y-98835287D01*
X122829040Y-98831086D01*
X122829419Y-98831304D01*
X122842424Y-98811835D01*
X123493926Y-98160332D01*
X123546252Y-98138659D01*
X123583252Y-98148573D01*
X123631820Y-98176614D01*
X123631821Y-98176614D01*
X123631823Y-98176615D01*
X123676392Y-98188557D01*
X123720961Y-98200499D01*
X123720962Y-98200500D01*
X123720964Y-98200500D01*
X123813254Y-98200500D01*
X123813254Y-98200499D01*
X123902396Y-98176614D01*
X123982320Y-98130469D01*
X124047577Y-98065212D01*
X124093722Y-97985288D01*
X124117607Y-97896146D01*
X124117608Y-97896146D01*
X124117608Y-97803854D01*
X124117607Y-97803853D01*
X124093723Y-97714715D01*
X124093721Y-97714710D01*
X124047579Y-97634791D01*
X124047578Y-97634790D01*
X124047577Y-97634788D01*
X123982320Y-97569531D01*
X123982317Y-97569529D01*
X123982316Y-97569528D01*
X123902397Y-97523386D01*
X123902392Y-97523384D01*
X123813254Y-97499500D01*
X123813252Y-97499500D01*
X123720964Y-97499500D01*
X123720962Y-97499500D01*
X123631823Y-97523384D01*
X123631818Y-97523386D01*
X123551899Y-97569528D01*
X123551896Y-97569530D01*
X123551896Y-97569531D01*
X123543601Y-97577825D01*
X123491277Y-97599499D01*
X123400173Y-97599499D01*
X123346239Y-97621838D01*
X123346240Y-97621839D01*
X123308104Y-97637635D01*
X123237635Y-97708104D01*
X122615862Y-98329875D01*
X122563536Y-98351549D01*
X122550983Y-98349897D01*
X122550953Y-98350133D01*
X122546145Y-98349500D01*
X122546144Y-98349500D01*
X122453856Y-98349500D01*
X122453854Y-98349500D01*
X122364715Y-98373384D01*
X122364710Y-98373386D01*
X122284791Y-98419528D01*
X122219528Y-98484791D01*
X122173386Y-98564710D01*
X122173384Y-98564715D01*
X122149500Y-98653853D01*
X109002434Y-98653853D01*
X109081632Y-98535324D01*
X109157051Y-98353245D01*
X109195500Y-98159951D01*
X109195500Y-97962869D01*
X109157051Y-97769575D01*
X109081632Y-97587496D01*
X108972139Y-97423628D01*
X108832782Y-97284271D01*
X108668914Y-97174778D01*
X108668915Y-97174778D01*
X108668913Y-97174777D01*
X108486839Y-97099360D01*
X108486829Y-97099357D01*
X108357388Y-97073610D01*
X108293541Y-97060910D01*
X108096459Y-97060910D01*
X108041662Y-97071809D01*
X107903170Y-97099357D01*
X107903160Y-97099360D01*
X107721086Y-97174777D01*
X107557218Y-97284270D01*
X107557217Y-97284272D01*
X107417862Y-97423627D01*
X107417860Y-97423628D01*
X107308367Y-97587496D01*
X107232950Y-97769570D01*
X107232947Y-97769580D01*
X107207772Y-97896146D01*
X107194500Y-97962869D01*
X104329625Y-97962869D01*
X104370358Y-97679567D01*
X104370772Y-97677017D01*
X104555424Y-96653559D01*
X104555924Y-96651039D01*
X104777003Y-95634757D01*
X104777586Y-95632293D01*
X105026619Y-94656590D01*
X107194500Y-94656590D01*
X107194500Y-96386230D01*
X107203233Y-96430132D01*
X107236496Y-96479914D01*
X107286278Y-96513177D01*
X107330180Y-96521910D01*
X107330181Y-96521910D01*
X109059819Y-96521910D01*
X109059820Y-96521910D01*
X109103722Y-96513177D01*
X109153504Y-96479914D01*
X109186767Y-96430132D01*
X109195500Y-96386230D01*
X109195500Y-95896407D01*
X120295500Y-95896407D01*
X120295500Y-96073593D01*
X120297626Y-96084279D01*
X120330066Y-96247368D01*
X120330069Y-96247378D01*
X120397873Y-96411072D01*
X120471933Y-96521910D01*
X120496313Y-96558398D01*
X120621602Y-96683687D01*
X120768927Y-96782126D01*
X120932626Y-96849932D01*
X121106407Y-96884500D01*
X121106409Y-96884500D01*
X121283591Y-96884500D01*
X121283593Y-96884500D01*
X121457374Y-96849932D01*
X121621073Y-96782126D01*
X121768398Y-96683687D01*
X121893687Y-96558398D01*
X121992126Y-96411073D01*
X122059932Y-96247374D01*
X122094500Y-96073593D01*
X122094500Y-95896407D01*
X122059932Y-95722626D01*
X121992126Y-95558927D01*
X121893687Y-95411602D01*
X121768398Y-95286313D01*
X121632939Y-95195802D01*
X121621072Y-95187873D01*
X121457378Y-95120069D01*
X121457368Y-95120066D01*
X121340995Y-95096918D01*
X121283593Y-95085500D01*
X121106407Y-95085500D01*
X121057141Y-95095299D01*
X120932631Y-95120066D01*
X120932621Y-95120069D01*
X120768927Y-95187873D01*
X120621602Y-95286312D01*
X120621601Y-95286314D01*
X120496314Y-95411601D01*
X120496312Y-95411602D01*
X120397873Y-95558927D01*
X120330069Y-95722621D01*
X120330066Y-95722631D01*
X120301209Y-95867705D01*
X120295500Y-95896407D01*
X109195500Y-95896407D01*
X109195500Y-94656590D01*
X109186767Y-94612688D01*
X109153504Y-94562906D01*
X109103722Y-94529643D01*
X109059820Y-94520910D01*
X107330180Y-94520910D01*
X107308229Y-94525276D01*
X107286277Y-94529643D01*
X107236496Y-94562905D01*
X107236495Y-94562906D01*
X107203233Y-94612687D01*
X107200861Y-94624610D01*
X107194500Y-94656590D01*
X105026619Y-94656590D01*
X105034792Y-94624569D01*
X105035481Y-94622063D01*
X105052852Y-94562905D01*
X105328460Y-93624265D01*
X105329249Y-93621747D01*
X105657681Y-92634963D01*
X105658526Y-92632569D01*
X106021973Y-91658132D01*
X106022926Y-91655712D01*
X106420909Y-90694892D01*
X106421924Y-90692561D01*
X106853959Y-89746536D01*
X106855096Y-89744160D01*
X106890524Y-89673384D01*
X107320621Y-88814160D01*
X107321806Y-88811895D01*
X107820215Y-87899127D01*
X107821489Y-87896889D01*
X108352184Y-87002450D01*
X108353523Y-87000283D01*
X108769048Y-86353713D01*
X136474500Y-86353713D01*
X136474500Y-86596286D01*
X136506160Y-86836782D01*
X136506162Y-86836791D01*
X136568945Y-87071099D01*
X136661772Y-87295203D01*
X136661775Y-87295211D01*
X136783061Y-87505285D01*
X136783065Y-87505291D01*
X136930735Y-87697738D01*
X137102262Y-87869265D01*
X137294711Y-88016936D01*
X137504788Y-88138224D01*
X137728900Y-88231054D01*
X137963211Y-88293838D01*
X137963214Y-88293838D01*
X137963217Y-88293839D01*
X138069951Y-88307890D01*
X138203712Y-88325500D01*
X138203714Y-88325500D01*
X138446286Y-88325500D01*
X138446288Y-88325500D01*
X138631575Y-88301106D01*
X138686782Y-88293839D01*
X138686782Y-88293838D01*
X138686789Y-88293838D01*
X138921100Y-88231054D01*
X139145212Y-88138224D01*
X139355289Y-88016936D01*
X139547738Y-87869265D01*
X139719265Y-87697738D01*
X139866936Y-87505289D01*
X139988224Y-87295212D01*
X140081054Y-87071100D01*
X140143838Y-86836789D01*
X140175500Y-86596288D01*
X140175500Y-86353712D01*
X140145442Y-86125392D01*
X140143839Y-86113217D01*
X140143837Y-86113208D01*
X140081054Y-85878900D01*
X139988227Y-85654796D01*
X139988224Y-85654788D01*
X139866938Y-85444714D01*
X139866934Y-85444708D01*
X139719264Y-85252261D01*
X139547738Y-85080735D01*
X139355291Y-84933065D01*
X139355285Y-84933061D01*
X139145211Y-84811775D01*
X139145203Y-84811772D01*
X138921099Y-84718945D01*
X138686791Y-84656162D01*
X138686782Y-84656160D01*
X138493480Y-84630712D01*
X138446288Y-84624500D01*
X138203712Y-84624500D01*
X138160736Y-84630157D01*
X137963217Y-84656160D01*
X137963208Y-84656162D01*
X137728900Y-84718945D01*
X137504796Y-84811772D01*
X137504788Y-84811775D01*
X137294714Y-84933061D01*
X137294708Y-84933065D01*
X137102261Y-85080735D01*
X136930735Y-85252261D01*
X136783065Y-85444708D01*
X136783061Y-85444714D01*
X136661775Y-85654788D01*
X136661772Y-85654796D01*
X136568945Y-85878900D01*
X136506162Y-86113208D01*
X136506160Y-86113217D01*
X136474500Y-86353713D01*
X108769048Y-86353713D01*
X108915807Y-86125352D01*
X108917222Y-86123234D01*
X109510358Y-85268957D01*
X109511890Y-85266834D01*
X109852542Y-84811775D01*
X110135125Y-84434288D01*
X110136698Y-84432261D01*
X110789297Y-83622436D01*
X110790902Y-83620516D01*
X111471972Y-82834520D01*
X111473727Y-82832567D01*
X112182382Y-82071417D01*
X112184161Y-82069573D01*
X112506591Y-81747143D01*
X130984501Y-81747143D01*
X130984501Y-81902856D01*
X131014877Y-82055573D01*
X131014879Y-82055580D01*
X131074469Y-82199442D01*
X131160979Y-82328914D01*
X131271087Y-82439022D01*
X131400559Y-82525532D01*
X131544421Y-82585122D01*
X131697144Y-82615500D01*
X131697145Y-82615500D01*
X131852857Y-82615500D01*
X131852858Y-82615500D01*
X132005581Y-82585122D01*
X132149443Y-82525532D01*
X132278915Y-82439022D01*
X132389023Y-82328914D01*
X132475533Y-82199442D01*
X132535123Y-82055580D01*
X132565501Y-81902857D01*
X132565501Y-81747143D01*
X132535123Y-81594420D01*
X132475533Y-81450558D01*
X132389023Y-81321086D01*
X132278915Y-81210978D01*
X132220144Y-81171709D01*
X132149443Y-81124468D01*
X132005581Y-81064878D01*
X132005574Y-81064876D01*
X131890519Y-81041991D01*
X131852858Y-81034500D01*
X131697144Y-81034500D01*
X131666932Y-81040509D01*
X131544427Y-81064876D01*
X131544420Y-81064878D01*
X131400558Y-81124468D01*
X131271087Y-81210977D01*
X131271086Y-81210979D01*
X131160980Y-81321085D01*
X131160978Y-81321086D01*
X131074469Y-81450557D01*
X131014879Y-81594419D01*
X131014877Y-81594426D01*
X130984501Y-81747143D01*
X112506591Y-81747143D01*
X112919573Y-81334161D01*
X112921417Y-81332382D01*
X113682578Y-80623716D01*
X113684532Y-80621962D01*
X114470516Y-79940902D01*
X114472436Y-79939297D01*
X115282261Y-79286698D01*
X115284288Y-79285125D01*
X116116834Y-78661890D01*
X116118957Y-78660358D01*
X116973234Y-78067222D01*
X116975352Y-78065807D01*
X117850283Y-77503523D01*
X117852450Y-77502184D01*
X118746889Y-76971489D01*
X118749127Y-76970215D01*
X119661895Y-76471806D01*
X119664160Y-76470621D01*
X120594167Y-76005092D01*
X120596543Y-76003956D01*
X121542561Y-75571924D01*
X121544892Y-75570909D01*
X122505729Y-75172919D01*
X122508132Y-75171973D01*
X123482569Y-74808526D01*
X123484963Y-74807681D01*
X124471749Y-74479248D01*
X124474268Y-74478460D01*
X125472082Y-74185475D01*
X125474592Y-74184786D01*
X126482293Y-73927586D01*
X126484757Y-73927003D01*
X127501039Y-73705924D01*
X127503559Y-73705424D01*
X128527017Y-73520772D01*
X128529567Y-73520358D01*
X129558975Y-73372351D01*
X129561575Y-73372025D01*
X130595623Y-73260853D01*
X130598147Y-73260627D01*
X131635487Y-73186436D01*
X131638072Y-73186297D01*
X132677394Y-73149177D01*
X132680035Y-73149131D01*
X133719965Y-73149131D01*
X133722605Y-73149177D01*
G37*
%TD.AperFunction*%
%TD*%
M02*
