%TF.GenerationSoftware,KiCad,Pcbnew,9.0.2*%
%TF.CreationDate,2025-11-09T00:07:38+05:30*%
%TF.ProjectId,Nade,4e616465-2e6b-4696-9361-645f70636258,rev?*%
%TF.SameCoordinates,Original*%
%TF.FileFunction,Legend,Top*%
%TF.FilePolarity,Positive*%
%FSLAX46Y46*%
G04 Gerber Fmt 4.6, Leading zero omitted, Abs format (unit mm)*
G04 Created by KiCad (PCBNEW 9.0.2) date 2025-11-09 00:07:38*
%MOMM*%
%LPD*%
G01*
G04 APERTURE LIST*
%ADD10C,0.100000*%
%ADD11C,0.150000*%
%ADD12C,0.120000*%
%ADD13C,0.200000*%
%ADD14C,0.152400*%
%ADD15C,0.127000*%
%ADD16C,0.000000*%
G04 APERTURE END LIST*
D10*
X113120038Y-108172306D02*
X113072419Y-108267544D01*
X113072419Y-108267544D02*
X113072419Y-108410401D01*
X113072419Y-108410401D02*
X113120038Y-108553258D01*
X113120038Y-108553258D02*
X113215276Y-108648496D01*
X113215276Y-108648496D02*
X113310514Y-108696115D01*
X113310514Y-108696115D02*
X113500990Y-108743734D01*
X113500990Y-108743734D02*
X113643847Y-108743734D01*
X113643847Y-108743734D02*
X113834323Y-108696115D01*
X113834323Y-108696115D02*
X113929561Y-108648496D01*
X113929561Y-108648496D02*
X114024800Y-108553258D01*
X114024800Y-108553258D02*
X114072419Y-108410401D01*
X114072419Y-108410401D02*
X114072419Y-108315163D01*
X114072419Y-108315163D02*
X114024800Y-108172306D01*
X114024800Y-108172306D02*
X113977180Y-108124687D01*
X113977180Y-108124687D02*
X113643847Y-108124687D01*
X113643847Y-108124687D02*
X113643847Y-108315163D01*
X114072419Y-107696115D02*
X113072419Y-107696115D01*
X113072419Y-107696115D02*
X114072419Y-107124687D01*
X114072419Y-107124687D02*
X113072419Y-107124687D01*
X114072419Y-106648496D02*
X113072419Y-106648496D01*
X113072419Y-106648496D02*
X113072419Y-106410401D01*
X113072419Y-106410401D02*
X113120038Y-106267544D01*
X113120038Y-106267544D02*
X113215276Y-106172306D01*
X113215276Y-106172306D02*
X113310514Y-106124687D01*
X113310514Y-106124687D02*
X113500990Y-106077068D01*
X113500990Y-106077068D02*
X113643847Y-106077068D01*
X113643847Y-106077068D02*
X113834323Y-106124687D01*
X113834323Y-106124687D02*
X113929561Y-106172306D01*
X113929561Y-106172306D02*
X114024800Y-106267544D01*
X114024800Y-106267544D02*
X114072419Y-106410401D01*
X114072419Y-106410401D02*
X114072419Y-106648496D01*
X120261027Y-104772419D02*
X120594360Y-105772419D01*
X120594360Y-105772419D02*
X120927693Y-104772419D01*
X121261027Y-105772419D02*
X121261027Y-104772419D01*
X121261027Y-104772419D02*
X121499122Y-104772419D01*
X121499122Y-104772419D02*
X121641979Y-104820038D01*
X121641979Y-104820038D02*
X121737217Y-104915276D01*
X121737217Y-104915276D02*
X121784836Y-105010514D01*
X121784836Y-105010514D02*
X121832455Y-105200990D01*
X121832455Y-105200990D02*
X121832455Y-105343847D01*
X121832455Y-105343847D02*
X121784836Y-105534323D01*
X121784836Y-105534323D02*
X121737217Y-105629561D01*
X121737217Y-105629561D02*
X121641979Y-105724800D01*
X121641979Y-105724800D02*
X121499122Y-105772419D01*
X121499122Y-105772419D02*
X121261027Y-105772419D01*
X122261027Y-105772419D02*
X122261027Y-104772419D01*
X122261027Y-104772419D02*
X122499122Y-104772419D01*
X122499122Y-104772419D02*
X122641979Y-104820038D01*
X122641979Y-104820038D02*
X122737217Y-104915276D01*
X122737217Y-104915276D02*
X122784836Y-105010514D01*
X122784836Y-105010514D02*
X122832455Y-105200990D01*
X122832455Y-105200990D02*
X122832455Y-105343847D01*
X122832455Y-105343847D02*
X122784836Y-105534323D01*
X122784836Y-105534323D02*
X122737217Y-105629561D01*
X122737217Y-105629561D02*
X122641979Y-105724800D01*
X122641979Y-105724800D02*
X122499122Y-105772419D01*
X122499122Y-105772419D02*
X122261027Y-105772419D01*
X115372419Y-99024687D02*
X114896228Y-99358020D01*
X115372419Y-99596115D02*
X114372419Y-99596115D01*
X114372419Y-99596115D02*
X114372419Y-99215163D01*
X114372419Y-99215163D02*
X114420038Y-99119925D01*
X114420038Y-99119925D02*
X114467657Y-99072306D01*
X114467657Y-99072306D02*
X114562895Y-99024687D01*
X114562895Y-99024687D02*
X114705752Y-99024687D01*
X114705752Y-99024687D02*
X114800990Y-99072306D01*
X114800990Y-99072306D02*
X114848609Y-99119925D01*
X114848609Y-99119925D02*
X114896228Y-99215163D01*
X114896228Y-99215163D02*
X114896228Y-99596115D01*
X114848609Y-98596115D02*
X114848609Y-98262782D01*
X115372419Y-98119925D02*
X115372419Y-98596115D01*
X115372419Y-98596115D02*
X114372419Y-98596115D01*
X114372419Y-98596115D02*
X114372419Y-98119925D01*
X115324800Y-97738972D02*
X115372419Y-97596115D01*
X115372419Y-97596115D02*
X115372419Y-97358020D01*
X115372419Y-97358020D02*
X115324800Y-97262782D01*
X115324800Y-97262782D02*
X115277180Y-97215163D01*
X115277180Y-97215163D02*
X115181942Y-97167544D01*
X115181942Y-97167544D02*
X115086704Y-97167544D01*
X115086704Y-97167544D02*
X114991466Y-97215163D01*
X114991466Y-97215163D02*
X114943847Y-97262782D01*
X114943847Y-97262782D02*
X114896228Y-97358020D01*
X114896228Y-97358020D02*
X114848609Y-97548496D01*
X114848609Y-97548496D02*
X114800990Y-97643734D01*
X114800990Y-97643734D02*
X114753371Y-97691353D01*
X114753371Y-97691353D02*
X114658133Y-97738972D01*
X114658133Y-97738972D02*
X114562895Y-97738972D01*
X114562895Y-97738972D02*
X114467657Y-97691353D01*
X114467657Y-97691353D02*
X114420038Y-97643734D01*
X114420038Y-97643734D02*
X114372419Y-97548496D01*
X114372419Y-97548496D02*
X114372419Y-97310401D01*
X114372419Y-97310401D02*
X114420038Y-97167544D01*
X114848609Y-96738972D02*
X114848609Y-96405639D01*
X115372419Y-96262782D02*
X115372419Y-96738972D01*
X115372419Y-96738972D02*
X114372419Y-96738972D01*
X114372419Y-96738972D02*
X114372419Y-96262782D01*
X114372419Y-95977067D02*
X114372419Y-95405639D01*
X115372419Y-95691353D02*
X114372419Y-95691353D01*
X157596115Y-114208533D02*
X156834211Y-114208533D01*
X154591466Y-114696115D02*
X154591466Y-113934211D01*
X154972419Y-114315163D02*
X154210514Y-114315163D01*
X118611539Y-126082561D02*
X118992491Y-125422732D01*
X119111539Y-125082561D02*
X119492491Y-124422732D01*
X119631929Y-124943123D02*
X118972101Y-124562171D01*
D11*
X107861666Y-92596229D02*
X107861666Y-93310514D01*
X107861666Y-93310514D02*
X107814047Y-93453371D01*
X107814047Y-93453371D02*
X107718809Y-93548610D01*
X107718809Y-93548610D02*
X107575952Y-93596229D01*
X107575952Y-93596229D02*
X107480714Y-93596229D01*
X108242619Y-92596229D02*
X108909285Y-92596229D01*
X108909285Y-92596229D02*
X108480714Y-93596229D01*
X145345210Y-120079819D02*
X145916638Y-120079819D01*
X145630924Y-121079819D02*
X145630924Y-120079819D01*
X146249972Y-121079819D02*
X146249972Y-120079819D01*
X146249972Y-120079819D02*
X146630924Y-120079819D01*
X146630924Y-120079819D02*
X146726162Y-120127438D01*
X146726162Y-120127438D02*
X146773781Y-120175057D01*
X146773781Y-120175057D02*
X146821400Y-120270295D01*
X146821400Y-120270295D02*
X146821400Y-120413152D01*
X146821400Y-120413152D02*
X146773781Y-120508390D01*
X146773781Y-120508390D02*
X146726162Y-120556009D01*
X146726162Y-120556009D02*
X146630924Y-120603628D01*
X146630924Y-120603628D02*
X146249972Y-120603628D01*
X147726162Y-120079819D02*
X147249972Y-120079819D01*
X147249972Y-120079819D02*
X147202353Y-120556009D01*
X147202353Y-120556009D02*
X147249972Y-120508390D01*
X147249972Y-120508390D02*
X147345210Y-120460771D01*
X147345210Y-120460771D02*
X147583305Y-120460771D01*
X147583305Y-120460771D02*
X147678543Y-120508390D01*
X147678543Y-120508390D02*
X147726162Y-120556009D01*
X147726162Y-120556009D02*
X147773781Y-120651247D01*
X147773781Y-120651247D02*
X147773781Y-120889342D01*
X147773781Y-120889342D02*
X147726162Y-120984580D01*
X147726162Y-120984580D02*
X147678543Y-121032200D01*
X147678543Y-121032200D02*
X147583305Y-121079819D01*
X147583305Y-121079819D02*
X147345210Y-121079819D01*
X147345210Y-121079819D02*
X147249972Y-121032200D01*
X147249972Y-121032200D02*
X147202353Y-120984580D01*
X138463095Y-128629819D02*
X139034523Y-128629819D01*
X138748809Y-129629819D02*
X138748809Y-128629819D01*
X139367857Y-129629819D02*
X139367857Y-128629819D01*
X139367857Y-128629819D02*
X139748809Y-128629819D01*
X139748809Y-128629819D02*
X139844047Y-128677438D01*
X139844047Y-128677438D02*
X139891666Y-128725057D01*
X139891666Y-128725057D02*
X139939285Y-128820295D01*
X139939285Y-128820295D02*
X139939285Y-128963152D01*
X139939285Y-128963152D02*
X139891666Y-129058390D01*
X139891666Y-129058390D02*
X139844047Y-129106009D01*
X139844047Y-129106009D02*
X139748809Y-129153628D01*
X139748809Y-129153628D02*
X139367857Y-129153628D01*
X140796428Y-128963152D02*
X140796428Y-129629819D01*
X140558333Y-128582200D02*
X140320238Y-129296485D01*
X140320238Y-129296485D02*
X140939285Y-129296485D01*
X131663095Y-128979819D02*
X132234523Y-128979819D01*
X131948809Y-129979819D02*
X131948809Y-128979819D01*
X132567857Y-129979819D02*
X132567857Y-128979819D01*
X132567857Y-128979819D02*
X132948809Y-128979819D01*
X132948809Y-128979819D02*
X133044047Y-129027438D01*
X133044047Y-129027438D02*
X133091666Y-129075057D01*
X133091666Y-129075057D02*
X133139285Y-129170295D01*
X133139285Y-129170295D02*
X133139285Y-129313152D01*
X133139285Y-129313152D02*
X133091666Y-129408390D01*
X133091666Y-129408390D02*
X133044047Y-129456009D01*
X133044047Y-129456009D02*
X132948809Y-129503628D01*
X132948809Y-129503628D02*
X132567857Y-129503628D01*
X133472619Y-128979819D02*
X134091666Y-128979819D01*
X134091666Y-128979819D02*
X133758333Y-129360771D01*
X133758333Y-129360771D02*
X133901190Y-129360771D01*
X133901190Y-129360771D02*
X133996428Y-129408390D01*
X133996428Y-129408390D02*
X134044047Y-129456009D01*
X134044047Y-129456009D02*
X134091666Y-129551247D01*
X134091666Y-129551247D02*
X134091666Y-129789342D01*
X134091666Y-129789342D02*
X134044047Y-129884580D01*
X134044047Y-129884580D02*
X133996428Y-129932200D01*
X133996428Y-129932200D02*
X133901190Y-129979819D01*
X133901190Y-129979819D02*
X133615476Y-129979819D01*
X133615476Y-129979819D02*
X133520238Y-129932200D01*
X133520238Y-129932200D02*
X133472619Y-129884580D01*
X137763095Y-88729819D02*
X138334523Y-88729819D01*
X138048809Y-89729819D02*
X138048809Y-88729819D01*
X138667857Y-89729819D02*
X138667857Y-88729819D01*
X138667857Y-88729819D02*
X139048809Y-88729819D01*
X139048809Y-88729819D02*
X139144047Y-88777438D01*
X139144047Y-88777438D02*
X139191666Y-88825057D01*
X139191666Y-88825057D02*
X139239285Y-88920295D01*
X139239285Y-88920295D02*
X139239285Y-89063152D01*
X139239285Y-89063152D02*
X139191666Y-89158390D01*
X139191666Y-89158390D02*
X139144047Y-89206009D01*
X139144047Y-89206009D02*
X139048809Y-89253628D01*
X139048809Y-89253628D02*
X138667857Y-89253628D01*
X139620238Y-88825057D02*
X139667857Y-88777438D01*
X139667857Y-88777438D02*
X139763095Y-88729819D01*
X139763095Y-88729819D02*
X140001190Y-88729819D01*
X140001190Y-88729819D02*
X140096428Y-88777438D01*
X140096428Y-88777438D02*
X140144047Y-88825057D01*
X140144047Y-88825057D02*
X140191666Y-88920295D01*
X140191666Y-88920295D02*
X140191666Y-89015533D01*
X140191666Y-89015533D02*
X140144047Y-89158390D01*
X140144047Y-89158390D02*
X139572619Y-89729819D01*
X139572619Y-89729819D02*
X140191666Y-89729819D01*
X115563095Y-114279819D02*
X116134523Y-114279819D01*
X115848809Y-115279819D02*
X115848809Y-114279819D01*
X116467857Y-115279819D02*
X116467857Y-114279819D01*
X116467857Y-114279819D02*
X116848809Y-114279819D01*
X116848809Y-114279819D02*
X116944047Y-114327438D01*
X116944047Y-114327438D02*
X116991666Y-114375057D01*
X116991666Y-114375057D02*
X117039285Y-114470295D01*
X117039285Y-114470295D02*
X117039285Y-114613152D01*
X117039285Y-114613152D02*
X116991666Y-114708390D01*
X116991666Y-114708390D02*
X116944047Y-114756009D01*
X116944047Y-114756009D02*
X116848809Y-114803628D01*
X116848809Y-114803628D02*
X116467857Y-114803628D01*
X117991666Y-115279819D02*
X117420238Y-115279819D01*
X117705952Y-115279819D02*
X117705952Y-114279819D01*
X117705952Y-114279819D02*
X117610714Y-114422676D01*
X117610714Y-114422676D02*
X117515476Y-114517914D01*
X117515476Y-114517914D02*
X117420238Y-114565533D01*
X131838613Y-87104941D02*
X131208692Y-87104941D01*
X131208692Y-87104941D02*
X131208692Y-86954960D01*
X131208692Y-86954960D02*
X131238688Y-86864971D01*
X131238688Y-86864971D02*
X131298680Y-86804979D01*
X131298680Y-86804979D02*
X131358673Y-86774983D01*
X131358673Y-86774983D02*
X131478658Y-86744986D01*
X131478658Y-86744986D02*
X131568647Y-86744986D01*
X131568647Y-86744986D02*
X131688632Y-86774983D01*
X131688632Y-86774983D02*
X131748624Y-86804979D01*
X131748624Y-86804979D02*
X131808617Y-86864971D01*
X131808617Y-86864971D02*
X131838613Y-86954960D01*
X131838613Y-86954960D02*
X131838613Y-87104941D01*
X131418665Y-86205054D02*
X131838613Y-86205054D01*
X131178696Y-86355035D02*
X131628639Y-86505017D01*
X131628639Y-86505017D02*
X131628639Y-86115065D01*
X127679819Y-113717857D02*
X127203628Y-114051190D01*
X127679819Y-114289285D02*
X126679819Y-114289285D01*
X126679819Y-114289285D02*
X126679819Y-113908333D01*
X126679819Y-113908333D02*
X126727438Y-113813095D01*
X126727438Y-113813095D02*
X126775057Y-113765476D01*
X126775057Y-113765476D02*
X126870295Y-113717857D01*
X126870295Y-113717857D02*
X127013152Y-113717857D01*
X127013152Y-113717857D02*
X127108390Y-113765476D01*
X127108390Y-113765476D02*
X127156009Y-113813095D01*
X127156009Y-113813095D02*
X127203628Y-113908333D01*
X127203628Y-113908333D02*
X127203628Y-114289285D01*
X127679819Y-112765476D02*
X127679819Y-113336904D01*
X127679819Y-113051190D02*
X126679819Y-113051190D01*
X126679819Y-113051190D02*
X126822676Y-113146428D01*
X126822676Y-113146428D02*
X126917914Y-113241666D01*
X126917914Y-113241666D02*
X126965533Y-113336904D01*
X127679819Y-111813095D02*
X127679819Y-112384523D01*
X127679819Y-112098809D02*
X126679819Y-112098809D01*
X126679819Y-112098809D02*
X126822676Y-112194047D01*
X126822676Y-112194047D02*
X126917914Y-112289285D01*
X126917914Y-112289285D02*
X126965533Y-112384523D01*
D10*
X143057419Y-99653332D02*
X142057419Y-99653332D01*
X142057419Y-99653332D02*
X142771704Y-99319999D01*
X142771704Y-99319999D02*
X142057419Y-98986666D01*
X142057419Y-98986666D02*
X143057419Y-98986666D01*
X142962180Y-97939047D02*
X143009800Y-97986666D01*
X143009800Y-97986666D02*
X143057419Y-98129523D01*
X143057419Y-98129523D02*
X143057419Y-98224761D01*
X143057419Y-98224761D02*
X143009800Y-98367618D01*
X143009800Y-98367618D02*
X142914561Y-98462856D01*
X142914561Y-98462856D02*
X142819323Y-98510475D01*
X142819323Y-98510475D02*
X142628847Y-98558094D01*
X142628847Y-98558094D02*
X142485990Y-98558094D01*
X142485990Y-98558094D02*
X142295514Y-98510475D01*
X142295514Y-98510475D02*
X142200276Y-98462856D01*
X142200276Y-98462856D02*
X142105038Y-98367618D01*
X142105038Y-98367618D02*
X142057419Y-98224761D01*
X142057419Y-98224761D02*
X142057419Y-98129523D01*
X142057419Y-98129523D02*
X142105038Y-97986666D01*
X142105038Y-97986666D02*
X142152657Y-97939047D01*
X142057419Y-97510475D02*
X142866942Y-97510475D01*
X142866942Y-97510475D02*
X142962180Y-97462856D01*
X142962180Y-97462856D02*
X143009800Y-97415237D01*
X143009800Y-97415237D02*
X143057419Y-97319999D01*
X143057419Y-97319999D02*
X143057419Y-97129523D01*
X143057419Y-97129523D02*
X143009800Y-97034285D01*
X143009800Y-97034285D02*
X142962180Y-96986666D01*
X142962180Y-96986666D02*
X142866942Y-96939047D01*
X142866942Y-96939047D02*
X142057419Y-96939047D01*
X143057419Y-95939047D02*
X143057419Y-96510475D01*
X143057419Y-96224761D02*
X142057419Y-96224761D01*
X142057419Y-96224761D02*
X142200276Y-96319999D01*
X142200276Y-96319999D02*
X142295514Y-96415237D01*
X142295514Y-96415237D02*
X142343133Y-96510475D01*
D11*
X152332142Y-116079819D02*
X151998809Y-115603628D01*
X151760714Y-116079819D02*
X151760714Y-115079819D01*
X151760714Y-115079819D02*
X152141666Y-115079819D01*
X152141666Y-115079819D02*
X152236904Y-115127438D01*
X152236904Y-115127438D02*
X152284523Y-115175057D01*
X152284523Y-115175057D02*
X152332142Y-115270295D01*
X152332142Y-115270295D02*
X152332142Y-115413152D01*
X152332142Y-115413152D02*
X152284523Y-115508390D01*
X152284523Y-115508390D02*
X152236904Y-115556009D01*
X152236904Y-115556009D02*
X152141666Y-115603628D01*
X152141666Y-115603628D02*
X151760714Y-115603628D01*
X153284523Y-116079819D02*
X152713095Y-116079819D01*
X152998809Y-116079819D02*
X152998809Y-115079819D01*
X152998809Y-115079819D02*
X152903571Y-115222676D01*
X152903571Y-115222676D02*
X152808333Y-115317914D01*
X152808333Y-115317914D02*
X152713095Y-115365533D01*
X153855952Y-115508390D02*
X153760714Y-115460771D01*
X153760714Y-115460771D02*
X153713095Y-115413152D01*
X153713095Y-115413152D02*
X153665476Y-115317914D01*
X153665476Y-115317914D02*
X153665476Y-115270295D01*
X153665476Y-115270295D02*
X153713095Y-115175057D01*
X153713095Y-115175057D02*
X153760714Y-115127438D01*
X153760714Y-115127438D02*
X153855952Y-115079819D01*
X153855952Y-115079819D02*
X154046428Y-115079819D01*
X154046428Y-115079819D02*
X154141666Y-115127438D01*
X154141666Y-115127438D02*
X154189285Y-115175057D01*
X154189285Y-115175057D02*
X154236904Y-115270295D01*
X154236904Y-115270295D02*
X154236904Y-115317914D01*
X154236904Y-115317914D02*
X154189285Y-115413152D01*
X154189285Y-115413152D02*
X154141666Y-115460771D01*
X154141666Y-115460771D02*
X154046428Y-115508390D01*
X154046428Y-115508390D02*
X153855952Y-115508390D01*
X153855952Y-115508390D02*
X153760714Y-115556009D01*
X153760714Y-115556009D02*
X153713095Y-115603628D01*
X153713095Y-115603628D02*
X153665476Y-115698866D01*
X153665476Y-115698866D02*
X153665476Y-115889342D01*
X153665476Y-115889342D02*
X153713095Y-115984580D01*
X153713095Y-115984580D02*
X153760714Y-116032200D01*
X153760714Y-116032200D02*
X153855952Y-116079819D01*
X153855952Y-116079819D02*
X154046428Y-116079819D01*
X154046428Y-116079819D02*
X154141666Y-116032200D01*
X154141666Y-116032200D02*
X154189285Y-115984580D01*
X154189285Y-115984580D02*
X154236904Y-115889342D01*
X154236904Y-115889342D02*
X154236904Y-115698866D01*
X154236904Y-115698866D02*
X154189285Y-115603628D01*
X154189285Y-115603628D02*
X154141666Y-115556009D01*
X154141666Y-115556009D02*
X154046428Y-115508390D01*
X141488333Y-117779819D02*
X141155000Y-117303628D01*
X140916905Y-117779819D02*
X140916905Y-116779819D01*
X140916905Y-116779819D02*
X141297857Y-116779819D01*
X141297857Y-116779819D02*
X141393095Y-116827438D01*
X141393095Y-116827438D02*
X141440714Y-116875057D01*
X141440714Y-116875057D02*
X141488333Y-116970295D01*
X141488333Y-116970295D02*
X141488333Y-117113152D01*
X141488333Y-117113152D02*
X141440714Y-117208390D01*
X141440714Y-117208390D02*
X141393095Y-117256009D01*
X141393095Y-117256009D02*
X141297857Y-117303628D01*
X141297857Y-117303628D02*
X140916905Y-117303628D01*
X142345476Y-117113152D02*
X142345476Y-117779819D01*
X142107381Y-116732200D02*
X141869286Y-117446485D01*
X141869286Y-117446485D02*
X142488333Y-117446485D01*
X142882644Y-106159941D02*
X142930264Y-106207560D01*
X142930264Y-106207560D02*
X142977883Y-106350417D01*
X142977883Y-106350417D02*
X142977883Y-106445655D01*
X142977883Y-106445655D02*
X142930264Y-106588512D01*
X142930264Y-106588512D02*
X142835025Y-106683750D01*
X142835025Y-106683750D02*
X142739787Y-106731369D01*
X142739787Y-106731369D02*
X142549311Y-106778988D01*
X142549311Y-106778988D02*
X142406454Y-106778988D01*
X142406454Y-106778988D02*
X142215978Y-106731369D01*
X142215978Y-106731369D02*
X142120740Y-106683750D01*
X142120740Y-106683750D02*
X142025502Y-106588512D01*
X142025502Y-106588512D02*
X141977883Y-106445655D01*
X141977883Y-106445655D02*
X141977883Y-106350417D01*
X141977883Y-106350417D02*
X142025502Y-106207560D01*
X142025502Y-106207560D02*
X142073121Y-106159941D01*
X142073121Y-105778988D02*
X142025502Y-105731369D01*
X142025502Y-105731369D02*
X141977883Y-105636131D01*
X141977883Y-105636131D02*
X141977883Y-105398036D01*
X141977883Y-105398036D02*
X142025502Y-105302798D01*
X142025502Y-105302798D02*
X142073121Y-105255179D01*
X142073121Y-105255179D02*
X142168359Y-105207560D01*
X142168359Y-105207560D02*
X142263597Y-105207560D01*
X142263597Y-105207560D02*
X142406454Y-105255179D01*
X142406454Y-105255179D02*
X142977883Y-105826607D01*
X142977883Y-105826607D02*
X142977883Y-105207560D01*
X157022517Y-107160700D02*
X156689184Y-106684509D01*
X156451089Y-107160700D02*
X156451089Y-106160700D01*
X156451089Y-106160700D02*
X156832041Y-106160700D01*
X156832041Y-106160700D02*
X156927279Y-106208319D01*
X156927279Y-106208319D02*
X156974898Y-106255938D01*
X156974898Y-106255938D02*
X157022517Y-106351176D01*
X157022517Y-106351176D02*
X157022517Y-106494033D01*
X157022517Y-106494033D02*
X156974898Y-106589271D01*
X156974898Y-106589271D02*
X156927279Y-106636890D01*
X156927279Y-106636890D02*
X156832041Y-106684509D01*
X156832041Y-106684509D02*
X156451089Y-106684509D01*
X157974898Y-107160700D02*
X157403470Y-107160700D01*
X157689184Y-107160700D02*
X157689184Y-106160700D01*
X157689184Y-106160700D02*
X157593946Y-106303557D01*
X157593946Y-106303557D02*
X157498708Y-106398795D01*
X157498708Y-106398795D02*
X157403470Y-106446414D01*
X158308232Y-106160700D02*
X158927279Y-106160700D01*
X158927279Y-106160700D02*
X158593946Y-106541652D01*
X158593946Y-106541652D02*
X158736803Y-106541652D01*
X158736803Y-106541652D02*
X158832041Y-106589271D01*
X158832041Y-106589271D02*
X158879660Y-106636890D01*
X158879660Y-106636890D02*
X158927279Y-106732128D01*
X158927279Y-106732128D02*
X158927279Y-106970223D01*
X158927279Y-106970223D02*
X158879660Y-107065461D01*
X158879660Y-107065461D02*
X158832041Y-107113081D01*
X158832041Y-107113081D02*
X158736803Y-107160700D01*
X158736803Y-107160700D02*
X158451089Y-107160700D01*
X158451089Y-107160700D02*
X158355851Y-107113081D01*
X158355851Y-107113081D02*
X158308232Y-107065461D01*
X114176836Y-121185916D02*
X114289504Y-121086007D01*
X114289504Y-121086007D02*
X114408551Y-120879811D01*
X114408551Y-120879811D02*
X114414931Y-120773523D01*
X114414931Y-120773523D02*
X114397501Y-120708474D01*
X114397501Y-120708474D02*
X114338832Y-120619615D01*
X114338832Y-120619615D02*
X114256353Y-120571996D01*
X114256353Y-120571996D02*
X114150065Y-120565617D01*
X114150065Y-120565617D02*
X114085016Y-120583046D01*
X114085016Y-120583046D02*
X113996158Y-120641715D01*
X113996158Y-120641715D02*
X113859681Y-120782863D01*
X113859681Y-120782863D02*
X113770822Y-120841532D01*
X113770822Y-120841532D02*
X113705774Y-120858962D01*
X113705774Y-120858962D02*
X113599485Y-120852582D01*
X113599485Y-120852582D02*
X113517007Y-120804963D01*
X113517007Y-120804963D02*
X113458338Y-120716105D01*
X113458338Y-120716105D02*
X113440908Y-120651056D01*
X113440908Y-120651056D02*
X113447288Y-120544768D01*
X113447288Y-120544768D02*
X113566335Y-120338571D01*
X113566335Y-120338571D02*
X113679003Y-120238663D01*
X113804431Y-119926178D02*
X114789504Y-120219982D01*
X114789504Y-120219982D02*
X114266152Y-119697882D01*
X114266152Y-119697882D02*
X114979980Y-119890067D01*
X114979980Y-119890067D02*
X114233002Y-119183871D01*
X114482147Y-118942815D02*
X114464717Y-118877766D01*
X114464717Y-118877766D02*
X114471097Y-118771478D01*
X114471097Y-118771478D02*
X114590145Y-118565281D01*
X114590145Y-118565281D02*
X114679003Y-118506612D01*
X114679003Y-118506612D02*
X114744052Y-118489182D01*
X114744052Y-118489182D02*
X114850340Y-118495562D01*
X114850340Y-118495562D02*
X114932819Y-118543181D01*
X114932819Y-118543181D02*
X115032727Y-118655849D01*
X115032727Y-118655849D02*
X115241884Y-119436435D01*
X115241884Y-119436435D02*
X115551408Y-118900324D01*
X116615651Y-116879470D02*
X116496604Y-117085667D01*
X116338026Y-116884140D02*
X116496604Y-117085667D01*
X116496604Y-117085667D02*
X116750419Y-117122236D01*
X116277648Y-117179195D02*
X116496604Y-117085667D01*
X116496604Y-117085667D02*
X116525084Y-117322052D01*
X116315651Y-117379470D02*
X116196604Y-117585667D01*
X116038026Y-117384140D02*
X116196604Y-117585667D01*
X116196604Y-117585667D02*
X116450419Y-117622236D01*
X115977648Y-117679195D02*
X116196604Y-117585667D01*
X116196604Y-117585667D02*
X116225084Y-117822052D01*
X129793613Y-87179941D02*
X129163692Y-87179941D01*
X129163692Y-87179941D02*
X129163692Y-87029960D01*
X129163692Y-87029960D02*
X129193688Y-86939971D01*
X129193688Y-86939971D02*
X129253680Y-86879979D01*
X129253680Y-86879979D02*
X129313673Y-86849983D01*
X129313673Y-86849983D02*
X129433658Y-86819986D01*
X129433658Y-86819986D02*
X129523647Y-86819986D01*
X129523647Y-86819986D02*
X129643632Y-86849983D01*
X129643632Y-86849983D02*
X129703624Y-86879979D01*
X129703624Y-86879979D02*
X129763617Y-86939971D01*
X129763617Y-86939971D02*
X129793613Y-87029960D01*
X129793613Y-87029960D02*
X129793613Y-87179941D01*
X129793613Y-86220062D02*
X129793613Y-86580017D01*
X129793613Y-86400039D02*
X129163692Y-86400039D01*
X129163692Y-86400039D02*
X129253680Y-86460032D01*
X129253680Y-86460032D02*
X129313673Y-86520024D01*
X129313673Y-86520024D02*
X129343669Y-86580017D01*
X130408333Y-117584580D02*
X130360714Y-117632200D01*
X130360714Y-117632200D02*
X130217857Y-117679819D01*
X130217857Y-117679819D02*
X130122619Y-117679819D01*
X130122619Y-117679819D02*
X129979762Y-117632200D01*
X129979762Y-117632200D02*
X129884524Y-117536961D01*
X129884524Y-117536961D02*
X129836905Y-117441723D01*
X129836905Y-117441723D02*
X129789286Y-117251247D01*
X129789286Y-117251247D02*
X129789286Y-117108390D01*
X129789286Y-117108390D02*
X129836905Y-116917914D01*
X129836905Y-116917914D02*
X129884524Y-116822676D01*
X129884524Y-116822676D02*
X129979762Y-116727438D01*
X129979762Y-116727438D02*
X130122619Y-116679819D01*
X130122619Y-116679819D02*
X130217857Y-116679819D01*
X130217857Y-116679819D02*
X130360714Y-116727438D01*
X130360714Y-116727438D02*
X130408333Y-116775057D01*
X131360714Y-117679819D02*
X130789286Y-117679819D01*
X131075000Y-117679819D02*
X131075000Y-116679819D01*
X131075000Y-116679819D02*
X130979762Y-116822676D01*
X130979762Y-116822676D02*
X130884524Y-116917914D01*
X130884524Y-116917914D02*
X130789286Y-116965533D01*
X141886412Y-101864346D02*
X142600697Y-101864346D01*
X142600697Y-101864346D02*
X142743554Y-101911965D01*
X142743554Y-101911965D02*
X142838793Y-102007203D01*
X142838793Y-102007203D02*
X142886412Y-102150060D01*
X142886412Y-102150060D02*
X142886412Y-102245298D01*
X141886412Y-100911965D02*
X141886412Y-101388155D01*
X141886412Y-101388155D02*
X142362602Y-101435774D01*
X142362602Y-101435774D02*
X142314983Y-101388155D01*
X142314983Y-101388155D02*
X142267364Y-101292917D01*
X142267364Y-101292917D02*
X142267364Y-101054822D01*
X142267364Y-101054822D02*
X142314983Y-100959584D01*
X142314983Y-100959584D02*
X142362602Y-100911965D01*
X142362602Y-100911965D02*
X142457840Y-100864346D01*
X142457840Y-100864346D02*
X142695935Y-100864346D01*
X142695935Y-100864346D02*
X142791173Y-100911965D01*
X142791173Y-100911965D02*
X142838793Y-100959584D01*
X142838793Y-100959584D02*
X142886412Y-101054822D01*
X142886412Y-101054822D02*
X142886412Y-101292917D01*
X142886412Y-101292917D02*
X142838793Y-101388155D01*
X142838793Y-101388155D02*
X142791173Y-101435774D01*
X135962744Y-112605257D02*
X135915125Y-112652877D01*
X135915125Y-112652877D02*
X135772268Y-112700496D01*
X135772268Y-112700496D02*
X135677030Y-112700496D01*
X135677030Y-112700496D02*
X135534173Y-112652877D01*
X135534173Y-112652877D02*
X135438935Y-112557638D01*
X135438935Y-112557638D02*
X135391316Y-112462400D01*
X135391316Y-112462400D02*
X135343697Y-112271924D01*
X135343697Y-112271924D02*
X135343697Y-112129067D01*
X135343697Y-112129067D02*
X135391316Y-111938591D01*
X135391316Y-111938591D02*
X135438935Y-111843353D01*
X135438935Y-111843353D02*
X135534173Y-111748115D01*
X135534173Y-111748115D02*
X135677030Y-111700496D01*
X135677030Y-111700496D02*
X135772268Y-111700496D01*
X135772268Y-111700496D02*
X135915125Y-111748115D01*
X135915125Y-111748115D02*
X135962744Y-111795734D01*
X136296078Y-111700496D02*
X136915125Y-111700496D01*
X136915125Y-111700496D02*
X136581792Y-112081448D01*
X136581792Y-112081448D02*
X136724649Y-112081448D01*
X136724649Y-112081448D02*
X136819887Y-112129067D01*
X136819887Y-112129067D02*
X136867506Y-112176686D01*
X136867506Y-112176686D02*
X136915125Y-112271924D01*
X136915125Y-112271924D02*
X136915125Y-112510019D01*
X136915125Y-112510019D02*
X136867506Y-112605257D01*
X136867506Y-112605257D02*
X136819887Y-112652877D01*
X136819887Y-112652877D02*
X136724649Y-112700496D01*
X136724649Y-112700496D02*
X136438935Y-112700496D01*
X136438935Y-112700496D02*
X136343697Y-112652877D01*
X136343697Y-112652877D02*
X136296078Y-112605257D01*
X130108333Y-120454819D02*
X129775000Y-119978628D01*
X129536905Y-120454819D02*
X129536905Y-119454819D01*
X129536905Y-119454819D02*
X129917857Y-119454819D01*
X129917857Y-119454819D02*
X130013095Y-119502438D01*
X130013095Y-119502438D02*
X130060714Y-119550057D01*
X130060714Y-119550057D02*
X130108333Y-119645295D01*
X130108333Y-119645295D02*
X130108333Y-119788152D01*
X130108333Y-119788152D02*
X130060714Y-119883390D01*
X130060714Y-119883390D02*
X130013095Y-119931009D01*
X130013095Y-119931009D02*
X129917857Y-119978628D01*
X129917857Y-119978628D02*
X129536905Y-119978628D01*
X131060714Y-120454819D02*
X130489286Y-120454819D01*
X130775000Y-120454819D02*
X130775000Y-119454819D01*
X130775000Y-119454819D02*
X130679762Y-119597676D01*
X130679762Y-119597676D02*
X130584524Y-119692914D01*
X130584524Y-119692914D02*
X130489286Y-119740533D01*
X127493616Y-87059940D02*
X126863695Y-87059940D01*
X126863695Y-87059940D02*
X126863695Y-86909959D01*
X126863695Y-86909959D02*
X126893691Y-86819970D01*
X126893691Y-86819970D02*
X126953683Y-86759978D01*
X126953683Y-86759978D02*
X127013676Y-86729982D01*
X127013676Y-86729982D02*
X127133661Y-86699985D01*
X127133661Y-86699985D02*
X127223650Y-86699985D01*
X127223650Y-86699985D02*
X127343635Y-86729982D01*
X127343635Y-86729982D02*
X127403627Y-86759978D01*
X127403627Y-86759978D02*
X127463620Y-86819970D01*
X127463620Y-86819970D02*
X127493616Y-86909959D01*
X127493616Y-86909959D02*
X127493616Y-87059940D01*
X126923687Y-86460016D02*
X126893691Y-86430019D01*
X126893691Y-86430019D02*
X126863695Y-86370027D01*
X126863695Y-86370027D02*
X126863695Y-86220046D01*
X126863695Y-86220046D02*
X126893691Y-86160053D01*
X126893691Y-86160053D02*
X126923687Y-86130057D01*
X126923687Y-86130057D02*
X126983680Y-86100061D01*
X126983680Y-86100061D02*
X127043672Y-86100061D01*
X127043672Y-86100061D02*
X127133661Y-86130057D01*
X127133661Y-86130057D02*
X127493616Y-86490012D01*
X127493616Y-86490012D02*
X127493616Y-86100061D01*
X126440872Y-117718484D02*
X126375823Y-117735913D01*
X126375823Y-117735913D02*
X126228296Y-117705724D01*
X126228296Y-117705724D02*
X126145817Y-117658105D01*
X126145817Y-117658105D02*
X126045909Y-117545437D01*
X126045909Y-117545437D02*
X126011049Y-117415340D01*
X126011049Y-117415340D02*
X126017429Y-117309051D01*
X126017429Y-117309051D02*
X126071428Y-117120285D01*
X126071428Y-117120285D02*
X126142856Y-116996567D01*
X126142856Y-116996567D02*
X126279334Y-116855419D01*
X126279334Y-116855419D02*
X126368192Y-116796750D01*
X126368192Y-116796750D02*
X126498290Y-116761890D01*
X126498290Y-116761890D02*
X126645817Y-116792080D01*
X126645817Y-116792080D02*
X126728296Y-116839699D01*
X126728296Y-116839699D02*
X126828204Y-116952367D01*
X126828204Y-116952367D02*
X126845634Y-117017415D01*
X126805646Y-118039057D02*
X126970603Y-118134296D01*
X126970603Y-118134296D02*
X127076891Y-118140675D01*
X127076891Y-118140675D02*
X127141940Y-118123246D01*
X127141940Y-118123246D02*
X127295847Y-118047147D01*
X127295847Y-118047147D02*
X127432325Y-117905999D01*
X127432325Y-117905999D02*
X127622801Y-117576085D01*
X127622801Y-117576085D02*
X127629181Y-117469796D01*
X127629181Y-117469796D02*
X127611751Y-117404748D01*
X127611751Y-117404748D02*
X127553082Y-117315889D01*
X127553082Y-117315889D02*
X127388124Y-117220651D01*
X127388124Y-117220651D02*
X127281836Y-117214271D01*
X127281836Y-117214271D02*
X127216788Y-117231701D01*
X127216788Y-117231701D02*
X127127929Y-117290370D01*
X127127929Y-117290370D02*
X127008882Y-117496567D01*
X127008882Y-117496567D02*
X127002502Y-117602855D01*
X127002502Y-117602855D02*
X127019932Y-117667904D01*
X127019932Y-117667904D02*
X127078601Y-117756762D01*
X127078601Y-117756762D02*
X127243558Y-117852000D01*
X127243558Y-117852000D02*
X127349846Y-117858380D01*
X127349846Y-117858380D02*
X127414895Y-117840950D01*
X127414895Y-117840950D02*
X127503753Y-117782281D01*
X130018333Y-124259819D02*
X129685000Y-123783628D01*
X129446905Y-124259819D02*
X129446905Y-123259819D01*
X129446905Y-123259819D02*
X129827857Y-123259819D01*
X129827857Y-123259819D02*
X129923095Y-123307438D01*
X129923095Y-123307438D02*
X129970714Y-123355057D01*
X129970714Y-123355057D02*
X130018333Y-123450295D01*
X130018333Y-123450295D02*
X130018333Y-123593152D01*
X130018333Y-123593152D02*
X129970714Y-123688390D01*
X129970714Y-123688390D02*
X129923095Y-123736009D01*
X129923095Y-123736009D02*
X129827857Y-123783628D01*
X129827857Y-123783628D02*
X129446905Y-123783628D01*
X130399286Y-123355057D02*
X130446905Y-123307438D01*
X130446905Y-123307438D02*
X130542143Y-123259819D01*
X130542143Y-123259819D02*
X130780238Y-123259819D01*
X130780238Y-123259819D02*
X130875476Y-123307438D01*
X130875476Y-123307438D02*
X130923095Y-123355057D01*
X130923095Y-123355057D02*
X130970714Y-123450295D01*
X130970714Y-123450295D02*
X130970714Y-123545533D01*
X130970714Y-123545533D02*
X130923095Y-123688390D01*
X130923095Y-123688390D02*
X130351667Y-124259819D01*
X130351667Y-124259819D02*
X130970714Y-124259819D01*
X115354519Y-102438556D02*
X115384549Y-102348464D01*
X115384549Y-102348464D02*
X115384549Y-102198311D01*
X115384549Y-102198311D02*
X115354519Y-102138250D01*
X115354519Y-102138250D02*
X115324488Y-102108219D01*
X115324488Y-102108219D02*
X115264427Y-102078189D01*
X115264427Y-102078189D02*
X115204365Y-102078189D01*
X115204365Y-102078189D02*
X115144304Y-102108219D01*
X115144304Y-102108219D02*
X115114274Y-102138250D01*
X115114274Y-102138250D02*
X115084243Y-102198311D01*
X115084243Y-102198311D02*
X115054212Y-102318434D01*
X115054212Y-102318434D02*
X115024182Y-102378495D01*
X115024182Y-102378495D02*
X114994151Y-102408525D01*
X114994151Y-102408525D02*
X114934090Y-102438556D01*
X114934090Y-102438556D02*
X114874029Y-102438556D01*
X114874029Y-102438556D02*
X114813967Y-102408525D01*
X114813967Y-102408525D02*
X114783937Y-102378495D01*
X114783937Y-102378495D02*
X114753906Y-102318434D01*
X114753906Y-102318434D02*
X114753906Y-102168280D01*
X114753906Y-102168280D02*
X114783937Y-102078189D01*
X114753906Y-101867975D02*
X115384549Y-101717822D01*
X115384549Y-101717822D02*
X114934090Y-101597699D01*
X114934090Y-101597699D02*
X115384549Y-101477577D01*
X115384549Y-101477577D02*
X114753906Y-101327424D01*
X115384549Y-100756842D02*
X115384549Y-101117209D01*
X115384549Y-100937025D02*
X114753906Y-100937025D01*
X114753906Y-100937025D02*
X114843998Y-100997087D01*
X114843998Y-100997087D02*
X114904059Y-101057148D01*
X114904059Y-101057148D02*
X114934090Y-101117209D01*
X124343212Y-118971746D02*
X124105117Y-119384139D01*
X124105117Y-119384139D02*
X123239092Y-118884139D01*
X124771784Y-118229439D02*
X124486069Y-118724310D01*
X124628927Y-118476874D02*
X123762901Y-117976874D01*
X123762901Y-117976874D02*
X123839000Y-118130782D01*
X123839000Y-118130782D02*
X123873860Y-118260879D01*
X123873860Y-118260879D02*
X123867480Y-118367167D01*
X132672604Y-91905680D02*
X132672604Y-91096157D01*
X132672604Y-91096157D02*
X132624985Y-91000919D01*
X132624985Y-91000919D02*
X132577366Y-90953300D01*
X132577366Y-90953300D02*
X132482128Y-90905680D01*
X132482128Y-90905680D02*
X132291652Y-90905680D01*
X132291652Y-90905680D02*
X132196414Y-90953300D01*
X132196414Y-90953300D02*
X132148795Y-91000919D01*
X132148795Y-91000919D02*
X132101176Y-91096157D01*
X132101176Y-91096157D02*
X132101176Y-91905680D01*
X131148795Y-91905680D02*
X131624985Y-91905680D01*
X131624985Y-91905680D02*
X131672604Y-91429490D01*
X131672604Y-91429490D02*
X131624985Y-91477109D01*
X131624985Y-91477109D02*
X131529747Y-91524728D01*
X131529747Y-91524728D02*
X131291652Y-91524728D01*
X131291652Y-91524728D02*
X131196414Y-91477109D01*
X131196414Y-91477109D02*
X131148795Y-91429490D01*
X131148795Y-91429490D02*
X131101176Y-91334252D01*
X131101176Y-91334252D02*
X131101176Y-91096157D01*
X131101176Y-91096157D02*
X131148795Y-91000919D01*
X131148795Y-91000919D02*
X131196414Y-90953300D01*
X131196414Y-90953300D02*
X131291652Y-90905680D01*
X131291652Y-90905680D02*
X131529747Y-90905680D01*
X131529747Y-90905680D02*
X131624985Y-90953300D01*
X131624985Y-90953300D02*
X131672604Y-91000919D01*
X133306101Y-92663917D02*
X133306101Y-92902012D01*
X133068006Y-92806774D02*
X133306101Y-92902012D01*
X133306101Y-92902012D02*
X133544196Y-92806774D01*
X133163244Y-93092488D02*
X133306101Y-92902012D01*
X133306101Y-92902012D02*
X133448958Y-93092488D01*
X133906100Y-93154278D02*
X133906100Y-92916183D01*
X134144195Y-93011421D02*
X133906100Y-92916183D01*
X133906100Y-92916183D02*
X133668005Y-93011421D01*
X134048957Y-92725707D02*
X133906100Y-92916183D01*
X133906100Y-92916183D02*
X133763243Y-92725707D01*
X141488333Y-116489819D02*
X141155000Y-116013628D01*
X140916905Y-116489819D02*
X140916905Y-115489819D01*
X140916905Y-115489819D02*
X141297857Y-115489819D01*
X141297857Y-115489819D02*
X141393095Y-115537438D01*
X141393095Y-115537438D02*
X141440714Y-115585057D01*
X141440714Y-115585057D02*
X141488333Y-115680295D01*
X141488333Y-115680295D02*
X141488333Y-115823152D01*
X141488333Y-115823152D02*
X141440714Y-115918390D01*
X141440714Y-115918390D02*
X141393095Y-115966009D01*
X141393095Y-115966009D02*
X141297857Y-116013628D01*
X141297857Y-116013628D02*
X140916905Y-116013628D01*
X141821667Y-115489819D02*
X142440714Y-115489819D01*
X142440714Y-115489819D02*
X142107381Y-115870771D01*
X142107381Y-115870771D02*
X142250238Y-115870771D01*
X142250238Y-115870771D02*
X142345476Y-115918390D01*
X142345476Y-115918390D02*
X142393095Y-115966009D01*
X142393095Y-115966009D02*
X142440714Y-116061247D01*
X142440714Y-116061247D02*
X142440714Y-116299342D01*
X142440714Y-116299342D02*
X142393095Y-116394580D01*
X142393095Y-116394580D02*
X142345476Y-116442200D01*
X142345476Y-116442200D02*
X142250238Y-116489819D01*
X142250238Y-116489819D02*
X141964524Y-116489819D01*
X141964524Y-116489819D02*
X141869286Y-116442200D01*
X141869286Y-116442200D02*
X141821667Y-116394580D01*
X150238531Y-111085057D02*
X150143293Y-111037438D01*
X150143293Y-111037438D02*
X150048055Y-110942200D01*
X150048055Y-110942200D02*
X149905198Y-110799342D01*
X149905198Y-110799342D02*
X149809960Y-110751723D01*
X149809960Y-110751723D02*
X149714722Y-110751723D01*
X149762341Y-110989819D02*
X149667103Y-110942200D01*
X149667103Y-110942200D02*
X149571865Y-110846961D01*
X149571865Y-110846961D02*
X149524246Y-110656485D01*
X149524246Y-110656485D02*
X149524246Y-110323152D01*
X149524246Y-110323152D02*
X149571865Y-110132676D01*
X149571865Y-110132676D02*
X149667103Y-110037438D01*
X149667103Y-110037438D02*
X149762341Y-109989819D01*
X149762341Y-109989819D02*
X149952817Y-109989819D01*
X149952817Y-109989819D02*
X150048055Y-110037438D01*
X150048055Y-110037438D02*
X150143293Y-110132676D01*
X150143293Y-110132676D02*
X150190912Y-110323152D01*
X150190912Y-110323152D02*
X150190912Y-110656485D01*
X150190912Y-110656485D02*
X150143293Y-110846961D01*
X150143293Y-110846961D02*
X150048055Y-110942200D01*
X150048055Y-110942200D02*
X149952817Y-110989819D01*
X149952817Y-110989819D02*
X149762341Y-110989819D01*
X150571865Y-110085057D02*
X150619484Y-110037438D01*
X150619484Y-110037438D02*
X150714722Y-109989819D01*
X150714722Y-109989819D02*
X150952817Y-109989819D01*
X150952817Y-109989819D02*
X151048055Y-110037438D01*
X151048055Y-110037438D02*
X151095674Y-110085057D01*
X151095674Y-110085057D02*
X151143293Y-110180295D01*
X151143293Y-110180295D02*
X151143293Y-110275533D01*
X151143293Y-110275533D02*
X151095674Y-110418390D01*
X151095674Y-110418390D02*
X150524246Y-110989819D01*
X150524246Y-110989819D02*
X151143293Y-110989819D01*
X126748795Y-90748319D02*
X126748795Y-91557842D01*
X126748795Y-91557842D02*
X126796414Y-91653080D01*
X126796414Y-91653080D02*
X126844033Y-91700700D01*
X126844033Y-91700700D02*
X126939271Y-91748319D01*
X126939271Y-91748319D02*
X127129747Y-91748319D01*
X127129747Y-91748319D02*
X127224985Y-91700700D01*
X127224985Y-91700700D02*
X127272604Y-91653080D01*
X127272604Y-91653080D02*
X127320223Y-91557842D01*
X127320223Y-91557842D02*
X127320223Y-90748319D01*
X128224985Y-91081652D02*
X128224985Y-91748319D01*
X127986890Y-90700700D02*
X127748795Y-91414985D01*
X127748795Y-91414985D02*
X128367842Y-91414985D01*
X125715300Y-89199719D02*
X125715300Y-89437814D01*
X125477205Y-89342576D02*
X125715300Y-89437814D01*
X125715300Y-89437814D02*
X125953395Y-89342576D01*
X125572443Y-89628290D02*
X125715300Y-89437814D01*
X125715300Y-89437814D02*
X125858157Y-89628290D01*
X126215300Y-89299719D02*
X126215300Y-89537814D01*
X125977205Y-89442576D02*
X126215300Y-89537814D01*
X126215300Y-89537814D02*
X126453395Y-89442576D01*
X126072443Y-89728290D02*
X126215300Y-89537814D01*
X126215300Y-89537814D02*
X126358157Y-89728290D01*
X152221653Y-107289990D02*
X151888320Y-106813799D01*
X151650225Y-107289990D02*
X151650225Y-106289990D01*
X151650225Y-106289990D02*
X152031177Y-106289990D01*
X152031177Y-106289990D02*
X152126415Y-106337609D01*
X152126415Y-106337609D02*
X152174034Y-106385228D01*
X152174034Y-106385228D02*
X152221653Y-106480466D01*
X152221653Y-106480466D02*
X152221653Y-106623323D01*
X152221653Y-106623323D02*
X152174034Y-106718561D01*
X152174034Y-106718561D02*
X152126415Y-106766180D01*
X152126415Y-106766180D02*
X152031177Y-106813799D01*
X152031177Y-106813799D02*
X151650225Y-106813799D01*
X153174034Y-107289990D02*
X152602606Y-107289990D01*
X152888320Y-107289990D02*
X152888320Y-106289990D01*
X152888320Y-106289990D02*
X152793082Y-106432847D01*
X152793082Y-106432847D02*
X152697844Y-106528085D01*
X152697844Y-106528085D02*
X152602606Y-106575704D01*
X154078796Y-106289990D02*
X153602606Y-106289990D01*
X153602606Y-106289990D02*
X153554987Y-106766180D01*
X153554987Y-106766180D02*
X153602606Y-106718561D01*
X153602606Y-106718561D02*
X153697844Y-106670942D01*
X153697844Y-106670942D02*
X153935939Y-106670942D01*
X153935939Y-106670942D02*
X154031177Y-106718561D01*
X154031177Y-106718561D02*
X154078796Y-106766180D01*
X154078796Y-106766180D02*
X154126415Y-106861418D01*
X154126415Y-106861418D02*
X154126415Y-107099513D01*
X154126415Y-107099513D02*
X154078796Y-107194751D01*
X154078796Y-107194751D02*
X154031177Y-107242371D01*
X154031177Y-107242371D02*
X153935939Y-107289990D01*
X153935939Y-107289990D02*
X153697844Y-107289990D01*
X153697844Y-107289990D02*
X153602606Y-107242371D01*
X153602606Y-107242371D02*
X153554987Y-107194751D01*
X127618333Y-126554580D02*
X127570714Y-126602200D01*
X127570714Y-126602200D02*
X127427857Y-126649819D01*
X127427857Y-126649819D02*
X127332619Y-126649819D01*
X127332619Y-126649819D02*
X127189762Y-126602200D01*
X127189762Y-126602200D02*
X127094524Y-126506961D01*
X127094524Y-126506961D02*
X127046905Y-126411723D01*
X127046905Y-126411723D02*
X126999286Y-126221247D01*
X126999286Y-126221247D02*
X126999286Y-126078390D01*
X126999286Y-126078390D02*
X127046905Y-125887914D01*
X127046905Y-125887914D02*
X127094524Y-125792676D01*
X127094524Y-125792676D02*
X127189762Y-125697438D01*
X127189762Y-125697438D02*
X127332619Y-125649819D01*
X127332619Y-125649819D02*
X127427857Y-125649819D01*
X127427857Y-125649819D02*
X127570714Y-125697438D01*
X127570714Y-125697438D02*
X127618333Y-125745057D01*
X127951667Y-125649819D02*
X128618333Y-125649819D01*
X128618333Y-125649819D02*
X128189762Y-126649819D01*
X121429819Y-110571666D02*
X120953628Y-110904999D01*
X121429819Y-111143094D02*
X120429819Y-111143094D01*
X120429819Y-111143094D02*
X120429819Y-110762142D01*
X120429819Y-110762142D02*
X120477438Y-110666904D01*
X120477438Y-110666904D02*
X120525057Y-110619285D01*
X120525057Y-110619285D02*
X120620295Y-110571666D01*
X120620295Y-110571666D02*
X120763152Y-110571666D01*
X120763152Y-110571666D02*
X120858390Y-110619285D01*
X120858390Y-110619285D02*
X120906009Y-110666904D01*
X120906009Y-110666904D02*
X120953628Y-110762142D01*
X120953628Y-110762142D02*
X120953628Y-111143094D01*
X120858390Y-110000237D02*
X120810771Y-110095475D01*
X120810771Y-110095475D02*
X120763152Y-110143094D01*
X120763152Y-110143094D02*
X120667914Y-110190713D01*
X120667914Y-110190713D02*
X120620295Y-110190713D01*
X120620295Y-110190713D02*
X120525057Y-110143094D01*
X120525057Y-110143094D02*
X120477438Y-110095475D01*
X120477438Y-110095475D02*
X120429819Y-110000237D01*
X120429819Y-110000237D02*
X120429819Y-109809761D01*
X120429819Y-109809761D02*
X120477438Y-109714523D01*
X120477438Y-109714523D02*
X120525057Y-109666904D01*
X120525057Y-109666904D02*
X120620295Y-109619285D01*
X120620295Y-109619285D02*
X120667914Y-109619285D01*
X120667914Y-109619285D02*
X120763152Y-109666904D01*
X120763152Y-109666904D02*
X120810771Y-109714523D01*
X120810771Y-109714523D02*
X120858390Y-109809761D01*
X120858390Y-109809761D02*
X120858390Y-110000237D01*
X120858390Y-110000237D02*
X120906009Y-110095475D01*
X120906009Y-110095475D02*
X120953628Y-110143094D01*
X120953628Y-110143094D02*
X121048866Y-110190713D01*
X121048866Y-110190713D02*
X121239342Y-110190713D01*
X121239342Y-110190713D02*
X121334580Y-110143094D01*
X121334580Y-110143094D02*
X121382200Y-110095475D01*
X121382200Y-110095475D02*
X121429819Y-110000237D01*
X121429819Y-110000237D02*
X121429819Y-109809761D01*
X121429819Y-109809761D02*
X121382200Y-109714523D01*
X121382200Y-109714523D02*
X121334580Y-109666904D01*
X121334580Y-109666904D02*
X121239342Y-109619285D01*
X121239342Y-109619285D02*
X121048866Y-109619285D01*
X121048866Y-109619285D02*
X120953628Y-109666904D01*
X120953628Y-109666904D02*
X120906009Y-109714523D01*
X120906009Y-109714523D02*
X120858390Y-109809761D01*
X128503301Y-114330955D02*
X128169968Y-113854764D01*
X127931873Y-114330955D02*
X127931873Y-113330955D01*
X127931873Y-113330955D02*
X128312825Y-113330955D01*
X128312825Y-113330955D02*
X128408063Y-113378574D01*
X128408063Y-113378574D02*
X128455682Y-113426193D01*
X128455682Y-113426193D02*
X128503301Y-113521431D01*
X128503301Y-113521431D02*
X128503301Y-113664288D01*
X128503301Y-113664288D02*
X128455682Y-113759526D01*
X128455682Y-113759526D02*
X128408063Y-113807145D01*
X128408063Y-113807145D02*
X128312825Y-113854764D01*
X128312825Y-113854764D02*
X127931873Y-113854764D01*
X129455682Y-114330955D02*
X128884254Y-114330955D01*
X129169968Y-114330955D02*
X129169968Y-113330955D01*
X129169968Y-113330955D02*
X129074730Y-113473812D01*
X129074730Y-113473812D02*
X128979492Y-113569050D01*
X128979492Y-113569050D02*
X128884254Y-113616669D01*
X129836635Y-113426193D02*
X129884254Y-113378574D01*
X129884254Y-113378574D02*
X129979492Y-113330955D01*
X129979492Y-113330955D02*
X130217587Y-113330955D01*
X130217587Y-113330955D02*
X130312825Y-113378574D01*
X130312825Y-113378574D02*
X130360444Y-113426193D01*
X130360444Y-113426193D02*
X130408063Y-113521431D01*
X130408063Y-113521431D02*
X130408063Y-113616669D01*
X130408063Y-113616669D02*
X130360444Y-113759526D01*
X130360444Y-113759526D02*
X129789016Y-114330955D01*
X129789016Y-114330955D02*
X130408063Y-114330955D01*
X144791670Y-106229818D02*
X144791670Y-106944103D01*
X144791670Y-106944103D02*
X144744051Y-107086960D01*
X144744051Y-107086960D02*
X144648813Y-107182199D01*
X144648813Y-107182199D02*
X144505956Y-107229818D01*
X144505956Y-107229818D02*
X144410718Y-107229818D01*
X145172623Y-106229818D02*
X145791670Y-106229818D01*
X145791670Y-106229818D02*
X145458337Y-106610770D01*
X145458337Y-106610770D02*
X145601194Y-106610770D01*
X145601194Y-106610770D02*
X145696432Y-106658389D01*
X145696432Y-106658389D02*
X145744051Y-106706008D01*
X145744051Y-106706008D02*
X145791670Y-106801246D01*
X145791670Y-106801246D02*
X145791670Y-107039341D01*
X145791670Y-107039341D02*
X145744051Y-107134579D01*
X145744051Y-107134579D02*
X145696432Y-107182199D01*
X145696432Y-107182199D02*
X145601194Y-107229818D01*
X145601194Y-107229818D02*
X145315480Y-107229818D01*
X145315480Y-107229818D02*
X145220242Y-107182199D01*
X145220242Y-107182199D02*
X145172623Y-107134579D01*
X141398333Y-122979819D02*
X141065000Y-122503628D01*
X140826905Y-122979819D02*
X140826905Y-121979819D01*
X140826905Y-121979819D02*
X141207857Y-121979819D01*
X141207857Y-121979819D02*
X141303095Y-122027438D01*
X141303095Y-122027438D02*
X141350714Y-122075057D01*
X141350714Y-122075057D02*
X141398333Y-122170295D01*
X141398333Y-122170295D02*
X141398333Y-122313152D01*
X141398333Y-122313152D02*
X141350714Y-122408390D01*
X141350714Y-122408390D02*
X141303095Y-122456009D01*
X141303095Y-122456009D02*
X141207857Y-122503628D01*
X141207857Y-122503628D02*
X140826905Y-122503628D01*
X141731667Y-121979819D02*
X142398333Y-121979819D01*
X142398333Y-121979819D02*
X141969762Y-122979819D01*
X141498333Y-119074819D02*
X141165000Y-118598628D01*
X140926905Y-119074819D02*
X140926905Y-118074819D01*
X140926905Y-118074819D02*
X141307857Y-118074819D01*
X141307857Y-118074819D02*
X141403095Y-118122438D01*
X141403095Y-118122438D02*
X141450714Y-118170057D01*
X141450714Y-118170057D02*
X141498333Y-118265295D01*
X141498333Y-118265295D02*
X141498333Y-118408152D01*
X141498333Y-118408152D02*
X141450714Y-118503390D01*
X141450714Y-118503390D02*
X141403095Y-118551009D01*
X141403095Y-118551009D02*
X141307857Y-118598628D01*
X141307857Y-118598628D02*
X140926905Y-118598628D01*
X142403095Y-118074819D02*
X141926905Y-118074819D01*
X141926905Y-118074819D02*
X141879286Y-118551009D01*
X141879286Y-118551009D02*
X141926905Y-118503390D01*
X141926905Y-118503390D02*
X142022143Y-118455771D01*
X142022143Y-118455771D02*
X142260238Y-118455771D01*
X142260238Y-118455771D02*
X142355476Y-118503390D01*
X142355476Y-118503390D02*
X142403095Y-118551009D01*
X142403095Y-118551009D02*
X142450714Y-118646247D01*
X142450714Y-118646247D02*
X142450714Y-118884342D01*
X142450714Y-118884342D02*
X142403095Y-118979580D01*
X142403095Y-118979580D02*
X142355476Y-119027200D01*
X142355476Y-119027200D02*
X142260238Y-119074819D01*
X142260238Y-119074819D02*
X142022143Y-119074819D01*
X142022143Y-119074819D02*
X141926905Y-119027200D01*
X141926905Y-119027200D02*
X141879286Y-118979580D01*
X133858612Y-87129941D02*
X133228691Y-87129941D01*
X133228691Y-87129941D02*
X133228691Y-86979960D01*
X133228691Y-86979960D02*
X133258687Y-86889971D01*
X133258687Y-86889971D02*
X133318679Y-86829979D01*
X133318679Y-86829979D02*
X133378672Y-86799983D01*
X133378672Y-86799983D02*
X133498657Y-86769986D01*
X133498657Y-86769986D02*
X133588646Y-86769986D01*
X133588646Y-86769986D02*
X133708631Y-86799983D01*
X133708631Y-86799983D02*
X133768623Y-86829979D01*
X133768623Y-86829979D02*
X133828616Y-86889971D01*
X133828616Y-86889971D02*
X133858612Y-86979960D01*
X133858612Y-86979960D02*
X133858612Y-87129941D01*
X133228691Y-86560013D02*
X133228691Y-86170062D01*
X133228691Y-86170062D02*
X133468661Y-86380035D01*
X133468661Y-86380035D02*
X133468661Y-86290047D01*
X133468661Y-86290047D02*
X133498657Y-86230054D01*
X133498657Y-86230054D02*
X133528653Y-86200058D01*
X133528653Y-86200058D02*
X133588646Y-86170062D01*
X133588646Y-86170062D02*
X133738627Y-86170062D01*
X133738627Y-86170062D02*
X133798619Y-86200058D01*
X133798619Y-86200058D02*
X133828616Y-86230054D01*
X133828616Y-86230054D02*
X133858612Y-86290047D01*
X133858612Y-86290047D02*
X133858612Y-86470024D01*
X133858612Y-86470024D02*
X133828616Y-86530017D01*
X133828616Y-86530017D02*
X133798619Y-86560013D01*
X117674304Y-124686521D02*
X117691734Y-124751569D01*
X117691734Y-124751569D02*
X117661545Y-124899097D01*
X117661545Y-124899097D02*
X117613926Y-124981576D01*
X117613926Y-124981576D02*
X117501258Y-125081484D01*
X117501258Y-125081484D02*
X117371160Y-125116343D01*
X117371160Y-125116343D02*
X117264872Y-125109964D01*
X117264872Y-125109964D02*
X117076105Y-125055965D01*
X117076105Y-125055965D02*
X116952387Y-124984536D01*
X116952387Y-124984536D02*
X116811240Y-124848059D01*
X116811240Y-124848059D02*
X116752571Y-124759201D01*
X116752571Y-124759201D02*
X116717711Y-124629103D01*
X116717711Y-124629103D02*
X116747900Y-124481576D01*
X116747900Y-124481576D02*
X116795519Y-124399097D01*
X116795519Y-124399097D02*
X116908187Y-124299189D01*
X116908187Y-124299189D02*
X116973236Y-124281759D01*
X118232973Y-123909354D02*
X117947259Y-124404225D01*
X118090116Y-124156789D02*
X117224091Y-123656789D01*
X117224091Y-123656789D02*
X117300190Y-123810697D01*
X117300190Y-123810697D02*
X117335049Y-123940794D01*
X117335049Y-123940794D02*
X117328669Y-124047082D01*
X117676472Y-122873243D02*
X117724091Y-122790764D01*
X117724091Y-122790764D02*
X117812949Y-122732095D01*
X117812949Y-122732095D02*
X117877998Y-122714665D01*
X117877998Y-122714665D02*
X117984286Y-122721045D01*
X117984286Y-122721045D02*
X118173053Y-122775044D01*
X118173053Y-122775044D02*
X118379249Y-122894091D01*
X118379249Y-122894091D02*
X118520397Y-123030569D01*
X118520397Y-123030569D02*
X118579066Y-123119427D01*
X118579066Y-123119427D02*
X118596496Y-123184476D01*
X118596496Y-123184476D02*
X118590116Y-123290764D01*
X118590116Y-123290764D02*
X118542497Y-123373243D01*
X118542497Y-123373243D02*
X118453639Y-123431912D01*
X118453639Y-123431912D02*
X118388590Y-123449341D01*
X118388590Y-123449341D02*
X118282302Y-123442962D01*
X118282302Y-123442962D02*
X118093535Y-123388963D01*
X118093535Y-123388963D02*
X117887338Y-123269915D01*
X117887338Y-123269915D02*
X117746191Y-123133438D01*
X117746191Y-123133438D02*
X117687522Y-123044580D01*
X117687522Y-123044580D02*
X117670092Y-122979531D01*
X117670092Y-122979531D02*
X117676472Y-122873243D01*
X121005057Y-91505238D02*
X120957438Y-91600476D01*
X120957438Y-91600476D02*
X120862200Y-91695714D01*
X120862200Y-91695714D02*
X120719342Y-91838571D01*
X120719342Y-91838571D02*
X120671723Y-91933809D01*
X120671723Y-91933809D02*
X120671723Y-92029047D01*
X120909819Y-91981428D02*
X120862200Y-92076666D01*
X120862200Y-92076666D02*
X120766961Y-92171904D01*
X120766961Y-92171904D02*
X120576485Y-92219523D01*
X120576485Y-92219523D02*
X120243152Y-92219523D01*
X120243152Y-92219523D02*
X120052676Y-92171904D01*
X120052676Y-92171904D02*
X119957438Y-92076666D01*
X119957438Y-92076666D02*
X119909819Y-91981428D01*
X119909819Y-91981428D02*
X119909819Y-91790952D01*
X119909819Y-91790952D02*
X119957438Y-91695714D01*
X119957438Y-91695714D02*
X120052676Y-91600476D01*
X120052676Y-91600476D02*
X120243152Y-91552857D01*
X120243152Y-91552857D02*
X120576485Y-91552857D01*
X120576485Y-91552857D02*
X120766961Y-91600476D01*
X120766961Y-91600476D02*
X120862200Y-91695714D01*
X120862200Y-91695714D02*
X120909819Y-91790952D01*
X120909819Y-91790952D02*
X120909819Y-91981428D01*
X120909819Y-90600476D02*
X120909819Y-91171904D01*
X120909819Y-90886190D02*
X119909819Y-90886190D01*
X119909819Y-90886190D02*
X120052676Y-90981428D01*
X120052676Y-90981428D02*
X120147914Y-91076666D01*
X120147914Y-91076666D02*
X120195533Y-91171904D01*
X140303866Y-79669999D02*
X140303866Y-80336665D01*
X140303866Y-80336665D02*
X138903866Y-80336665D01*
X140237200Y-79269999D02*
X140303866Y-79069999D01*
X140303866Y-79069999D02*
X140303866Y-78736666D01*
X140303866Y-78736666D02*
X140237200Y-78603332D01*
X140237200Y-78603332D02*
X140170533Y-78536666D01*
X140170533Y-78536666D02*
X140037200Y-78469999D01*
X140037200Y-78469999D02*
X139903866Y-78469999D01*
X139903866Y-78469999D02*
X139770533Y-78536666D01*
X139770533Y-78536666D02*
X139703866Y-78603332D01*
X139703866Y-78603332D02*
X139637200Y-78736666D01*
X139637200Y-78736666D02*
X139570533Y-79003332D01*
X139570533Y-79003332D02*
X139503866Y-79136666D01*
X139503866Y-79136666D02*
X139437200Y-79203332D01*
X139437200Y-79203332D02*
X139303866Y-79269999D01*
X139303866Y-79269999D02*
X139170533Y-79269999D01*
X139170533Y-79269999D02*
X139037200Y-79203332D01*
X139037200Y-79203332D02*
X138970533Y-79136666D01*
X138970533Y-79136666D02*
X138903866Y-79003332D01*
X138903866Y-79003332D02*
X138903866Y-78669999D01*
X138903866Y-78669999D02*
X138970533Y-78469999D01*
X140303866Y-77136666D02*
X140303866Y-77936666D01*
X140303866Y-77536666D02*
X138903866Y-77536666D01*
X138903866Y-77536666D02*
X139103866Y-77669999D01*
X139103866Y-77669999D02*
X139237200Y-77803333D01*
X139237200Y-77803333D02*
X139303866Y-77936666D01*
X141498333Y-120289819D02*
X141165000Y-119813628D01*
X140926905Y-120289819D02*
X140926905Y-119289819D01*
X140926905Y-119289819D02*
X141307857Y-119289819D01*
X141307857Y-119289819D02*
X141403095Y-119337438D01*
X141403095Y-119337438D02*
X141450714Y-119385057D01*
X141450714Y-119385057D02*
X141498333Y-119480295D01*
X141498333Y-119480295D02*
X141498333Y-119623152D01*
X141498333Y-119623152D02*
X141450714Y-119718390D01*
X141450714Y-119718390D02*
X141403095Y-119766009D01*
X141403095Y-119766009D02*
X141307857Y-119813628D01*
X141307857Y-119813628D02*
X140926905Y-119813628D01*
X142355476Y-119289819D02*
X142165000Y-119289819D01*
X142165000Y-119289819D02*
X142069762Y-119337438D01*
X142069762Y-119337438D02*
X142022143Y-119385057D01*
X142022143Y-119385057D02*
X141926905Y-119527914D01*
X141926905Y-119527914D02*
X141879286Y-119718390D01*
X141879286Y-119718390D02*
X141879286Y-120099342D01*
X141879286Y-120099342D02*
X141926905Y-120194580D01*
X141926905Y-120194580D02*
X141974524Y-120242200D01*
X141974524Y-120242200D02*
X142069762Y-120289819D01*
X142069762Y-120289819D02*
X142260238Y-120289819D01*
X142260238Y-120289819D02*
X142355476Y-120242200D01*
X142355476Y-120242200D02*
X142403095Y-120194580D01*
X142403095Y-120194580D02*
X142450714Y-120099342D01*
X142450714Y-120099342D02*
X142450714Y-119861247D01*
X142450714Y-119861247D02*
X142403095Y-119766009D01*
X142403095Y-119766009D02*
X142355476Y-119718390D01*
X142355476Y-119718390D02*
X142260238Y-119670771D01*
X142260238Y-119670771D02*
X142069762Y-119670771D01*
X142069762Y-119670771D02*
X141974524Y-119718390D01*
X141974524Y-119718390D02*
X141926905Y-119766009D01*
X141926905Y-119766009D02*
X141879286Y-119861247D01*
X113189819Y-102591666D02*
X112713628Y-102924999D01*
X113189819Y-103163094D02*
X112189819Y-103163094D01*
X112189819Y-103163094D02*
X112189819Y-102782142D01*
X112189819Y-102782142D02*
X112237438Y-102686904D01*
X112237438Y-102686904D02*
X112285057Y-102639285D01*
X112285057Y-102639285D02*
X112380295Y-102591666D01*
X112380295Y-102591666D02*
X112523152Y-102591666D01*
X112523152Y-102591666D02*
X112618390Y-102639285D01*
X112618390Y-102639285D02*
X112666009Y-102686904D01*
X112666009Y-102686904D02*
X112713628Y-102782142D01*
X112713628Y-102782142D02*
X112713628Y-103163094D01*
X113189819Y-102115475D02*
X113189819Y-101924999D01*
X113189819Y-101924999D02*
X113142200Y-101829761D01*
X113142200Y-101829761D02*
X113094580Y-101782142D01*
X113094580Y-101782142D02*
X112951723Y-101686904D01*
X112951723Y-101686904D02*
X112761247Y-101639285D01*
X112761247Y-101639285D02*
X112380295Y-101639285D01*
X112380295Y-101639285D02*
X112285057Y-101686904D01*
X112285057Y-101686904D02*
X112237438Y-101734523D01*
X112237438Y-101734523D02*
X112189819Y-101829761D01*
X112189819Y-101829761D02*
X112189819Y-102020237D01*
X112189819Y-102020237D02*
X112237438Y-102115475D01*
X112237438Y-102115475D02*
X112285057Y-102163094D01*
X112285057Y-102163094D02*
X112380295Y-102210713D01*
X112380295Y-102210713D02*
X112618390Y-102210713D01*
X112618390Y-102210713D02*
X112713628Y-102163094D01*
X112713628Y-102163094D02*
X112761247Y-102115475D01*
X112761247Y-102115475D02*
X112808866Y-102020237D01*
X112808866Y-102020237D02*
X112808866Y-101829761D01*
X112808866Y-101829761D02*
X112761247Y-101734523D01*
X112761247Y-101734523D02*
X112713628Y-101686904D01*
X112713628Y-101686904D02*
X112618390Y-101639285D01*
X123275859Y-115534206D02*
X123225279Y-114955146D01*
X122780988Y-115248491D02*
X123280988Y-114382466D01*
X123280988Y-114382466D02*
X123610902Y-114572942D01*
X123610902Y-114572942D02*
X123669571Y-114661801D01*
X123669571Y-114661801D02*
X123687001Y-114726849D01*
X123687001Y-114726849D02*
X123680621Y-114833138D01*
X123680621Y-114833138D02*
X123609193Y-114956855D01*
X123609193Y-114956855D02*
X123520334Y-115015525D01*
X123520334Y-115015525D02*
X123455285Y-115032954D01*
X123455285Y-115032954D02*
X123348997Y-115026575D01*
X123348997Y-115026575D02*
X123019083Y-114836098D01*
X124100645Y-116010396D02*
X123605774Y-115724682D01*
X123853210Y-115867539D02*
X124353210Y-115001514D01*
X124353210Y-115001514D02*
X124199302Y-115077613D01*
X124199302Y-115077613D02*
X124069205Y-115112472D01*
X124069205Y-115112472D02*
X123962917Y-115106092D01*
X125136756Y-115453895D02*
X125219235Y-115501514D01*
X125219235Y-115501514D02*
X125277904Y-115590372D01*
X125277904Y-115590372D02*
X125295334Y-115655421D01*
X125295334Y-115655421D02*
X125288954Y-115761709D01*
X125288954Y-115761709D02*
X125234955Y-115950476D01*
X125234955Y-115950476D02*
X125115908Y-116156672D01*
X125115908Y-116156672D02*
X124979430Y-116297820D01*
X124979430Y-116297820D02*
X124890572Y-116356489D01*
X124890572Y-116356489D02*
X124825523Y-116373919D01*
X124825523Y-116373919D02*
X124719235Y-116367539D01*
X124719235Y-116367539D02*
X124636756Y-116319920D01*
X124636756Y-116319920D02*
X124578087Y-116231062D01*
X124578087Y-116231062D02*
X124560658Y-116166013D01*
X124560658Y-116166013D02*
X124567037Y-116059725D01*
X124567037Y-116059725D02*
X124621036Y-115870958D01*
X124621036Y-115870958D02*
X124740084Y-115664761D01*
X124740084Y-115664761D02*
X124876561Y-115523614D01*
X124876561Y-115523614D02*
X124965419Y-115464945D01*
X124965419Y-115464945D02*
X125030468Y-115447515D01*
X125030468Y-115447515D02*
X125136756Y-115453895D01*
X158959818Y-112708333D02*
X159674103Y-112708333D01*
X159674103Y-112708333D02*
X159816960Y-112755952D01*
X159816960Y-112755952D02*
X159912199Y-112851190D01*
X159912199Y-112851190D02*
X159959818Y-112994047D01*
X159959818Y-112994047D02*
X159959818Y-113089285D01*
X158959818Y-111803571D02*
X158959818Y-111994047D01*
X158959818Y-111994047D02*
X159007437Y-112089285D01*
X159007437Y-112089285D02*
X159055056Y-112136904D01*
X159055056Y-112136904D02*
X159197913Y-112232142D01*
X159197913Y-112232142D02*
X159388389Y-112279761D01*
X159388389Y-112279761D02*
X159769341Y-112279761D01*
X159769341Y-112279761D02*
X159864579Y-112232142D01*
X159864579Y-112232142D02*
X159912199Y-112184523D01*
X159912199Y-112184523D02*
X159959818Y-112089285D01*
X159959818Y-112089285D02*
X159959818Y-111898809D01*
X159959818Y-111898809D02*
X159912199Y-111803571D01*
X159912199Y-111803571D02*
X159864579Y-111755952D01*
X159864579Y-111755952D02*
X159769341Y-111708333D01*
X159769341Y-111708333D02*
X159531246Y-111708333D01*
X159531246Y-111708333D02*
X159436008Y-111755952D01*
X159436008Y-111755952D02*
X159388389Y-111803571D01*
X159388389Y-111803571D02*
X159340770Y-111898809D01*
X159340770Y-111898809D02*
X159340770Y-112089285D01*
X159340770Y-112089285D02*
X159388389Y-112184523D01*
X159388389Y-112184523D02*
X159436008Y-112232142D01*
X159436008Y-112232142D02*
X159531246Y-112279761D01*
X124406708Y-123872994D02*
X124942819Y-124182517D01*
X124942819Y-124182517D02*
X124463668Y-124345765D01*
X124463668Y-124345765D02*
X124587386Y-124417194D01*
X124587386Y-124417194D02*
X124646055Y-124506052D01*
X124646055Y-124506052D02*
X124663485Y-124571101D01*
X124663485Y-124571101D02*
X124657105Y-124677389D01*
X124657105Y-124677389D02*
X124538057Y-124883586D01*
X124538057Y-124883586D02*
X124449199Y-124942255D01*
X124449199Y-124942255D02*
X124384150Y-124959684D01*
X124384150Y-124959684D02*
X124277862Y-124953305D01*
X124277862Y-124953305D02*
X124030426Y-124810447D01*
X124030426Y-124810447D02*
X123971757Y-124721589D01*
X123971757Y-124721589D02*
X123954327Y-124656540D01*
X125535639Y-125548543D02*
X125040768Y-125262828D01*
X125288203Y-125405686D02*
X125788203Y-124539660D01*
X125788203Y-124539660D02*
X125634296Y-124615759D01*
X125634296Y-124615759D02*
X125504199Y-124650619D01*
X125504199Y-124650619D02*
X125397910Y-124644239D01*
X127790027Y-123873043D02*
X126924002Y-123373043D01*
X126924002Y-123373043D02*
X127043049Y-123166847D01*
X127043049Y-123166847D02*
X127155717Y-123066938D01*
X127155717Y-123066938D02*
X127285815Y-123032079D01*
X127285815Y-123032079D02*
X127392103Y-123038458D01*
X127392103Y-123038458D02*
X127580870Y-123092457D01*
X127580870Y-123092457D02*
X127704588Y-123163886D01*
X127704588Y-123163886D02*
X127845735Y-123300363D01*
X127845735Y-123300363D02*
X127904404Y-123389222D01*
X127904404Y-123389222D02*
X127939264Y-123519319D01*
X127939264Y-123519319D02*
X127909075Y-123666847D01*
X127909075Y-123666847D02*
X127790027Y-123873043D01*
X126954496Y-124748796D02*
X127192591Y-124336403D01*
X127154313Y-124974132D02*
X126454954Y-124185457D01*
X126454954Y-124185457D02*
X127487646Y-124396782D01*
X121208425Y-123573507D02*
X121613187Y-122872439D01*
X121613187Y-122872439D02*
X121619567Y-122766151D01*
X121619567Y-122766151D02*
X121602137Y-122701102D01*
X121602137Y-122701102D02*
X121543468Y-122612244D01*
X121543468Y-122612244D02*
X121378510Y-122517006D01*
X121378510Y-122517006D02*
X121272222Y-122510626D01*
X121272222Y-122510626D02*
X121207174Y-122528056D01*
X121207174Y-122528056D02*
X121118315Y-122586725D01*
X121118315Y-122586725D02*
X120713553Y-123287793D01*
X120390019Y-122991029D02*
X120324970Y-123008459D01*
X120324970Y-123008459D02*
X120218682Y-123002079D01*
X120218682Y-123002079D02*
X120012485Y-122883031D01*
X120012485Y-122883031D02*
X119953816Y-122794173D01*
X119953816Y-122794173D02*
X119936386Y-122729124D01*
X119936386Y-122729124D02*
X119942766Y-122622836D01*
X119942766Y-122622836D02*
X119990385Y-122540357D01*
X119990385Y-122540357D02*
X120103053Y-122440449D01*
X120103053Y-122440449D02*
X120883639Y-122231292D01*
X120883639Y-122231292D02*
X120347528Y-121921768D01*
X122235800Y-122097203D02*
X122354847Y-121891006D01*
X122513425Y-122092533D02*
X122354847Y-121891006D01*
X122354847Y-121891006D02*
X122101032Y-121854437D01*
X122573803Y-121797478D02*
X122354847Y-121891006D01*
X122354847Y-121891006D02*
X122326367Y-121654621D01*
X122780981Y-121152922D02*
X122661934Y-121359119D01*
X122503356Y-121157592D02*
X122661934Y-121359119D01*
X122661934Y-121359119D02*
X122915749Y-121395688D01*
X122442978Y-121452647D02*
X122661934Y-121359119D01*
X122661934Y-121359119D02*
X122690414Y-121595504D01*
X131275048Y-113189714D02*
X131227429Y-113237334D01*
X131227429Y-113237334D02*
X131084572Y-113284953D01*
X131084572Y-113284953D02*
X130989334Y-113284953D01*
X130989334Y-113284953D02*
X130846477Y-113237334D01*
X130846477Y-113237334D02*
X130751239Y-113142095D01*
X130751239Y-113142095D02*
X130703620Y-113046857D01*
X130703620Y-113046857D02*
X130656001Y-112856381D01*
X130656001Y-112856381D02*
X130656001Y-112713524D01*
X130656001Y-112713524D02*
X130703620Y-112523048D01*
X130703620Y-112523048D02*
X130751239Y-112427810D01*
X130751239Y-112427810D02*
X130846477Y-112332572D01*
X130846477Y-112332572D02*
X130989334Y-112284953D01*
X130989334Y-112284953D02*
X131084572Y-112284953D01*
X131084572Y-112284953D02*
X131227429Y-112332572D01*
X131227429Y-112332572D02*
X131275048Y-112380191D01*
X132132191Y-112618286D02*
X132132191Y-113284953D01*
X131894096Y-112237334D02*
X131656001Y-112951619D01*
X131656001Y-112951619D02*
X132275048Y-112951619D01*
X157327722Y-90924633D02*
X156994389Y-90448442D01*
X156756294Y-90924633D02*
X156756294Y-89924633D01*
X156756294Y-89924633D02*
X157137246Y-89924633D01*
X157137246Y-89924633D02*
X157232484Y-89972252D01*
X157232484Y-89972252D02*
X157280103Y-90019871D01*
X157280103Y-90019871D02*
X157327722Y-90115109D01*
X157327722Y-90115109D02*
X157327722Y-90257966D01*
X157327722Y-90257966D02*
X157280103Y-90353204D01*
X157280103Y-90353204D02*
X157232484Y-90400823D01*
X157232484Y-90400823D02*
X157137246Y-90448442D01*
X157137246Y-90448442D02*
X156756294Y-90448442D01*
X158280103Y-90924633D02*
X157708675Y-90924633D01*
X157994389Y-90924633D02*
X157994389Y-89924633D01*
X157994389Y-89924633D02*
X157899151Y-90067490D01*
X157899151Y-90067490D02*
X157803913Y-90162728D01*
X157803913Y-90162728D02*
X157708675Y-90210347D01*
X159137246Y-90257966D02*
X159137246Y-90924633D01*
X158899151Y-89877014D02*
X158661056Y-90591299D01*
X158661056Y-90591299D02*
X159280103Y-90591299D01*
X123664829Y-128268888D02*
X124283419Y-128626031D01*
X124283419Y-128626031D02*
X124383327Y-128738699D01*
X124383327Y-128738699D02*
X124418187Y-128868797D01*
X124418187Y-128868797D02*
X124387997Y-129016324D01*
X124387997Y-129016324D02*
X124340378Y-129098803D01*
X124405885Y-127652008D02*
X124983236Y-127985341D01*
X123956923Y-127667728D02*
X124456465Y-128231068D01*
X124456465Y-128231068D02*
X124765989Y-127694957D01*
X127240872Y-120048483D02*
X127175823Y-120065912D01*
X127175823Y-120065912D02*
X127028296Y-120035723D01*
X127028296Y-120035723D02*
X126945817Y-119988104D01*
X126945817Y-119988104D02*
X126845909Y-119875436D01*
X126845909Y-119875436D02*
X126811049Y-119745339D01*
X126811049Y-119745339D02*
X126817429Y-119639050D01*
X126817429Y-119639050D02*
X126871428Y-119450284D01*
X126871428Y-119450284D02*
X126942856Y-119326566D01*
X126942856Y-119326566D02*
X127079334Y-119185418D01*
X127079334Y-119185418D02*
X127168192Y-119126749D01*
X127168192Y-119126749D02*
X127298290Y-119091889D01*
X127298290Y-119091889D02*
X127445817Y-119122079D01*
X127445817Y-119122079D02*
X127528296Y-119169698D01*
X127528296Y-119169698D02*
X127628204Y-119282366D01*
X127628204Y-119282366D02*
X127645634Y-119347414D01*
X127973839Y-119921804D02*
X127915170Y-119832946D01*
X127915170Y-119832946D02*
X127897740Y-119767897D01*
X127897740Y-119767897D02*
X127904120Y-119661609D01*
X127904120Y-119661609D02*
X127927929Y-119620369D01*
X127927929Y-119620369D02*
X128016788Y-119561700D01*
X128016788Y-119561700D02*
X128081836Y-119544270D01*
X128081836Y-119544270D02*
X128188124Y-119550650D01*
X128188124Y-119550650D02*
X128353082Y-119645888D01*
X128353082Y-119645888D02*
X128411751Y-119734747D01*
X128411751Y-119734747D02*
X128429181Y-119799795D01*
X128429181Y-119799795D02*
X128422801Y-119906084D01*
X128422801Y-119906084D02*
X128398991Y-119947323D01*
X128398991Y-119947323D02*
X128310133Y-120005992D01*
X128310133Y-120005992D02*
X128245084Y-120023422D01*
X128245084Y-120023422D02*
X128138796Y-120017042D01*
X128138796Y-120017042D02*
X127973839Y-119921804D01*
X127973839Y-119921804D02*
X127867551Y-119915424D01*
X127867551Y-119915424D02*
X127802502Y-119932854D01*
X127802502Y-119932854D02*
X127713643Y-119991523D01*
X127713643Y-119991523D02*
X127618405Y-120156480D01*
X127618405Y-120156480D02*
X127612026Y-120262768D01*
X127612026Y-120262768D02*
X127629455Y-120327817D01*
X127629455Y-120327817D02*
X127688124Y-120416676D01*
X127688124Y-120416676D02*
X127853082Y-120511914D01*
X127853082Y-120511914D02*
X127959370Y-120518293D01*
X127959370Y-120518293D02*
X128024419Y-120500864D01*
X128024419Y-120500864D02*
X128113277Y-120442195D01*
X128113277Y-120442195D02*
X128208515Y-120277237D01*
X128208515Y-120277237D02*
X128214895Y-120170949D01*
X128214895Y-120170949D02*
X128197465Y-120105900D01*
X128197465Y-120105900D02*
X128138796Y-120017042D01*
X134504819Y-124268333D02*
X135219104Y-124268333D01*
X135219104Y-124268333D02*
X135361961Y-124315952D01*
X135361961Y-124315952D02*
X135457200Y-124411190D01*
X135457200Y-124411190D02*
X135504819Y-124554047D01*
X135504819Y-124554047D02*
X135504819Y-124649285D01*
X135504819Y-123268333D02*
X135504819Y-123839761D01*
X135504819Y-123554047D02*
X134504819Y-123554047D01*
X134504819Y-123554047D02*
X134647676Y-123649285D01*
X134647676Y-123649285D02*
X134742914Y-123744523D01*
X134742914Y-123744523D02*
X134790533Y-123839761D01*
D12*
%TO.C,J7*%
X106815000Y-94141410D02*
X108195000Y-94141410D01*
X106815000Y-95521410D02*
X106815000Y-94141410D01*
X106815000Y-96791410D02*
X106815000Y-109601410D01*
X106815000Y-96791410D02*
X109575000Y-96791410D01*
X106815000Y-109601410D02*
X109575000Y-109601410D01*
X109575000Y-96791410D02*
X109575000Y-109601410D01*
%TO.C,TP5*%
X147807115Y-117825000D02*
G75*
G02*
X144007115Y-117825000I-1900000J0D01*
G01*
X144007115Y-117825000D02*
G75*
G02*
X147807115Y-117825000I1900000J0D01*
G01*
%TO.C,TP4*%
X140925000Y-126375000D02*
G75*
G02*
X137125000Y-126375000I-1900000J0D01*
G01*
X137125000Y-126375000D02*
G75*
G02*
X140925000Y-126375000I1900000J0D01*
G01*
%TO.C,TP3*%
X134125000Y-126725000D02*
G75*
G02*
X130325000Y-126725000I-1900000J0D01*
G01*
X130325000Y-126725000D02*
G75*
G02*
X134125000Y-126725000I1900000J0D01*
G01*
%TO.C,TP2*%
X140225000Y-86475000D02*
G75*
G02*
X136425000Y-86475000I-1900000J0D01*
G01*
X136425000Y-86475000D02*
G75*
G02*
X140225000Y-86475000I1900000J0D01*
G01*
%TO.C,TP1*%
X118025000Y-112025000D02*
G75*
G02*
X114225000Y-112025000I-1900000J0D01*
G01*
X114225000Y-112025000D02*
G75*
G02*
X118025000Y-112025000I1900000J0D01*
G01*
D13*
%TO.C,D4*%
X131654999Y-89525000D02*
G75*
G02*
X131455001Y-89525000I-99999J0D01*
G01*
X131455001Y-89525000D02*
G75*
G02*
X131654999Y-89525000I99999J0D01*
G01*
D10*
%TO.C,MCU1*%
X125000000Y-93650000D02*
X125000000Y-95450000D01*
X125000000Y-109350000D02*
X125000000Y-111050000D01*
X125000000Y-111050000D02*
X127200000Y-111050000D01*
X127100000Y-93650000D02*
X125000000Y-93650000D01*
X139700000Y-111050000D02*
X141400000Y-111050000D01*
X141400000Y-93650000D02*
X139700000Y-93650000D01*
X141400000Y-95450000D02*
X141400000Y-93650000D01*
X141400000Y-111050000D02*
X141400000Y-109350000D01*
X140500000Y-94450000D02*
G75*
G02*
X140300000Y-94450000I-100000J0D01*
G01*
X140300000Y-94450000D02*
G75*
G02*
X140500000Y-94450000I100000J0D01*
G01*
X140965685Y-94450000D02*
G75*
G02*
X139834315Y-94450000I-565685J0D01*
G01*
X139834315Y-94450000D02*
G75*
G02*
X140965685Y-94450000I565685J0D01*
G01*
D14*
%TO.C,SW2*%
X113037616Y-124485220D02*
X115413297Y-125856818D01*
X115413297Y-125856818D02*
X120544098Y-116970012D01*
X118168417Y-115598413D02*
X113037616Y-124485220D01*
X120544098Y-116970012D02*
X118168417Y-115598413D01*
D13*
%TO.C,D1*%
X129609999Y-89500000D02*
G75*
G02*
X129410001Y-89500000I-99999J0D01*
G01*
X129410001Y-89500000D02*
G75*
G02*
X129609999Y-89500000I99999J0D01*
G01*
D12*
%TO.C,C5*%
X120411610Y-114742850D02*
X120598388Y-114850683D01*
X120771612Y-114119317D02*
X120958390Y-114227150D01*
D13*
%TO.C,J5*%
X145186587Y-95306012D02*
X145186594Y-94256012D01*
X145186593Y-99556012D02*
X145186592Y-97456012D01*
X145186595Y-102756016D02*
X145186598Y-101706016D01*
X153246592Y-103106014D02*
X153246593Y-94256010D01*
X152246595Y-91926013D02*
G75*
G02*
X152046593Y-91926013I-100001J0D01*
G01*
X152046593Y-91926013D02*
G75*
G02*
X152246595Y-91926013I100001J0D01*
G01*
%TO.C,D2*%
X127310000Y-89480000D02*
G75*
G02*
X127110000Y-89480000I-100000J0D01*
G01*
X127110000Y-89480000D02*
G75*
G02*
X127310000Y-89480000I100000J0D01*
G01*
D12*
%TO.C,C9*%
X125911610Y-118752850D02*
X126098388Y-118860683D01*
X126271612Y-118129317D02*
X126458390Y-118237150D01*
D15*
%TO.C,SW1*%
X115950000Y-101435000D02*
X115950000Y-96935000D01*
X117795000Y-96235000D02*
X120095000Y-96235000D01*
X117795000Y-102230000D02*
X120095000Y-102230000D01*
X121940000Y-96935000D02*
X121940000Y-101535000D01*
D13*
X116795000Y-103680000D02*
G75*
G02*
X116595000Y-103680000I-100000J0D01*
G01*
X116595000Y-103680000D02*
G75*
G02*
X116795000Y-103680000I100000J0D01*
G01*
D15*
X120700000Y-99235000D02*
G75*
G02*
X117190000Y-99235000I-1755000J0D01*
G01*
X117190000Y-99235000D02*
G75*
G02*
X120700000Y-99235000I1755000J0D01*
G01*
D12*
%TO.C,L1*%
X123090214Y-121941082D02*
X123489837Y-121248917D01*
X124060163Y-122501083D02*
X124459786Y-121808918D01*
D14*
%TO.C,U5*%
X131426995Y-92490800D02*
X132394404Y-92490798D01*
X132394405Y-90230200D02*
X131426996Y-90230202D01*
D12*
%TO.C,Q2*%
X150333770Y-111375000D02*
X149683770Y-111375000D01*
X150333770Y-111375000D02*
X150983770Y-111375000D01*
X150333770Y-114495000D02*
X149683770Y-114495000D01*
X150333770Y-114495000D02*
X150983770Y-114495000D01*
X149171270Y-111425000D02*
X148931270Y-111095000D01*
X149411270Y-111095000D01*
X149171270Y-111425000D01*
G36*
X149171270Y-111425000D02*
G01*
X148931270Y-111095000D01*
X149411270Y-111095000D01*
X149171270Y-111425000D01*
G37*
D14*
%TO.C,U4*%
X127026996Y-92423800D02*
X127994404Y-92423800D01*
X127994404Y-90163200D02*
X127026996Y-90163200D01*
D12*
%TO.C,C7*%
X127677164Y-126995000D02*
X127892836Y-126995000D01*
X127677164Y-127715000D02*
X127892836Y-127715000D01*
%TO.C,J3*%
X143015001Y-110035001D02*
X143015003Y-111185003D01*
X143015003Y-111185003D02*
X144065000Y-111185002D01*
X144065000Y-111185002D02*
X144064999Y-112175000D01*
X144185000Y-108065000D02*
X146065000Y-108065000D01*
X147235001Y-110035001D02*
X147235004Y-111185001D01*
X147235004Y-111185001D02*
X146185000Y-111185000D01*
D13*
%TO.C,D3*%
X133674998Y-89550000D02*
G75*
G02*
X133475000Y-89550000I-99999J0D01*
G01*
X133475000Y-89550000D02*
G75*
G02*
X133674998Y-89550000I99999J0D01*
G01*
D12*
%TO.C,Q1*%
X121295000Y-91410000D02*
X121295000Y-90760001D01*
X121295000Y-91410000D02*
X121295000Y-92060000D01*
X124415000Y-91410000D02*
X124415000Y-90760000D01*
X124415000Y-91410000D02*
X124415000Y-92059999D01*
X121345000Y-92572500D02*
X121015000Y-92812500D01*
X121015002Y-92332500D01*
X121345000Y-92572500D01*
G36*
X121345000Y-92572500D02*
G01*
X121015000Y-92812500D01*
X121015002Y-92332500D01*
X121345000Y-92572500D01*
G37*
%TO.C,J2*%
X114745000Y-108955000D02*
X114745000Y-107575000D01*
X116125000Y-108955000D02*
X114745000Y-108955000D01*
X117395000Y-106195000D02*
X122585000Y-106195000D01*
X117395000Y-108955000D02*
X117395000Y-106195000D01*
X117395000Y-108955000D02*
X122585000Y-108955000D01*
X122585000Y-108955000D02*
X122585000Y-106195000D01*
D15*
%TO.C,LS1*%
X137875000Y-79325000D02*
G75*
G02*
X125675000Y-79325000I-6100000J0D01*
G01*
X125675000Y-79325000D02*
G75*
G02*
X137875000Y-79325000I6100000J0D01*
G01*
D12*
%TO.C,R10*%
X123151943Y-116727269D02*
X123418057Y-116880910D01*
X123531943Y-116069090D02*
X123798057Y-116222731D01*
%TO.C,J6*%
X153205002Y-110995002D02*
X153205000Y-113754998D01*
X155855000Y-110995000D02*
X153205002Y-110995002D01*
X155855000Y-110995000D02*
X155855000Y-113754999D01*
X155855000Y-113754999D02*
X153205000Y-113754998D01*
X157125000Y-110995000D02*
X158505000Y-110995000D01*
X158505000Y-110995000D02*
X158505000Y-112375000D01*
D14*
%TO.C,U1*%
X124486302Y-123446410D02*
X125960104Y-124297310D01*
X125540402Y-121620656D02*
X124486302Y-123446410D01*
X125960104Y-124297310D02*
X127014204Y-122471556D01*
X127014204Y-122471556D02*
X125540402Y-121620656D01*
%TO.C,U2*%
X120230837Y-120141854D02*
X119958977Y-120612729D01*
X121137977Y-118570641D02*
X120866117Y-119041516D01*
X121654655Y-121591729D02*
X121926515Y-121120854D01*
X122561795Y-120020516D02*
X122833655Y-119549641D01*
D16*
G36*
X121130679Y-121722280D02*
G01*
X121003679Y-121942250D01*
X120673723Y-121751750D01*
X120800723Y-121531779D01*
X121130679Y-121722280D01*
G37*
D12*
%TO.C,J4*%
X119429464Y-127875118D02*
X119954465Y-126965790D01*
X120425393Y-128450117D02*
X119429464Y-127875118D01*
X121014465Y-125129815D02*
X120157100Y-124634816D01*
X121539464Y-124220490D02*
X121014465Y-125129815D01*
X122535393Y-124795490D02*
X121539464Y-124220490D01*
X123656464Y-126793739D02*
X122716464Y-128421867D01*
%TO.C,C8*%
X125211610Y-120282850D02*
X125398388Y-120390683D01*
X125571612Y-119659317D02*
X125758390Y-119767150D01*
D13*
%TO.C,J1*%
X133420000Y-114075000D02*
X133420000Y-114075000D01*
X133420000Y-114075000D02*
X136850000Y-114075000D01*
X133420000Y-123135000D02*
X133420000Y-123135000D01*
X136850000Y-114075000D02*
X136850000Y-114075000D01*
X136850000Y-123135000D02*
X133420000Y-123135000D01*
X136850000Y-123135000D02*
X136850000Y-123135000D01*
X133199999Y-113510001D02*
G75*
G02*
X133000001Y-113510001I-99999J0D01*
G01*
X133000001Y-113510001D02*
G75*
G02*
X133199999Y-113510001I99999J0D01*
G01*
%TD*%
M02*
