%TF.GenerationSoftware,KiCad,Pcbnew,9.0.2*%
%TF.CreationDate,2025-11-14T19:25:59+05:30*%
%TF.ProjectId,Nade,4e616465-2e6b-4696-9361-645f70636258,rev?*%
%TF.SameCoordinates,Original*%
%TF.FileFunction,Paste,Bot*%
%TF.FilePolarity,Positive*%
%FSLAX46Y46*%
G04 Gerber Fmt 4.6, Leading zero omitted, Abs format (unit mm)*
G04 Created by KiCad (PCBNEW 9.0.2) date 2025-11-14 19:25:59*
%MOMM*%
%LPD*%
G01*
G04 APERTURE LIST*
G04 Aperture macros list*
%AMRoundRect*
0 Rectangle with rounded corners*
0 $1 Rounding radius*
0 $2 $3 $4 $5 $6 $7 $8 $9 X,Y pos of 4 corners*
0 Add a 4 corners polygon primitive as box body*
4,1,4,$2,$3,$4,$5,$6,$7,$8,$9,$2,$3,0*
0 Add four circle primitives for the rounded corners*
1,1,$1+$1,$2,$3*
1,1,$1+$1,$4,$5*
1,1,$1+$1,$6,$7*
1,1,$1+$1,$8,$9*
0 Add four rect primitives between the rounded corners*
20,1,$1+$1,$2,$3,$4,$5,0*
20,1,$1+$1,$4,$5,$6,$7,0*
20,1,$1+$1,$6,$7,$8,$9,0*
20,1,$1+$1,$8,$9,$2,$3,0*%
G04 Aperture macros list end*
%ADD10RoundRect,0.150000X0.150000X-0.587500X0.150000X0.587500X-0.150000X0.587500X-0.150000X-0.587500X0*%
%ADD11RoundRect,0.150000X-0.150000X-0.625000X0.150000X-0.625000X0.150000X0.625000X-0.150000X0.625000X0*%
%ADD12RoundRect,0.250000X-0.350000X-0.650000X0.350000X-0.650000X0.350000X0.650000X-0.350000X0.650000X0*%
%ADD13R,2.400000X0.740000*%
%ADD14RoundRect,0.079500X-0.079500X-0.100500X0.079500X-0.100500X0.079500X0.100500X-0.079500X0.100500X0*%
%ADD15RoundRect,0.079500X0.079500X0.100500X-0.079500X0.100500X-0.079500X-0.100500X0.079500X-0.100500X0*%
%ADD16RoundRect,0.150000X0.625000X-0.150000X0.625000X0.150000X-0.625000X0.150000X-0.625000X-0.150000X0*%
%ADD17RoundRect,0.250000X0.650000X-0.350000X0.650000X0.350000X-0.650000X0.350000X-0.650000X-0.350000X0*%
%ADD18R,0.650000X1.350000*%
%ADD19R,0.482600X0.254000*%
%ADD20R,0.254000X0.355600*%
%ADD21R,0.740000X2.790000*%
G04 APERTURE END LIST*
D10*
%TO.C,Q1*%
X123395000Y-109562500D03*
X124344999Y-111437501D03*
X122445001Y-111437501D03*
%TD*%
D11*
%TO.C,J4*%
X124442603Y-90834797D03*
X125442598Y-90834793D03*
D12*
X123142600Y-93359799D03*
X126742599Y-93359800D03*
%TD*%
D13*
%TO.C,J3*%
X134770199Y-99080702D03*
X138670202Y-99080700D03*
X134770199Y-97810703D03*
X138670203Y-97810700D03*
X134770203Y-96540702D03*
X138670202Y-96540700D03*
X134770200Y-95270700D03*
X138670200Y-95270700D03*
X134770198Y-94000700D03*
X138670197Y-94000698D03*
X134770197Y-92730700D03*
X138670201Y-92730697D03*
X134770198Y-91460700D03*
X138670201Y-91460698D03*
%TD*%
D14*
%TO.C,R13*%
X128480002Y-95025000D03*
X129169998Y-95025000D03*
%TD*%
%TO.C,R16*%
X128991402Y-102375000D03*
X129681398Y-102375000D03*
%TD*%
D15*
%TO.C,R17*%
X131181398Y-102325000D03*
X130491402Y-102325000D03*
%TD*%
D16*
%TO.C,J7*%
X140924997Y-105805001D03*
X140925000Y-104805000D03*
X140925000Y-103805000D03*
X140925000Y-102805000D03*
D17*
X137049999Y-107104999D03*
X137050002Y-101505002D03*
%TD*%
D18*
%TO.C,IC1*%
X123185000Y-96175000D03*
X124455000Y-96175000D03*
X125725000Y-96175000D03*
X126995000Y-96175000D03*
X126995000Y-101775000D03*
X125725000Y-101775000D03*
X124455000Y-101775000D03*
X123185000Y-101775000D03*
%TD*%
D14*
%TO.C,R15*%
X126380002Y-103225000D03*
X127069998Y-103225000D03*
%TD*%
D19*
%TO.C,U3*%
X131340100Y-98989599D03*
X131340100Y-99489601D03*
X131340100Y-99989600D03*
X131340100Y-100489599D03*
X131340100Y-100989601D03*
D20*
X130506599Y-101259600D03*
X130006600Y-101259600D03*
X129506601Y-101259600D03*
D19*
X128673100Y-100989601D03*
X128673100Y-100489599D03*
X128673100Y-99989600D03*
X128673100Y-99489601D03*
X128673100Y-98989599D03*
D20*
X129506601Y-98719600D03*
X130006600Y-98719600D03*
X130506599Y-98719600D03*
%TD*%
D14*
%TO.C,R14*%
X130080002Y-95775000D03*
X130769998Y-95775000D03*
%TD*%
D21*
%TO.C,J1*%
X126275000Y-105620001D03*
X126274998Y-109690000D03*
X127545002Y-105620002D03*
X127545001Y-109689998D03*
X128815002Y-105619998D03*
X128815002Y-109690002D03*
X130085000Y-105619998D03*
X130085000Y-109690002D03*
X131354998Y-105619998D03*
X131354998Y-109690002D03*
X132624999Y-105620002D03*
X132624998Y-109689998D03*
X133895002Y-105620000D03*
X133895000Y-109689999D03*
%TD*%
M02*
