%TF.GenerationSoftware,KiCad,Pcbnew,9.0.2*%
%TF.CreationDate,2025-11-09T00:07:38+05:30*%
%TF.ProjectId,Nade,4e616465-2e6b-4696-9361-645f70636258,rev?*%
%TF.SameCoordinates,Original*%
%TF.FileFunction,Paste,Top*%
%TF.FilePolarity,Positive*%
%FSLAX46Y46*%
G04 Gerber Fmt 4.6, Leading zero omitted, Abs format (unit mm)*
G04 Created by KiCad (PCBNEW 9.0.2) date 2025-11-09 00:07:38*
%MOMM*%
%LPD*%
G01*
G04 APERTURE LIST*
G04 Aperture macros list*
%AMRoundRect*
0 Rectangle with rounded corners*
0 $1 Rounding radius*
0 $2 $3 $4 $5 $6 $7 $8 $9 X,Y pos of 4 corners*
0 Add a 4 corners polygon primitive as box body*
4,1,4,$2,$3,$4,$5,$6,$7,$8,$9,$2,$3,0*
0 Add four circle primitives for the rounded corners*
1,1,$1+$1,$2,$3*
1,1,$1+$1,$4,$5*
1,1,$1+$1,$6,$7*
1,1,$1+$1,$8,$9*
0 Add four rect primitives between the rounded corners*
20,1,$1+$1,$2,$3,$4,$5,0*
20,1,$1+$1,$4,$5,$6,$7,0*
20,1,$1+$1,$6,$7,$8,$9,0*
20,1,$1+$1,$8,$9,$2,$3,0*%
%AMRotRect*
0 Rectangle, with rotation*
0 The origin of the aperture is its center*
0 $1 length*
0 $2 width*
0 $3 Rotation angle, in degrees counterclockwise*
0 Add horizontal line*
21,1,$1,$2,0,0,$3*%
G04 Aperture macros list end*
%ADD10C,0.000000*%
%ADD11R,0.630000X0.510000*%
%ADD12RoundRect,0.067500X-0.067500X0.067500X-0.067500X-0.067500X0.067500X-0.067500X0.067500X0.067500X0*%
%ADD13R,1.350000X0.650000*%
%ADD14R,0.650000X1.350000*%
%ADD15R,1.500000X1.500000*%
%ADD16RoundRect,0.079500X-0.079500X-0.100500X0.079500X-0.100500X0.079500X0.100500X-0.079500X0.100500X0*%
%ADD17RoundRect,0.079500X0.100500X-0.079500X0.100500X0.079500X-0.100500X0.079500X-0.100500X-0.079500X0*%
%ADD18RoundRect,0.079500X0.079500X0.100500X-0.079500X0.100500X-0.079500X-0.100500X0.079500X-0.100500X0*%
%ADD19RoundRect,0.140000X-0.206244X-0.077224X0.036244X-0.217224X0.206244X0.077224X-0.036244X0.217224X0*%
%ADD20R,0.700000X0.450000*%
%ADD21R,1.400000X0.950000*%
%ADD22R,1.400000X1.300000*%
%ADD23R,1.200000X0.400000*%
%ADD24R,1.000000X1.300000*%
%ADD25R,0.400000X1.400000*%
%ADD26RoundRect,0.218750X0.220797X-0.380068X0.439547X-0.001182X-0.220797X0.380068X-0.439547X0.001182X0*%
%ADD27R,0.838200X0.355600*%
%ADD28RoundRect,0.150000X-0.587500X-0.150000X0.587500X-0.150000X0.587500X0.150000X-0.587500X0.150000X0*%
%ADD29RoundRect,0.140000X-0.140000X-0.170000X0.140000X-0.170000X0.140000X0.170000X-0.140000X0.170000X0*%
%ADD30RoundRect,0.067500X0.067500X-0.067500X0.067500X0.067500X-0.067500X0.067500X-0.067500X-0.067500X0*%
%ADD31RoundRect,0.150000X-0.150000X-0.625000X0.150000X-0.625000X0.150000X0.625000X-0.150000X0.625000X0*%
%ADD32RoundRect,0.250000X-0.350000X-0.650000X0.350000X-0.650000X0.350000X0.650000X-0.350000X0.650000X0*%
%ADD33RoundRect,0.079500X-0.119099X-0.047286X0.018599X-0.126786X0.119099X0.047286X-0.018599X0.126786X0*%
%ADD34RoundRect,0.079500X-0.047286X0.119099X-0.126786X-0.018599X0.047286X-0.119099X0.126786X0.018599X0*%
%ADD35RoundRect,0.150000X0.150000X-0.587500X0.150000X0.587500X-0.150000X0.587500X-0.150000X-0.587500X0*%
%ADD36RoundRect,0.079500X-0.100500X0.079500X-0.100500X-0.079500X0.100500X-0.079500X0.100500X0.079500X0*%
%ADD37RoundRect,0.135000X-0.209413X-0.092715X0.024413X-0.227715X0.209413X0.092715X-0.024413X0.227715X0*%
%ADD38C,0.228600*%
%ADD39RotRect,0.200000X0.799224X240.000000*%
%ADD40RoundRect,0.150000X-0.466266X0.442404X-0.616266X0.182596X0.466266X-0.442404X0.616266X-0.182596X0*%
%ADD41RoundRect,0.250000X-0.387917X0.628109X-0.737917X0.021891X0.387917X-0.628109X0.737917X-0.021891X0*%
%ADD42R,2.790000X0.740000*%
G04 APERTURE END LIST*
D10*
%TO.C,U2*%
G36*
X120852333Y-120373389D02*
G01*
X120477332Y-121022910D01*
X120347429Y-120947911D01*
X120722430Y-120298390D01*
X120852333Y-120373389D01*
G37*
G36*
X121198745Y-120573390D02*
G01*
X120823744Y-121222911D01*
X120693838Y-121147910D01*
X121068839Y-120498389D01*
X121198745Y-120573390D01*
G37*
G36*
X121052336Y-120026927D02*
G01*
X120977337Y-120156831D01*
X120327817Y-119781831D01*
X120402816Y-119651927D01*
X121052336Y-120026927D01*
G37*
G36*
X121545154Y-120773390D02*
G01*
X121170153Y-121422911D01*
X121040250Y-121347911D01*
X121415251Y-120698390D01*
X121545154Y-120773390D01*
G37*
G36*
X121252338Y-119680516D02*
G01*
X121177339Y-119810419D01*
X120527818Y-119435419D01*
X120602817Y-119305516D01*
X121252338Y-119680516D01*
G37*
G36*
X121752382Y-118814459D02*
G01*
X121377381Y-119463980D01*
X121247478Y-119388980D01*
X121622479Y-118739459D01*
X121752382Y-118814459D01*
G37*
G36*
X122098794Y-119014460D02*
G01*
X121723793Y-119663981D01*
X121593887Y-119588980D01*
X121968888Y-118939459D01*
X122098794Y-119014460D01*
G37*
G36*
X122445203Y-119214459D02*
G01*
X122070202Y-119863980D01*
X121940299Y-119788981D01*
X122315300Y-119139460D01*
X122445203Y-119214459D01*
G37*
G36*
X122264814Y-120726951D02*
G01*
X122189815Y-120856854D01*
X121540294Y-120481854D01*
X121615293Y-120351951D01*
X122264814Y-120726951D01*
G37*
G36*
X122464815Y-120380539D02*
G01*
X122389816Y-120510443D01*
X121740296Y-120135443D01*
X121815295Y-120005539D01*
X122464815Y-120380539D01*
G37*
%TD*%
D11*
%TO.C,D4*%
X131555000Y-87865000D03*
X131555000Y-88785000D03*
%TD*%
D12*
%TO.C,R11*%
X128325000Y-112100000D03*
X128325000Y-112650000D03*
%TD*%
D13*
%TO.C,MCU1*%
X125780000Y-95850000D03*
X125780000Y-96850000D03*
X125780000Y-97850000D03*
X125780000Y-98850000D03*
X125780000Y-99850000D03*
X125780000Y-100850000D03*
X125780000Y-101850000D03*
X125780000Y-102850000D03*
X125780000Y-103850000D03*
X125780000Y-104850000D03*
X125780000Y-105850000D03*
X125780000Y-106850000D03*
X125780000Y-107850000D03*
X125780000Y-108850000D03*
D14*
X127700000Y-110280000D03*
X128700000Y-110280000D03*
X129700000Y-110280000D03*
X130700000Y-110280000D03*
X131700000Y-110280000D03*
X132700000Y-110280000D03*
X133700000Y-110280000D03*
X134700000Y-110280000D03*
X135700000Y-110280000D03*
X136700000Y-110280000D03*
X137700000Y-110280000D03*
X138700000Y-110280000D03*
D13*
X140620000Y-108850000D03*
X140620000Y-107850000D03*
X140620000Y-106850000D03*
X140620000Y-105850000D03*
X140620000Y-104850000D03*
X140620000Y-103850000D03*
X140620000Y-102850000D03*
X140620000Y-101850000D03*
X140620000Y-100850000D03*
X140620000Y-99850000D03*
X140620000Y-98850000D03*
X140620000Y-97850000D03*
X140620000Y-96850000D03*
X140620000Y-95850000D03*
D14*
X138700000Y-94420000D03*
X137700000Y-94420000D03*
X136700000Y-94420000D03*
X135700000Y-94420000D03*
X134700000Y-94420000D03*
X133700000Y-94420000D03*
X132700000Y-94420000D03*
X131700000Y-94420000D03*
X130700000Y-94420000D03*
X129700000Y-94420000D03*
X128700000Y-94420000D03*
X127700000Y-94420000D03*
D15*
X128250000Y-96350000D03*
X128250000Y-99350000D03*
X128250000Y-102350000D03*
X128250000Y-105350000D03*
X128250000Y-108350000D03*
X131550000Y-108350000D03*
X134850000Y-108350000D03*
X138150000Y-108350000D03*
X138150000Y-105350000D03*
X138150000Y-102350000D03*
X138150000Y-99350000D03*
X138150000Y-96350000D03*
X134850000Y-96350000D03*
X131550000Y-96350000D03*
%TD*%
D16*
%TO.C,R18*%
X150330000Y-115675000D03*
X151020000Y-115675000D03*
%TD*%
%TO.C,R4*%
X139510000Y-117275000D03*
X140200000Y-117275000D03*
%TD*%
D17*
%TO.C,C2*%
X142373063Y-104606219D03*
X142373063Y-103916223D03*
%TD*%
D16*
%TO.C,R13*%
X156820377Y-105455881D03*
X157510373Y-105455881D03*
%TD*%
D11*
%TO.C,D1*%
X129510000Y-87840000D03*
X129510000Y-88760000D03*
%TD*%
D18*
%TO.C,C1*%
X130720000Y-116075000D03*
X130030000Y-116075000D03*
%TD*%
D19*
%TO.C,C5*%
X120269308Y-114245000D03*
X121100692Y-114725000D03*
%TD*%
D20*
%TO.C,J5*%
X152206594Y-100526013D03*
D21*
X152746593Y-103981014D03*
D22*
X152746594Y-93206014D03*
D23*
X150446594Y-92756013D03*
X147846596Y-92756014D03*
D24*
X145486596Y-93206012D03*
D25*
X145186594Y-96396014D03*
X145186592Y-100646015D03*
D24*
X145486595Y-103806016D03*
D23*
X147846594Y-104256012D03*
X150446594Y-104256013D03*
D20*
X152206594Y-95326013D03*
X152206594Y-96026013D03*
X152206594Y-96726013D03*
X152206593Y-97426014D03*
X152206595Y-99126013D03*
X152206596Y-99826012D03*
X152206594Y-101226013D03*
X152206593Y-101926011D03*
%TD*%
D16*
%TO.C,C3*%
X133803064Y-111945678D03*
X134493060Y-111945678D03*
%TD*%
D18*
%TO.C,R1*%
X130520000Y-121175000D03*
X129830000Y-121175000D03*
%TD*%
D11*
%TO.C,D2*%
X127210000Y-87820000D03*
X127210000Y-88740000D03*
%TD*%
D19*
%TO.C,C9*%
X125769308Y-118255000D03*
X126600692Y-118735000D03*
%TD*%
D18*
%TO.C,R2*%
X130540000Y-122545000D03*
X129850000Y-122545000D03*
%TD*%
D26*
%TO.C,L1*%
X123243750Y-122795152D03*
X124306250Y-120954848D03*
%TD*%
D27*
%TO.C,U5*%
X132952100Y-92010498D03*
X132952100Y-91360500D03*
X132952102Y-90710501D03*
X130869300Y-90710502D03*
X130869300Y-91360500D03*
X130869298Y-92010499D03*
%TD*%
D16*
%TO.C,R3*%
X139510000Y-116085000D03*
X140200000Y-116085000D03*
%TD*%
D28*
%TO.C,Q2*%
X151271270Y-112935000D03*
X149396270Y-111985000D03*
X149396270Y-113885000D03*
%TD*%
D27*
%TO.C,U4*%
X126469300Y-90643501D03*
X126469300Y-91293500D03*
X126469300Y-91943499D03*
X128552100Y-91943499D03*
X128552100Y-91293500D03*
X128552100Y-90643501D03*
%TD*%
D18*
%TO.C,R15*%
X153209509Y-105785171D03*
X152519513Y-105785171D03*
%TD*%
D29*
%TO.C,C7*%
X127305000Y-127355000D03*
X128265000Y-127355000D03*
%TD*%
D17*
%TO.C,R8*%
X121925000Y-110450000D03*
X121925000Y-109760000D03*
%TD*%
D30*
%TO.C,R12*%
X129246158Y-112651136D03*
X129246158Y-112101136D03*
%TD*%
D31*
%TO.C,J3*%
X144625001Y-111400004D03*
X145625000Y-111400000D03*
D32*
X143325001Y-108875000D03*
X146924998Y-108875002D03*
%TD*%
D16*
%TO.C,R7*%
X139520000Y-122475000D03*
X140210000Y-122475000D03*
%TD*%
%TO.C,R5*%
X139520000Y-118570000D03*
X140210000Y-118570000D03*
%TD*%
D11*
%TO.C,D3*%
X133574999Y-87890000D03*
X133574999Y-88810000D03*
%TD*%
D33*
%TO.C,C6*%
X119876223Y-115202501D03*
X120473777Y-115547499D03*
%TD*%
D34*
%TO.C,C10*%
X119647499Y-121626223D03*
X119302501Y-122223777D03*
%TD*%
D35*
%TO.C,Q1*%
X122855000Y-90472500D03*
X121905001Y-92347501D03*
X123805000Y-92347500D03*
%TD*%
D16*
%TO.C,R6*%
X139520000Y-119885000D03*
X140210000Y-119885000D03*
%TD*%
D36*
%TO.C,R9*%
X114085000Y-102080000D03*
X114085000Y-102770000D03*
%TD*%
D37*
%TO.C,R10*%
X123033327Y-116220000D03*
X123916673Y-116730000D03*
%TD*%
D38*
%TO.C,U1*%
X125796663Y-123678598D03*
X125450253Y-123478598D03*
X125103843Y-123278598D03*
X125996663Y-123332188D03*
X125650253Y-123132188D03*
X125303843Y-122932188D03*
X126196663Y-122985778D03*
X125850253Y-122785778D03*
X125503843Y-122585778D03*
X126396663Y-122639368D03*
X126050253Y-122439368D03*
X125703843Y-122239368D03*
%TD*%
D39*
%TO.C,U2*%
X121902198Y-120604196D03*
%TD*%
D18*
%TO.C,C4*%
X133668060Y-112830134D03*
X132978064Y-112830134D03*
%TD*%
D16*
%TO.C,R14*%
X157625579Y-91519815D03*
X158315581Y-91519813D03*
%TD*%
D40*
%TO.C,J4*%
X120548268Y-125507290D03*
X120048269Y-126373316D03*
D41*
X123384983Y-125643958D03*
X121584982Y-128761648D03*
%TD*%
D19*
%TO.C,C8*%
X125069308Y-119785000D03*
X125900692Y-120265000D03*
%TD*%
D42*
%TO.C,J1*%
X133100000Y-114795000D03*
X137170000Y-114795000D03*
X133100000Y-116064999D03*
X137170000Y-116064999D03*
X133100000Y-117335000D03*
X137170000Y-117335000D03*
X133100000Y-118605000D03*
X137170000Y-118605000D03*
X133100000Y-119875000D03*
X137170000Y-119875000D03*
X133100000Y-121145001D03*
X137170000Y-121145001D03*
X133100000Y-122415000D03*
X137170000Y-122415000D03*
%TD*%
M02*
